<svg width="878" height="791" viewBox="0 0 878 791" fill="none" xmlns="http://www.w3.org/2000/svg">
<g opacity="0.47">
<path opacity="0.47" d="M641.726 217.024L783.755 158.447C791.752 155.149 798.111 148.811 801.433 140.828C804.755 132.845 804.768 123.871 801.469 115.88C798.17 107.889 791.829 101.535 783.842 98.2168C775.855 94.8984 766.875 94.887 758.878 98.1852L535.087 190.477C531.127 192.11 526.884 192.948 522.601 192.942C518.317 192.937 514.077 192.088 510.122 190.445C506.167 188.802 502.575 186.396 499.55 183.365C496.526 180.334 494.129 176.738 492.495 172.781C489.197 164.79 489.211 155.817 492.532 147.835C495.854 139.853 502.212 133.516 510.208 130.217L612.074 88.1974C616.034 86.5647 619.634 84.1685 622.667 81.1456C625.701 78.1227 628.109 74.5324 629.754 70.5796C631.4 66.6268 632.25 62.389 632.256 58.1082C632.263 53.8273 631.425 49.5872 629.792 45.6301C626.493 37.6389 620.152 31.2852 612.165 27.9668C604.177 24.6484 595.198 24.637 587.201 27.9352L69.7094 241.351C65.7497 242.984 62.1504 245.381 59.1171 248.403C56.0838 251.426 53.6759 255.016 52.0308 258.969C50.3858 262.922 49.5359 267.159 49.5296 271.44C49.5234 275.72 50.3609 279.96 51.9943 283.917C53.6271 287.875 56.0242 291.472 59.0487 294.504C62.0731 297.536 65.6656 299.942 69.6211 301.586C73.5765 303.23 77.8174 304.079 82.1015 304.084C86.3855 304.09 90.6289 303.252 94.5892 301.619L175.164 268.388C183.161 265.09 192.141 265.102 200.129 268.421C208.116 271.74 214.456 278.093 217.755 286.085C219.389 290.041 220.226 294.281 220.22 298.562C220.214 302.842 219.364 307.08 217.719 311.033C216.074 314.985 213.666 318.575 210.633 321.598C207.599 324.621 204 327.017 200.04 328.65L62.1197 385.531C54.1228 388.829 47.7638 395.166 44.4416 403.149C41.1195 411.132 41.1062 420.106 44.4047 428.098C46.0381 432.054 48.4354 435.651 51.4598 438.682C54.4842 441.713 58.0764 444.118 62.0314 445.762C65.9864 447.405 70.2266 448.254 74.5101 448.259C78.7935 448.265 83.0362 447.427 86.996 445.794L173.069 410.295C181.066 406.997 190.046 407.009 198.033 410.328C206.02 413.646 212.361 420 215.66 427.991C217.293 431.948 218.131 436.188 218.125 440.469C218.118 444.749 217.268 448.987 215.623 452.939C213.978 456.892 211.571 460.482 208.537 463.505C205.504 466.528 201.905 468.924 197.945 470.557L191.838 473.076C187.876 474.71 184.276 477.107 181.242 480.132C178.208 483.156 175.8 486.749 174.156 490.703C172.511 494.658 171.663 498.898 171.659 503.18C171.654 507.462 172.494 511.703 174.131 515.661C175.764 519.618 178.161 523.215 181.186 526.246C184.21 529.277 187.802 531.683 191.757 533.326C195.712 534.969 199.953 535.818 204.236 535.824C208.52 535.829 212.762 534.992 216.722 533.359L222.514 530.971C226.473 529.338 230.716 528.5 234.999 528.505C239.283 528.511 243.523 529.36 247.478 531.003C251.433 532.646 255.025 535.052 258.049 538.083C261.073 541.114 263.47 544.71 265.104 548.667C266.737 552.624 267.575 556.864 267.569 561.144C267.563 565.425 266.713 569.663 265.068 573.615C263.423 577.568 261.016 581.159 257.982 584.182C254.949 587.205 251.35 589.601 247.39 591.234L161.634 626.6C153.637 629.898 147.279 636.236 143.957 644.219C140.635 652.201 140.622 661.175 143.921 669.167C147.22 677.158 153.56 683.512 161.548 686.83C169.535 690.148 178.515 690.16 186.512 686.862L343.209 622.237C347.169 620.604 351.412 619.766 355.695 619.771C359.979 619.777 364.219 620.626 368.174 622.269C372.129 623.912 375.721 626.318 378.746 629.349C381.77 632.379 384.167 635.976 385.801 639.933C387.434 643.89 388.272 648.13 388.266 652.411C388.259 656.692 387.409 660.93 385.764 664.883C384.119 668.836 381.71 672.427 378.677 675.45C375.643 678.473 372.043 680.869 368.083 682.502L342.97 692.858C334.973 696.156 328.615 702.494 325.293 710.476C321.971 718.459 321.958 727.433 325.256 735.424C326.89 739.381 329.287 742.978 332.311 746.009C335.336 749.039 338.928 751.445 342.883 753.088C346.838 754.731 351.078 755.58 355.362 755.585C359.645 755.59 363.888 754.753 367.847 753.119L766.841 588.568C774.838 585.269 781.197 578.932 784.518 570.949C787.84 562.966 787.853 553.992 784.554 546.001C782.921 542.044 780.524 538.447 777.499 535.416C774.475 532.386 770.883 529.98 766.928 528.337C762.973 526.693 758.732 525.845 754.449 525.839C750.166 525.834 745.923 526.671 741.963 528.304L730.226 533.145C722.23 536.444 713.251 536.433 705.263 533.116C697.276 529.799 690.935 523.446 687.635 515.456C686.002 511.499 685.165 507.259 685.172 502.978C685.178 498.698 686.028 494.46 687.674 490.507C689.319 486.554 691.728 482.964 694.761 479.942C697.795 476.919 701.395 474.523 705.355 472.89L782.534 441.056C786.494 439.423 790.094 437.027 793.127 434.004C796.16 430.981 798.568 427.39 800.213 423.438C801.858 419.485 802.708 415.247 802.714 410.967C802.72 406.686 801.883 402.446 800.249 398.489C798.616 394.532 796.219 390.936 793.194 387.905C790.17 384.874 786.578 382.468 782.623 380.825C778.668 379.182 774.427 378.333 770.144 378.328C765.861 378.322 761.618 379.16 757.658 380.793L648.22 425.923C644.26 427.556 640.018 428.394 635.734 428.388C631.451 428.383 627.211 427.534 623.256 425.891C619.301 424.248 615.708 421.842 612.684 418.811C609.66 415.78 607.262 412.184 605.629 408.227C602.333 400.236 602.347 391.263 605.67 383.282C608.992 375.301 615.351 368.965 623.346 365.667L700.835 333.709C704.795 332.077 708.394 329.68 711.428 326.657C714.461 323.634 716.869 320.044 718.513 316.091C720.158 312.138 721.008 307.901 721.014 303.62C721.02 299.339 720.183 295.1 718.549 291.143C716.917 287.184 714.52 283.586 711.496 280.554C708.473 277.521 704.88 275.114 700.925 273.469C696.97 271.825 692.729 270.975 688.444 270.969C684.16 270.963 679.916 271.8 675.956 273.434L666.605 277.29C658.608 280.588 649.629 280.577 641.641 277.258C633.654 273.94 627.313 267.586 624.014 259.595C622.38 255.638 621.542 251.398 621.548 247.117C621.553 242.836 622.403 238.598 624.047 234.645C625.692 230.692 628.1 227.101 631.133 224.078C634.166 221.054 637.766 218.657 641.726 217.024Z" fill="#004789"/>
<g style="mix-blend-mode:multiply" opacity="0.47">
<path d="M770.367 223.657L762.65 226.839C747.005 233.291 739.555 251.196 746.008 266.829L746.01 266.834C752.464 282.468 770.378 289.911 786.023 283.459L793.74 280.276C809.385 273.824 816.836 255.92 810.382 240.286L810.38 240.281C803.927 224.647 786.012 217.204 770.367 223.657Z" fill="#004789"/>
</g>
</g>
</svg>
