<svg width="792" height="791" viewBox="0 0 792 791" fill="none" xmlns="http://www.w3.org/2000/svg">
<g opacity="0.47">
<path opacity="0.47" d="M641.208 216.963L783.238 158.386C791.235 155.088 797.594 148.75 800.916 140.767C804.237 132.785 804.25 123.81 800.951 115.819C797.652 107.828 791.312 101.474 783.324 98.156C775.337 94.8376 766.357 94.8262 758.36 98.1244L534.569 190.416C530.609 192.049 526.367 192.887 522.083 192.882C517.8 192.876 513.559 192.027 509.605 190.384C505.65 188.741 502.057 186.335 499.033 183.304C496.009 180.274 493.611 176.677 491.978 172.72C488.68 164.729 488.693 155.756 492.015 147.774C495.336 139.792 501.694 133.455 509.69 130.156L611.556 88.1366C615.516 86.5039 619.116 84.1077 622.15 81.0848C625.183 78.062 627.592 74.4716 629.237 70.5188C630.882 66.566 631.732 62.3282 631.739 58.0474C631.745 53.7665 630.908 49.5264 629.274 45.5693C625.975 37.5781 619.635 31.2245 611.647 27.906C603.66 24.5876 594.68 24.5762 586.683 27.8744L69.1919 241.291C65.2321 242.924 61.6328 245.32 58.5995 248.343C55.5662 251.365 53.1583 254.956 51.5133 258.908C49.8682 262.861 49.0183 267.098 49.0121 271.379C49.0058 275.66 49.8433 279.899 51.4767 283.856C53.1096 287.814 55.5066 291.412 58.5311 294.443C61.5555 297.475 65.148 299.881 69.1035 301.525C73.0589 303.169 77.2998 304.018 81.5839 304.024C85.868 304.029 90.1113 303.191 94.0716 301.558L174.647 268.327C182.644 265.03 191.624 265.041 199.611 268.36C207.598 271.679 213.939 278.033 217.238 286.024C218.871 289.981 219.709 294.22 219.703 298.501C219.696 302.782 218.846 307.019 217.201 310.972C215.556 314.924 213.148 318.515 210.115 321.537C207.082 324.56 203.483 326.956 199.523 328.589L61.6021 385.47C53.6052 388.768 47.2462 395.106 43.9241 403.088C40.6019 411.071 40.5886 420.045 43.8872 428.037C45.5205 431.994 47.9178 435.59 50.9422 438.621C53.9666 441.652 57.5588 444.058 61.5138 445.701C65.4688 447.344 69.7091 448.193 73.9925 448.198C78.2759 448.204 82.5187 447.366 86.4784 445.733L172.551 410.234C180.548 406.936 189.528 406.948 197.516 410.267C205.503 413.586 211.843 419.939 215.142 427.931C216.776 431.887 217.613 436.127 217.607 440.408C217.601 444.688 216.751 448.926 215.106 452.879C213.461 456.831 211.053 460.421 208.02 463.444C204.986 466.467 201.387 468.863 197.427 470.496L191.32 473.015C187.359 474.649 183.758 477.047 180.724 480.071C177.691 483.096 175.283 486.688 173.638 490.643C171.994 494.597 171.145 498.837 171.141 503.119C171.137 507.402 171.977 511.643 173.613 515.6C175.246 519.557 177.644 523.154 180.668 526.185C183.692 529.216 187.285 531.622 191.24 533.265C195.195 534.909 199.435 535.757 203.718 535.763C208.002 535.768 212.245 534.931 216.205 533.298L221.996 530.91C225.956 529.277 230.199 528.439 234.482 528.445C238.765 528.45 243.005 529.299 246.96 530.942C250.915 532.585 254.507 534.991 257.531 538.022C260.556 541.053 262.953 544.649 264.586 548.606C266.22 552.563 267.057 556.803 267.051 561.084C267.045 565.364 266.196 569.602 264.551 573.555C262.906 577.507 260.498 581.098 257.465 584.121C254.432 587.144 250.832 589.54 246.873 591.173L161.117 626.539C153.12 629.837 146.761 636.175 143.439 644.158C140.117 652.141 140.104 661.115 143.403 669.106C146.702 677.097 153.043 683.451 161.03 686.769C169.018 690.088 177.997 690.099 185.994 686.801L342.692 622.176C346.652 620.543 350.894 619.705 355.178 619.711C359.461 619.716 363.701 620.565 367.656 622.208C371.611 623.851 375.204 626.257 378.228 629.288C381.252 632.319 383.65 635.915 385.283 639.872C386.917 643.829 387.754 648.07 387.748 652.351C387.742 656.632 386.892 660.87 385.246 664.823C383.601 668.776 381.193 672.366 378.159 675.389C375.125 678.412 371.526 680.808 367.565 682.441L342.452 692.797C334.456 696.095 328.097 702.433 324.775 710.416C321.453 718.398 321.44 727.372 324.739 735.364C326.372 739.32 328.769 742.917 331.794 745.948C334.818 748.979 338.41 751.384 342.365 753.027C346.32 754.671 350.561 755.519 354.844 755.524C359.127 755.53 363.37 754.692 367.33 753.058L766.323 588.507C774.32 585.209 780.679 578.871 784.001 570.888C787.323 562.905 787.336 553.931 784.037 545.94C782.403 541.983 780.006 538.386 776.982 535.356C773.957 532.325 770.365 529.919 766.41 528.276C762.455 526.633 758.215 525.784 753.931 525.778C749.648 525.773 745.405 526.611 741.446 528.244L729.708 533.085C721.712 536.383 712.733 536.372 704.746 533.055C696.759 529.738 690.418 523.386 687.118 515.396C685.485 511.438 684.647 507.198 684.654 502.918C684.661 498.637 685.511 494.399 687.156 490.446C688.802 486.494 691.21 482.903 694.244 479.881C697.277 476.858 700.877 474.462 704.837 472.829L782.017 440.995C785.977 439.362 789.576 436.966 792.609 433.943C795.643 430.92 798.05 427.33 799.695 423.377C801.34 419.424 802.19 415.186 802.197 410.906C802.203 406.625 801.365 402.385 799.732 398.428C798.098 394.471 795.701 390.875 792.677 387.844C789.652 384.813 786.06 382.407 782.105 380.764C778.15 379.121 773.91 378.272 769.626 378.267C765.343 378.261 761.1 379.099 757.14 380.732L647.703 425.862C643.743 427.495 639.5 428.333 635.217 428.328C630.933 428.322 626.693 427.473 622.738 425.83C618.783 424.187 615.191 421.781 612.166 418.75C609.142 415.719 606.745 412.123 605.111 408.166C601.815 400.175 601.83 391.202 605.152 383.221C608.475 375.24 614.833 368.904 622.829 365.606L700.318 333.649C704.277 332.016 707.877 329.619 710.91 326.596C713.943 323.573 716.351 319.983 717.996 316.03C719.641 312.078 720.491 307.84 720.497 303.559C720.503 299.279 719.665 295.039 718.031 291.082C716.399 287.124 714.003 283.525 710.979 280.493C707.955 277.46 704.363 275.053 700.407 273.409C696.452 271.764 692.211 270.914 687.927 270.908C683.643 270.902 679.399 271.74 675.438 273.373L666.088 277.229C658.091 280.527 649.111 280.516 641.124 277.198C633.136 273.879 626.796 267.525 623.497 259.534C621.863 255.577 621.024 251.337 621.03 247.056C621.036 242.775 621.885 238.537 623.53 234.584C625.175 230.631 627.582 227.04 630.616 224.017C633.649 220.993 637.248 218.597 641.208 216.963Z" fill="#004789"/>
<g style="mix-blend-mode:multiply" opacity="0.47">
<path d="M769.85 223.596L762.133 226.778C746.488 233.231 739.037 251.135 745.491 266.769L745.493 266.774C751.946 282.407 769.861 289.85 785.506 283.398L793.223 280.216C808.868 273.763 816.319 255.859 809.865 240.225L809.863 240.22C803.409 224.587 785.495 217.144 769.85 223.596Z" fill="#004789"/>
</g>
</g>
</svg>
