<svg width="480" height="220" viewBox="0 0 480 220" fill="none" xmlns="http://www.w3.org/2000/svg">
<path d="M473.232 219.838H6.76798C3.00799 219.838 0 217.134 0 213.755C0 210.376 3.00799 207.672 6.76798 207.672H473.232C476.992 207.672 480 210.376 480 213.755C480 217.134 476.992 219.838 473.232 219.838Z" fill="#C9C9C9"/>
<path opacity="0.28" d="M138.83 127.162H126.51V158.43H138.83V127.162Z" fill="#1F3969" stroke="#1F3969" stroke-width="2.67816" stroke-miterlimit="10" stroke-linecap="round" stroke-linejoin="round"/>
<path opacity="0.28" d="M146.597 158.43H126.51V168.473C126.51 174.766 131.599 179.922 137.96 179.922H151.149C151.149 179.855 151.149 179.788 151.149 179.721V162.982C151.149 160.438 149.141 158.43 146.597 158.43Z" fill="#1F3969" stroke="#1F3969" stroke-width="2.67816" stroke-miterlimit="10" stroke-linecap="round" stroke-linejoin="round"/>
<path d="M84.3289 154.412C77.9013 154.412 72.7458 149.19 72.7458 142.829C72.7458 136.469 77.9683 131.246 84.3289 131.246H149.944V154.479H84.3289V154.412Z" fill="#CECECE"/>
<path d="M153.761 158.43H84.3292C75.6921 158.43 68.7289 151.4 68.7289 142.83C68.7289 134.193 75.7591 127.23 84.3292 127.23H153.761V158.43Z" fill="white"/>
<path d="M80.0441 139.214H149.944" stroke="#1F3969" stroke-width="2.67816" stroke-miterlimit="10" stroke-linecap="round" stroke-linejoin="round"/>
<path d="M80.0441 146.311H149.944" stroke="#1F3969" stroke-width="2.67816" stroke-miterlimit="10" stroke-linecap="round" stroke-linejoin="round"/>
<path d="M84.3289 154.412C77.9013 154.412 72.7458 149.19 72.7458 142.829C72.7458 136.469 77.9683 131.246 84.3289 131.246H149.944V154.479H84.3289V154.412Z" stroke="#1F3969" stroke-width="2.67816" stroke-miterlimit="10" stroke-linecap="round" stroke-linejoin="round"/>
<path d="M84.3292 154.413C77.9016 154.413 72.7461 149.191 72.7461 142.83C72.7461 136.469 77.9685 131.247 84.3292 131.247H151.082L153.761 127.23H84.3292C75.6921 127.23 68.7289 134.26 68.7289 142.83C68.7289 151.467 75.7591 158.43 84.3292 158.43H153.761L151.082 154.413H84.3292Z" fill="#FF3E3E"/>
<path d="M84.3292 154.413C77.9016 154.413 72.7461 149.191 72.7461 142.83C72.7461 136.469 77.9685 131.247 84.3292 131.247H151.082L153.761 127.23H84.3292C75.6921 127.23 68.7289 134.26 68.7289 142.83C68.7289 151.467 75.7591 158.43 84.3292 158.43H153.761L151.082 154.413H84.3292Z" stroke="#1F3969" stroke-width="2.67816" stroke-miterlimit="10" stroke-linecap="round" stroke-linejoin="round"/>
<path d="M146.597 184.207H19.4507C16.9734 184.207 14.8978 182.198 14.8978 179.654V162.916C14.8978 160.438 16.9065 158.363 19.4507 158.363H146.597C149.074 158.363 151.149 160.371 151.149 162.916V179.654C151.149 182.198 149.141 184.207 146.597 184.207Z" fill="#50B56F"/>
<path d="M43.7622 168.037V175.145H45.325V172.079H48.2017V175.145H49.7644V168.037H48.2017V170.765H45.325V168.037H43.7622Z" fill="#FBFBFB"/>
<path d="M54.7037 169.351V175.145H56.2664V169.351H58.3966V168.037H52.5735V169.351H54.7037Z" fill="#FBFBFB"/>
<path d="M61.2068 168.037V175.145H62.6701V170.158H62.69L64.4319 175.145H65.6363L67.3783 170.108H67.3982V175.145H68.8614V168.037H66.6616L65.0889 172.925H65.069L63.4067 168.037H61.2068Z" fill="#FBFBFB"/>
<path d="M72.2281 168.037V175.145H77.2548V173.831H73.7908V168.037H72.2281Z" fill="#FBFBFB"/>
<path d="M82.1001 167.868L79.3329 175.304H80.4577L83.2349 167.868H82.1001Z" fill="#FBFBFB"/>
<path d="M90.542 170.426H92.055C92.0085 170.015 91.8957 169.65 91.7165 169.331C91.5374 169.013 91.3084 168.747 91.0297 168.535C90.7576 168.316 90.4457 168.15 90.094 168.037C89.749 167.925 89.3807 167.868 88.9892 167.868C88.445 167.868 87.9539 167.964 87.516 168.157C87.0846 168.349 86.7197 168.615 86.421 168.953C86.1224 169.292 85.8935 169.69 85.7342 170.148C85.575 170.599 85.4953 171.09 85.4953 171.621C85.4953 172.138 85.575 172.623 85.7342 173.074C85.8935 173.519 86.1224 173.907 86.421 174.239C86.7197 174.571 87.0846 174.833 87.516 175.025C87.9539 175.211 88.445 175.304 88.9892 175.304C89.4271 175.304 89.8286 175.237 90.1936 175.105C90.5586 174.972 90.8771 174.78 91.1492 174.527C91.4212 174.275 91.6402 173.97 91.8061 173.612C91.972 173.253 92.0749 172.852 92.1147 172.407H90.6017C90.542 172.885 90.3761 173.27 90.104 173.562C89.8386 173.854 89.4669 174 88.9892 174C88.6374 174 88.3388 173.933 88.0933 173.801C87.8478 173.661 87.6487 173.479 87.4961 173.253C87.3434 173.028 87.2306 172.775 87.1576 172.497C87.0913 172.211 87.0581 171.919 87.0581 171.621C87.0581 171.309 87.0913 171.007 87.1576 170.715C87.2306 170.423 87.3434 170.164 87.4961 169.939C87.6487 169.706 87.8478 169.524 88.0933 169.391C88.3388 169.252 88.6374 169.182 88.9892 169.182C89.1816 169.182 89.3641 169.215 89.5366 169.282C89.7158 169.341 89.8751 169.428 90.0144 169.54C90.1538 169.653 90.2699 169.786 90.3628 169.939C90.4557 170.085 90.5154 170.247 90.542 170.426Z" fill="#FBFBFB"/>
<path d="M96.2377 172.785H94.7247C94.7181 173.223 94.7977 173.602 94.9636 173.92C95.1295 174.239 95.3518 174.501 95.6305 174.707C95.9159 174.912 96.241 175.062 96.606 175.154C96.9776 175.254 97.3592 175.304 97.7507 175.304C98.2351 175.304 98.6598 175.247 99.0248 175.135C99.3964 175.022 99.705 174.866 99.9505 174.667C100.203 174.461 100.392 174.219 100.518 173.94C100.644 173.661 100.707 173.359 100.707 173.034C100.707 172.636 100.621 172.311 100.448 172.059C100.282 171.8 100.083 171.594 99.851 171.442C99.6187 171.289 99.3831 171.18 99.1442 171.113C98.912 171.04 98.7295 170.99 98.5968 170.964C98.1522 170.851 97.7905 170.758 97.5118 170.685C97.2397 170.612 97.0241 170.539 96.8648 170.466C96.7122 170.393 96.6093 170.314 96.5562 170.227C96.5031 170.141 96.4766 170.028 96.4766 169.889C96.4766 169.736 96.5098 169.61 96.5761 169.511C96.6425 169.411 96.7254 169.328 96.825 169.262C96.9312 169.195 97.0473 169.149 97.1734 169.122C97.2995 169.096 97.4255 169.083 97.5516 169.083C97.7441 169.083 97.9199 169.099 98.0792 169.132C98.2451 169.166 98.3911 169.222 98.5172 169.302C98.6432 169.381 98.7428 169.491 98.8158 169.63C98.8954 169.769 98.9418 169.945 98.9551 170.158H100.468C100.468 169.746 100.388 169.398 100.229 169.112C100.077 168.82 99.8676 168.582 99.6021 168.396C99.3367 168.21 99.0314 168.077 98.6864 167.998C98.3479 167.911 97.9929 167.868 97.6213 167.868C97.3028 167.868 96.9842 167.911 96.6657 167.998C96.3472 168.084 96.0618 168.217 95.8097 168.396C95.5575 168.575 95.3518 168.801 95.1925 169.073C95.0399 169.338 94.9636 169.653 94.9636 170.018C94.9636 170.343 95.0233 170.622 95.1428 170.854C95.2689 171.08 95.4314 171.269 95.6305 171.422C95.8296 171.574 96.0552 171.7 96.3074 171.8C96.5595 171.893 96.8183 171.973 97.0838 172.039C97.3426 172.112 97.5981 172.178 97.8502 172.238C98.1024 172.298 98.328 172.367 98.5271 172.447C98.7262 172.527 98.8854 172.626 99.0049 172.746C99.131 172.865 99.194 173.021 99.194 173.213C99.194 173.393 99.1476 173.542 99.0547 173.661C98.9618 173.774 98.8456 173.864 98.7063 173.93C98.5669 173.997 98.4176 174.043 98.2583 174.069C98.0991 174.089 97.9498 174.099 97.8104 174.099C97.6047 174.099 97.4056 174.076 97.2132 174.03C97.0207 173.977 96.8515 173.9 96.7055 173.801C96.5662 173.695 96.4534 173.559 96.3671 173.393C96.2808 173.227 96.2377 173.024 96.2377 172.785Z" fill="#FBFBFB"/>
<path d="M104.693 172.785H103.18C103.173 173.223 103.253 173.602 103.419 173.92C103.584 174.239 103.807 174.501 104.086 174.707C104.371 174.912 104.696 175.062 105.061 175.154C105.433 175.254 105.814 175.304 106.206 175.304C106.69 175.304 107.115 175.247 107.48 175.135C107.851 175.022 108.16 174.866 108.406 174.667C108.658 174.461 108.847 174.219 108.973 173.94C109.099 173.661 109.162 173.359 109.162 173.034C109.162 172.636 109.076 172.311 108.903 172.059C108.737 171.8 108.538 171.594 108.306 171.442C108.074 171.289 107.838 171.18 107.599 171.113C107.367 171.04 107.185 170.99 107.052 170.964C106.607 170.851 106.246 170.758 105.967 170.685C105.695 170.612 105.479 170.539 105.32 170.466C105.167 170.393 105.064 170.314 105.011 170.227C104.958 170.141 104.932 170.028 104.932 169.889C104.932 169.736 104.965 169.61 105.031 169.511C105.097 169.411 105.18 169.328 105.28 169.262C105.386 169.195 105.502 169.149 105.628 169.122C105.754 169.096 105.881 169.083 106.007 169.083C106.199 169.083 106.375 169.099 106.534 169.132C106.7 169.166 106.846 169.222 106.972 169.302C107.098 169.381 107.198 169.491 107.271 169.63C107.35 169.769 107.397 169.945 107.41 170.158H108.923C108.923 169.746 108.843 169.398 108.684 169.112C108.532 168.82 108.323 168.582 108.057 168.396C107.792 168.21 107.486 168.077 107.141 167.998C106.803 167.911 106.448 167.868 106.076 167.868C105.758 167.868 105.439 167.911 105.121 167.998C104.802 168.084 104.517 168.217 104.265 168.396C104.013 168.575 103.807 168.801 103.648 169.073C103.495 169.338 103.419 169.653 103.419 170.018C103.419 170.343 103.478 170.622 103.598 170.854C103.724 171.08 103.886 171.269 104.086 171.422C104.285 171.574 104.51 171.7 104.762 171.8C105.015 171.893 105.273 171.973 105.539 172.039C105.798 172.112 106.053 172.178 106.305 172.238C106.557 172.298 106.783 172.367 106.982 172.447C107.181 172.527 107.34 172.626 107.46 172.746C107.586 172.865 107.649 173.021 107.649 173.213C107.649 173.393 107.603 173.542 107.51 173.661C107.417 173.774 107.301 173.864 107.161 173.93C107.022 173.997 106.873 174.043 106.713 174.069C106.554 174.089 106.405 174.099 106.265 174.099C106.06 174.099 105.861 174.076 105.668 174.03C105.476 173.977 105.307 173.9 105.161 173.801C105.021 173.695 104.908 173.559 104.822 173.393C104.736 173.227 104.693 173.024 104.693 172.785Z" fill="#FBFBFB"/>
<path d="M114.063 167.868L111.296 175.304H112.421L115.198 167.868H114.063Z" fill="#FBFBFB"/>
<path d="M121.928 172.905V168.037H120.365V172.835C120.365 172.961 120.359 173.094 120.345 173.233C120.339 173.366 120.309 173.492 120.256 173.612C120.209 173.724 120.13 173.817 120.017 173.89C119.904 173.963 119.745 174 119.539 174C119.353 174 119.201 173.97 119.081 173.91C118.968 173.851 118.879 173.771 118.812 173.671C118.746 173.565 118.7 173.439 118.673 173.293C118.647 173.147 118.633 172.988 118.633 172.815V172.497H117.22V173.114C117.22 173.505 117.286 173.841 117.419 174.119C117.552 174.391 117.727 174.617 117.946 174.796C118.165 174.969 118.414 175.095 118.693 175.174C118.972 175.261 119.26 175.304 119.559 175.304C120.09 175.304 120.511 175.224 120.823 175.065C121.135 174.899 121.374 174.697 121.54 174.458C121.706 174.212 121.812 173.95 121.858 173.671C121.905 173.393 121.928 173.137 121.928 172.905Z" fill="#FBFBFB"/>
<path d="M126.354 172.785H124.841C124.835 173.223 124.914 173.602 125.08 173.92C125.246 174.239 125.468 174.501 125.747 174.707C126.032 174.912 126.357 175.062 126.722 175.154C127.094 175.254 127.476 175.304 127.867 175.304C128.352 175.304 128.776 175.247 129.141 175.135C129.513 175.022 129.821 174.866 130.067 174.667C130.319 174.461 130.508 174.219 130.634 173.94C130.76 173.661 130.823 173.359 130.823 173.034C130.823 172.636 130.737 172.311 130.565 172.059C130.399 171.8 130.2 171.594 129.967 171.442C129.735 171.289 129.5 171.18 129.261 171.113C129.028 171.04 128.846 170.99 128.713 170.964C128.269 170.851 127.907 170.758 127.628 170.685C127.356 170.612 127.14 170.539 126.981 170.466C126.829 170.393 126.726 170.314 126.673 170.227C126.62 170.141 126.593 170.028 126.593 169.889C126.593 169.736 126.626 169.61 126.693 169.511C126.759 169.411 126.842 169.328 126.941 169.262C127.048 169.195 127.164 169.149 127.29 169.122C127.416 169.096 127.542 169.083 127.668 169.083C127.86 169.083 128.036 169.099 128.196 169.132C128.362 169.166 128.507 169.222 128.634 169.302C128.76 169.381 128.859 169.491 128.932 169.63C129.012 169.769 129.058 169.945 129.072 170.158H130.585C130.585 169.746 130.505 169.398 130.346 169.112C130.193 168.82 129.984 168.582 129.719 168.396C129.453 168.21 129.148 168.077 128.803 167.998C128.464 167.911 128.109 167.868 127.738 167.868C127.419 167.868 127.101 167.911 126.782 167.998C126.464 168.084 126.178 168.217 125.926 168.396C125.674 168.575 125.468 168.801 125.309 169.073C125.156 169.338 125.08 169.653 125.08 170.018C125.08 170.343 125.14 170.622 125.259 170.854C125.385 171.08 125.548 171.269 125.747 171.422C125.946 171.574 126.172 171.7 126.424 171.8C126.676 171.893 126.935 171.973 127.2 172.039C127.459 172.112 127.715 172.178 127.967 172.238C128.219 172.298 128.444 172.367 128.644 172.447C128.843 172.527 129.002 172.626 129.121 172.746C129.247 172.865 129.31 173.021 129.31 173.213C129.31 173.393 129.264 173.542 129.171 173.661C129.078 173.774 128.962 173.864 128.823 173.93C128.683 173.997 128.534 174.043 128.375 174.069C128.216 174.089 128.066 174.099 127.927 174.099C127.721 174.099 127.522 174.076 127.33 174.03C127.137 173.977 126.968 173.9 126.822 173.801C126.683 173.695 126.57 173.559 126.484 173.393C126.397 173.227 126.354 173.024 126.354 172.785Z" fill="#FBFBFB"/>
<path d="M146.597 184.207H19.4507C16.9734 184.207 14.8978 182.198 14.8978 179.654V162.916C14.8978 160.438 16.9065 158.363 19.4507 158.363H146.597C149.074 158.363 151.149 160.371 151.149 162.916V179.654C151.149 182.198 149.141 184.207 146.597 184.207Z" stroke="#1F3969" stroke-width="2.67816" stroke-miterlimit="10" stroke-linecap="round" stroke-linejoin="round"/>
<path d="M182.417 189.429H35.1178C35.9882 191.572 36.4569 194.25 36.4569 197.062C36.4569 199.874 35.9882 202.485 35.1178 204.695H182.35C181.479 202.552 181.011 199.874 181.011 197.062C181.078 194.183 181.546 191.572 182.417 189.429Z" fill="#CECECE"/>
<path d="M186.434 185.345H31.1676V189.362H186.434V185.345Z" fill="#5F5AFF"/>
<path d="M186.434 185.345H31.1676V189.362H186.434V185.345Z" stroke="#1F3969" stroke-width="2.67816" stroke-miterlimit="10" stroke-linecap="round" stroke-linejoin="round"/>
<path d="M186.434 204.628H31.1676V208.645H186.434V204.628Z" fill="#F6F9FD"/>
<path d="M186.434 204.628H31.1676V208.645H186.434V204.628Z" fill="#5F5AFF"/>
<path d="M186.434 204.628H31.1676V208.645H186.434V204.628Z" stroke="#1F3969" stroke-width="2.67816" stroke-miterlimit="10" stroke-linecap="round" stroke-linejoin="round"/>
<path d="M36.7919 194.049H181.078" stroke="#1F3969" stroke-width="2.67816" stroke-miterlimit="10" stroke-linecap="round" stroke-linejoin="round"/>
<path d="M36.7919 199.405H181.078" stroke="#1F3969" stroke-width="2.67816" stroke-miterlimit="10" stroke-linecap="round" stroke-linejoin="round"/>
<path d="M182.417 189.429H35.1178C35.9882 191.572 36.4569 194.25 36.4569 197.062C36.4569 199.874 35.9882 202.485 35.1178 204.695H182.35C181.479 202.552 181.011 199.874 181.011 197.062C181.078 194.183 181.546 191.572 182.417 189.429Z" stroke="#1F3969" stroke-width="2.67816" stroke-miterlimit="10" stroke-linecap="round" stroke-linejoin="round"/>
<path d="M263.565 194.384L261.557 171.82H228.481L226.473 194.384C226.004 199.606 222.857 204.628 217.902 208.645V208.712H272.135V208.645C267.181 204.628 264.034 199.606 263.565 194.384Z" fill="#BFCFE2"/>
<path opacity="0.28" d="M228.481 171.82L227.276 185.345H262.762L261.556 171.82H228.481Z" fill="#1F3969" stroke="#1F3969" stroke-width="2.67816" stroke-miterlimit="10" stroke-linecap="round" stroke-linejoin="round"/>
<path d="M263.565 194.384L261.557 171.82H228.481L226.473 194.384C226.004 199.606 222.857 204.628 217.902 208.645V208.712H272.135V208.645C267.181 204.628 264.034 199.606 263.565 194.384Z" stroke="#1F3969" stroke-width="2.67816" stroke-miterlimit="10" stroke-linecap="round" stroke-linejoin="round"/>
<path d="M350.806 175.168H139.232C134.813 175.168 131.197 171.553 131.197 167.134V29.2081C131.197 24.7892 134.813 21.1737 139.232 21.1737H350.806C355.225 21.1737 358.841 24.7892 358.841 29.2081V167.134C358.841 171.62 355.225 175.168 350.806 175.168Z" fill="white"/>
<path d="M350.807 175.168H139.232C134.813 175.168 131.197 171.553 131.197 167.134V29.2081C131.197 24.7892 134.813 21.1737 139.232 21.1737H350.807C355.225 21.1737 358.841 24.7892 358.841 29.2081V167.134C358.841 171.62 355.225 175.168 350.807 175.168Z" fill="#BFCFE2"/>
<path d="M350.806 175.168H139.232C134.813 175.168 131.197 171.553 131.197 167.134V29.2081C131.197 24.7892 134.813 21.1737 139.232 21.1737H350.806C355.225 21.1737 358.841 24.7892 358.841 29.2081V167.134C358.841 171.62 355.225 175.168 350.806 175.168Z" stroke="#1F3969" stroke-width="2.67816" stroke-miterlimit="10" stroke-linecap="round" stroke-linejoin="round"/>
<path d="M347.496 149.476V32.5744L142.617 32.5744L142.617 149.476L347.496 149.476Z" fill="#F6F9FD"/>
<path opacity="0.28" d="M149.944 21.1737V113.972C149.944 116.918 152.354 119.328 155.3 119.328H281.911C284.856 119.328 287.267 116.918 287.267 113.972V21.1737H149.944Z" fill="#1F3969" stroke="#1F3969" stroke-width="2.67816" stroke-miterlimit="10" stroke-linecap="round" stroke-linejoin="round"/>
<path d="M347.496 149.476V32.5744L142.617 32.5744L142.617 149.476L347.496 149.476Z" stroke="#1F3969" stroke-width="2.67816" stroke-miterlimit="10" stroke-linecap="round" stroke-linejoin="round"/>
<path d="M236.047 162.246H254.058" stroke="#1F3969" stroke-width="2.67816" stroke-miterlimit="10" stroke-linecap="round" stroke-linejoin="round"/>
<path d="M287.937 111.963H161.326C158.38 111.963 155.97 109.553 155.97 106.607V7.38115C155.97 4.43517 158.38 2.02482 161.326 2.02482H287.937C290.882 2.02482 293.293 4.43517 293.293 7.38115V106.674C293.293 109.62 290.882 111.963 287.937 111.963Z" fill="#2D425E"/>
<path d="M293.293 15.0138H155.97V7.31405C155.97 4.36807 158.38 1.95772 161.326 1.95772H287.937C290.882 1.95772 293.293 4.36807 293.293 7.31405V15.0138Z" stroke="#1F3969" stroke-width="2.67816" stroke-miterlimit="10" stroke-linecap="round" stroke-linejoin="round"/>
<path d="M293.293 17.558H155.97V7.31405C155.97 4.36807 158.38 1.95772 161.326 1.95772H287.937C290.882 1.95772 293.293 4.36807 293.293 7.31405V17.558Z" fill="#D0DDF0"/>
<path d="M293.293 17.558H155.97V7.31405C155.97 4.36807 158.38 1.95772 161.326 1.95772H287.937C290.882 1.95772 293.293 4.36807 293.293 7.31405V17.558Z" stroke="#1F3969" stroke-width="2.67816" stroke-miterlimit="10" stroke-linecap="round" stroke-linejoin="round"/>
<path d="M293.293 17.558H155.97V7.31405C155.97 4.36807 158.38 1.95772 161.326 1.95772H287.937C290.882 1.95772 293.293 4.36807 293.293 7.31405V17.558Z" stroke="#1F3969" stroke-width="2.67816" stroke-miterlimit="10" stroke-linecap="round" stroke-linejoin="round"/>
<path d="M287.937 111.963H161.326C158.38 111.963 155.97 109.553 155.97 106.607V7.38115C155.97 4.43517 158.38 2.02482 161.326 2.02482H287.937C290.882 2.02482 293.293 4.43517 293.293 7.38115V106.674C293.293 109.62 290.882 111.963 287.937 111.963Z" stroke="#1F3969" stroke-width="2.67816" stroke-miterlimit="10" stroke-linecap="round" stroke-linejoin="round"/>
<path d="M169.428 12.4695C170.907 12.4695 172.106 11.2704 172.106 9.79132C172.106 8.31221 170.907 7.11316 169.428 7.11316C167.949 7.11316 166.75 8.31221 166.75 9.79132C166.75 11.2704 167.949 12.4695 169.428 12.4695Z" fill="#1F3969"/>
<path d="M178.735 12.4695C180.214 12.4695 181.413 11.2704 181.413 9.79132C181.413 8.31221 180.214 7.11316 178.735 7.11316C177.255 7.11316 176.056 8.31221 176.056 9.79132C176.056 11.2704 177.255 12.4695 178.735 12.4695Z" fill="#1F3969"/>
<path d="M188.041 12.4695C189.52 12.4695 190.719 11.2704 190.719 9.79132C190.719 8.31221 189.52 7.11316 188.041 7.11316C186.562 7.11316 185.363 8.31221 185.363 9.79132C185.363 11.2704 186.562 12.4695 188.041 12.4695Z" fill="#1F3969"/>
<path d="M234.842 29.9446H243.546" stroke="white" stroke-width="2.67816" stroke-miterlimit="10" stroke-linecap="round" stroke-linejoin="round"/>
<path d="M190.719 29.9446H228.415" stroke="#7BFFA0" stroke-width="2.67816" stroke-miterlimit="10" stroke-linecap="round" stroke-linejoin="round"/>
<path d="M172.106 29.9446H185.363" stroke="#9169FF" stroke-width="2.67816" stroke-miterlimit="10" stroke-linecap="round" stroke-linejoin="round"/>
<path d="M189.38 95.8945H218.17" stroke="#9169FF" stroke-width="2.67816" stroke-miterlimit="10" stroke-linecap="round" stroke-linejoin="round"/>
<path d="M172.106 95.8944H181.413" stroke="#7BFFA0" stroke-width="2.67816" stroke-miterlimit="10" stroke-linecap="round" stroke-linejoin="round"/>
<path d="M228.414 38.18H233.838" stroke="white" stroke-width="2.67816" stroke-miterlimit="10" stroke-linecap="round" stroke-linejoin="round"/>
<path d="M203.775 38.18H221.987" stroke="#9169FF" stroke-width="2.67816" stroke-miterlimit="10" stroke-linecap="round" stroke-linejoin="round"/>
<path d="M178.734 38.1801H197.281" stroke="#FFC47D" stroke-width="2.67816" stroke-miterlimit="10" stroke-linecap="round" stroke-linejoin="round"/>
<path d="M207.458 46.4153H223.46" stroke="white" stroke-width="2.67816" stroke-miterlimit="10" stroke-linecap="round" stroke-linejoin="round"/>
<path d="M187.372 46.4153H202.436" stroke="#FF5757" stroke-width="2.67816" stroke-miterlimit="10" stroke-linecap="round" stroke-linejoin="round"/>
<path d="M209.6 54.6505H212.881" stroke="white" stroke-width="2.67816" stroke-miterlimit="10" stroke-linecap="round" stroke-linejoin="round"/>
<path d="M196.344 54.6505H203.776" stroke="#9169FF" stroke-width="2.67816" stroke-miterlimit="10" stroke-linecap="round" stroke-linejoin="round"/>
<path d="M178.734 54.6506H190.719" stroke="#7BFFA0" stroke-width="2.67816" stroke-miterlimit="10" stroke-linecap="round" stroke-linejoin="round"/>
<path d="M204.445 62.953H225.803" stroke="#FFC47D" stroke-width="2.67816" stroke-miterlimit="10" stroke-linecap="round" stroke-linejoin="round"/>
<path d="M178.734 62.953H197.883" stroke="#FF5757" stroke-width="2.67816" stroke-miterlimit="10" stroke-linecap="round" stroke-linejoin="round"/>
<path d="M229.151 71.1882H240.734" stroke="#9169FF" stroke-width="2.67816" stroke-miterlimit="10" stroke-linecap="round" stroke-linejoin="round"/>
<path d="M204.445 71.1882H222.991" stroke="#FF5757" stroke-width="2.67816" stroke-miterlimit="10" stroke-linecap="round" stroke-linejoin="round"/>
<path d="M187.372 71.1883H197.884" stroke="#7BFFA0" stroke-width="2.67816" stroke-miterlimit="10" stroke-linecap="round" stroke-linejoin="round"/>
<path d="M212.881 79.4237H222.991" stroke="white" stroke-width="2.67816" stroke-miterlimit="10" stroke-linecap="round" stroke-linejoin="round"/>
<path d="M187.372 79.4237H205.918" stroke="#9169FF" stroke-width="2.67816" stroke-miterlimit="10" stroke-linecap="round" stroke-linejoin="round"/>
<path d="M239.194 87.6591H250.777" stroke="white" stroke-width="2.67816" stroke-miterlimit="10" stroke-linecap="round" stroke-linejoin="round"/>
<path d="M203.775 87.6591H232.9" stroke="#FFC47D" stroke-width="2.67816" stroke-miterlimit="10" stroke-linecap="round" stroke-linejoin="round"/>
<path d="M178.734 87.6591H197.281" stroke="white" stroke-width="2.67816" stroke-miterlimit="10" stroke-linecap="round" stroke-linejoin="round"/>
<path opacity="0.32" d="M333.159 139.007H242.916C240.867 139.007 239.239 137.326 239.239 135.33V70.9306C239.239 68.8821 240.92 67.2537 242.916 67.2537H333.159C335.207 67.2537 336.836 68.9346 336.836 70.9306V135.277C336.836 137.326 335.207 139.007 333.159 139.007Z" fill="#BFCFE2"/>
<path d="M327.629 132.423H237.386C235.337 132.423 233.709 130.742 233.709 128.746V64.3467C233.709 62.2981 235.39 60.6697 237.386 60.6697H327.629C329.678 60.6697 331.306 62.3506 331.306 64.3467V128.693C331.359 130.742 329.678 132.423 327.629 132.423Z" fill="white"/>
<path d="M327.629 132.423H237.386C235.337 132.423 233.709 130.742 233.709 128.746V64.3467C233.709 62.2981 235.39 60.6697 237.386 60.6697H327.629C329.678 60.6697 331.306 62.3506 331.306 64.3467V128.693C331.359 130.742 329.678 132.423 327.629 132.423Z" stroke="#1F3969" stroke-width="2.10112" stroke-miterlimit="10" stroke-linecap="round" stroke-linejoin="round"/>
<path d="M331.359 71.7537H233.709V64.5048C233.709 62.4037 235.443 60.6178 237.596 60.6178H327.734C329.73 60.6178 331.359 62.2461 331.359 64.2422V71.7537Z" fill="#BFCFE2"/>
<path d="M331.359 71.7537H233.709V64.5048C233.709 62.4037 235.443 60.6178 237.596 60.6178H327.734C329.73 60.6178 331.359 62.2461 331.359 64.2422V71.7537Z" stroke="#1F3969" stroke-width="2.10112" stroke-miterlimit="10" stroke-linecap="round" stroke-linejoin="round"/>
<path d="M243.111 67.9716C244.069 67.9716 244.845 67.1955 244.845 66.2382C244.845 65.2809 244.069 64.5048 243.111 64.5048C242.154 64.5048 241.378 65.2809 241.378 66.2382C241.378 67.1955 242.154 67.9716 243.111 67.9716Z" fill="#1F3969"/>
<path d="M248.837 67.9716C249.794 67.9716 250.57 67.1955 250.57 66.2382C250.57 65.2808 249.794 64.5047 248.837 64.5047C247.88 64.5047 247.104 65.2808 247.104 66.2382C247.104 67.1955 247.88 67.9716 248.837 67.9716Z" fill="#1F3969"/>
<path d="M254.51 67.9716C255.467 67.9716 256.243 67.1955 256.243 66.2382C256.243 65.2808 255.467 64.5047 254.51 64.5047C253.552 64.5047 252.776 65.2808 252.776 66.2382C252.776 67.1955 253.552 67.9716 254.51 67.9716Z" fill="#1F3969"/>
<path d="M322.166 90.9789H242.166C241.588 90.9789 241.116 90.5061 241.116 89.9283V78.7399C241.116 78.1621 241.588 77.6893 242.166 77.6893H322.166C322.744 77.6893 323.217 78.1621 323.217 78.7399V89.9283C323.217 90.5061 322.744 90.9789 322.166 90.9789Z" fill="#FE5070"/>
<path opacity="0.2" d="M265.173 105.004H242.113C241.536 105.004 241.063 104.531 241.063 103.953V97.9126C241.063 97.3348 241.536 96.862 242.113 96.862H265.173C265.751 96.862 266.224 97.3348 266.224 97.9126V103.953C266.224 104.531 265.804 105.004 265.173 105.004Z" fill="#1F3969"/>
<path opacity="0.2" d="M244.792 110.94H263.282" stroke="#1F3969" stroke-width="2.10112" stroke-miterlimit="10" stroke-linecap="round" stroke-linejoin="round"/>
<path opacity="0.2" d="M244.792 116.875H263.282" stroke="#1F3969" stroke-width="2.10112" stroke-miterlimit="10" stroke-linecap="round" stroke-linejoin="round"/>
<path opacity="0.2" d="M294.064 105.004H271.004C270.426 105.004 269.954 104.531 269.954 103.953V97.9126C269.954 97.3348 270.426 96.862 271.004 96.862H294.064C294.642 96.862 295.114 97.3348 295.114 97.9126V103.953C295.114 104.531 294.642 105.004 294.064 105.004Z" fill="#1F3969"/>
<path opacity="0.2" d="M273.63 110.94H291.385" stroke="#1F3969" stroke-width="2.10112" stroke-miterlimit="10" stroke-linecap="round" stroke-linejoin="round"/>
<path opacity="0.2" d="M273.63 116.875H291.385" stroke="#1F3969" stroke-width="2.10112" stroke-miterlimit="10" stroke-linecap="round" stroke-linejoin="round"/>
<path opacity="0.2" d="M322.902 117.611H299.842C299.264 117.611 298.792 117.138 298.792 116.56V97.9651C298.792 97.3873 299.264 96.9146 299.842 96.9146H322.902C323.48 96.9146 323.952 97.3873 323.952 97.9651V116.56C323.952 117.138 323.48 117.611 322.902 117.611Z" fill="#8464EB"/>
<g opacity="0.09">
<path opacity="0.09" d="M322.166 123.546H300.209C299.369 123.546 298.739 122.863 298.739 122.075C298.739 121.288 299.421 120.605 300.209 120.605H322.166C323.006 120.605 323.637 121.288 323.637 122.075C323.637 122.863 322.954 123.546 322.166 123.546Z" fill="#1F3969"/>
</g>
<path d="M14.2 139.101L7.68311 139.866L13.3509 188.144L19.8678 187.379L14.2 139.101Z" fill="#FFA364"/>
<path d="M14.209 139.152L7.69214 139.917L8.26984 144.838L14.7867 144.073L14.209 139.152Z" fill="#FF849A"/>
<path d="M14.209 139.152L7.69214 139.917L8.26984 144.838L14.7867 144.073L14.209 139.152Z" stroke="#1F3969" stroke-width="2.67816" stroke-miterlimit="10" stroke-linecap="round" stroke-linejoin="round"/>
<path d="M14.2 139.101L7.68311 139.866L13.3509 188.144L19.8678 187.379L14.2 139.101Z" stroke="#1F3969" stroke-width="2.67816" stroke-miterlimit="10" stroke-linecap="round" stroke-linejoin="round"/>
<path d="M32.07 148.99L25.5472 148.28L20.2926 196.602L26.8154 197.312L32.07 148.99Z" fill="#FF5252"/>
<path d="M32.07 148.99L25.5472 148.28L20.2926 196.602L26.8154 197.312L32.07 148.99Z" stroke="#1F3969" stroke-width="2.67816" stroke-miterlimit="10" stroke-linecap="round" stroke-linejoin="round"/>
<path d="M32.1184 149.001L25.5956 148.292L25.06 153.217L31.5828 153.926L32.1184 149.001Z" fill="#2D425E"/>
<path d="M32.1184 149.001L25.5956 148.292L25.06 153.217L31.5828 153.926L32.1184 149.001Z" stroke="#1F3969" stroke-width="2.67816" stroke-miterlimit="10" stroke-linecap="round" stroke-linejoin="round"/>
<path d="M36.1281 213.104H9.81519L5.53015 172.798H40.4132L36.1281 213.104Z" fill="#FE5070"/>
<path d="M5.53015 172.798L5.59709 173.535H32.1779L27.9598 213.104H36.1281L40.4132 172.798H5.53015Z" fill="#FF849A"/>
<path d="M36.1281 213.104H9.81519L5.53015 172.798H40.4132L36.1281 213.104Z" stroke="#1F3969" stroke-width="2.67816" stroke-miterlimit="10" stroke-linecap="round" stroke-linejoin="round"/>
<path d="M410.844 202.834H296.423V134.078C296.423 132.047 298.076 130.394 300.106 130.394H407.208C409.191 130.394 410.797 132 410.797 133.983V202.834H410.844Z" fill="#BFCFE2"/>
<path d="M411.128 202.976H296.754V134.03C296.754 131.953 298.454 130.253 300.532 130.253H407.35C409.428 130.253 411.128 131.953 411.128 134.03V202.976Z" stroke="#1F3969" stroke-width="2.10112" stroke-miterlimit="10" stroke-linecap="round" stroke-linejoin="round"/>
<path opacity="0.71" d="M404.86 196.897V136.357L303.094 136.357V196.897L404.86 196.897Z" fill="white"/>
<path opacity="0.32" d="M327.968 185.362H319.184C318.665 185.362 318.24 184.937 318.24 184.417V154.336C318.24 153.817 318.665 153.392 319.184 153.392H327.968C328.487 153.392 328.912 153.817 328.912 154.336V184.465C328.912 184.937 328.487 185.362 327.968 185.362Z" fill="#BFCFE2"/>
<path opacity="0.32" d="M391.389 191.454H340.671C339.632 191.454 338.782 190.604 338.782 189.565V150.795C338.782 149.756 339.632 148.906 340.671 148.906H391.389C392.427 148.906 393.277 149.756 393.277 150.795V189.565C393.277 190.604 392.475 191.454 391.389 191.454Z" fill="#BFCFE2"/>
<path d="M404.77 196.61V136.59L303.099 136.59V196.61L404.77 196.61Z" stroke="#1F3969" stroke-width="2.10112" stroke-miterlimit="10" stroke-linecap="round" stroke-linejoin="round"/>
<path d="M423.595 202.976H284.24V207.415C284.24 209.493 285.94 211.193 288.018 211.193H419.817C421.895 211.193 423.595 209.493 423.595 207.415V202.976Z" fill="white"/>
<path opacity="0.8" d="M289.576 211.476H418.305C420.903 211.476 423.028 209.493 423.5 206.801H284.334C284.806 209.493 286.978 211.476 289.576 211.476Z" fill="#BFCFE2"/>
<path d="M423.595 202.976H284.24V207.415C284.24 209.493 285.94 211.193 288.018 211.193H419.817C421.895 211.193 423.595 209.493 423.595 207.415V202.976Z" stroke="#1F3969" stroke-width="2.10112" stroke-miterlimit="10" stroke-linecap="round" stroke-linejoin="round"/>
<path d="M326.363 150.983H315.738V161.609H326.363V150.983Z" fill="#8464EB"/>
<path d="M326.551 151.078H315.926V161.703H326.551V151.078Z" stroke="#1F3969" stroke-width="2.10112" stroke-miterlimit="10" stroke-linecap="round" stroke-linejoin="round"/>
<path d="M326.551 151.078H315.926V161.703H326.551V151.078Z" stroke="#1F3969" stroke-width="2.10112" stroke-miterlimit="10" stroke-linecap="round" stroke-linejoin="round"/>
<path d="M326.363 161.609H315.738V172.234H326.363V161.609Z" fill="#FF849A"/>
<path d="M326.551 161.75H315.926V172.375H326.551V161.75Z" stroke="#1F3969" stroke-width="2.10112" stroke-miterlimit="10" stroke-linecap="round" stroke-linejoin="round"/>
<path d="M326.363 172.234H315.738V182.859H326.363V172.234Z" fill="#FE5070"/>
<path d="M326.551 172.376H315.926V183.001H326.551V172.376Z" stroke="#1F3969" stroke-width="2.10112" stroke-miterlimit="10" stroke-linecap="round" stroke-linejoin="round"/>
<path d="M388.318 188.195H337.554C336.515 188.195 335.665 187.345 335.665 186.306V147.536C335.665 146.497 336.515 145.647 337.554 145.647H388.318C389.357 145.647 390.207 146.497 390.207 147.536V186.306C390.207 187.392 389.357 188.195 388.318 188.195Z" fill="white"/>
<path d="M388.318 188.195H337.554C336.515 188.195 335.665 187.345 335.665 186.306V147.536C335.665 146.497 336.515 145.647 337.554 145.647H388.318C389.357 145.647 390.207 146.497 390.207 147.536V186.306C390.207 187.392 389.357 188.195 388.318 188.195Z" stroke="#1F3969" stroke-width="2.10112" stroke-miterlimit="10" stroke-linecap="round" stroke-linejoin="round"/>
<g opacity="0.3">
<g opacity="0.3">
<path opacity="0.3" d="M374.246 177.003V177.712H373.538" stroke="#1F3969" stroke-width="1.05056" stroke-linejoin="round"/>
<path opacity="0.3" d="M372.641 177.712H352.854" stroke="#1F3969" stroke-width="1.05056" stroke-linejoin="round" stroke-dasharray="1.5 1.5"/>
<path opacity="0.3" d="M352.382 177.712H351.674V177.003" stroke="#1F3969" stroke-width="1.05056" stroke-linejoin="round"/>
<path opacity="0.3" d="M351.674 176.012V157.595" stroke="#1F3969" stroke-width="1.05056" stroke-linejoin="round" stroke-dasharray="1.58 1.58"/>
<path opacity="0.3" d="M351.674 157.123V156.414H352.383" stroke="#1F3969" stroke-width="1.05056" stroke-linejoin="round"/>
<path opacity="0.3" d="M353.279 156.414H373.065" stroke="#1F3969" stroke-width="1.05056" stroke-linejoin="round" stroke-dasharray="1.5 1.5"/>
<path opacity="0.3" d="M373.538 156.414H374.246V157.122" stroke="#1F3969" stroke-width="1.05056" stroke-linejoin="round"/>
<path opacity="0.3" d="M374.246 158.067V176.531" stroke="#1F3969" stroke-width="1.05056" stroke-linejoin="round" stroke-dasharray="1.58 1.58"/>
</g>
</g>
<path d="M353.467 154.76H350.114V158.113H353.467V154.76Z" fill="white"/>
<path d="M353.279 154.62H349.974V157.925H353.279V154.62Z" stroke="#1F3969" stroke-width="0.525279" stroke-miterlimit="10" stroke-linejoin="round"/>
<path d="M353.467 176.011H350.114V179.364H353.467V176.011Z" fill="white"/>
<path d="M353.279 175.917H349.974V179.223H353.279V175.917Z" stroke="#1F3969" stroke-width="0.525279" stroke-miterlimit="10" stroke-linejoin="round"/>
<path d="M375.947 154.76H372.594V158.113H375.947V154.76Z" fill="white"/>
<path d="M375.899 154.62H372.594V157.925H375.899V154.62Z" stroke="#1F3969" stroke-width="0.525279" stroke-miterlimit="10" stroke-linejoin="round"/>
<path d="M375.947 176.011H372.594V179.364H375.947V176.011Z" fill="white"/>
<path d="M375.899 175.917H372.594V179.223H375.899V175.917Z" stroke="#1F3969" stroke-width="0.525279" stroke-miterlimit="10" stroke-linejoin="round"/>
<path d="M321.262 167.228L324.615 174.406L327.873 176.106L330.14 173.839L328.487 170.534L321.262 167.228Z" fill="white"/>
<path d="M321.262 167.228L324.615 174.406L327.873 176.106L330.14 173.839L328.487 170.534L321.262 167.228Z" stroke="#1F3969" stroke-width="0.525279" stroke-miterlimit="10" stroke-linejoin="round"/>
<path d="M325.512 172.187C326.008 172.187 326.41 171.785 326.41 171.289C326.41 170.794 326.008 170.392 325.512 170.392C325.017 170.392 324.615 170.794 324.615 171.289C324.615 171.785 325.017 172.187 325.512 172.187Z" fill="#1F3969"/>
<path d="M321.262 167.228L324.993 170.959" stroke="#1F3969" stroke-width="0.525279" stroke-miterlimit="10" stroke-linecap="round" stroke-linejoin="round"/>
<path d="M330.154 173.802L327.884 176.073L329.52 177.709L331.79 175.438L330.154 173.802Z" fill="white"/>
<path d="M330.154 173.802L327.884 176.073L329.52 177.709L331.79 175.438L330.154 173.802Z" stroke="#1F3969" stroke-width="0.525279" stroke-miterlimit="10" stroke-linejoin="round"/>
<path d="M437.876 213.053H409.11C406.759 213.053 404.835 211.129 404.835 208.778V151.117C404.835 148.766 406.759 146.843 409.11 146.843H437.876C440.227 146.843 442.151 148.766 442.151 151.117V208.778C442.151 211.172 440.227 213.053 437.876 213.053Z" fill="white"/>
<path d="M442.749 166.718H404.835V151.031C404.835 148.723 406.716 146.843 409.024 146.843H438.304C440.74 146.843 442.706 148.851 442.706 151.245V166.718H442.749Z" fill="#FE5070"/>
<path d="M437.876 213.053H409.11C406.759 213.053 404.835 211.129 404.835 208.778V151.117C404.835 148.766 406.759 146.843 409.11 146.843H437.876C440.227 146.843 442.151 148.766 442.151 151.117V208.778C442.151 211.172 440.227 213.053 437.876 213.053Z" stroke="#1F3969" stroke-width="1.70975" stroke-miterlimit="10" stroke-linecap="round" stroke-linejoin="round"/>
<path d="M437.919 213.053H409.238C406.801 213.053 404.792 211.044 404.792 208.607V200.401H442.151V208.821C442.151 211.172 440.227 213.053 437.919 213.053Z" fill="#BECCD5"/>
<path d="M438.004 213.053H409.238C406.801 213.053 404.792 211.044 404.792 208.607V200.401H442.151V208.907C442.151 211.215 440.27 213.053 438.004 213.053Z" stroke="#1F3969" stroke-width="1.70975" stroke-miterlimit="10" stroke-linecap="round" stroke-linejoin="round"/>
<path d="M423.771 208.607C424.951 208.607 425.908 207.65 425.908 206.47C425.908 205.29 424.951 204.333 423.771 204.333C422.59 204.333 421.634 205.29 421.634 206.47C421.634 207.65 422.59 208.607 423.771 208.607Z" fill="#1F3969"/>
<path opacity="0.3" d="M413.256 173.344H434.329" stroke="#1F3969" stroke-width="1.70975" stroke-miterlimit="10" stroke-linecap="round" stroke-linejoin="round"/>
<path opacity="0.3" d="M417.445 179.969H430.695" stroke="#1F3969" stroke-width="1.70975" stroke-miterlimit="10" stroke-linecap="round" stroke-linejoin="round"/>
<path opacity="0.3" d="M413.256 185.996H434.329" stroke="#1F3969" stroke-width="1.70975" stroke-miterlimit="10" stroke-linecap="round" stroke-linejoin="round"/>
<path opacity="0.62" d="M423.77 163.085C426.414 163.085 428.558 160.942 428.558 158.298C428.558 155.654 426.414 153.511 423.77 153.511C421.127 153.511 418.983 155.654 418.983 158.298C418.983 160.942 421.127 163.085 423.77 163.085Z" fill="white"/>
<path d="M430.696 192.621C430.696 193.946 429.627 195.015 428.302 195.015H419.283C417.958 195.015 416.889 193.946 416.889 192.621C416.889 191.296 417.958 190.228 419.283 190.228H428.302C429.627 190.185 430.696 191.253 430.696 192.621Z" fill="#8464EB"/>
<path d="M466.512 195.104H432.06C431.633 195.104 431.248 195.232 430.949 195.531L422.614 202.798C421.845 203.482 421.845 204.679 422.614 205.32L430.949 212.714C431.248 212.971 431.633 213.227 432.06 213.227H466.512C468.478 213.227 470.102 211.432 470.102 209.466V198.566C470.06 196.686 468.478 195.104 466.512 195.104ZM431.12 206.175C429.966 206.175 428.983 205.234 428.983 204.037C428.983 202.841 429.923 201.9 431.12 201.9C432.317 201.9 433.257 202.841 433.257 204.037C433.257 205.234 432.317 206.175 431.12 206.175Z" fill="white"/>
<path d="M450.013 195.104H439.968V213.27H450.013V195.104Z" fill="#CBBAFF"/>
<path d="M460.057 195.104H450.013V213.27H460.057V195.104Z" fill="#B49CFF"/>
<path d="M465.614 213.27H460.057V195.104H465.785C468.136 195.104 470.102 197.027 470.102 199.421V208.825C470.059 211.261 468.05 213.27 465.614 213.27Z" fill="#8464EB"/>
<path opacity="0.4" d="M467.452 196.002C467.281 195.959 467.11 195.959 466.939 195.959H432.488C432.06 195.959 431.675 196.087 431.376 196.386L423.041 203.653C422.272 204.337 422.272 205.534 423.041 206.175L428.256 210.748L433.898 212.159C434.155 212.244 434.454 212.244 434.753 212.244C435.309 212.244 435.822 212.116 436.334 211.86L467.025 196.215C467.153 196.173 467.324 196.087 467.452 196.002ZM431.547 207.03C430.393 207.03 429.41 206.089 429.41 204.892C429.41 203.696 430.35 202.755 431.547 202.755C432.744 202.755 433.684 203.696 433.684 204.892C433.684 206.089 432.744 207.03 431.547 207.03Z" fill="#848484"/>
<path d="M466.512 195.104H432.06C431.633 195.104 431.248 195.232 430.949 195.531L422.614 202.798C421.845 203.482 421.845 204.679 422.614 205.32L430.949 212.714C431.248 212.971 431.633 213.227 432.06 213.227H466.512C468.478 213.227 470.102 211.432 470.102 209.466V198.566C470.06 196.686 468.478 195.104 466.512 195.104ZM431.12 206.175C429.966 206.175 428.983 205.234 428.983 204.037C428.983 202.841 429.923 201.9 431.12 201.9C432.317 201.9 433.257 202.841 433.257 204.037C433.257 205.234 432.317 206.175 431.12 206.175Z" stroke="#1F3969" stroke-width="1.70975" stroke-miterlimit="10" stroke-linecap="round" stroke-linejoin="round"/>
<path d="M450.013 195.104H439.968V213.27H450.013V195.104Z" stroke="#1F3969" stroke-width="1.70975" stroke-miterlimit="10" stroke-linecap="round" stroke-linejoin="round"/>
<path d="M460.057 195.104H450.013V213.27H460.057V195.104Z" stroke="#1F3969" stroke-width="1.70975" stroke-miterlimit="10" stroke-linecap="round" stroke-linejoin="round"/>
<path d="M465.614 213.27H460.057V195.104H465.785C468.136 195.104 470.102 197.027 470.102 199.421V208.825C470.059 211.261 468.05 213.27 465.614 213.27Z" stroke="#1F3969" stroke-width="1.70975" stroke-miterlimit="10" stroke-linecap="round" stroke-linejoin="round"/>
<path d="M457.621 177.836L426.931 193.48C426.546 193.651 426.29 193.993 426.119 194.377L422.015 204.636C421.63 205.576 422.186 206.645 423.169 206.901L433.898 209.637C434.283 209.722 434.71 209.68 435.095 209.509L465.785 193.864C467.537 192.967 468.221 190.83 467.324 189.12L462.365 179.417C461.468 177.622 459.331 176.938 457.621 177.836Z" fill="white"/>
<path d="M451.84 180.764L442.892 185.329L451.051 201.321L459.999 196.756L451.84 180.764Z" fill="#FF849A"/>
<path d="M457.621 177.836L426.931 193.48C426.546 193.651 426.29 193.993 426.119 194.377L422.015 204.636C421.63 205.576 422.186 206.645 423.169 206.901L433.898 209.637C434.283 209.722 434.71 209.68 435.095 209.509L465.785 193.864C467.537 192.967 468.221 190.83 467.324 189.12L462.365 179.417C461.468 177.622 459.331 176.938 457.621 177.836Z" stroke="#1F3969" stroke-width="1.70975" stroke-miterlimit="10" stroke-linecap="round" stroke-linejoin="round"/>
<path d="M430.179 204.379C431.548 204.379 432.658 203.27 432.658 201.9C432.658 200.531 431.548 199.421 430.179 199.421C428.81 199.421 427.7 200.531 427.7 201.9C427.7 203.27 428.81 204.379 430.179 204.379Z" fill="#1F3969"/>
<path d="M442.872 185.352L433.925 189.918L442.084 205.91L451.032 201.344L442.872 185.352Z" fill="#FFB9C6" stroke="#1F3969" stroke-width="1.70975" stroke-miterlimit="10" stroke-linecap="round" stroke-linejoin="round"/>
<path d="M442.872 185.352L433.925 189.918L442.084 205.91L451.032 201.344L442.872 185.352Z" stroke="#1F3969" stroke-width="1.70975" stroke-miterlimit="10" stroke-linecap="round" stroke-linejoin="round"/>
<path d="M451.84 180.764L442.892 185.329L451.051 201.321L459.999 196.756L451.84 180.764Z" stroke="#1F3969" stroke-width="1.70975" stroke-miterlimit="10" stroke-linecap="round" stroke-linejoin="round"/>
<path d="M465.101 194.164L459.972 196.771L451.808 180.785L456.937 178.178C459.031 177.109 461.596 177.921 462.707 180.058L466.982 188.436C468.05 190.53 467.195 193.095 465.101 194.164Z" fill="#6567C3"/>
<path d="M465.101 194.164L459.972 196.771L451.808 180.785L456.937 178.178C459.031 177.109 461.596 177.921 462.707 180.058L466.982 188.436C468.05 190.53 467.195 193.095 465.101 194.164Z" fill="#FE5070" stroke="#1F3969" stroke-width="1.70975" stroke-miterlimit="10" stroke-linecap="round" stroke-linejoin="round"/>
</svg>
