<svg width="881" height="794" viewBox="0 0 881 794" fill="none" xmlns="http://www.w3.org/2000/svg">
<g opacity="0.47">
<path opacity="0.47" d="M642.726 218.024L784.755 159.447C792.752 156.149 799.111 149.811 802.433 141.828C805.755 133.845 805.768 124.871 802.469 116.88C799.17 108.889 792.829 102.535 784.842 99.2168C776.855 95.8984 767.875 95.887 759.878 99.1852L536.087 191.477C532.127 193.11 527.884 193.948 523.601 193.942C519.317 193.937 515.077 193.088 511.122 191.445C507.167 189.802 503.575 187.396 500.55 184.365C497.526 181.334 495.129 177.738 493.495 173.781C490.197 165.79 490.211 156.817 493.532 148.835C496.854 140.853 503.212 134.516 511.208 131.217L613.074 89.1974C617.034 87.5647 620.634 85.1685 623.667 82.1456C626.701 79.1227 629.109 75.5324 630.754 71.5796C632.4 67.6268 633.25 63.389 633.256 59.1082C633.263 54.8273 632.425 50.5872 630.792 46.6301C627.493 38.6389 621.152 32.2852 613.165 28.9668C605.177 25.6484 596.198 25.637 588.201 28.9352L70.7094 242.351C66.7497 243.984 63.1504 246.381 60.1171 249.403C57.0838 252.426 54.6759 256.016 53.0308 259.969C51.3858 263.922 50.5359 268.159 50.5296 272.44C50.5234 276.72 51.3609 280.96 52.9943 284.917C54.6271 288.875 57.0242 292.472 60.0487 295.504C63.0731 298.536 66.6656 300.942 70.6211 302.586C74.5765 304.23 78.8174 305.079 83.1015 305.084C87.3855 305.09 91.6289 304.252 95.5892 302.619L176.164 269.388C184.161 266.09 193.141 266.102 201.129 269.421C209.116 272.74 215.456 279.093 218.755 287.085C220.389 291.041 221.226 295.281 221.22 299.562C221.214 303.842 220.364 308.08 218.719 312.033C217.074 315.985 214.666 319.575 211.633 322.598C208.599 325.621 205 328.017 201.04 329.65L63.1197 386.531C55.1228 389.829 48.7638 396.166 45.4416 404.149C42.1195 412.132 42.1062 421.106 45.4047 429.098C47.0381 433.054 49.4354 436.651 52.4598 439.682C55.4842 442.713 59.0764 445.118 63.0314 446.762C66.9864 448.405 71.2266 449.254 75.5101 449.259C79.7935 449.265 84.0362 448.427 87.996 446.794L174.069 411.295C182.066 407.997 191.046 408.009 199.033 411.328C207.02 414.646 213.361 421 216.66 428.991C218.293 432.948 219.131 437.188 219.125 441.469C219.118 445.749 218.268 449.987 216.623 453.939C214.978 457.892 212.571 461.482 209.537 464.505C206.504 467.528 202.905 469.924 198.945 471.557L192.838 474.076C188.876 475.71 185.276 478.107 182.242 481.132C179.208 484.156 176.8 487.749 175.156 491.703C173.511 495.658 172.663 499.898 172.659 504.18C172.654 508.462 173.494 512.703 175.131 516.661C176.764 520.618 179.161 524.215 182.186 527.246C185.21 530.277 188.802 532.683 192.757 534.326C196.712 535.969 200.953 536.818 205.236 536.824C209.52 536.829 213.762 535.992 217.722 534.359L223.514 531.971C227.473 530.338 231.716 529.5 235.999 529.505C240.283 529.511 244.523 530.36 248.478 532.003C252.433 533.646 256.025 536.052 259.049 539.083C262.073 542.114 264.47 545.71 266.104 549.667C267.737 553.624 268.575 557.864 268.569 562.144C268.563 566.425 267.713 570.663 266.068 574.615C264.423 578.568 262.016 582.159 258.982 585.182C255.949 588.205 252.35 590.601 248.39 592.234L162.634 627.6C154.637 630.898 148.279 637.236 144.957 645.219C141.635 653.201 141.622 662.175 144.921 670.167C148.22 678.158 154.56 684.512 162.548 687.83C170.535 691.148 179.515 691.16 187.512 687.862L344.209 623.237C348.169 621.604 352.412 620.766 356.695 620.771C360.979 620.777 365.219 621.626 369.174 623.269C373.129 624.912 376.721 627.318 379.746 630.349C382.77 633.379 385.167 636.976 386.801 640.933C388.434 644.89 389.272 649.13 389.266 653.411C389.259 657.692 388.409 661.93 386.764 665.883C385.119 669.836 382.71 673.427 379.677 676.45C376.643 679.473 373.043 681.869 369.083 683.502L343.97 693.858C335.973 697.156 329.615 703.494 326.293 711.476C322.971 719.459 322.958 728.433 326.256 736.424C327.89 740.381 330.287 743.978 333.311 747.009C336.336 750.039 339.928 752.445 343.883 754.088C347.838 755.731 352.078 756.58 356.362 756.585C360.645 756.59 364.888 755.753 368.847 754.119L767.841 589.568C775.838 586.269 782.197 579.932 785.518 571.949C788.84 563.966 788.853 554.992 785.554 547.001C783.921 543.044 781.524 539.447 778.499 536.416C775.475 533.386 771.883 530.98 767.928 529.337C763.973 527.693 759.732 526.845 755.449 526.839C751.166 526.834 746.923 527.671 742.963 529.304L731.226 534.145C723.23 537.444 714.251 537.433 706.263 534.116C698.276 530.799 691.935 524.446 688.635 516.456C687.002 512.499 686.165 508.259 686.172 503.978C686.178 499.698 687.028 495.46 688.674 491.507C690.319 487.554 692.728 483.964 695.761 480.942C698.795 477.919 702.395 475.523 706.355 473.89L783.534 442.056C787.494 440.423 791.094 438.027 794.127 435.004C797.16 431.981 799.568 428.39 801.213 424.438C802.858 420.485 803.708 416.247 803.714 411.967C803.72 407.686 802.883 403.446 801.249 399.489C799.616 395.532 797.219 391.936 794.194 388.905C791.17 385.874 787.578 383.468 783.623 381.825C779.668 380.182 775.427 379.333 771.144 379.328C766.861 379.322 762.618 380.16 758.658 381.793L649.22 426.923C645.26 428.556 641.018 429.394 636.734 429.388C632.451 429.383 628.211 428.534 624.256 426.891C620.301 425.248 616.708 422.842 613.684 419.811C610.66 416.78 608.262 413.184 606.629 409.227C603.333 401.236 603.347 392.263 606.67 384.282C609.992 376.301 616.351 369.965 624.346 366.667L701.835 334.709C705.795 333.077 709.394 330.68 712.428 327.657C715.461 324.634 717.869 321.044 719.513 317.091C721.158 313.138 722.008 308.901 722.014 304.62C722.02 300.339 721.183 296.1 719.549 292.143C717.917 288.184 715.52 284.586 712.496 281.554C709.473 278.521 705.88 276.114 701.925 274.469C697.97 272.825 693.729 271.975 689.444 271.969C685.16 271.963 680.916 272.8 676.956 274.434L667.605 278.29C659.608 281.588 650.629 281.577 642.641 278.258C634.654 274.94 628.313 268.586 625.014 260.595C623.38 256.638 622.542 252.398 622.548 248.117C622.553 243.836 623.403 239.598 625.047 235.645C626.692 231.692 629.1 228.101 632.133 225.078C635.166 222.054 638.766 219.657 642.726 218.024Z" fill="#004789"/>
<g style="mix-blend-mode:multiply" opacity="0.47">
<path d="M771.367 224.657L763.65 227.839C748.005 234.291 740.555 252.196 747.008 267.829L747.01 267.834C753.464 283.468 771.378 290.911 787.023 284.459L794.74 281.276C810.385 274.824 817.836 256.92 811.382 241.286L811.38 241.281C804.927 225.647 787.012 218.204 771.367 224.657Z" fill="#004789"/>
</g>
</g>
<g style="mix-blend-mode:multiply" opacity="0.33">
<g style="mix-blend-mode:multiply" opacity="0.33">
<path d="M606.898 282.711L329.821 312.255C320.586 313.24 313.898 321.519 314.882 330.747L317.106 351.607C318.09 360.835 326.374 367.518 335.608 366.533L612.686 336.989C621.92 336.004 628.608 327.725 627.624 318.497L625.4 297.637C624.416 288.409 616.132 281.726 606.898 282.711Z" fill="#4E4E4E"/>
<path d="M606.898 282.711L329.821 312.255C320.586 313.24 313.898 321.519 314.882 330.747L317.106 351.607C318.09 360.835 326.374 367.518 335.608 366.533L612.686 336.989C621.92 336.004 628.608 327.725 627.624 318.497L625.4 297.637C624.416 288.409 616.132 281.726 606.898 282.711Z" stroke="black" stroke-width="1.14135" stroke-linecap="round" stroke-linejoin="round"/>
</g>
<g style="mix-blend-mode:multiply" opacity="0.33">
<path d="M606.898 282.711L329.821 312.255C320.586 313.24 313.898 321.519 314.882 330.747L317.106 351.607C318.09 360.835 326.374 367.518 335.608 366.533L612.686 336.989C621.92 336.004 628.608 327.725 627.624 318.497L625.4 297.637C624.416 288.409 616.132 281.726 606.898 282.711Z" fill="#4E4E4E"/>
</g>
<g style="mix-blend-mode:multiply" opacity="0.17">
<path d="M329.82 312.255L606.898 282.711C611.332 282.238 615.773 283.545 619.243 286.344C622.712 289.143 624.927 293.206 625.4 297.637L628.001 322.03C628.289 324.736 627.49 327.446 625.78 329.564C624.069 331.681 621.587 333.033 618.879 333.322L328.782 364.254C326.074 364.543 323.362 363.745 321.244 362.036C319.125 360.326 317.772 357.846 317.484 355.14L314.883 330.747C314.41 326.315 315.719 321.878 318.52 318.41C321.322 314.942 325.387 312.728 329.822 312.255L329.82 312.255Z" fill="#4E4E4E"/>
</g>
<g style="mix-blend-mode:multiply" opacity="0.33">
<path d="M606.898 282.711L329.821 312.255C320.586 313.24 313.898 321.519 314.882 330.747L317.106 351.607C318.09 360.835 326.374 367.518 335.608 366.533L612.686 336.989C621.92 336.004 628.608 327.725 627.624 318.497L625.4 297.637C624.416 288.409 616.132 281.726 606.898 282.711Z" fill="#4E4E4E"/>
<path d="M606.898 282.711L329.821 312.255C320.586 313.24 313.898 321.519 314.882 330.747L317.106 351.607C318.09 360.835 326.374 367.518 335.608 366.533L612.686 336.989C621.92 336.004 628.608 327.725 627.624 318.497L625.4 297.637C624.416 288.409 616.132 281.726 606.898 282.711Z" stroke="#46505C" stroke-width="4.56539" stroke-linecap="round" stroke-linejoin="round"/>
</g>
<g style="mix-blend-mode:multiply" opacity="0.33">
<path d="M607.22 331.037L602.773 289.335L335.25 317.86L339.696 359.563L607.22 331.037Z" fill="#4E4E4E"/>
</g>
<g style="mix-blend-mode:multiply" opacity="0.33">
<path d="M607.22 331.037L602.773 289.335L335.25 317.86L339.696 359.563L607.22 331.037Z" fill="#4E4E4E"/>
<path d="M607.22 331.037L602.773 289.335L335.25 317.86L339.696 359.563L607.22 331.037Z" stroke="#46505C" stroke-width="1.14135" stroke-linecap="round" stroke-linejoin="round"/>
</g>
<g style="mix-blend-mode:multiply" opacity="0.33">
<path d="M612.687 336.988L335.609 366.532C326.375 367.517 319.687 375.796 320.671 385.024L338.996 556.889C339.98 566.117 348.264 572.8 357.498 571.815L634.576 542.271C643.81 541.287 650.498 533.007 649.514 523.779L631.189 351.914C630.205 342.686 621.921 336.003 612.687 336.988Z" fill="#4E4E4E"/>
</g>
<g style="mix-blend-mode:multiply" opacity="0.33">
<path d="M644.737 524.289L626.412 352.424C625.709 345.832 619.792 341.059 613.196 341.762L336.119 371.306C329.523 372.01 324.745 377.923 325.448 384.515L343.774 556.38C344.477 562.971 350.393 567.745 356.989 567.041L634.067 537.497C640.663 536.794 645.44 530.88 644.737 524.289Z" fill="#4E4E4E"/>
<path d="M644.737 524.289L626.412 352.424C625.709 345.832 619.792 341.059 613.196 341.762L336.119 371.306C329.523 372.01 324.745 377.923 325.448 384.515L343.774 556.38C344.477 562.971 350.393 567.745 356.989 567.041L634.067 537.497C640.663 536.794 645.44 530.88 644.737 524.289Z" stroke="#E6F3FF" stroke-width="2.28269" stroke-miterlimit="10"/>
</g>
<g style="mix-blend-mode:multiply" opacity="0.33">
<path d="M475.872 549.751L514.209 545.663C515.476 545.528 516.745 545.902 517.736 546.701C518.728 547.501 519.36 548.662 519.495 549.928L519.982 554.487L472.09 559.594L471.604 555.035C471.469 553.768 471.843 552.5 472.643 551.51C473.444 550.519 474.605 549.886 475.872 549.751Z" fill="#4E4E4E"/>
</g>
<g style="mix-blend-mode:multiply" opacity="0.33">
<path d="M612.687 336.988L335.609 366.532C326.375 367.517 319.687 375.796 320.671 385.024L338.996 556.889C339.98 566.117 348.264 572.8 357.498 571.815L634.576 542.271C643.81 541.287 650.498 533.007 649.514 523.779L631.189 351.914C630.205 342.686 621.921 336.003 612.687 336.988Z" fill="#4E4E4E"/>
<path d="M612.687 336.988L335.609 366.532C326.375 367.517 319.687 375.796 320.671 385.024L338.996 556.889C339.98 566.117 348.264 572.8 357.498 571.815L634.576 542.271C643.81 541.287 650.498 533.007 649.514 523.779L631.189 351.914C630.205 342.686 621.921 336.003 612.687 336.988Z" stroke="#46505C" stroke-width="4.56539" stroke-linecap="round" stroke-linejoin="round"/>
</g>
<g style="mix-blend-mode:multiply" opacity="0.33">
<path d="M609.616 353.515L342.093 382.041C340.114 382.252 338.681 384.026 338.892 386.003L349.836 488.645C350.047 490.622 351.822 492.054 353.801 491.843L621.324 463.318C623.303 463.107 624.736 461.333 624.525 459.355L613.581 356.714C613.37 354.736 611.595 353.304 609.616 353.515Z" fill="#4E4E4E"/>
</g>
<g style="mix-blend-mode:multiply" opacity="0.33">
<path d="M400.006 459.757L385.674 461.285C385.014 461.355 384.537 461.947 384.607 462.606L386.134 476.928C386.204 477.587 386.796 478.064 387.456 477.994L401.787 476.466C402.447 476.396 402.925 475.804 402.854 475.145L401.327 460.823C401.257 460.164 400.665 459.687 400.006 459.757Z" fill="#4E4E4E"/>
<path d="M400.006 459.757L385.674 461.285C385.014 461.355 384.537 461.947 384.607 462.606L386.134 476.928C386.204 477.587 386.796 478.064 387.456 477.994L401.787 476.466C402.447 476.396 402.925 475.804 402.854 475.145L401.327 460.823C401.257 460.164 400.665 459.687 400.006 459.757Z" stroke="#92A5C0" stroke-width="1.14135" stroke-linecap="round" stroke-linejoin="round"/>
</g>
<g style="mix-blend-mode:multiply" opacity="0.33">
<path d="M374.162 462.512L359.83 464.041C359.171 464.111 358.693 464.702 358.763 465.361L360.29 479.684C360.361 480.343 360.952 480.82 361.612 480.75L375.944 479.222C376.603 479.151 377.081 478.56 377.011 477.901L375.483 463.579C375.413 462.919 374.821 462.442 374.162 462.512Z" fill="#4E4E4E"/>
<path d="M374.162 462.512L359.83 464.041C359.171 464.111 358.693 464.702 358.763 465.361L360.29 479.684C360.361 480.343 360.952 480.82 361.612 480.75L375.944 479.222C376.603 479.151 377.081 478.56 377.011 477.901L375.483 463.579C375.413 462.919 374.821 462.442 374.162 462.512Z" stroke="#92A5C0" stroke-width="1.14135" stroke-linecap="round" stroke-linejoin="round"/>
</g>
<g style="mix-blend-mode:multiply" opacity="0.33">
<path d="M529.22 445.979L411.517 458.529C410.857 458.6 410.379 459.191 410.45 459.85L411.977 474.172C412.047 474.832 412.639 475.309 413.298 475.239L531.001 462.688C531.661 462.618 532.139 462.026 532.068 461.367L530.541 447.045C530.471 446.386 529.879 445.909 529.22 445.979Z" fill="#4E4E4E"/>
<path d="M529.22 445.979L411.517 458.529C410.857 458.6 410.379 459.191 410.45 459.85L411.977 474.172C412.047 474.832 412.639 475.309 413.298 475.239L531.001 462.688C531.661 462.618 532.139 462.026 532.068 461.367L530.541 447.045C530.471 446.386 529.879 445.909 529.22 445.979Z" stroke="#92A5C0" stroke-width="1.14135" stroke-linecap="round" stroke-linejoin="round"/>
</g>
<g style="mix-blend-mode:multiply" opacity="0.33">
<path d="M555.063 443.223L540.731 444.752C540.072 444.822 539.594 445.413 539.664 446.072L541.192 460.395C541.262 461.054 541.853 461.531 542.513 461.461L556.845 459.933C557.504 459.862 557.982 459.271 557.912 458.612L556.385 444.29C556.314 443.63 555.723 443.153 555.063 443.223Z" fill="#4E4E4E"/>
<path d="M555.063 443.223L540.731 444.752C540.072 444.822 539.594 445.413 539.664 446.072L541.192 460.395C541.262 461.054 541.853 461.531 542.513 461.461L556.845 459.933C557.504 459.862 557.982 459.271 557.912 458.612L556.385 444.29C556.314 443.63 555.723 443.153 555.063 443.223Z" stroke="#92A5C0" stroke-width="1.14135" stroke-linecap="round" stroke-linejoin="round"/>
</g>
<g style="mix-blend-mode:multiply" opacity="0.33">
<path d="M593.852 448.593L584.297 449.612C583.638 449.682 583.16 450.274 583.23 450.933L583.755 455.856C583.826 456.515 584.417 456.993 585.077 456.922L594.631 455.904C595.291 455.833 595.769 455.242 595.698 454.583L595.173 449.66C595.103 449 594.511 448.523 593.852 448.593Z" fill="#4E4E4E"/>
<path d="M593.852 448.593L584.297 449.612C583.638 449.682 583.16 450.274 583.23 450.933L583.755 455.856C583.826 456.515 584.417 456.993 585.077 456.922L594.631 455.904C595.291 455.833 595.769 455.242 595.698 454.583L595.173 449.66C595.103 449 594.511 448.523 593.852 448.593Z" stroke="#92A5C0" stroke-width="1.14135" stroke-linecap="round" stroke-linejoin="round"/>
</g>
<g style="mix-blend-mode:multiply" opacity="0.33">
<path d="M592.85 439.194L583.295 440.213C582.636 440.283 582.158 440.875 582.228 441.534L582.753 446.457C582.823 447.116 583.415 447.594 584.075 447.523L593.629 446.505C594.289 446.434 594.766 445.843 594.696 445.184L594.171 440.26C594.101 439.601 593.509 439.124 592.85 439.194Z" fill="#4E4E4E"/>
<path d="M592.85 439.194L583.295 440.213C582.636 440.283 582.158 440.875 582.228 441.534L582.753 446.457C582.823 447.116 583.415 447.594 584.075 447.523L593.629 446.505C594.289 446.434 594.766 445.843 594.696 445.184L594.171 440.26C594.101 439.601 593.509 439.124 592.85 439.194Z" stroke="#92A5C0" stroke-width="1.14135" stroke-linecap="round" stroke-linejoin="round"/>
</g>
<g style="mix-blend-mode:multiply" opacity="0.33">
<path d="M610.572 446.811L601.018 447.829C600.358 447.9 599.88 448.491 599.951 449.15L600.475 454.073C600.546 454.733 601.137 455.21 601.797 455.14L611.351 454.121C612.011 454.051 612.489 453.459 612.418 452.8L611.893 447.877C611.823 447.218 611.232 446.74 610.572 446.811Z" fill="#4E4E4E"/>
<path d="M610.572 446.811L601.018 447.829C600.358 447.9 599.88 448.491 599.951 449.15L600.475 454.073C600.546 454.733 601.137 455.21 601.797 455.14L611.351 454.121C612.011 454.051 612.489 453.459 612.418 452.8L611.893 447.877C611.823 447.218 611.232 446.74 610.572 446.811Z" stroke="#92A5C0" stroke-width="1.14135" stroke-linecap="round" stroke-linejoin="round"/>
</g>
<g style="mix-blend-mode:multiply" opacity="0.33">
<path d="M577.132 450.376L567.577 451.395C566.918 451.465 566.44 452.057 566.51 452.716L567.035 457.639C567.105 458.298 567.697 458.776 568.357 458.705L577.911 457.687C578.571 457.616 579.048 457.025 578.978 456.366L578.453 451.443C578.383 450.783 577.791 450.306 577.132 450.376Z" fill="#4E4E4E"/>
<path d="M577.132 450.376L567.577 451.395C566.918 451.465 566.44 452.057 566.51 452.716L567.035 457.639C567.105 458.298 567.697 458.776 568.357 458.705L577.911 457.687C578.571 457.616 579.048 457.025 578.978 456.366L578.453 451.443C578.383 450.783 577.791 450.306 577.132 450.376Z" stroke="#92A5C0" stroke-width="1.14135" stroke-linecap="round" stroke-linejoin="round"/>
</g>
<g style="mix-blend-mode:multiply" opacity="0.33">
<path d="M395.082 436.236L357.295 440.265C356.636 440.336 356.158 440.927 356.228 441.586L357.755 455.908C357.826 456.568 358.417 457.045 359.077 456.975L396.863 452.945C397.523 452.875 398.001 452.284 397.93 451.625L396.403 437.303C396.333 436.643 395.741 436.166 395.082 436.236Z" fill="#4E4E4E"/>
<path d="M395.082 436.236L357.295 440.265C356.636 440.336 356.158 440.927 356.228 441.586L357.755 455.908C357.826 456.568 358.417 457.045 359.077 456.975L396.863 452.945C397.523 452.875 398.001 452.284 397.93 451.625L396.403 437.303C396.333 436.643 395.741 436.166 395.082 436.236Z" stroke="#92A5C0" stroke-width="1.14135" stroke-linecap="round" stroke-linejoin="round"/>
</g>
<g style="mix-blend-mode:multiply" opacity="0.33">
<path d="M421.14 433.458L406.808 434.986C406.149 435.056 405.671 435.648 405.741 436.307L407.268 450.629C407.339 451.288 407.93 451.765 408.59 451.695L422.922 450.167C423.581 450.097 424.059 449.505 423.989 448.846L422.461 434.524C422.391 433.865 421.8 433.387 421.14 433.458Z" fill="#4E4E4E"/>
<path d="M421.14 433.458L406.808 434.986C406.149 435.056 405.671 435.648 405.741 436.307L407.268 450.629C407.339 451.288 407.93 451.765 408.59 451.695L422.922 450.167C423.581 450.097 424.059 449.505 423.989 448.846L422.461 434.524C422.391 433.865 421.8 433.387 421.14 433.458Z" stroke="#92A5C0" stroke-width="1.14135" stroke-linecap="round" stroke-linejoin="round"/>
</g>
<g style="mix-blend-mode:multiply" opacity="0.33">
<path d="M446.984 430.702L432.652 432.23C431.992 432.301 431.515 432.892 431.585 433.551L433.112 447.873C433.182 448.532 433.774 449.01 434.434 448.939L448.765 447.411C449.425 447.341 449.903 446.75 449.832 446.09L448.305 431.768C448.235 431.109 447.643 430.632 446.984 430.702Z" fill="#4E4E4E"/>
<path d="M446.984 430.702L432.652 432.23C431.992 432.301 431.515 432.892 431.585 433.551L433.112 447.873C433.182 448.532 433.774 449.01 434.434 448.939L448.765 447.411C449.425 447.341 449.903 446.75 449.832 446.09L448.305 431.768C448.235 431.109 447.643 430.632 446.984 430.702Z" stroke="#92A5C0" stroke-width="1.14135" stroke-linecap="round" stroke-linejoin="round"/>
</g>
<g style="mix-blend-mode:multiply" opacity="0.33">
<path d="M472.826 427.947L458.495 429.475C457.835 429.545 457.357 430.137 457.428 430.796L458.955 445.118C459.025 445.777 459.617 446.254 460.276 446.184L474.608 444.656C475.267 444.586 475.745 443.994 475.675 443.335L474.148 429.013C474.077 428.354 473.486 427.876 472.826 427.947Z" fill="#4E4E4E"/>
<path d="M472.826 427.947L458.495 429.475C457.835 429.545 457.357 430.137 457.428 430.796L458.955 445.118C459.025 445.777 459.617 446.254 460.276 446.184L474.608 444.656C475.267 444.586 475.745 443.994 475.675 443.335L474.148 429.013C474.077 428.354 473.486 427.876 472.826 427.947Z" stroke="#92A5C0" stroke-width="1.14135" stroke-linecap="round" stroke-linejoin="round"/>
</g>
<g style="mix-blend-mode:multiply" opacity="0.33">
<path d="M498.669 425.191L484.338 426.719C483.678 426.79 483.201 427.381 483.271 428.04L484.798 442.362C484.868 443.021 485.46 443.499 486.12 443.428L500.451 441.9C501.111 441.83 501.588 441.239 501.518 440.579L499.991 426.257C499.921 425.598 499.329 425.121 498.669 425.191Z" fill="#4E4E4E"/>
<path d="M498.669 425.191L484.338 426.719C483.678 426.79 483.201 427.381 483.271 428.04L484.798 442.362C484.868 443.021 485.46 443.499 486.12 443.428L500.451 441.9C501.111 441.83 501.588 441.239 501.518 440.579L499.991 426.257C499.921 425.598 499.329 425.121 498.669 425.191Z" stroke="#92A5C0" stroke-width="1.14135" stroke-linecap="round" stroke-linejoin="round"/>
</g>
<g style="mix-blend-mode:multiply" opacity="0.33">
<path d="M524.512 422.436L510.18 423.964C509.521 424.034 509.043 424.625 509.113 425.285L510.64 439.607C510.711 440.266 511.302 440.743 511.962 440.673L526.294 439.145C526.953 439.074 527.431 438.483 527.361 437.824L525.834 423.502C525.763 422.843 525.172 422.365 524.512 422.436Z" fill="#4E4E4E"/>
<path d="M524.512 422.436L510.18 423.964C509.521 424.034 509.043 424.625 509.113 425.285L510.64 439.607C510.711 440.266 511.302 440.743 511.962 440.673L526.294 439.145C526.953 439.074 527.431 438.483 527.361 437.824L525.834 423.502C525.763 422.843 525.172 422.365 524.512 422.436Z" stroke="#92A5C0" stroke-width="1.14135" stroke-linecap="round" stroke-linejoin="round"/>
</g>
<g style="mix-blend-mode:multiply" opacity="0.33">
<path d="M550.355 419.68L536.024 421.208C535.364 421.278 534.887 421.87 534.957 422.529L536.484 436.851C536.554 437.51 537.146 437.988 537.806 437.917L552.137 436.389C552.797 436.319 553.274 435.727 553.204 435.068L551.677 420.746C551.607 420.087 551.015 419.61 550.355 419.68Z" fill="#4E4E4E"/>
<path d="M550.355 419.68L536.024 421.208C535.364 421.278 534.887 421.87 534.957 422.529L536.484 436.851C536.554 437.51 537.146 437.988 537.806 437.917L552.137 436.389C552.797 436.319 553.274 435.727 553.204 435.068L551.677 420.746C551.607 420.087 551.015 419.61 550.355 419.68Z" stroke="#92A5C0" stroke-width="1.14135" stroke-linecap="round" stroke-linejoin="round"/>
</g>
<g style="mix-blend-mode:multiply" opacity="0.33">
<path d="M607.035 413.636L564.04 418.221C563.38 418.291 562.903 418.882 562.973 419.542L564.5 433.864C564.57 434.523 565.162 435 565.822 434.93L608.816 430.345C609.476 430.275 609.954 429.684 609.883 429.025L608.356 414.703C608.286 414.043 607.694 413.566 607.035 413.636Z" fill="#4E4E4E"/>
<path d="M607.035 413.636L564.04 418.221C563.38 418.291 562.903 418.882 562.973 419.542L564.5 433.864C564.57 434.523 565.162 435 565.822 434.93L608.816 430.345C609.476 430.275 609.954 429.684 609.883 429.025L608.356 414.703C608.286 414.043 607.694 413.566 607.035 413.636Z" stroke="#92A5C0" stroke-width="1.14135" stroke-linecap="round" stroke-linejoin="round"/>
</g>
<g style="mix-blend-mode:multiply" opacity="0.33">
<path d="M409.196 410.011L394.864 411.539C394.204 411.61 393.727 412.201 393.797 412.86L395.324 427.182C395.394 427.841 395.986 428.319 396.646 428.248L410.977 426.72C411.637 426.65 412.115 426.059 412.044 425.399L410.517 411.077C410.447 410.418 409.855 409.941 409.196 410.011Z" fill="#4E4E4E"/>
<path d="M409.196 410.011L394.864 411.539C394.204 411.61 393.727 412.201 393.797 412.86L395.324 427.182C395.394 427.841 395.986 428.319 396.646 428.248L410.977 426.72C411.637 426.65 412.115 426.059 412.044 425.399L410.517 411.077C410.447 410.418 409.855 409.941 409.196 410.011Z" stroke="#92A5C0" stroke-width="1.14135" stroke-linecap="round" stroke-linejoin="round"/>
</g>
<g style="mix-blend-mode:multiply" opacity="0.33">
<path d="M383.352 412.767L354.689 415.823C354.029 415.893 353.552 416.485 353.622 417.144L355.149 431.466C355.219 432.125 355.811 432.602 356.471 432.532L385.134 429.476C385.793 429.406 386.271 428.814 386.201 428.155L384.674 413.833C384.603 413.174 384.012 412.696 383.352 412.767Z" fill="#4E4E4E"/>
<path d="M383.352 412.767L354.689 415.823C354.029 415.893 353.552 416.485 353.622 417.144L355.149 431.466C355.219 432.125 355.811 432.602 356.471 432.532L385.134 429.476C385.793 429.406 386.271 428.814 386.201 428.155L384.674 413.833C384.603 413.174 384.012 412.696 383.352 412.767Z" stroke="#92A5C0" stroke-width="1.14135" stroke-linecap="round" stroke-linejoin="round"/>
</g>
<g style="mix-blend-mode:multiply" opacity="0.33">
<path d="M435.038 407.256L420.707 408.784C420.047 408.854 419.569 409.445 419.64 410.105L421.167 424.427C421.237 425.086 421.829 425.563 422.488 425.493L436.82 423.965C437.48 423.894 437.957 423.303 437.887 422.644L436.36 408.322C436.29 407.663 435.698 407.185 435.038 407.256Z" fill="#4E4E4E"/>
<path d="M435.038 407.256L420.707 408.784C420.047 408.854 419.569 409.445 419.64 410.105L421.167 424.427C421.237 425.086 421.829 425.563 422.488 425.493L436.82 423.965C437.48 423.894 437.957 423.303 437.887 422.644L436.36 408.322C436.29 407.663 435.698 407.185 435.038 407.256Z" stroke="#92A5C0" stroke-width="1.14135" stroke-linecap="round" stroke-linejoin="round"/>
</g>
<g style="mix-blend-mode:multiply" opacity="0.33">
<path d="M460.881 404.5L446.55 406.028C445.89 406.099 445.412 406.69 445.483 407.349L447.01 421.671C447.08 422.33 447.672 422.808 448.331 422.737L462.663 421.209C463.323 421.139 463.8 420.547 463.73 419.888L462.203 405.566C462.133 404.907 461.541 404.43 460.881 404.5Z" fill="#4E4E4E"/>
<path d="M460.881 404.5L446.55 406.028C445.89 406.099 445.412 406.69 445.483 407.349L447.01 421.671C447.08 422.33 447.672 422.808 448.331 422.737L462.663 421.209C463.323 421.139 463.8 420.547 463.73 419.888L462.203 405.566C462.133 404.907 461.541 404.43 460.881 404.5Z" stroke="#92A5C0" stroke-width="1.14135" stroke-linecap="round" stroke-linejoin="round"/>
</g>
<g style="mix-blend-mode:multiply" opacity="0.33">
<path d="M486.724 401.744L472.392 403.273C471.733 403.343 471.255 403.934 471.325 404.593L472.852 418.915C472.923 419.575 473.514 420.052 474.174 419.982L488.506 418.453C489.165 418.383 489.643 417.792 489.573 417.133L488.045 402.811C487.975 402.151 487.383 401.674 486.724 401.744Z" fill="#4E4E4E"/>
<path d="M486.724 401.744L472.392 403.273C471.733 403.343 471.255 403.934 471.325 404.593L472.852 418.915C472.923 419.575 473.514 420.052 474.174 419.982L488.506 418.453C489.165 418.383 489.643 417.792 489.573 417.133L488.045 402.811C487.975 402.151 487.383 401.674 486.724 401.744Z" stroke="#92A5C0" stroke-width="1.14135" stroke-linecap="round" stroke-linejoin="round"/>
</g>
<g style="mix-blend-mode:multiply" opacity="0.33">
<path d="M512.568 398.989L498.236 400.517C497.576 400.587 497.099 401.179 497.169 401.838L498.696 416.16C498.766 416.819 499.358 417.296 500.018 417.226L514.349 415.698C515.009 415.628 515.487 415.036 515.416 414.377L513.889 400.055C513.819 399.396 513.227 398.918 512.568 398.989Z" fill="#4E4E4E"/>
<path d="M512.568 398.989L498.236 400.517C497.576 400.587 497.099 401.179 497.169 401.838L498.696 416.16C498.766 416.819 499.358 417.296 500.018 417.226L514.349 415.698C515.009 415.628 515.487 415.036 515.416 414.377L513.889 400.055C513.819 399.396 513.227 398.918 512.568 398.989Z" stroke="#92A5C0" stroke-width="1.14135" stroke-linecap="round" stroke-linejoin="round"/>
</g>
<g style="mix-blend-mode:multiply" opacity="0.33">
<path d="M538.411 396.233L524.079 397.761C523.419 397.832 522.942 398.423 523.012 399.082L524.539 413.404C524.609 414.063 525.201 414.541 525.861 414.47L540.192 412.942C540.852 412.872 541.33 412.281 541.259 411.621L539.732 397.299C539.662 396.64 539.07 396.163 538.411 396.233Z" fill="#4E4E4E"/>
<path d="M538.411 396.233L524.079 397.761C523.419 397.832 522.942 398.423 523.012 399.082L524.539 413.404C524.609 414.063 525.201 414.541 525.861 414.47L540.192 412.942C540.852 412.872 541.33 412.281 541.259 411.621L539.732 397.299C539.662 396.64 539.07 396.163 538.411 396.233Z" stroke="#92A5C0" stroke-width="1.14135" stroke-linecap="round" stroke-linejoin="round"/>
</g>
<g style="mix-blend-mode:multiply" opacity="0.33">
<path d="M564.253 393.478L549.922 395.006C549.262 395.076 548.784 395.668 548.855 396.327L550.382 410.649C550.452 411.308 551.044 411.785 551.703 411.715L566.035 410.187C566.694 410.117 567.172 409.525 567.102 408.866L565.575 394.544C565.504 393.885 564.913 393.407 564.253 393.478Z" fill="#4E4E4E"/>
<path d="M564.253 393.478L549.922 395.006C549.262 395.076 548.784 395.668 548.855 396.327L550.382 410.649C550.452 411.308 551.044 411.785 551.703 411.715L566.035 410.187C566.694 410.117 567.172 409.525 567.102 408.866L565.575 394.544C565.504 393.885 564.913 393.407 564.253 393.478Z" stroke="#92A5C0" stroke-width="1.14135" stroke-linecap="round" stroke-linejoin="round"/>
</g>
<g style="mix-blend-mode:multiply" opacity="0.33">
<path d="M604.429 389.194L575.765 392.25C575.106 392.32 574.628 392.912 574.698 393.571L576.225 407.893C576.296 408.552 576.887 409.029 577.547 408.959L606.21 405.903C606.87 405.833 607.347 405.241 607.277 404.582L605.75 390.26C605.68 389.601 605.088 389.123 604.429 389.194Z" fill="#4E4E4E"/>
<path d="M604.429 389.194L575.765 392.25C575.106 392.32 574.628 392.912 574.698 393.571L576.225 407.893C576.296 408.552 576.887 409.029 577.547 408.959L606.21 405.903C606.87 405.833 607.347 405.241 607.277 404.582L605.75 390.26C605.68 389.601 605.088 389.123 604.429 389.194Z" stroke="#92A5C0" stroke-width="1.14135" stroke-linecap="round" stroke-linejoin="round"/>
</g>
<g style="mix-blend-mode:multiply" opacity="0.33">
<path d="M392.683 388.114L378.352 389.642C377.692 389.712 377.214 390.304 377.284 390.963L378.812 405.285C378.882 405.944 379.474 406.421 380.133 406.351L394.465 404.823C395.124 404.753 395.602 404.161 395.532 403.502L394.005 389.18C393.934 388.521 393.343 388.043 392.683 388.114Z" fill="#4E4E4E"/>
<path d="M392.683 388.114L378.352 389.642C377.692 389.712 377.214 390.304 377.284 390.963L378.812 405.285C378.882 405.944 379.474 406.421 380.133 406.351L394.465 404.823C395.124 404.753 395.602 404.161 395.532 403.502L394.005 389.18C393.934 388.521 393.343 388.043 392.683 388.114Z" stroke="#92A5C0" stroke-width="1.14135" stroke-linecap="round" stroke-linejoin="round"/>
</g>
<g style="mix-blend-mode:multiply" opacity="0.33">
<path d="M366.526 390.903L352.195 392.431C351.535 392.501 351.057 393.093 351.128 393.752L352.655 408.074C352.725 408.733 353.317 409.21 353.976 409.14L368.308 407.612C368.968 407.542 369.445 406.95 369.375 406.291L367.848 391.969C367.778 391.31 367.186 390.833 366.526 390.903Z" fill="#4E4E4E"/>
<path d="M366.526 390.903L352.195 392.431C351.535 392.501 351.057 393.093 351.128 393.752L352.655 408.074C352.725 408.733 353.317 409.21 353.976 409.14L368.308 407.612C368.968 407.542 369.445 406.95 369.375 406.291L367.848 391.969C367.778 391.31 367.186 390.833 366.526 390.903Z" stroke="#92A5C0" stroke-width="1.14135" stroke-linecap="round" stroke-linejoin="round"/>
</g>
<g style="mix-blend-mode:multiply" opacity="0.33">
<path d="M418.839 385.325L404.508 386.853C403.848 386.923 403.37 387.515 403.441 388.174L404.968 402.496C405.038 403.155 405.63 403.632 406.289 403.562L420.621 402.034C421.281 401.963 421.758 401.372 421.688 400.713L420.161 386.391C420.091 385.732 419.499 385.254 418.839 385.325Z" fill="#4E4E4E"/>
<path d="M418.839 385.325L404.508 386.853C403.848 386.923 403.37 387.515 403.441 388.174L404.968 402.496C405.038 403.155 405.63 403.632 406.289 403.562L420.621 402.034C421.281 401.963 421.758 401.372 421.688 400.713L420.161 386.391C420.091 385.732 419.499 385.254 418.839 385.325Z" stroke="#92A5C0" stroke-width="1.14135" stroke-linecap="round" stroke-linejoin="round"/>
</g>
<g style="mix-blend-mode:multiply" opacity="0.33">
<path d="M444.995 382.536L430.664 384.064C430.004 384.134 429.526 384.726 429.597 385.385L431.124 399.707C431.194 400.366 431.786 400.843 432.445 400.773L446.777 399.245C447.437 399.175 447.914 398.583 447.844 397.924L446.317 383.602C446.247 382.943 445.655 382.466 444.995 382.536Z" fill="#4E4E4E"/>
<path d="M444.995 382.536L430.664 384.064C430.004 384.134 429.526 384.726 429.597 385.385L431.124 399.707C431.194 400.366 431.786 400.843 432.445 400.773L446.777 399.245C447.437 399.175 447.914 398.583 447.844 397.924L446.317 383.602C446.247 382.943 445.655 382.466 444.995 382.536Z" stroke="#92A5C0" stroke-width="1.14135" stroke-linecap="round" stroke-linejoin="round"/>
</g>
<g style="mix-blend-mode:multiply" opacity="0.33">
<path d="M471.152 379.747L456.82 381.275C456.161 381.345 455.683 381.937 455.753 382.596L457.28 396.918C457.351 397.577 457.942 398.054 458.602 397.984L472.934 396.456C473.593 396.386 474.071 395.794 474.001 395.135L472.473 380.813C472.403 380.154 471.811 379.677 471.152 379.747Z" fill="#4E4E4E"/>
<path d="M471.152 379.747L456.82 381.275C456.161 381.345 455.683 381.937 455.753 382.596L457.28 396.918C457.351 397.577 457.942 398.054 458.602 397.984L472.934 396.456C473.593 396.386 474.071 395.794 474.001 395.135L472.473 380.813C472.403 380.154 471.811 379.677 471.152 379.747Z" stroke="#92A5C0" stroke-width="1.14135" stroke-linecap="round" stroke-linejoin="round"/>
</g>
<g style="mix-blend-mode:multiply" opacity="0.33">
<path d="M497.309 376.958L482.977 378.486C482.317 378.556 481.84 379.148 481.91 379.807L483.437 394.129C483.507 394.788 484.099 395.265 484.759 395.195L499.09 393.667C499.75 393.597 500.228 393.005 500.157 392.346L498.63 378.024C498.56 377.365 497.968 376.887 497.309 376.958Z" fill="#4E4E4E"/>
<path d="M497.309 376.958L482.977 378.486C482.317 378.556 481.84 379.148 481.91 379.807L483.437 394.129C483.507 394.788 484.099 395.265 484.759 395.195L499.09 393.667C499.75 393.597 500.228 393.005 500.157 392.346L498.63 378.024C498.56 377.365 497.968 376.887 497.309 376.958Z" stroke="#92A5C0" stroke-width="1.14135" stroke-linecap="round" stroke-linejoin="round"/>
</g>
<g style="mix-blend-mode:multiply" opacity="0.33">
<path d="M523.465 374.169L509.133 375.697C508.474 375.767 507.996 376.359 508.066 377.018L509.593 391.34C509.664 391.999 510.255 392.476 510.915 392.406L525.247 390.878C525.906 390.807 526.384 390.216 526.314 389.557L524.786 375.235C524.716 374.576 524.124 374.098 523.465 374.169Z" fill="#4E4E4E"/>
<path d="M523.465 374.169L509.133 375.697C508.474 375.767 507.996 376.359 508.066 377.018L509.593 391.34C509.664 391.999 510.255 392.476 510.915 392.406L525.247 390.878C525.906 390.807 526.384 390.216 526.314 389.557L524.786 375.235C524.716 374.576 524.124 374.098 523.465 374.169Z" stroke="#92A5C0" stroke-width="1.14135" stroke-linecap="round" stroke-linejoin="round"/>
</g>
<g style="mix-blend-mode:multiply" opacity="0.33">
<path d="M549.621 371.38L535.289 372.908C534.63 372.978 534.152 373.57 534.222 374.229L535.749 388.551C535.82 389.21 536.411 389.687 537.071 389.617L551.403 388.089C552.062 388.019 552.54 387.427 552.47 386.768L550.942 372.446C550.872 371.787 550.28 371.31 549.621 371.38Z" fill="#4E4E4E"/>
<path d="M549.621 371.38L535.289 372.908C534.63 372.978 534.152 373.57 534.222 374.229L535.749 388.551C535.82 389.21 536.411 389.687 537.071 389.617L551.403 388.089C552.062 388.019 552.54 387.427 552.47 386.768L550.942 372.446C550.872 371.787 550.28 371.31 549.621 371.38Z" stroke="#92A5C0" stroke-width="1.14135" stroke-linecap="round" stroke-linejoin="round"/>
</g>
<g style="mix-blend-mode:multiply" opacity="0.33">
<path d="M575.777 368.591L561.446 370.119C560.786 370.189 560.308 370.781 560.379 371.44L561.906 385.762C561.976 386.421 562.568 386.898 563.227 386.828L577.559 385.3C578.219 385.23 578.696 384.638 578.626 383.979L577.099 369.657C577.029 368.998 576.437 368.521 575.777 368.591Z" fill="#4E4E4E"/>
<path d="M575.777 368.591L561.446 370.119C560.786 370.189 560.308 370.781 560.379 371.44L561.906 385.762C561.976 386.421 562.568 386.898 563.227 386.828L577.559 385.3C578.219 385.23 578.696 384.638 578.626 383.979L577.099 369.657C577.029 368.998 576.437 368.521 575.777 368.591Z" stroke="#92A5C0" stroke-width="1.14135" stroke-linecap="round" stroke-linejoin="round"/>
</g>
<g style="mix-blend-mode:multiply" opacity="0.33">
<path d="M601.934 365.802L587.603 367.33C586.943 367.4 586.465 367.992 586.535 368.651L588.063 382.973C588.133 383.632 588.725 384.109 589.384 384.039L603.716 382.511C604.375 382.441 604.853 381.849 604.783 381.19L603.256 366.868C603.185 366.209 602.594 365.731 601.934 365.802Z" fill="#4E4E4E"/>
<path d="M601.934 365.802L587.603 367.33C586.943 367.4 586.465 367.992 586.535 368.651L588.063 382.973C588.133 383.632 588.725 384.109 589.384 384.039L603.716 382.511C604.375 382.441 604.853 381.849 604.783 381.19L603.256 366.868C603.185 366.209 602.594 365.731 601.934 365.802Z" stroke="#92A5C0" stroke-width="1.14135" stroke-linecap="round" stroke-linejoin="round"/>
</g>
<g style="mix-blend-mode:multiply" opacity="0.33">
<path d="M400.006 459.757L385.674 461.285C385.014 461.355 384.537 461.947 384.607 462.606L386.134 476.928C386.204 477.587 386.796 478.064 387.456 477.994L401.787 476.466C402.447 476.396 402.925 475.804 402.854 475.145L401.327 460.823C401.257 460.164 400.665 459.687 400.006 459.757Z" fill="#4E4E4E"/>
</g>
<g style="mix-blend-mode:multiply" opacity="0.33">
<path d="M374.162 462.512L359.83 464.041C359.171 464.111 358.693 464.702 358.763 465.361L360.29 479.684C360.361 480.343 360.952 480.82 361.612 480.75L375.944 479.222C376.603 479.151 377.081 478.56 377.011 477.901L375.483 463.579C375.413 462.919 374.821 462.442 374.162 462.512Z" fill="#4E4E4E"/>
</g>
<g style="mix-blend-mode:multiply" opacity="0.33">
<path d="M529.22 445.979L411.517 458.529C410.857 458.6 410.379 459.191 410.45 459.85L411.977 474.172C412.047 474.832 412.639 475.309 413.298 475.239L531.001 462.688C531.661 462.618 532.139 462.026 532.068 461.367L530.541 447.045C530.471 446.386 529.879 445.909 529.22 445.979Z" fill="#4E4E4E"/>
</g>
<g style="mix-blend-mode:multiply" opacity="0.33">
<path d="M555.063 443.223L540.731 444.752C540.072 444.822 539.594 445.413 539.664 446.072L541.192 460.395C541.262 461.054 541.853 461.531 542.513 461.461L556.845 459.933C557.504 459.862 557.982 459.271 557.912 458.612L556.385 444.29C556.314 443.63 555.723 443.153 555.063 443.223Z" fill="#4E4E4E"/>
</g>
<g style="mix-blend-mode:multiply" opacity="0.33">
<path d="M593.852 448.593L584.297 449.612C583.638 449.682 583.16 450.274 583.23 450.933L583.755 455.856C583.826 456.515 584.417 456.993 585.077 456.922L594.631 455.904C595.291 455.833 595.769 455.242 595.698 454.583L595.173 449.66C595.103 449 594.511 448.523 593.852 448.593Z" fill="#4E4E4E"/>
</g>
<g style="mix-blend-mode:multiply" opacity="0.33">
<path d="M592.85 439.194L583.295 440.213C582.636 440.283 582.158 440.875 582.228 441.534L582.753 446.457C582.823 447.116 583.415 447.594 584.075 447.523L593.629 446.505C594.289 446.434 594.766 445.843 594.696 445.184L594.171 440.26C594.101 439.601 593.509 439.124 592.85 439.194Z" fill="#4E4E4E"/>
</g>
<g style="mix-blend-mode:multiply" opacity="0.33">
<path d="M610.572 446.811L601.018 447.829C600.358 447.9 599.88 448.491 599.951 449.15L600.475 454.073C600.546 454.733 601.137 455.21 601.797 455.14L611.351 454.121C612.011 454.051 612.489 453.459 612.418 452.8L611.893 447.877C611.823 447.218 611.232 446.74 610.572 446.811Z" fill="#4E4E4E"/>
</g>
<g style="mix-blend-mode:multiply" opacity="0.33">
<path d="M577.132 450.376L567.577 451.395C566.918 451.465 566.44 452.057 566.51 452.716L567.035 457.639C567.105 458.298 567.697 458.776 568.357 458.705L577.911 457.687C578.571 457.616 579.048 457.025 578.978 456.366L578.453 451.443C578.383 450.783 577.791 450.306 577.132 450.376Z" fill="#4E4E4E"/>
</g>
<g style="mix-blend-mode:multiply" opacity="0.33">
<path d="M395.082 436.236L357.295 440.265C356.636 440.336 356.158 440.927 356.228 441.586L357.755 455.908C357.826 456.568 358.417 457.045 359.077 456.975L396.863 452.945C397.523 452.875 398.001 452.284 397.93 451.625L396.403 437.303C396.333 436.643 395.741 436.166 395.082 436.236Z" fill="#4E4E4E"/>
</g>
<g style="mix-blend-mode:multiply" opacity="0.33">
<path d="M421.14 433.458L406.808 434.986C406.149 435.056 405.671 435.648 405.741 436.307L407.268 450.629C407.339 451.288 407.93 451.765 408.59 451.695L422.922 450.167C423.581 450.097 424.059 449.505 423.989 448.846L422.461 434.524C422.391 433.865 421.8 433.387 421.14 433.458Z" fill="#4E4E4E"/>
</g>
<g style="mix-blend-mode:multiply" opacity="0.33">
<path d="M446.984 430.702L432.652 432.23C431.992 432.301 431.515 432.892 431.585 433.551L433.112 447.873C433.182 448.532 433.774 449.01 434.434 448.939L448.765 447.411C449.425 447.341 449.903 446.75 449.832 446.09L448.305 431.768C448.235 431.109 447.643 430.632 446.984 430.702Z" fill="#4E4E4E"/>
</g>
<g style="mix-blend-mode:multiply" opacity="0.33">
<path d="M472.826 427.947L458.495 429.475C457.835 429.545 457.357 430.137 457.428 430.796L458.955 445.118C459.025 445.777 459.617 446.254 460.276 446.184L474.608 444.656C475.267 444.586 475.745 443.994 475.675 443.335L474.148 429.013C474.077 428.354 473.486 427.876 472.826 427.947Z" fill="#4E4E4E"/>
</g>
<g style="mix-blend-mode:multiply" opacity="0.33">
<path d="M498.669 425.191L484.338 426.719C483.678 426.79 483.201 427.381 483.271 428.04L484.798 442.362C484.868 443.021 485.46 443.499 486.12 443.428L500.451 441.9C501.111 441.83 501.588 441.239 501.518 440.579L499.991 426.257C499.921 425.598 499.329 425.121 498.669 425.191Z" fill="#4E4E4E"/>
</g>
<g style="mix-blend-mode:multiply" opacity="0.33">
<path d="M524.512 422.436L510.18 423.964C509.521 424.034 509.043 424.625 509.113 425.285L510.64 439.607C510.711 440.266 511.302 440.743 511.962 440.673L526.294 439.145C526.953 439.074 527.431 438.483 527.361 437.824L525.834 423.502C525.763 422.843 525.172 422.365 524.512 422.436Z" fill="#4E4E4E"/>
</g>
<g style="mix-blend-mode:multiply" opacity="0.33">
<path d="M550.355 419.68L536.024 421.208C535.364 421.278 534.887 421.87 534.957 422.529L536.484 436.851C536.554 437.51 537.146 437.988 537.806 437.917L552.137 436.389C552.797 436.319 553.274 435.727 553.204 435.068L551.677 420.746C551.607 420.087 551.015 419.61 550.355 419.68Z" fill="#4E4E4E"/>
</g>
<g style="mix-blend-mode:multiply" opacity="0.33">
<path d="M607.035 413.636L564.04 418.221C563.38 418.291 562.903 418.882 562.973 419.542L564.5 433.864C564.57 434.523 565.162 435 565.822 434.93L608.816 430.345C609.476 430.275 609.954 429.684 609.883 429.025L608.356 414.703C608.286 414.043 607.694 413.566 607.035 413.636Z" fill="#4E4E4E"/>
</g>
<g style="mix-blend-mode:multiply" opacity="0.33">
<path d="M409.196 410.011L394.864 411.539C394.204 411.61 393.727 412.201 393.797 412.86L395.324 427.182C395.394 427.841 395.986 428.319 396.646 428.248L410.977 426.72C411.637 426.65 412.115 426.059 412.044 425.399L410.517 411.077C410.447 410.418 409.855 409.941 409.196 410.011Z" fill="#4E4E4E"/>
</g>
<g style="mix-blend-mode:multiply" opacity="0.33">
<path d="M383.352 412.767L354.689 415.823C354.029 415.893 353.552 416.485 353.622 417.144L355.149 431.466C355.219 432.125 355.811 432.602 356.471 432.532L385.134 429.476C385.793 429.406 386.271 428.814 386.201 428.155L384.674 413.833C384.603 413.174 384.012 412.696 383.352 412.767Z" fill="#4E4E4E"/>
</g>
<g style="mix-blend-mode:multiply" opacity="0.33">
<path d="M435.038 407.256L420.707 408.784C420.047 408.854 419.569 409.445 419.64 410.105L421.167 424.427C421.237 425.086 421.829 425.563 422.488 425.493L436.82 423.965C437.48 423.894 437.957 423.303 437.887 422.644L436.36 408.322C436.29 407.663 435.698 407.185 435.038 407.256Z" fill="#4E4E4E"/>
</g>
<g style="mix-blend-mode:multiply" opacity="0.33">
<path d="M460.881 404.5L446.55 406.028C445.89 406.099 445.412 406.69 445.483 407.349L447.01 421.671C447.08 422.33 447.672 422.808 448.331 422.737L462.663 421.209C463.323 421.139 463.8 420.547 463.73 419.888L462.203 405.566C462.133 404.907 461.541 404.43 460.881 404.5Z" fill="#4E4E4E"/>
</g>
<g style="mix-blend-mode:multiply" opacity="0.33">
<path d="M486.724 401.744L472.392 403.273C471.733 403.343 471.255 403.934 471.325 404.593L472.852 418.915C472.923 419.575 473.514 420.052 474.174 419.982L488.506 418.453C489.165 418.383 489.643 417.792 489.573 417.133L488.045 402.811C487.975 402.151 487.383 401.674 486.724 401.744Z" fill="#4E4E4E"/>
</g>
<g style="mix-blend-mode:multiply" opacity="0.33">
<path d="M512.568 398.989L498.236 400.517C497.576 400.587 497.099 401.179 497.169 401.838L498.696 416.16C498.766 416.819 499.358 417.296 500.018 417.226L514.349 415.698C515.009 415.628 515.487 415.036 515.416 414.377L513.889 400.055C513.819 399.396 513.227 398.918 512.568 398.989Z" fill="#4E4E4E"/>
</g>
<g style="mix-blend-mode:multiply" opacity="0.33">
<path d="M538.411 396.233L524.079 397.761C523.419 397.832 522.942 398.423 523.012 399.082L524.539 413.404C524.609 414.063 525.201 414.541 525.861 414.47L540.192 412.942C540.852 412.872 541.33 412.281 541.259 411.621L539.732 397.299C539.662 396.64 539.07 396.163 538.411 396.233Z" fill="#4E4E4E"/>
</g>
<g style="mix-blend-mode:multiply" opacity="0.33">
<path d="M564.253 393.478L549.922 395.006C549.262 395.076 548.784 395.668 548.855 396.327L550.382 410.649C550.452 411.308 551.044 411.785 551.703 411.715L566.035 410.187C566.694 410.117 567.172 409.525 567.102 408.866L565.575 394.544C565.504 393.885 564.913 393.407 564.253 393.478Z" fill="#4E4E4E"/>
</g>
<g style="mix-blend-mode:multiply" opacity="0.33">
<path d="M604.429 389.194L575.765 392.25C575.106 392.32 574.628 392.912 574.698 393.571L576.225 407.893C576.296 408.552 576.887 409.029 577.547 408.959L606.21 405.903C606.87 405.833 607.347 405.241 607.277 404.582L605.75 390.26C605.68 389.601 605.088 389.123 604.429 389.194Z" fill="#4E4E4E"/>
</g>
<g style="mix-blend-mode:multiply" opacity="0.33">
<path d="M392.683 388.114L378.352 389.642C377.692 389.712 377.214 390.304 377.284 390.963L378.812 405.285C378.882 405.944 379.474 406.421 380.133 406.351L394.465 404.823C395.124 404.753 395.602 404.161 395.532 403.502L394.005 389.18C393.934 388.521 393.343 388.043 392.683 388.114Z" fill="#4E4E4E"/>
</g>
<g style="mix-blend-mode:multiply" opacity="0.33">
<path d="M366.526 390.903L352.195 392.431C351.535 392.501 351.057 393.093 351.128 393.752L352.655 408.074C352.725 408.733 353.317 409.21 353.976 409.14L368.308 407.612C368.968 407.542 369.445 406.95 369.375 406.291L367.848 391.969C367.778 391.31 367.186 390.833 366.526 390.903Z" fill="#4E4E4E"/>
</g>
<g style="mix-blend-mode:multiply" opacity="0.33">
<path d="M418.839 385.325L404.508 386.853C403.848 386.923 403.37 387.515 403.441 388.174L404.968 402.496C405.038 403.155 405.63 403.632 406.289 403.562L420.621 402.034C421.281 401.963 421.758 401.372 421.688 400.713L420.161 386.391C420.091 385.732 419.499 385.254 418.839 385.325Z" fill="#4E4E4E"/>
</g>
<g style="mix-blend-mode:multiply" opacity="0.33">
<path d="M444.995 382.536L430.664 384.064C430.004 384.134 429.526 384.726 429.597 385.385L431.124 399.707C431.194 400.366 431.786 400.843 432.445 400.773L446.777 399.245C447.437 399.175 447.914 398.583 447.844 397.924L446.317 383.602C446.247 382.943 445.655 382.466 444.995 382.536Z" fill="#4E4E4E"/>
</g>
<g style="mix-blend-mode:multiply" opacity="0.33">
<path d="M471.152 379.747L456.82 381.275C456.161 381.345 455.683 381.937 455.753 382.596L457.28 396.918C457.351 397.577 457.942 398.054 458.602 397.984L472.934 396.456C473.593 396.386 474.071 395.794 474.001 395.135L472.473 380.813C472.403 380.154 471.811 379.677 471.152 379.747Z" fill="#4E4E4E"/>
</g>
<g style="mix-blend-mode:multiply" opacity="0.33">
<path d="M497.309 376.958L482.977 378.486C482.317 378.556 481.84 379.148 481.91 379.807L483.437 394.129C483.507 394.788 484.099 395.265 484.759 395.195L499.09 393.667C499.75 393.597 500.228 393.005 500.157 392.346L498.63 378.024C498.56 377.365 497.968 376.887 497.309 376.958Z" fill="#4E4E4E"/>
</g>
<g style="mix-blend-mode:multiply" opacity="0.33">
<path d="M523.465 374.169L509.133 375.697C508.474 375.767 507.996 376.359 508.066 377.018L509.593 391.34C509.664 391.999 510.255 392.476 510.915 392.406L525.247 390.878C525.906 390.807 526.384 390.216 526.314 389.557L524.786 375.235C524.716 374.576 524.124 374.098 523.465 374.169Z" fill="#4E4E4E"/>
</g>
<g style="mix-blend-mode:multiply" opacity="0.33">
<path d="M549.621 371.38L535.289 372.908C534.63 372.978 534.152 373.57 534.222 374.229L535.749 388.551C535.82 389.21 536.411 389.687 537.071 389.617L551.403 388.089C552.062 388.019 552.54 387.427 552.47 386.768L550.942 372.446C550.872 371.787 550.28 371.31 549.621 371.38Z" fill="#4E4E4E"/>
</g>
<g style="mix-blend-mode:multiply" opacity="0.33">
<path d="M575.777 368.591L561.446 370.119C560.786 370.189 560.308 370.781 560.379 371.44L561.906 385.762C561.976 386.421 562.568 386.898 563.227 386.828L577.559 385.3C578.219 385.23 578.696 384.638 578.626 383.979L577.099 369.657C577.029 368.998 576.437 368.521 575.777 368.591Z" fill="#4E4E4E"/>
</g>
<g style="mix-blend-mode:multiply" opacity="0.33">
<path d="M601.934 365.802L587.603 367.33C586.943 367.4 586.465 367.992 586.535 368.651L588.063 382.973C588.133 383.632 588.725 384.109 589.384 384.039L603.716 382.511C604.375 382.441 604.853 381.849 604.783 381.19L603.256 366.868C603.185 366.209 602.594 365.731 601.934 365.802Z" fill="#4E4E4E"/>
</g>
<g style="mix-blend-mode:multiply" opacity="0.33">
<path d="M371.488 351.863L574.519 330.214L576.23 346.262C576.365 347.528 575.991 348.796 575.191 349.787C574.39 350.778 573.229 351.41 571.962 351.546L378.485 372.176C377.218 372.311 375.95 371.937 374.958 371.138C373.967 370.338 373.334 369.177 373.199 367.911L371.488 351.863Z" fill="#4E4E4E"/>
</g>
<g style="mix-blend-mode:multiply" opacity="0.25">
<path d="M571.453 346.77L377.976 367.4C376.709 367.535 375.441 367.162 374.449 366.362C373.458 365.562 372.825 364.402 372.69 363.135L373.199 367.909C373.334 369.176 373.967 370.336 374.958 371.136C375.95 371.936 377.218 372.309 378.485 372.174L571.962 351.544C573.229 351.409 574.391 350.776 575.191 349.786C575.991 348.795 576.365 347.527 576.23 346.261L575.721 341.487C575.856 342.753 575.482 344.021 574.682 345.012C573.881 346.002 572.72 346.635 571.453 346.77Z" fill="#4E4E4E"/>
</g>
<g style="mix-blend-mode:multiply" opacity="0.33">
<path d="M371.488 351.863L574.519 330.214L576.23 346.262C576.365 347.528 575.991 348.796 575.191 349.787C574.39 350.778 573.229 351.41 571.962 351.546L378.485 372.176C377.218 372.311 375.95 371.937 374.958 371.138C373.967 370.338 373.334 369.177 373.199 367.911L371.488 351.863Z" fill="#4E4E4E"/>
<path d="M371.488 351.863L574.519 330.214L576.23 346.262C576.365 347.528 575.991 348.796 575.191 349.787C574.39 350.778 573.229 351.41 571.962 351.546L378.485 372.176C377.218 372.311 375.95 371.937 374.958 371.138C373.967 370.338 373.334 369.177 373.199 367.911L371.488 351.863Z" stroke="#46505C" stroke-width="2.28269" stroke-linecap="round" stroke-linejoin="round"/>
</g>
<g style="mix-blend-mode:multiply" opacity="0.33">
<path d="M530.001 479.09L446.4 488.005C445.08 488.145 444.125 489.328 444.266 490.646L450.247 546.741C450.387 548.059 451.571 549.014 452.89 548.873L536.491 539.959C537.81 539.819 538.766 538.636 538.625 537.317L532.644 481.223C532.503 479.904 531.32 478.95 530.001 479.09Z" fill="#4E4E4E"/>
</g>
<g style="mix-blend-mode:multiply" opacity="0.33">
<path d="M530.001 479.09L446.4 488.005C445.08 488.145 444.125 489.328 444.266 490.646L450.247 546.741C450.387 548.059 451.571 549.014 452.89 548.873L536.491 539.959C537.81 539.819 538.766 538.636 538.625 537.317L532.644 481.223C532.503 479.904 531.32 478.95 530.001 479.09Z" fill="#4E4E4E"/>
<path d="M530.001 479.09L446.4 488.005C445.08 488.145 444.125 489.328 444.266 490.646L450.247 546.741C450.387 548.059 451.571 549.014 452.89 548.873L536.491 539.959C537.81 539.819 538.766 538.636 538.625 537.317L532.644 481.223C532.503 479.904 531.32 478.95 530.001 479.09Z" stroke="#92A5C0" stroke-width="1.14135" stroke-linecap="round" stroke-linejoin="round"/>
</g>
</g>
<path d="M581.121 131.024L304.044 160.568C294.809 161.553 288.121 169.832 289.105 179.06L306.413 341.377C307.397 350.605 315.68 357.288 324.915 356.303L601.992 326.759C611.226 325.774 617.915 317.495 616.931 308.267L599.623 145.95C598.639 136.722 590.356 130.039 581.121 131.024Z" stroke="black" stroke-width="1.14135" stroke-linecap="round" stroke-linejoin="round"/>
<path d="M581.121 131.024L304.044 160.568C294.809 161.553 288.121 169.832 289.105 179.06L306.413 341.377C307.397 350.605 315.68 357.288 324.915 356.303L601.992 326.759C611.226 325.774 617.915 317.495 616.931 308.267L599.623 145.95C598.639 136.722 590.356 130.039 581.121 131.024Z" fill="#92A5C0"/>
<path d="M581.121 131.024L304.044 160.568C294.809 161.553 288.121 169.832 289.105 179.06L306.413 341.377C307.397 350.605 315.68 357.288 324.915 356.303L601.992 326.759C611.226 325.774 617.915 317.495 616.931 308.267L599.623 145.95C598.639 136.722 590.356 130.039 581.121 131.024Z" fill="#92A5C0"/>
<g style="mix-blend-mode:multiply" opacity="0.17">
<path d="M581.121 131.024L304.044 160.568C294.809 161.553 288.121 169.832 289.105 179.06L305.269 330.655C306.253 339.883 314.537 346.565 323.771 345.581L600.849 316.037C610.083 315.052 616.771 306.773 615.787 297.545L599.623 145.95C598.639 136.722 590.356 130.039 581.121 131.024Z" fill="#92A5C0"/>
</g>
<path opacity="0.1" d="M304.552 165.338L581.63 135.794C586.064 135.321 590.505 136.628 593.975 139.427C597.444 142.226 599.659 146.289 600.132 150.72L616.93 308.263L599.623 145.946C599.15 141.515 596.935 137.452 593.466 134.653C589.996 131.854 585.555 130.547 581.121 131.02L304.043 160.564C299.609 161.037 295.544 163.251 292.742 166.719C289.941 170.187 288.632 174.624 289.105 179.056L289.614 183.83C289.141 179.399 290.45 174.961 293.251 171.493C296.053 168.025 300.118 165.811 304.552 165.338V165.338Z" fill="white"/>
<g opacity="0.1">
<path opacity="0.1" d="M402.815 347.997L422.006 345.951L543.44 135.042L524.249 137.089L402.815 347.997Z" fill="white"/>
<path opacity="0.1" d="M433.077 344.77L438.982 344.141L560.417 133.232L554.511 133.862L433.077 344.77Z" fill="white"/>
</g>
<path d="M581.121 131.024L304.044 160.568C294.809 161.553 288.121 169.832 289.105 179.06L306.413 341.377C307.397 350.605 315.68 357.288 324.915 356.303L601.992 326.759C611.226 325.774 617.915 317.495 616.931 308.267L599.623 145.95C598.639 136.722 590.356 130.039 581.121 131.024Z" stroke="#46505C" stroke-width="4.56539" stroke-linecap="round" stroke-linejoin="round"/>
<path d="M594.664 303.345L578.696 153.589L311.173 182.115L327.141 331.87L594.664 303.345Z" fill="#FE5070"/>
<g opacity="0.06">
<path opacity="0.06" d="M418.463 322.766L437.654 320.72L530.95 158.68L511.759 160.727L418.463 322.766Z" fill="white"/>
<path opacity="0.06" d="M448.725 319.54L454.631 318.91L547.927 156.87L542.023 157.5L448.725 319.54Z" fill="white"/>
</g>
<path d="M594.731 303.971L578.696 153.589L311.173 182.115L327.208 332.496L594.731 303.971Z" stroke="#46505C" stroke-width="1.14135" stroke-linecap="round" stroke-linejoin="round"/>
<path d="M601.992 326.76L324.915 356.304C315.68 357.289 308.992 365.568 309.976 374.796L328.302 546.661C329.286 555.889 337.569 562.572 346.804 561.587L623.881 532.043C633.116 531.058 639.804 522.779 638.82 513.551L620.494 341.686C619.51 332.458 611.227 325.775 601.992 326.76Z" fill="#E6F3FF"/>
<path d="M634.043 514.061L615.717 342.196C615.014 335.604 609.097 330.831 602.501 331.534L325.424 361.078C318.828 361.782 314.051 367.695 314.753 374.287L333.079 546.152C333.782 552.743 339.699 557.517 346.295 556.813L623.372 527.269C629.968 526.566 634.745 520.652 634.043 514.061Z" fill="white" stroke="#E6F3FF" stroke-width="2.28269" stroke-miterlimit="10"/>
<path d="M465.178 539.526L503.515 535.438C504.782 535.303 506.05 535.676 507.042 536.476C508.033 537.276 508.666 538.436 508.801 539.703L509.287 544.262L461.396 549.368L460.909 544.809C460.774 543.543 461.148 542.275 461.949 541.284C462.749 540.293 463.911 539.661 465.178 539.526Z" fill="#E6F3FF"/>
<path d="M601.992 326.76L324.915 356.304C315.68 357.289 308.992 365.568 309.976 374.796L328.302 546.661C329.286 555.889 337.569 562.572 346.804 561.587L623.881 532.043C633.116 531.058 639.804 522.779 638.82 513.551L620.494 341.686C619.51 332.458 611.227 325.775 601.992 326.76Z" stroke="#46505C" stroke-width="4.56539" stroke-linecap="round" stroke-linejoin="round"/>
<path d="M598.923 343.285L331.4 371.811C329.421 372.022 327.988 373.796 328.198 375.773L339.143 478.415C339.354 480.392 341.129 481.824 343.108 481.613L610.631 453.088C612.609 452.877 614.043 451.103 613.832 449.125L602.887 346.484C602.677 344.506 600.901 343.074 598.923 343.285Z" fill="#E6F3FF"/>
<path d="M389.311 449.527L374.979 451.056C374.32 451.126 373.842 451.717 373.912 452.376L375.439 466.698C375.51 467.358 376.101 467.835 376.761 467.765L391.092 466.236C391.752 466.166 392.23 465.575 392.16 464.916L390.632 450.594C390.562 449.934 389.97 449.457 389.311 449.527Z" stroke="#92A5C0" stroke-width="1.14135" stroke-linecap="round" stroke-linejoin="round"/>
<path d="M363.468 452.283L349.136 453.811C348.477 453.881 347.999 454.473 348.069 455.132L349.597 469.454C349.667 470.113 350.258 470.591 350.918 470.52L365.25 468.992C365.909 468.922 366.387 468.33 366.317 467.671L364.79 453.349C364.719 452.69 364.128 452.213 363.468 452.283Z" stroke="#92A5C0" stroke-width="1.14135" stroke-linecap="round" stroke-linejoin="round"/>
<path d="M518.526 435.749L400.823 448.3C400.163 448.37 399.686 448.962 399.756 449.621L401.283 463.943C401.353 464.602 401.945 465.079 402.605 465.009L520.308 452.459C520.967 452.388 521.445 451.797 521.375 451.138L519.848 436.816C519.777 436.156 519.186 435.679 518.526 435.749Z" stroke="#92A5C0" stroke-width="1.14135" stroke-linecap="round" stroke-linejoin="round"/>
<path d="M544.369 432.994L530.037 434.522C529.378 434.592 528.9 435.184 528.97 435.843L530.497 450.165C530.568 450.824 531.159 451.301 531.819 451.231L546.151 449.703C546.81 449.633 547.288 449.041 547.218 448.382L545.69 434.06C545.62 433.401 545.028 432.924 544.369 432.994Z" stroke="#92A5C0" stroke-width="1.14135" stroke-linecap="round" stroke-linejoin="round"/>
<path d="M583.157 438.364L573.603 439.383C572.943 439.453 572.465 440.044 572.535 440.704L573.06 445.627C573.131 446.286 573.722 446.763 574.382 446.693L583.936 445.674C584.596 445.604 585.074 445.012 585.003 444.353L584.478 439.43C584.408 438.771 583.817 438.294 583.157 438.364Z" stroke="#92A5C0" stroke-width="1.14135" stroke-linecap="round" stroke-linejoin="round"/>
<path d="M582.155 428.965L572.6 429.983C571.941 430.054 571.463 430.645 571.533 431.304L572.058 436.228C572.128 436.887 572.72 437.364 573.38 437.294L582.934 436.275C583.594 436.205 584.072 435.613 584.001 434.954L583.476 430.031C583.406 429.372 582.814 428.894 582.155 428.965Z" stroke="#92A5C0" stroke-width="1.14135" stroke-linecap="round" stroke-linejoin="round"/>
<path d="M599.877 436.581L590.322 437.6C589.663 437.67 589.185 438.262 589.255 438.921L589.78 443.844C589.851 444.503 590.442 444.98 591.102 444.91L600.656 443.891C601.316 443.821 601.794 443.23 601.723 442.571L601.198 437.647C601.128 436.988 600.536 436.511 599.877 436.581Z" stroke="#92A5C0" stroke-width="1.14135" stroke-linecap="round" stroke-linejoin="round"/>
<path d="M566.437 440.147L556.882 441.166C556.223 441.236 555.745 441.827 555.815 442.486L556.34 447.41C556.41 448.069 557.002 448.546 557.662 448.476L567.216 447.457C567.876 447.387 568.353 446.795 568.283 446.136L567.758 441.213C567.688 440.554 567.096 440.077 566.437 440.147Z" stroke="#92A5C0" stroke-width="1.14135" stroke-linecap="round" stroke-linejoin="round"/>
<path d="M384.388 426.009L346.602 430.038C345.942 430.108 345.464 430.7 345.534 431.359L347.062 445.681C347.132 446.34 347.724 446.817 348.383 446.747L386.17 442.718C386.829 442.648 387.307 442.056 387.237 441.397L385.71 427.075C385.639 426.416 385.048 425.939 384.388 426.009Z" stroke="#92A5C0" stroke-width="1.14135" stroke-linecap="round" stroke-linejoin="round"/>
<path d="M410.447 423.23L396.115 424.758C395.455 424.829 394.978 425.42 395.048 426.079L396.575 440.401C396.645 441.06 397.237 441.538 397.897 441.467L412.228 439.939C412.888 439.869 413.366 439.278 413.295 438.618L411.768 424.296C411.698 423.637 411.106 423.16 410.447 423.23Z" stroke="#92A5C0" stroke-width="1.14135" stroke-linecap="round" stroke-linejoin="round"/>
<path d="M436.289 420.475L421.957 422.003C421.298 422.073 420.82 422.665 420.89 423.324L422.417 437.646C422.488 438.305 423.079 438.782 423.739 438.712L438.07 437.184C438.73 437.114 439.208 436.522 439.138 435.863L437.61 421.541C437.54 420.882 436.948 420.405 436.289 420.475Z" stroke="#92A5C0" stroke-width="1.14135" stroke-linecap="round" stroke-linejoin="round"/>
<path d="M462.133 417.719L447.801 419.247C447.141 419.318 446.664 419.909 446.734 420.568L448.261 434.89C448.331 435.549 448.923 436.027 449.583 435.956L463.914 434.428C464.574 434.358 465.052 433.767 464.981 433.107L463.454 418.785C463.384 418.126 462.792 417.649 462.133 417.719Z" stroke="#92A5C0" stroke-width="1.14135" stroke-linecap="round" stroke-linejoin="round"/>
<path d="M487.975 414.964L473.643 416.492C472.984 416.562 472.506 417.153 472.576 417.813L474.103 432.135C474.174 432.794 474.765 433.271 475.425 433.201L489.757 431.673C490.416 431.602 490.894 431.011 490.824 430.352L489.296 416.03C489.226 415.371 488.634 414.893 487.975 414.964Z" stroke="#92A5C0" stroke-width="1.14135" stroke-linecap="round" stroke-linejoin="round"/>
<path d="M513.818 412.208L499.487 413.736C498.827 413.807 498.349 414.398 498.419 415.057L499.947 429.379C500.017 430.038 500.609 430.516 501.268 430.445L515.6 428.917C516.259 428.847 516.737 428.255 516.667 427.596L515.14 413.274C515.069 412.615 514.478 412.138 513.818 412.208Z" stroke="#92A5C0" stroke-width="1.14135" stroke-linecap="round" stroke-linejoin="round"/>
<path d="M539.661 409.452L525.329 410.981C524.67 411.051 524.192 411.642 524.262 412.301L525.789 426.623C525.86 427.283 526.451 427.76 527.111 427.69L541.443 426.161C542.102 426.091 542.58 425.5 542.51 424.841L540.982 410.519C540.912 409.859 540.32 409.382 539.661 409.452Z" stroke="#92A5C0" stroke-width="1.14135" stroke-linecap="round" stroke-linejoin="round"/>
<path d="M596.34 403.409L553.345 407.993C552.686 408.064 552.208 408.655 552.278 409.314L553.805 423.636C553.876 424.295 554.467 424.773 555.127 424.702L598.122 420.118C598.781 420.048 599.259 419.456 599.189 418.797L597.662 404.475C597.591 403.816 597 403.338 596.34 403.409Z" stroke="#92A5C0" stroke-width="1.14135" stroke-linecap="round" stroke-linejoin="round"/>
<path d="M398.501 399.782L384.17 401.31C383.51 401.381 383.032 401.972 383.103 402.631L384.63 416.953C384.7 417.612 385.292 418.09 385.951 418.019L400.283 416.491C400.942 416.421 401.42 415.83 401.35 415.17L399.823 400.848C399.753 400.189 399.161 399.712 398.501 399.782Z" stroke="#92A5C0" stroke-width="1.14135" stroke-linecap="round" stroke-linejoin="round"/>
<path d="M372.659 402.538L343.995 405.594C343.336 405.664 342.858 406.256 342.928 406.915L344.455 421.237C344.526 421.896 345.117 422.373 345.777 422.303L374.44 419.247C375.1 419.177 375.578 418.585 375.507 417.926L373.98 403.604C373.91 402.945 373.318 402.467 372.659 402.538Z" stroke="#92A5C0" stroke-width="1.14135" stroke-linecap="round" stroke-linejoin="round"/>
<path d="M424.345 397.027L410.013 398.555C409.354 398.625 408.876 399.216 408.946 399.876L410.473 414.198C410.544 414.857 411.135 415.334 411.795 415.264L426.127 413.736C426.786 413.665 427.264 413.074 427.194 412.415L425.667 398.093C425.596 397.434 425.005 396.956 424.345 397.027Z" stroke="#92A5C0" stroke-width="1.14135" stroke-linecap="round" stroke-linejoin="round"/>
<path d="M450.186 394.271L435.855 395.799C435.195 395.87 434.717 396.461 434.788 397.12L436.315 411.442C436.385 412.101 436.977 412.579 437.636 412.508L451.968 410.98C452.628 410.91 453.105 410.319 453.035 409.659L451.508 395.337C451.438 394.678 450.846 394.201 450.186 394.271Z" stroke="#92A5C0" stroke-width="1.14135" stroke-linecap="round" stroke-linejoin="round"/>
<path d="M476.03 391.515L461.698 393.044C461.039 393.114 460.561 393.705 460.631 394.364L462.159 408.686C462.229 409.346 462.821 409.823 463.48 409.753L477.812 408.224C478.471 408.154 478.949 407.563 478.879 406.904L477.352 392.582C477.281 391.922 476.69 391.445 476.03 391.515Z" stroke="#92A5C0" stroke-width="1.14135" stroke-linecap="round" stroke-linejoin="round"/>
<path d="M501.874 388.76L487.542 390.288C486.883 390.358 486.405 390.95 486.475 391.609L488.002 405.931C488.073 406.59 488.664 407.067 489.324 406.997L503.655 405.469C504.315 405.399 504.793 404.807 504.722 404.148L503.195 389.826C503.125 389.167 502.533 388.689 501.874 388.76Z" stroke="#92A5C0" stroke-width="1.14135" stroke-linecap="round" stroke-linejoin="round"/>
<path d="M527.716 386.004L513.384 387.533C512.725 387.603 512.247 388.194 512.317 388.853L513.844 403.175C513.915 403.835 514.506 404.312 515.166 404.242L529.497 402.713C530.157 402.643 530.635 402.052 530.565 401.393L529.037 387.071C528.967 386.411 528.375 385.934 527.716 386.004Z" stroke="#92A5C0" stroke-width="1.14135" stroke-linecap="round" stroke-linejoin="round"/>
<path d="M553.559 383.249L539.228 384.777C538.568 384.847 538.09 385.439 538.16 386.098L539.688 400.42C539.758 401.079 540.35 401.556 541.009 401.486L555.341 399.958C556 399.888 556.478 399.296 556.408 398.637L554.881 384.315C554.81 383.656 554.219 383.178 553.559 383.249Z" stroke="#92A5C0" stroke-width="1.14135" stroke-linecap="round" stroke-linejoin="round"/>
<path d="M593.733 378.965L565.07 382.021C564.411 382.092 563.933 382.683 564.003 383.342L565.53 397.664C565.601 398.323 566.192 398.801 566.852 398.73L595.515 395.674C596.175 395.604 596.652 395.012 596.582 394.353L595.055 380.031C594.985 379.372 594.393 378.895 593.733 378.965Z" stroke="#92A5C0" stroke-width="1.14135" stroke-linecap="round" stroke-linejoin="round"/>
<path d="M381.989 377.883L367.658 379.411C366.998 379.481 366.52 380.072 366.591 380.732L368.118 395.054C368.188 395.713 368.78 396.19 369.439 396.12L383.771 394.592C384.431 394.521 384.908 393.93 384.838 393.271L383.311 378.949C383.241 378.29 382.649 377.812 381.989 377.883Z" stroke="#92A5C0" stroke-width="1.14135" stroke-linecap="round" stroke-linejoin="round"/>
<path d="M355.832 380.672L341.501 382.2C340.841 382.27 340.363 382.861 340.434 383.521L341.961 397.843C342.031 398.502 342.623 398.979 343.282 398.909L357.614 397.381C358.274 397.31 358.751 396.719 358.681 396.06L357.154 381.738C357.084 381.079 356.492 380.601 355.832 380.672Z" stroke="#92A5C0" stroke-width="1.14135" stroke-linecap="round" stroke-linejoin="round"/>
<path d="M408.146 375.094L393.814 376.622C393.154 376.692 392.677 377.284 392.747 377.943L394.274 392.265C394.344 392.924 394.936 393.401 395.596 393.331L409.927 391.803C410.587 391.733 411.065 391.141 410.994 390.482L409.467 376.16C409.397 375.501 408.805 375.023 408.146 375.094Z" stroke="#92A5C0" stroke-width="1.14135" stroke-linecap="round" stroke-linejoin="round"/>
<path d="M434.302 372.305L419.97 373.833C419.311 373.903 418.833 374.495 418.903 375.154L420.43 389.476C420.501 390.135 421.092 390.612 421.752 390.542L436.083 389.014C436.743 388.943 437.221 388.352 437.15 387.693L435.623 373.371C435.553 372.712 434.961 372.234 434.302 372.305Z" stroke="#92A5C0" stroke-width="1.14135" stroke-linecap="round" stroke-linejoin="round"/>
<path d="M460.458 369.516L446.126 371.044C445.467 371.114 444.989 371.705 445.059 372.365L446.587 386.687C446.657 387.346 447.248 387.823 447.908 387.753L462.24 386.225C462.899 386.154 463.377 385.563 463.307 384.904L461.78 370.582C461.709 369.923 461.118 369.445 460.458 369.516Z" stroke="#92A5C0" stroke-width="1.14135" stroke-linecap="round" stroke-linejoin="round"/>
<path d="M486.614 366.727L472.282 368.255C471.622 368.325 471.145 368.917 471.215 369.576L472.742 383.898C472.812 384.557 473.404 385.034 474.064 384.964L488.395 383.436C489.055 383.366 489.533 382.774 489.462 382.115L487.935 367.793C487.865 367.134 487.273 366.656 486.614 366.727Z" stroke="#92A5C0" stroke-width="1.14135" stroke-linecap="round" stroke-linejoin="round"/>
<path d="M512.77 363.938L498.438 365.466C497.778 365.536 497.301 366.128 497.371 366.787L498.898 381.109C498.968 381.768 499.56 382.245 500.22 382.175L514.551 380.647C515.211 380.577 515.689 379.985 515.618 379.326L514.091 365.004C514.021 364.345 513.429 363.867 512.77 363.938Z" stroke="#92A5C0" stroke-width="1.14135" stroke-linecap="round" stroke-linejoin="round"/>
<path d="M538.926 361.149L524.594 362.677C523.935 362.747 523.457 363.339 523.527 363.998L525.054 378.32C525.125 378.979 525.716 379.456 526.376 379.386L540.707 377.858C541.367 377.788 541.845 377.196 541.774 376.537L540.247 362.215C540.177 361.556 539.585 361.079 538.926 361.149Z" stroke="#92A5C0" stroke-width="1.14135" stroke-linecap="round" stroke-linejoin="round"/>
<path d="M565.082 358.36L550.75 359.888C550.091 359.958 549.613 360.55 549.683 361.209L551.211 375.531C551.281 376.19 551.873 376.667 552.532 376.597L566.864 375.069C567.523 374.999 568.001 374.407 567.931 373.748L566.404 359.426C566.333 358.767 565.742 358.29 565.082 358.36Z" stroke="#92A5C0" stroke-width="1.14135" stroke-linecap="round" stroke-linejoin="round"/>
<path d="M591.239 355.571L576.907 357.099C576.248 357.169 575.77 357.761 575.84 358.42L577.368 372.742C577.438 373.401 578.029 373.878 578.689 373.808L593.021 372.28C593.68 372.21 594.158 371.618 594.088 370.959L592.561 356.637C592.49 355.978 591.899 355.5 591.239 355.571Z" stroke="#92A5C0" stroke-width="1.14135" stroke-linecap="round" stroke-linejoin="round"/>
<path d="M389.311 449.527L374.979 451.056C374.32 451.126 373.842 451.717 373.912 452.376L375.439 466.698C375.51 467.358 376.101 467.835 376.761 467.765L391.092 466.236C391.752 466.166 392.23 465.575 392.16 464.916L390.632 450.594C390.562 449.934 389.97 449.457 389.311 449.527Z" fill="#92A5C0"/>
<path d="M363.468 452.283L349.136 453.811C348.477 453.881 347.999 454.473 348.069 455.132L349.597 469.454C349.667 470.113 350.258 470.591 350.918 470.52L365.25 468.992C365.909 468.922 366.387 468.33 366.317 467.671L364.79 453.349C364.719 452.69 364.128 452.213 363.468 452.283Z" fill="#92A5C0"/>
<path d="M518.526 435.749L400.823 448.3C400.163 448.37 399.686 448.962 399.756 449.621L401.283 463.943C401.353 464.602 401.945 465.079 402.605 465.009L520.308 452.459C520.967 452.388 521.445 451.797 521.375 451.138L519.848 436.816C519.777 436.156 519.186 435.679 518.526 435.749Z" fill="#92A5C0"/>
<path d="M544.369 432.994L530.037 434.522C529.378 434.592 528.9 435.184 528.97 435.843L530.497 450.165C530.568 450.824 531.159 451.301 531.819 451.231L546.151 449.703C546.81 449.633 547.288 449.041 547.218 448.382L545.69 434.06C545.62 433.401 545.028 432.924 544.369 432.994Z" fill="#92A5C0"/>
<path d="M583.157 438.364L573.603 439.383C572.943 439.453 572.465 440.044 572.535 440.704L573.06 445.627C573.131 446.286 573.722 446.763 574.382 446.693L583.936 445.674C584.596 445.604 585.074 445.012 585.003 444.353L584.478 439.43C584.408 438.771 583.817 438.294 583.157 438.364Z" fill="#92A5C0"/>
<path d="M582.155 428.965L572.6 429.983C571.941 430.054 571.463 430.645 571.533 431.304L572.058 436.228C572.128 436.887 572.72 437.364 573.38 437.294L582.934 436.275C583.594 436.205 584.072 435.613 584.001 434.954L583.476 430.031C583.406 429.372 582.814 428.894 582.155 428.965Z" fill="#92A5C0"/>
<path d="M599.877 436.581L590.322 437.6C589.663 437.67 589.185 438.262 589.255 438.921L589.78 443.844C589.851 444.503 590.442 444.98 591.102 444.91L600.656 443.891C601.316 443.821 601.794 443.23 601.723 442.571L601.198 437.647C601.128 436.988 600.536 436.511 599.877 436.581Z" fill="#92A5C0"/>
<path d="M566.437 440.147L556.882 441.166C556.223 441.236 555.745 441.827 555.815 442.486L556.34 447.41C556.41 448.069 557.002 448.546 557.662 448.476L567.216 447.457C567.876 447.387 568.353 446.795 568.283 446.136L567.758 441.213C567.688 440.554 567.096 440.077 566.437 440.147Z" fill="#92A5C0"/>
<path d="M384.388 426.009L346.602 430.038C345.942 430.108 345.464 430.7 345.534 431.359L347.062 445.681C347.132 446.34 347.724 446.817 348.383 446.747L386.17 442.718C386.829 442.648 387.307 442.056 387.237 441.397L385.71 427.075C385.639 426.416 385.048 425.939 384.388 426.009Z" fill="#92A5C0"/>
<path d="M410.447 423.23L396.115 424.758C395.455 424.829 394.978 425.42 395.048 426.079L396.575 440.401C396.645 441.06 397.237 441.538 397.897 441.467L412.228 439.939C412.888 439.869 413.366 439.278 413.295 438.618L411.768 424.296C411.698 423.637 411.106 423.16 410.447 423.23Z" fill="#92A5C0"/>
<path d="M436.289 420.475L421.957 422.003C421.298 422.073 420.82 422.665 420.89 423.324L422.417 437.646C422.488 438.305 423.079 438.782 423.739 438.712L438.07 437.184C438.73 437.114 439.208 436.522 439.138 435.863L437.61 421.541C437.54 420.882 436.948 420.405 436.289 420.475Z" fill="#92A5C0"/>
<path d="M462.133 417.719L447.801 419.247C447.141 419.318 446.664 419.909 446.734 420.568L448.261 434.89C448.331 435.549 448.923 436.027 449.583 435.956L463.914 434.428C464.574 434.358 465.052 433.767 464.981 433.107L463.454 418.785C463.384 418.126 462.792 417.649 462.133 417.719Z" fill="#92A5C0"/>
<path d="M487.975 414.964L473.643 416.492C472.984 416.562 472.506 417.153 472.576 417.813L474.103 432.135C474.174 432.794 474.765 433.271 475.425 433.201L489.757 431.673C490.416 431.602 490.894 431.011 490.824 430.352L489.296 416.03C489.226 415.371 488.634 414.893 487.975 414.964Z" fill="#92A5C0"/>
<path d="M513.818 412.208L499.487 413.736C498.827 413.807 498.349 414.398 498.419 415.057L499.947 429.379C500.017 430.038 500.609 430.516 501.268 430.445L515.6 428.917C516.259 428.847 516.737 428.255 516.667 427.596L515.14 413.274C515.069 412.615 514.478 412.138 513.818 412.208Z" fill="#92A5C0"/>
<path d="M539.661 409.452L525.329 410.981C524.67 411.051 524.192 411.642 524.262 412.301L525.789 426.623C525.86 427.283 526.451 427.76 527.111 427.69L541.443 426.161C542.102 426.091 542.58 425.5 542.51 424.841L540.982 410.519C540.912 409.859 540.32 409.382 539.661 409.452Z" fill="#92A5C0"/>
<path d="M596.34 403.409L553.345 407.993C552.686 408.064 552.208 408.655 552.278 409.314L553.805 423.636C553.876 424.295 554.467 424.773 555.127 424.702L598.122 420.118C598.781 420.048 599.259 419.456 599.189 418.797L597.662 404.475C597.591 403.816 597 403.338 596.34 403.409Z" fill="#92A5C0"/>
<path d="M398.501 399.782L384.17 401.31C383.51 401.381 383.032 401.972 383.103 402.631L384.63 416.953C384.7 417.612 385.292 418.09 385.951 418.019L400.283 416.491C400.942 416.421 401.42 415.83 401.35 415.17L399.823 400.848C399.753 400.189 399.161 399.712 398.501 399.782Z" fill="#92A5C0"/>
<path d="M372.659 402.538L343.995 405.594C343.336 405.664 342.858 406.256 342.928 406.915L344.455 421.237C344.526 421.896 345.117 422.373 345.777 422.303L374.44 419.247C375.1 419.177 375.578 418.585 375.507 417.926L373.98 403.604C373.91 402.945 373.318 402.467 372.659 402.538Z" fill="#92A5C0"/>
<path d="M424.345 397.027L410.013 398.555C409.354 398.625 408.876 399.216 408.946 399.876L410.473 414.198C410.544 414.857 411.135 415.334 411.795 415.264L426.127 413.736C426.786 413.665 427.264 413.074 427.194 412.415L425.667 398.093C425.596 397.434 425.005 396.956 424.345 397.027Z" fill="#92A5C0"/>
<path d="M450.186 394.271L435.855 395.799C435.195 395.87 434.717 396.461 434.788 397.12L436.315 411.442C436.385 412.101 436.977 412.579 437.636 412.508L451.968 410.98C452.628 410.91 453.105 410.319 453.035 409.659L451.508 395.337C451.438 394.678 450.846 394.201 450.186 394.271Z" fill="#92A5C0"/>
<path d="M476.03 391.515L461.698 393.044C461.039 393.114 460.561 393.705 460.631 394.364L462.159 408.686C462.229 409.346 462.821 409.823 463.48 409.753L477.812 408.224C478.471 408.154 478.949 407.563 478.879 406.904L477.352 392.582C477.281 391.922 476.69 391.445 476.03 391.515Z" fill="#92A5C0"/>
<path d="M501.874 388.76L487.542 390.288C486.883 390.358 486.405 390.95 486.475 391.609L488.002 405.931C488.073 406.59 488.664 407.067 489.324 406.997L503.655 405.469C504.315 405.399 504.793 404.807 504.722 404.148L503.195 389.826C503.125 389.167 502.533 388.689 501.874 388.76Z" fill="#92A5C0"/>
<path d="M527.716 386.004L513.384 387.533C512.725 387.603 512.247 388.194 512.317 388.853L513.844 403.175C513.915 403.835 514.506 404.312 515.166 404.242L529.497 402.713C530.157 402.643 530.635 402.052 530.565 401.393L529.037 387.071C528.967 386.411 528.375 385.934 527.716 386.004Z" fill="#92A5C0"/>
<path d="M553.559 383.249L539.228 384.777C538.568 384.847 538.09 385.439 538.16 386.098L539.688 400.42C539.758 401.079 540.35 401.556 541.009 401.486L555.341 399.958C556 399.888 556.478 399.296 556.408 398.637L554.881 384.315C554.81 383.656 554.219 383.178 553.559 383.249Z" fill="#92A5C0"/>
<path d="M593.733 378.965L565.07 382.021C564.411 382.092 563.933 382.683 564.003 383.342L565.53 397.664C565.601 398.323 566.192 398.801 566.852 398.73L595.515 395.674C596.175 395.604 596.652 395.012 596.582 394.353L595.055 380.031C594.985 379.372 594.393 378.895 593.733 378.965Z" fill="#92A5C0"/>
<path d="M381.989 377.883L367.658 379.411C366.998 379.481 366.52 380.072 366.591 380.732L368.118 395.054C368.188 395.713 368.78 396.19 369.439 396.12L383.771 394.592C384.431 394.521 384.908 393.93 384.838 393.271L383.311 378.949C383.241 378.29 382.649 377.812 381.989 377.883Z" fill="#92A5C0"/>
<path d="M355.832 380.672L341.501 382.2C340.841 382.27 340.363 382.861 340.434 383.521L341.961 397.843C342.031 398.502 342.623 398.979 343.282 398.909L357.614 397.381C358.274 397.31 358.751 396.719 358.681 396.06L357.154 381.738C357.084 381.079 356.492 380.601 355.832 380.672Z" fill="#92A5C0"/>
<path d="M408.146 375.094L393.814 376.622C393.154 376.692 392.677 377.284 392.747 377.943L394.274 392.265C394.344 392.924 394.936 393.401 395.596 393.331L409.927 391.803C410.587 391.733 411.065 391.141 410.994 390.482L409.467 376.16C409.397 375.501 408.805 375.023 408.146 375.094Z" fill="#92A5C0"/>
<path d="M434.302 372.305L419.97 373.833C419.311 373.903 418.833 374.495 418.903 375.154L420.43 389.476C420.501 390.135 421.092 390.612 421.752 390.542L436.083 389.014C436.743 388.943 437.221 388.352 437.15 387.693L435.623 373.371C435.553 372.712 434.961 372.234 434.302 372.305Z" fill="#92A5C0"/>
<path d="M460.458 369.516L446.126 371.044C445.467 371.114 444.989 371.705 445.059 372.365L446.587 386.687C446.657 387.346 447.248 387.823 447.908 387.753L462.24 386.225C462.899 386.154 463.377 385.563 463.307 384.904L461.78 370.582C461.709 369.923 461.118 369.445 460.458 369.516Z" fill="#92A5C0"/>
<path d="M486.614 366.727L472.282 368.255C471.622 368.325 471.145 368.917 471.215 369.576L472.742 383.898C472.812 384.557 473.404 385.034 474.064 384.964L488.395 383.436C489.055 383.366 489.533 382.774 489.462 382.115L487.935 367.793C487.865 367.134 487.273 366.656 486.614 366.727Z" fill="#92A5C0"/>
<path d="M512.77 363.938L498.438 365.466C497.778 365.536 497.301 366.128 497.371 366.787L498.898 381.109C498.968 381.768 499.56 382.245 500.22 382.175L514.551 380.647C515.211 380.577 515.689 379.985 515.618 379.326L514.091 365.004C514.021 364.345 513.429 363.867 512.77 363.938Z" fill="#92A5C0"/>
<path d="M538.926 361.149L524.594 362.677C523.935 362.747 523.457 363.339 523.527 363.998L525.054 378.32C525.125 378.979 525.716 379.456 526.376 379.386L540.707 377.858C541.367 377.788 541.845 377.196 541.774 376.537L540.247 362.215C540.177 361.556 539.585 361.079 538.926 361.149Z" fill="#92A5C0"/>
<path d="M565.082 358.36L550.75 359.888C550.091 359.958 549.613 360.55 549.683 361.209L551.211 375.531C551.281 376.19 551.873 376.667 552.532 376.597L566.864 375.069C567.523 374.999 568.001 374.407 567.931 373.748L566.404 359.426C566.333 358.767 565.742 358.29 565.082 358.36Z" fill="#92A5C0"/>
<path d="M591.239 355.571L576.907 357.099C576.248 357.169 575.77 357.761 575.84 358.42L577.368 372.742C577.438 373.401 578.029 373.878 578.689 373.808L593.021 372.28C593.68 372.21 594.158 371.618 594.088 370.959L592.561 356.637C592.49 355.978 591.899 355.5 591.239 355.571Z" fill="#92A5C0"/>
<path d="M360.795 341.634L563.826 319.985L565.537 336.033C565.672 337.299 565.298 338.567 564.498 339.558C563.697 340.549 562.536 341.181 561.269 341.316L367.792 361.946C366.525 362.081 365.256 361.708 364.265 360.908C363.274 360.108 362.641 358.948 362.506 357.682L360.795 341.634Z" fill="#92A5C0"/>
<path opacity="0.12" d="M563.826 319.985L360.795 341.634L361.049 344.021L564.08 322.372L563.826 319.985Z" fill="white"/>
<g style="mix-blend-mode:multiply" opacity="0.25">
<path d="M560.76 336.542L367.283 357.172C366.016 357.307 364.747 356.934 363.756 356.134C362.765 355.334 362.132 354.173 361.997 352.907L362.506 357.681C362.641 358.947 363.274 360.108 364.265 360.908C365.256 361.708 366.525 362.081 367.792 361.946L561.269 341.316C562.536 341.181 563.697 340.548 564.498 339.557C565.298 338.567 565.672 337.299 565.537 336.032L565.028 331.258C565.163 332.525 564.789 333.793 563.989 334.783C563.188 335.774 562.027 336.407 560.76 336.542Z" fill="#92A5C0"/>
</g>
<path d="M360.795 341.634L563.826 319.985L565.537 336.033C565.672 337.299 565.298 338.567 564.498 339.558C563.697 340.549 562.536 341.181 561.269 341.316L367.792 361.946C366.525 362.081 365.256 361.708 364.265 360.908C363.274 360.108 362.641 358.948 362.506 357.682L360.795 341.634Z" stroke="#46505C" stroke-width="2.28269" stroke-linecap="round" stroke-linejoin="round"/>
<path d="M519.306 468.861L435.705 477.775C434.386 477.916 433.43 479.098 433.571 480.417L439.552 536.512C439.693 537.83 440.876 538.785 442.195 538.644L525.796 529.73C527.115 529.589 528.071 528.406 527.93 527.088L521.949 470.993C521.808 469.675 520.625 468.72 519.306 468.861Z" fill="#E6F3FF"/>
<path d="M519.306 468.861L435.705 477.775C434.386 477.916 433.43 479.098 433.571 480.417L439.552 536.512C439.693 537.83 440.876 538.785 442.195 538.644L525.796 529.73C527.115 529.589 528.071 528.406 527.93 527.088L521.949 470.993C521.808 469.675 520.625 468.72 519.306 468.861Z" stroke="#92A5C0" stroke-width="1.14135" stroke-linecap="round" stroke-linejoin="round"/>
<path opacity="0.52" d="M444.256 161.488C446.234 161.277 447.668 159.503 447.457 157.526C447.246 155.548 445.471 154.116 443.492 154.327C441.513 154.538 440.08 156.313 440.291 158.29C440.502 160.267 442.277 161.699 444.256 161.488Z" fill="white"/>
<path d="M444.256 161.488C446.234 161.277 447.668 159.503 447.457 157.526C447.246 155.548 445.471 154.116 443.492 154.327C441.513 154.538 440.08 156.313 440.291 158.29C440.502 160.267 442.277 161.699 444.256 161.488Z" stroke="#46505C" stroke-width="1.14135" stroke-linecap="round" stroke-linejoin="round"/>
<path d="M521.033 175.122L506.701 176.65C506.042 176.721 505.564 177.312 505.634 177.971C505.704 178.63 506.296 179.108 506.956 179.037L521.287 177.509C521.947 177.439 522.425 176.847 522.354 176.188C522.284 175.529 521.692 175.052 521.033 175.122Z" fill="white"/>
<path d="M552.053 171.814L537.722 173.342C537.062 173.413 536.584 174.004 536.655 174.663C536.725 175.322 537.317 175.8 537.976 175.729L552.308 174.201C552.967 174.131 553.445 173.54 553.375 172.88C553.305 172.221 552.713 171.744 552.053 171.814Z" fill="white"/>
<path d="M490.014 178.429L475.682 179.958C475.022 180.028 474.545 180.619 474.615 181.278C474.685 181.938 475.277 182.415 475.937 182.345L490.268 180.816C490.928 180.746 491.406 180.155 491.335 179.496C491.265 178.836 490.673 178.359 490.014 178.429Z" fill="white"/>
<path d="M336.574 202.466C339.764 202.126 342.075 199.266 341.735 196.077C341.395 192.889 338.533 190.58 335.343 190.92C332.152 191.261 329.842 194.121 330.181 197.309C330.521 200.498 333.383 202.807 336.574 202.466Z" fill="white"/>
<g opacity="0.72">
<path opacity="0.72" d="M513.871 241.649L392.967 254.541L393.431 258.891L514.335 245.999L513.871 241.649Z" fill="white"/>
<path opacity="0.72" d="M497.042 228.841L406.719 238.472L407.189 242.886L497.513 233.254L497.042 228.841Z" fill="white"/>
</g>
<path d="M477.882 279.69L443.473 283.359C439.858 283.744 437.24 286.985 437.625 290.598C438.01 294.211 441.253 296.827 444.868 296.442L479.277 292.773C482.893 292.387 485.511 289.146 485.126 285.533C484.741 281.92 481.498 279.304 477.882 279.69Z" stroke="white" stroke-width="1.14135" stroke-miterlimit="10"/>
<path opacity="0.28" d="M280.761 178.838L293.834 301.438C294.249 305.33 297.773 308.175 301.665 307.76L468.934 289.924C472.826 289.509 475.671 285.985 475.256 282.093L462.184 159.494L280.761 178.838Z" fill="#1F3969" stroke="#1F3969" stroke-width="3.38134" stroke-miterlimit="10" stroke-linecap="round" stroke-linejoin="round"/>
<path d="M475.858 279.345L308.588 297.18C304.696 297.595 301.172 294.75 300.757 290.858L286.779 159.767C286.364 155.875 289.209 152.351 293.101 151.936L460.371 134.101C464.263 133.686 467.787 136.53 468.202 140.422L482.189 271.602C482.604 275.494 479.75 278.93 475.858 279.345Z" fill="#2D425E"/>
<path d="M469.277 150.506L287.854 169.851L286.77 159.679C286.355 155.787 289.2 152.263 293.092 151.848L460.361 134.012C464.253 133.597 467.777 136.442 468.192 140.334L469.277 150.506Z" stroke="#1F3969" stroke-width="3.38134" stroke-miterlimit="10" stroke-linecap="round" stroke-linejoin="round"/>
<path d="M469.635 153.868L288.213 173.212L286.77 159.679C286.355 155.787 289.2 152.263 293.092 151.848L460.361 134.012C464.253 133.597 467.777 136.442 468.192 140.334L469.635 153.868Z" fill="#D0DDF0"/>
<path d="M469.635 153.868L288.213 173.212L286.77 159.679C286.355 155.787 289.2 152.263 293.092 151.848L460.361 134.012C464.253 133.597 467.777 136.442 468.192 140.334L469.635 153.868Z" stroke="#1F3969" stroke-width="3.38134" stroke-miterlimit="10" stroke-linecap="round" stroke-linejoin="round"/>
<path d="M469.635 153.868L288.213 173.212L286.77 159.679C286.355 155.787 289.2 152.263 293.092 151.848L460.361 134.012C464.253 133.597 467.777 136.442 468.192 140.334L469.635 153.868Z" stroke="#1F3969" stroke-width="3.38134" stroke-miterlimit="10" stroke-linecap="round" stroke-linejoin="round"/>
<path d="M475.858 279.345L308.588 297.18C304.696 297.595 301.172 294.75 300.757 290.858L286.779 159.767C286.364 155.875 289.209 152.351 293.101 151.936L460.371 134.101C464.263 133.686 467.787 136.53 468.202 140.422L482.189 271.602C482.604 275.494 479.75 278.93 475.858 279.345Z" stroke="#1F3969" stroke-width="3.38134" stroke-miterlimit="10" stroke-linecap="round" stroke-linejoin="round"/>
<path d="M305.276 164.595C307.23 164.386 308.645 162.633 308.437 160.679C308.229 158.725 306.475 157.31 304.521 157.518C302.567 157.727 301.152 159.48 301.36 161.434C301.569 163.388 303.322 164.803 305.276 164.595Z" fill="#1F3969"/>
<path d="M317.571 163.284C319.525 163.075 320.94 161.322 320.732 159.368C320.524 157.414 318.771 155.999 316.817 156.207C314.862 156.416 313.447 158.169 313.656 160.123C313.864 162.077 315.617 163.492 317.571 163.284Z" fill="#1F3969"/>
<path d="M329.867 161.973C331.821 161.764 333.236 160.011 333.027 158.057C332.819 156.103 331.066 154.688 329.112 154.896C327.158 155.105 325.743 156.858 325.951 158.812C326.159 160.766 327.912 162.181 329.867 161.973Z" fill="#1F3969"/>
<path d="M394.158 178.466L405.658 177.24" stroke="white" stroke-width="3.38134" stroke-miterlimit="10" stroke-linecap="round" stroke-linejoin="round"/>
<path d="M335.866 184.682L385.667 179.372" stroke="#7BFFA0" stroke-width="3.38134" stroke-miterlimit="10" stroke-linecap="round" stroke-linejoin="round"/>
<path d="M311.276 187.304L328.79 185.436" stroke="#9169FF" stroke-width="3.38134" stroke-miterlimit="10" stroke-linecap="round" stroke-linejoin="round"/>
<path d="M343.388 272L381.424 267.944" stroke="#9169FF" stroke-width="3.38134" stroke-miterlimit="10" stroke-linecap="round" stroke-linejoin="round"/>
<path d="M320.566 274.433L332.861 273.122" stroke="#7BFFA0" stroke-width="3.38134" stroke-miterlimit="10" stroke-linecap="round" stroke-linejoin="round"/>
<path d="M386.827 190.251L393.992 189.487" stroke="white" stroke-width="3.38134" stroke-miterlimit="10" stroke-linecap="round" stroke-linejoin="round"/>
<path d="M354.275 193.722L378.335 191.157" stroke="#9169FF" stroke-width="3.38134" stroke-miterlimit="10" stroke-linecap="round" stroke-linejoin="round"/>
<path d="M321.193 197.25L345.695 194.637" stroke="#FFC47D" stroke-width="3.38134" stroke-miterlimit="10" stroke-linecap="round" stroke-linejoin="round"/>
<path d="M360.3 204.084L381.441 201.83" stroke="white" stroke-width="3.38134" stroke-miterlimit="10" stroke-linecap="round" stroke-linejoin="round"/>
<path d="M333.764 206.914L353.666 204.792" stroke="#FE5070" stroke-width="3.38134" stroke-miterlimit="10" stroke-linecap="round" stroke-linejoin="round"/>
<path d="M364.291 214.662L368.625 214.2" stroke="white" stroke-width="3.38134" stroke-miterlimit="10" stroke-linecap="round" stroke-linejoin="round"/>
<path d="M346.777 216.53L356.595 215.483" stroke="#9169FF" stroke-width="3.38134" stroke-miterlimit="10" stroke-linecap="round" stroke-linejoin="round"/>
<path d="M323.513 219.01L339.346 217.322" stroke="#7BFFA0" stroke-width="3.38134" stroke-miterlimit="10" stroke-linecap="round" stroke-linejoin="round"/>
<path d="M358.65 226.357L386.867 223.349" stroke="#FFC47D" stroke-width="3.38134" stroke-miterlimit="10" stroke-linecap="round" stroke-linejoin="round"/>
<path d="M324.683 229.979L349.981 227.282" stroke="#FE5070" stroke-width="3.38134" stroke-miterlimit="10" stroke-linecap="round" stroke-linejoin="round"/>
<path d="M392.45 233.756L407.753 232.124" stroke="#9169FF" stroke-width="3.38134" stroke-miterlimit="10" stroke-linecap="round" stroke-linejoin="round"/>
<path d="M359.81 237.237L384.312 234.624" stroke="#FE5070" stroke-width="3.38134" stroke-miterlimit="10" stroke-linecap="round" stroke-linejoin="round"/>
<path d="M337.253 239.642L351.141 238.161" stroke="#7BFFA0" stroke-width="3.38134" stroke-miterlimit="10" stroke-linecap="round" stroke-linejoin="round"/>
<path d="M372.115 246.928L385.472 245.504" stroke="white" stroke-width="3.38134" stroke-miterlimit="10" stroke-linecap="round" stroke-linejoin="round"/>
<path d="M338.414 250.522L362.916 247.909" stroke="#9169FF" stroke-width="3.38134" stroke-miterlimit="10" stroke-linecap="round" stroke-linejoin="round"/>
<path d="M408.038 254.102L423.341 252.47" stroke="white" stroke-width="3.38134" stroke-miterlimit="10" stroke-linecap="round" stroke-linejoin="round"/>
<path d="M361.245 259.091L399.724 254.988" stroke="#FFC47D" stroke-width="3.38134" stroke-miterlimit="10" stroke-linecap="round" stroke-linejoin="round"/>
<path d="M328.163 262.619L352.665 260.006" stroke="white" stroke-width="3.38134" stroke-miterlimit="10" stroke-linecap="round" stroke-linejoin="round"/>
<path opacity="0.28" d="M566.502 301.348L463.894 312.289C460.002 312.704 456.478 309.859 456.063 305.967L444.471 197.255C444.056 193.363 446.901 189.839 450.793 189.424L553.401 178.483C557.294 178.068 560.817 180.913 561.232 184.805L572.824 293.517C573.249 297.498 570.394 300.933 566.502 301.348Z" fill="#1F3969" stroke="#1F3969" stroke-width="3.38134" stroke-miterlimit="10" stroke-linecap="round" stroke-linejoin="round"/>
<path d="M572.919 294.402L470.31 305.343C466.418 305.758 462.894 302.913 462.479 299.021L450.887 190.309C450.472 186.417 453.317 182.893 457.209 182.478L559.818 171.537C563.71 171.122 567.234 173.967 567.649 177.859L579.24 286.571C579.665 290.551 576.811 293.987 572.919 294.402Z" fill="#00A0B0"/>
<path d="M572.919 294.402L470.31 305.343C466.418 305.758 462.894 302.913 462.479 299.021L450.887 190.309C450.472 186.417 453.317 182.893 457.209 182.478L559.818 171.537C563.71 171.122 567.234 173.967 567.649 177.859L579.24 286.571C579.665 290.551 576.811 293.987 572.919 294.402Z" stroke="#1F3969" stroke-width="3.38134" stroke-miterlimit="10" stroke-linecap="round" stroke-linejoin="round"/>
<path opacity="0.34" d="M549.196 206.907L501.193 212.026C499.487 212.208 497.918 210.331 497.647 207.783L496.916 200.93C496.644 198.383 497.782 196.218 499.488 196.036L547.491 190.917C549.197 190.735 550.765 192.612 551.037 195.16L551.768 202.013C552.039 204.561 550.902 206.726 549.196 206.907Z" stroke="white" stroke-width="1.69067" stroke-miterlimit="10" stroke-linecap="round" stroke-linejoin="round"/>
<g opacity="0.34">
<path opacity="0.34" d="M519.205 236.164L478.869 240.465C476.304 240.738 474.052 238.921 473.779 236.355L473.043 229.456C472.77 226.891 474.587 224.639 477.152 224.366L517.488 220.065C520.053 219.791 522.305 221.609 522.578 224.174L523.314 231.074C523.499 233.648 521.682 235.9 519.205 236.164Z" stroke="white" stroke-width="1.69067" stroke-miterlimit="10" stroke-linecap="round" stroke-linejoin="round"/>
<path opacity="0.34" d="M550.96 232.777L535.304 234.447C532.738 234.72 530.487 232.903 530.213 230.338L529.478 223.438C529.204 220.873 531.022 218.621 533.587 218.348L549.244 216.678C551.809 216.405 554.06 218.222 554.334 220.788L555.069 227.687C555.343 230.252 553.525 232.504 550.96 232.777Z" stroke="white" stroke-width="1.69067" stroke-miterlimit="10" stroke-linecap="round" stroke-linejoin="round"/>
</g>
<path d="M477.048 267.856L558.339 259.188" stroke="white" stroke-width="1.69067" stroke-miterlimit="10" stroke-linecap="round" stroke-linejoin="round"/>
<path d="M478.067 277.41L559.358 268.742" stroke="white" stroke-width="1.69067" stroke-miterlimit="10" stroke-linecap="round" stroke-linejoin="round"/>
<path d="M479.085 286.962L528.621 281.68" stroke="white" stroke-width="1.69067" stroke-miterlimit="10" stroke-linecap="round" stroke-linejoin="round"/>
<path d="M491.32 209.748C491.1 209.886 490.878 210.062 490.619 210.07C490.202 210.089 489.229 207.503 488.981 207.022C488.58 206.234 488.178 205.446 487.777 204.658C488.753 203.101 489.736 201.556 490.806 200.103C490.867 200.021 490.927 199.932 490.923 199.831C490.906 199.56 490.488 199.56 490.27 199.723C489.688 200.147 489.031 200.293 488.477 200.809C487.882 201.36 487.437 202.068 487.03 202.764C486.992 202.826 486.96 202.886 486.923 202.953C485.955 200.9 485.097 198.619 483.88 196.788C483.759 196.605 483.542 196.469 483.325 196.518C483.263 196.531 483.203 196.562 483.142 196.588C482.672 196.822 482.235 197.122 481.861 197.486C481.758 197.586 481.678 197.67 481.619 197.772C480.338 199.259 479.642 200.945 478.66 202.623C478.488 202.914 478.317 203.211 478.145 203.502C477.778 203.04 477.389 202.6 476.948 202.215C476.156 201.513 475.696 201.245 474.771 201.553C474.103 201.77 470.892 202.829 471.467 203.935C471.762 204.507 473.354 203.728 473.891 203.95C474.277 204.112 474.6 204.407 474.886 204.706C475.428 205.277 475.908 205.91 476.352 206.561C476.798 205.803 477.238 205.052 477.677 204.295C477.077 205.329 476.471 206.364 475.864 207.393C475.068 208.741 474.295 210.054 473.486 211.396C473.169 211.925 472.497 212.884 472.278 214.703C472.12 216.014 475.036 211.116 475.538 210.289C476.062 209.434 476.599 208.584 477.131 207.734C478.377 209.669 479.491 211.669 480.649 213.664L480.671 213.688C480.819 213.887 480.909 213.903 481.057 213.862C481.206 213.827 481.326 213.706 481.428 213.594C483.137 211.769 484.578 209.693 485.943 207.562C485.849 207.337 485.755 207.113 485.656 206.895C486.516 208.776 487.085 211.018 488.248 212.702C488.3 212.779 488.366 212.861 488.459 212.895C488.761 212.996 490.991 211.534 491.282 211.294C491.644 210.995 492.531 210.45 492.604 209.947C492.731 209.052 491.855 209.412 491.32 209.748ZM487.126 203.37C487.06 203.231 486.995 203.092 486.929 202.953C486.988 203.092 487.054 203.231 487.126 203.37ZM481.494 198.622C481.494 198.622 481.493 198.616 481.494 198.622C481.493 198.616 481.494 198.622 481.494 198.622ZM481.486 198.427L481.485 198.42C481.491 198.42 481.491 198.42 481.486 198.427ZM481.507 198.151L481.507 198.145L481.507 198.151ZM484.907 206.473C484.671 206.886 484.436 207.298 484.195 207.71C483.96 208.122 483.718 208.529 483.475 208.935C483.389 209.078 483.303 209.226 483.218 209.375C483.131 209.517 483.073 209.619 482.965 209.802C482.911 209.89 482.852 209.991 482.805 210.085C482.695 210.3 482.584 210.515 482.474 210.729C482.157 209.717 481.376 208.696 480.882 207.759C480.334 206.72 479.742 205.692 479.063 204.737C479.032 204.689 478.996 204.649 478.966 204.601C479.373 203.841 479.78 203.074 480.195 202.326C480.866 201.119 481.513 200.289 481.792 199.751C481.808 199.781 481.823 199.805 481.838 199.829C481.876 199.888 481.914 199.948 481.946 200.008C483.113 201.964 484.214 203.959 485.218 206.003C485.21 205.991 485.203 205.979 485.201 205.96C485.105 206.129 485.003 206.305 484.907 206.473ZM485.55 206.678C485.583 206.75 485.616 206.817 485.649 206.889C485.616 206.823 485.583 206.75 485.55 206.678ZM487.142 203.406C487.215 203.55 487.287 203.695 487.36 203.839C487.287 203.695 487.215 203.55 487.142 203.406Z" fill="#FBFBFB"/>
</svg>
