<svg width="794" height="795" viewBox="0 0 794 795" fill="none" xmlns="http://www.w3.org/2000/svg">
<g opacity="0.47">
<path opacity="0.47" d="M643.208 218.963L785.238 160.386C793.235 157.088 799.594 150.75 802.916 142.767C806.237 134.785 806.25 125.81 802.951 117.819C799.652 109.828 793.312 103.474 785.324 100.156C777.337 96.8376 768.357 96.8262 760.36 100.124L536.569 192.416C532.609 194.049 528.367 194.887 524.083 194.882C519.8 194.876 515.559 194.027 511.605 192.384C507.65 190.741 504.057 188.335 501.033 185.304C498.009 182.274 495.611 178.677 493.978 174.72C490.68 166.729 490.693 157.756 494.015 149.774C497.336 141.792 503.694 135.455 511.69 132.156L613.556 90.1366C617.516 88.5039 621.116 86.1077 624.15 83.0848C627.183 80.062 629.592 76.4716 631.237 72.5188C632.882 68.566 633.732 64.3282 633.739 60.0474C633.745 55.7665 632.908 51.5264 631.274 47.5693C627.975 39.5781 621.635 33.2245 613.647 29.906C605.66 26.5876 596.68 26.5762 588.683 29.8744L71.1919 243.291C67.2321 244.924 63.6328 247.32 60.5995 250.343C57.5662 253.365 55.1583 256.956 53.5133 260.908C51.8682 264.861 51.0183 269.098 51.0121 273.379C51.0058 277.66 51.8433 281.899 53.4767 285.856C55.1096 289.814 57.5066 293.412 60.5311 296.443C63.5555 299.475 67.148 301.881 71.1035 303.525C75.0589 305.169 79.2998 306.018 83.5839 306.024C87.868 306.029 92.1113 305.191 96.0716 303.558L176.647 270.327C184.644 267.03 193.624 267.041 201.611 270.36C209.598 273.679 215.939 280.033 219.238 288.024C220.871 291.981 221.709 296.22 221.703 300.501C221.696 304.782 220.846 309.019 219.201 312.972C217.556 316.924 215.148 320.515 212.115 323.537C209.082 326.56 205.483 328.956 201.523 330.589L63.6021 387.47C55.6052 390.768 49.2462 397.106 45.9241 405.088C42.6019 413.071 42.5886 422.045 45.8872 430.037C47.5205 433.994 49.9178 437.59 52.9422 440.621C55.9666 443.652 59.5588 446.058 63.5138 447.701C67.4688 449.344 71.7091 450.193 75.9925 450.198C80.2759 450.204 84.5187 449.366 88.4784 447.733L174.551 412.234C182.548 408.936 191.528 408.948 199.516 412.267C207.503 415.586 213.843 421.939 217.142 429.931C218.776 433.887 219.613 438.127 219.607 442.408C219.601 446.688 218.751 450.926 217.106 454.879C215.461 458.831 213.053 462.421 210.02 465.444C206.986 468.467 203.387 470.863 199.427 472.496L193.32 475.015C189.359 476.649 185.758 479.047 182.724 482.071C179.691 485.096 177.283 488.688 175.638 492.643C173.994 496.597 173.145 500.837 173.141 505.119C173.137 509.402 173.977 513.643 175.613 517.6C177.246 521.557 179.644 525.154 182.668 528.185C185.692 531.216 189.285 533.622 193.24 535.265C197.195 536.909 201.435 537.757 205.718 537.763C210.002 537.768 214.245 536.931 218.205 535.298L223.996 532.91C227.956 531.277 232.199 530.439 236.482 530.445C240.765 530.45 245.005 531.299 248.96 532.942C252.915 534.585 256.507 536.991 259.531 540.022C262.556 543.053 264.953 546.649 266.586 550.606C268.22 554.563 269.057 558.803 269.051 563.084C269.045 567.364 268.196 571.602 266.551 575.555C264.906 579.507 262.498 583.098 259.465 586.121C256.432 589.144 252.832 591.54 248.873 593.173L163.117 628.539C155.12 631.837 148.761 638.175 145.439 646.158C142.117 654.141 142.104 663.115 145.403 671.106C148.702 679.097 155.043 685.451 163.03 688.769C171.018 692.088 179.997 692.099 187.994 688.801L344.692 624.176C348.652 622.543 352.894 621.705 357.178 621.711C361.461 621.716 365.701 622.565 369.656 624.208C373.611 625.851 377.204 628.257 380.228 631.288C383.252 634.319 385.65 637.915 387.283 641.872C388.917 645.829 389.754 650.07 389.748 654.351C389.742 658.632 388.892 662.87 387.246 666.823C385.601 670.776 383.193 674.366 380.159 677.389C377.125 680.412 373.526 682.808 369.565 684.441L344.452 694.797C336.456 698.095 330.097 704.433 326.775 712.416C323.453 720.398 323.44 729.372 326.739 737.364C328.372 741.32 330.769 744.917 333.794 747.948C336.818 750.979 340.41 753.384 344.365 755.027C348.32 756.671 352.561 757.519 356.844 757.524C361.127 757.53 365.37 756.692 369.33 755.058L768.323 590.507C776.32 587.209 782.679 580.871 786.001 572.888C789.323 564.905 789.336 555.931 786.037 547.94C784.403 543.983 782.006 540.386 778.982 537.356C775.957 534.325 772.365 531.919 768.41 530.276C764.455 528.633 760.215 527.784 755.931 527.778C751.648 527.773 747.405 528.611 743.446 530.244L731.708 535.085C723.712 538.383 714.733 538.372 706.746 535.055C698.759 531.738 692.418 525.386 689.118 517.396C687.485 513.438 686.647 509.198 686.654 504.918C686.661 500.637 687.511 496.399 689.156 492.446C690.802 488.494 693.21 484.903 696.244 481.881C699.277 478.858 702.877 476.462 706.837 474.829L784.017 442.995C787.977 441.362 791.576 438.966 794.609 435.943C797.643 432.92 800.05 429.33 801.695 425.377C803.34 421.424 804.19 417.186 804.197 412.906C804.203 408.625 803.365 404.385 801.732 400.428C800.098 396.471 797.701 392.875 794.677 389.844C791.652 386.813 788.06 384.407 784.105 382.764C780.15 381.121 775.91 380.272 771.626 380.267C767.343 380.261 763.1 381.099 759.14 382.732L649.703 427.862C645.743 429.495 641.5 430.333 637.217 430.328C632.933 430.322 628.693 429.473 624.738 427.83C620.783 426.187 617.191 423.781 614.166 420.75C611.142 417.719 608.745 414.123 607.111 410.166C603.815 402.175 603.83 393.202 607.152 385.221C610.475 377.24 616.833 370.904 624.829 367.606L702.318 335.649C706.277 334.016 709.877 331.619 712.91 328.596C715.943 325.573 718.351 321.983 719.996 318.03C721.641 314.078 722.491 309.84 722.497 305.559C722.503 301.279 721.665 297.039 720.031 293.082C718.399 289.124 716.003 285.525 712.979 282.493C709.955 279.46 706.363 277.053 702.407 275.409C698.452 273.764 694.211 272.914 689.927 272.908C685.643 272.902 681.399 273.74 677.438 275.373L668.088 279.229C660.091 282.527 651.111 282.516 643.124 279.198C635.136 275.879 628.796 269.525 625.497 261.534C623.863 257.577 623.024 253.337 623.03 249.056C623.036 244.775 623.885 240.537 625.53 236.584C627.175 232.631 629.582 229.04 632.616 226.017C635.649 222.993 639.248 220.597 643.208 218.963Z" fill="#004789"/>
<g style="mix-blend-mode:multiply" opacity="0.47">
<path d="M771.85 225.596L764.133 228.778C748.488 235.231 741.037 253.135 747.491 268.769L747.493 268.774C753.946 284.407 771.861 291.85 787.506 285.398L795.223 282.216C810.868 275.763 818.319 257.859 811.865 242.225L811.863 242.22C805.409 226.587 787.495 219.144 771.85 225.596Z" fill="#004789"/>
</g>
</g>
<g style="mix-blend-mode:multiply" opacity="0.33">
<g style="mix-blend-mode:multiply" opacity="0.33">
<path d="M607.38 283.65L330.303 313.194C321.068 314.179 314.38 322.458 315.364 331.686L317.588 352.546C318.572 361.774 326.856 368.457 336.09 367.472L613.168 337.928C622.402 336.944 629.09 328.665 628.106 319.436L625.882 298.576C624.898 289.348 616.615 282.665 607.38 283.65Z" fill="#4E4E4E"/>
<path d="M607.38 283.65L330.303 313.194C321.068 314.179 314.38 322.458 315.364 331.686L317.588 352.546C318.572 361.774 326.856 368.457 336.09 367.472L613.168 337.928C622.402 336.944 629.09 328.665 628.106 319.436L625.882 298.576C624.898 289.348 616.615 282.665 607.38 283.65Z" stroke="black" stroke-width="1.14135" stroke-linecap="round" stroke-linejoin="round"/>
</g>
<g style="mix-blend-mode:multiply" opacity="0.33">
<path d="M607.38 283.65L330.303 313.194C321.068 314.179 314.38 322.458 315.364 331.686L317.588 352.546C318.572 361.774 326.856 368.457 336.09 367.472L613.168 337.928C622.402 336.944 629.09 328.665 628.106 319.436L625.882 298.576C624.898 289.348 616.615 282.665 607.38 283.65Z" fill="#4E4E4E"/>
</g>
<g style="mix-blend-mode:multiply" opacity="0.17">
<path d="M330.302 313.194L607.38 283.65C611.815 283.177 616.255 284.484 619.725 287.283C623.195 290.083 625.409 294.145 625.882 298.576L628.483 322.969C628.772 325.675 627.973 328.385 626.262 330.503C624.551 332.621 622.069 333.972 619.361 334.261L329.264 365.194C326.556 365.482 323.845 364.684 321.726 362.975C319.607 361.266 318.255 358.785 317.966 356.079L315.365 331.686C314.893 327.255 316.201 322.817 319.003 319.349C321.804 315.881 325.869 313.667 330.304 313.194L330.302 313.194Z" fill="#4E4E4E"/>
</g>
<g style="mix-blend-mode:multiply" opacity="0.33">
<path d="M607.38 283.65L330.303 313.194C321.068 314.179 314.38 322.458 315.364 331.686L317.588 352.546C318.572 361.774 326.856 368.457 336.09 367.472L613.168 337.928C622.402 336.944 629.09 328.665 628.106 319.436L625.882 298.576C624.898 289.348 616.615 282.665 607.38 283.65Z" fill="#4E4E4E"/>
<path d="M607.38 283.65L330.303 313.194C321.068 314.179 314.38 322.458 315.364 331.686L317.588 352.546C318.572 361.774 326.856 368.457 336.09 367.472L613.168 337.928C622.402 336.944 629.09 328.665 628.106 319.436L625.882 298.576C624.898 289.348 616.615 282.665 607.38 283.65Z" stroke="#46505C" stroke-width="4.56539" stroke-linecap="round" stroke-linejoin="round"/>
</g>
<g style="mix-blend-mode:multiply" opacity="0.33">
<path d="M607.702 331.976L603.255 290.274L335.732 318.8L340.179 360.502L607.702 331.976Z" fill="#4E4E4E"/>
</g>
<g style="mix-blend-mode:multiply" opacity="0.33">
<path d="M607.702 331.976L603.255 290.274L335.732 318.8L340.179 360.502L607.702 331.976Z" fill="#4E4E4E"/>
<path d="M607.702 331.976L603.255 290.274L335.732 318.8L340.179 360.502L607.702 331.976Z" stroke="#46505C" stroke-width="1.14135" stroke-linecap="round" stroke-linejoin="round"/>
</g>
<g style="mix-blend-mode:multiply" opacity="0.33">
<path d="M613.169 337.927L336.092 367.472C326.857 368.456 320.169 376.735 321.153 385.963L339.479 557.828C340.463 567.057 348.746 573.739 357.98 572.755L635.058 543.21C644.292 542.226 650.981 533.947 649.997 524.718L631.671 352.854C630.687 343.625 622.403 336.943 613.169 337.927Z" fill="#4E4E4E"/>
</g>
<g style="mix-blend-mode:multiply" opacity="0.33">
<path d="M645.22 525.228L626.894 353.363C626.191 346.771 620.274 341.998 613.678 342.701L336.601 372.245C330.005 372.949 325.228 378.862 325.93 385.454L344.256 557.319C344.959 563.91 350.876 568.684 357.472 567.981L634.549 538.436C641.145 537.733 645.922 531.819 645.22 525.228Z" fill="#4E4E4E"/>
<path d="M645.22 525.228L626.894 353.363C626.191 346.771 620.274 341.998 613.678 342.701L336.601 372.245C330.005 372.949 325.228 378.862 325.93 385.454L344.256 557.319C344.959 563.91 350.876 568.684 357.472 567.981L634.549 538.436C641.145 537.733 645.922 531.819 645.22 525.228Z" stroke="#E6F3FF" stroke-width="2.28269" stroke-miterlimit="10"/>
</g>
<g style="mix-blend-mode:multiply" opacity="0.33">
<path d="M476.354 550.69L514.691 546.603C515.958 546.467 517.227 546.841 518.218 547.641C519.21 548.44 519.843 549.601 519.978 550.867L520.464 555.426L472.572 560.533L472.086 555.974C471.951 554.708 472.325 553.44 473.125 552.449C473.926 551.458 475.087 550.825 476.354 550.69Z" fill="#4E4E4E"/>
</g>
<g style="mix-blend-mode:multiply" opacity="0.33">
<path d="M613.169 337.927L336.092 367.472C326.857 368.456 320.169 376.735 321.153 385.963L339.479 557.828C340.463 567.057 348.746 573.739 357.98 572.755L635.058 543.21C644.292 542.226 650.981 533.947 649.997 524.718L631.671 352.854C630.687 343.625 622.403 336.943 613.169 337.927Z" fill="#4E4E4E"/>
<path d="M613.169 337.927L336.092 367.472C326.857 368.456 320.169 376.735 321.153 385.963L339.479 557.828C340.463 567.057 348.746 573.739 357.98 572.755L635.058 543.21C644.292 542.226 650.981 533.947 649.997 524.718L631.671 352.854C630.687 343.625 622.403 336.943 613.169 337.927Z" stroke="#46505C" stroke-width="4.56539" stroke-linecap="round" stroke-linejoin="round"/>
</g>
<g style="mix-blend-mode:multiply" opacity="0.33">
<path d="M610.099 354.455L342.575 382.98C340.597 383.191 339.163 384.965 339.374 386.943L350.319 489.584C350.53 491.562 352.305 492.994 354.283 492.783L621.807 464.257C623.785 464.046 625.219 462.272 625.008 460.295L614.063 357.653C613.852 355.676 612.077 354.244 610.099 354.455Z" fill="#4E4E4E"/>
</g>
<g style="mix-blend-mode:multiply" opacity="0.33">
<path d="M400.488 460.696L386.156 462.224C385.497 462.295 385.019 462.886 385.089 463.545L386.616 477.867C386.687 478.526 387.278 479.004 387.938 478.933L402.269 477.405C402.929 477.335 403.407 476.743 403.336 476.084L401.809 461.762C401.739 461.103 401.147 460.626 400.488 460.696Z" fill="#4E4E4E"/>
<path d="M400.488 460.696L386.156 462.224C385.497 462.295 385.019 462.886 385.089 463.545L386.616 477.867C386.687 478.526 387.278 479.004 387.938 478.933L402.269 477.405C402.929 477.335 403.407 476.743 403.336 476.084L401.809 461.762C401.739 461.103 401.147 460.626 400.488 460.696Z" stroke="#92A5C0" stroke-width="1.14135" stroke-linecap="round" stroke-linejoin="round"/>
</g>
<g style="mix-blend-mode:multiply" opacity="0.33">
<path d="M374.644 463.452L360.312 464.98C359.653 465.05 359.175 465.642 359.245 466.301L360.773 480.623C360.843 481.282 361.435 481.759 362.094 481.689L376.426 480.161C377.085 480.09 377.563 479.499 377.493 478.84L375.966 464.518C375.895 463.859 375.304 463.381 374.644 463.452Z" fill="#4E4E4E"/>
<path d="M374.644 463.452L360.312 464.98C359.653 465.05 359.175 465.642 359.245 466.301L360.773 480.623C360.843 481.282 361.435 481.759 362.094 481.689L376.426 480.161C377.085 480.09 377.563 479.499 377.493 478.84L375.966 464.518C375.895 463.859 375.304 463.381 374.644 463.452Z" stroke="#92A5C0" stroke-width="1.14135" stroke-linecap="round" stroke-linejoin="round"/>
</g>
<g style="mix-blend-mode:multiply" opacity="0.33">
<path d="M529.702 446.918L411.999 459.469C411.339 459.539 410.861 460.13 410.932 460.789L412.459 475.112C412.529 475.771 413.121 476.248 413.78 476.178L531.483 463.627C532.143 463.557 532.621 462.966 532.55 462.306L531.023 447.984C530.953 447.325 530.361 446.848 529.702 446.918Z" fill="#4E4E4E"/>
<path d="M529.702 446.918L411.999 459.469C411.339 459.539 410.861 460.13 410.932 460.789L412.459 475.112C412.529 475.771 413.121 476.248 413.78 476.178L531.483 463.627C532.143 463.557 532.621 462.966 532.55 462.306L531.023 447.984C530.953 447.325 530.361 446.848 529.702 446.918Z" stroke="#92A5C0" stroke-width="1.14135" stroke-linecap="round" stroke-linejoin="round"/>
</g>
<g style="mix-blend-mode:multiply" opacity="0.33">
<path d="M555.545 444.163L541.214 445.691C540.554 445.761 540.076 446.352 540.147 447.012L541.674 461.334C541.744 461.993 542.336 462.47 542.995 462.4L557.327 460.872C557.986 460.801 558.464 460.21 558.394 459.551L556.867 445.229C556.796 444.57 556.205 444.092 555.545 444.163Z" fill="#4E4E4E"/>
<path d="M555.545 444.163L541.214 445.691C540.554 445.761 540.076 446.352 540.147 447.012L541.674 461.334C541.744 461.993 542.336 462.47 542.995 462.4L557.327 460.872C557.986 460.801 558.464 460.21 558.394 459.551L556.867 445.229C556.796 444.57 556.205 444.092 555.545 444.163Z" stroke="#92A5C0" stroke-width="1.14135" stroke-linecap="round" stroke-linejoin="round"/>
</g>
<g style="mix-blend-mode:multiply" opacity="0.33">
<path d="M594.334 449.533L584.78 450.551C584.12 450.622 583.642 451.213 583.712 451.872L584.237 456.795C584.308 457.455 584.899 457.932 585.559 457.862L595.113 456.843C595.773 456.772 596.251 456.181 596.18 455.522L595.655 450.599C595.585 449.94 594.994 449.462 594.334 449.533Z" fill="#4E4E4E"/>
<path d="M594.334 449.533L584.78 450.551C584.12 450.622 583.642 451.213 583.712 451.872L584.237 456.795C584.308 457.455 584.899 457.932 585.559 457.862L595.113 456.843C595.773 456.772 596.251 456.181 596.18 455.522L595.655 450.599C595.585 449.94 594.994 449.462 594.334 449.533Z" stroke="#92A5C0" stroke-width="1.14135" stroke-linecap="round" stroke-linejoin="round"/>
</g>
<g style="mix-blend-mode:multiply" opacity="0.33">
<path d="M593.332 440.133L583.777 441.152C583.118 441.223 582.64 441.814 582.71 442.473L583.235 447.396C583.306 448.055 583.897 448.533 584.557 448.462L594.111 447.444C594.771 447.373 595.249 446.782 595.178 446.123L594.653 441.2C594.583 440.54 593.991 440.063 593.332 440.133Z" fill="#4E4E4E"/>
<path d="M593.332 440.133L583.777 441.152C583.118 441.223 582.64 441.814 582.71 442.473L583.235 447.396C583.306 448.055 583.897 448.533 584.557 448.462L594.111 447.444C594.771 447.373 595.249 446.782 595.178 446.123L594.653 441.2C594.583 440.54 593.991 440.063 593.332 440.133Z" stroke="#92A5C0" stroke-width="1.14135" stroke-linecap="round" stroke-linejoin="round"/>
</g>
<g style="mix-blend-mode:multiply" opacity="0.33">
<path d="M611.054 447.75L601.5 448.769C600.84 448.839 600.362 449.43 600.433 450.09L600.958 455.013C601.028 455.672 601.62 456.149 602.279 456.079L611.834 455.06C612.493 454.99 612.971 454.398 612.901 453.739L612.376 448.816C612.305 448.157 611.714 447.68 611.054 447.75Z" fill="#4E4E4E"/>
<path d="M611.054 447.75L601.5 448.769C600.84 448.839 600.362 449.43 600.433 450.09L600.958 455.013C601.028 455.672 601.62 456.149 602.279 456.079L611.834 455.06C612.493 454.99 612.971 454.398 612.901 453.739L612.376 448.816C612.305 448.157 611.714 447.68 611.054 447.75Z" stroke="#92A5C0" stroke-width="1.14135" stroke-linecap="round" stroke-linejoin="round"/>
</g>
<g style="mix-blend-mode:multiply" opacity="0.33">
<path d="M577.614 451.316L568.059 452.334C567.4 452.405 566.922 452.996 566.992 453.655L567.517 458.578C567.587 459.238 568.179 459.715 568.839 459.645L578.393 458.626C579.053 458.555 579.53 457.964 579.46 457.305L578.935 452.382C578.865 451.723 578.273 451.245 577.614 451.316Z" fill="#4E4E4E"/>
<path d="M577.614 451.316L568.059 452.334C567.4 452.405 566.922 452.996 566.992 453.655L567.517 458.578C567.587 459.238 568.179 459.715 568.839 459.645L578.393 458.626C579.053 458.555 579.53 457.964 579.46 457.305L578.935 452.382C578.865 451.723 578.273 451.245 577.614 451.316Z" stroke="#92A5C0" stroke-width="1.14135" stroke-linecap="round" stroke-linejoin="round"/>
</g>
<g style="mix-blend-mode:multiply" opacity="0.33">
<path d="M395.564 437.176L357.777 441.205C357.118 441.275 356.64 441.866 356.71 442.526L358.238 456.848C358.308 457.507 358.899 457.984 359.559 457.914L397.346 453.885C398.005 453.814 398.483 453.223 398.413 452.564L396.885 438.242C396.815 437.583 396.223 437.105 395.564 437.176Z" fill="#4E4E4E"/>
<path d="M395.564 437.176L357.777 441.205C357.118 441.275 356.64 441.866 356.71 442.526L358.238 456.848C358.308 457.507 358.899 457.984 359.559 457.914L397.346 453.885C398.005 453.814 398.483 453.223 398.413 452.564L396.885 438.242C396.815 437.583 396.223 437.105 395.564 437.176Z" stroke="#92A5C0" stroke-width="1.14135" stroke-linecap="round" stroke-linejoin="round"/>
</g>
<g style="mix-blend-mode:multiply" opacity="0.33">
<path d="M421.622 434.397L407.29 435.925C406.631 435.995 406.153 436.587 406.223 437.246L407.751 451.568C407.821 452.227 408.413 452.705 409.072 452.634L423.404 451.106C424.063 451.036 424.541 450.444 424.471 449.785L422.944 435.463C422.873 434.804 422.282 434.327 421.622 434.397Z" fill="#4E4E4E"/>
<path d="M421.622 434.397L407.29 435.925C406.631 435.995 406.153 436.587 406.223 437.246L407.751 451.568C407.821 452.227 408.413 452.705 409.072 452.634L423.404 451.106C424.063 451.036 424.541 450.444 424.471 449.785L422.944 435.463C422.873 434.804 422.282 434.327 421.622 434.397Z" stroke="#92A5C0" stroke-width="1.14135" stroke-linecap="round" stroke-linejoin="round"/>
</g>
<g style="mix-blend-mode:multiply" opacity="0.33">
<path d="M447.466 431.641L433.134 433.17C432.475 433.24 431.997 433.831 432.067 434.49L433.594 448.812C433.665 449.472 434.256 449.949 434.916 449.879L449.248 448.35C449.907 448.28 450.385 447.689 450.315 447.03L448.787 432.708C448.717 432.048 448.125 431.571 447.466 431.641Z" fill="#4E4E4E"/>
<path d="M447.466 431.641L433.134 433.17C432.475 433.24 431.997 433.831 432.067 434.49L433.594 448.812C433.665 449.472 434.256 449.949 434.916 449.879L449.248 448.35C449.907 448.28 450.385 447.689 450.315 447.03L448.787 432.708C448.717 432.048 448.125 431.571 447.466 431.641Z" stroke="#92A5C0" stroke-width="1.14135" stroke-linecap="round" stroke-linejoin="round"/>
</g>
<g style="mix-blend-mode:multiply" opacity="0.33">
<path d="M473.308 428.886L458.977 430.414C458.317 430.484 457.839 431.076 457.91 431.735L459.437 446.057C459.507 446.716 460.099 447.194 460.758 447.123L475.09 445.595C475.75 445.525 476.227 444.933 476.157 444.274L474.63 429.952C474.56 429.293 473.968 428.816 473.308 428.886Z" fill="#4E4E4E"/>
<path d="M473.308 428.886L458.977 430.414C458.317 430.484 457.839 431.076 457.91 431.735L459.437 446.057C459.507 446.716 460.099 447.194 460.758 447.123L475.09 445.595C475.75 445.525 476.227 444.933 476.157 444.274L474.63 429.952C474.56 429.293 473.968 428.816 473.308 428.886Z" stroke="#92A5C0" stroke-width="1.14135" stroke-linecap="round" stroke-linejoin="round"/>
</g>
<g style="mix-blend-mode:multiply" opacity="0.33">
<path d="M499.152 426.13L484.82 427.659C484.16 427.729 483.683 428.32 483.753 428.979L485.28 443.301C485.35 443.961 485.942 444.438 486.602 444.368L500.933 442.84C501.593 442.769 502.071 442.178 502 441.519L500.473 427.197C500.403 426.537 499.811 426.06 499.152 426.13Z" fill="#4E4E4E"/>
<path d="M499.152 426.13L484.82 427.659C484.16 427.729 483.683 428.32 483.753 428.979L485.28 443.301C485.35 443.961 485.942 444.438 486.602 444.368L500.933 442.84C501.593 442.769 502.071 442.178 502 441.519L500.473 427.197C500.403 426.537 499.811 426.06 499.152 426.13Z" stroke="#92A5C0" stroke-width="1.14135" stroke-linecap="round" stroke-linejoin="round"/>
</g>
<g style="mix-blend-mode:multiply" opacity="0.33">
<path d="M524.994 423.375L510.663 424.903C510.003 424.973 509.525 425.565 509.596 426.224L511.123 440.546C511.193 441.205 511.785 441.682 512.444 441.612L526.776 440.084C527.435 440.014 527.913 439.422 527.843 438.763L526.316 424.441C526.245 423.782 525.654 423.304 524.994 423.375Z" fill="#4E4E4E"/>
<path d="M524.994 423.375L510.663 424.903C510.003 424.973 509.525 425.565 509.596 426.224L511.123 440.546C511.193 441.205 511.785 441.682 512.444 441.612L526.776 440.084C527.435 440.014 527.913 439.422 527.843 438.763L526.316 424.441C526.245 423.782 525.654 423.304 524.994 423.375Z" stroke="#92A5C0" stroke-width="1.14135" stroke-linecap="round" stroke-linejoin="round"/>
</g>
<g style="mix-blend-mode:multiply" opacity="0.33">
<path d="M550.838 420.619L536.506 422.147C535.846 422.218 535.369 422.809 535.439 423.468L536.966 437.79C537.036 438.449 537.628 438.927 538.288 438.856L552.619 437.328C553.279 437.258 553.757 436.667 553.686 436.007L552.159 421.685C552.089 421.026 551.497 420.549 550.838 420.619Z" fill="#4E4E4E"/>
<path d="M550.838 420.619L536.506 422.147C535.846 422.218 535.369 422.809 535.439 423.468L536.966 437.79C537.036 438.449 537.628 438.927 538.288 438.856L552.619 437.328C553.279 437.258 553.757 436.667 553.686 436.007L552.159 421.685C552.089 421.026 551.497 420.549 550.838 420.619Z" stroke="#92A5C0" stroke-width="1.14135" stroke-linecap="round" stroke-linejoin="round"/>
</g>
<g style="mix-blend-mode:multiply" opacity="0.33">
<path d="M607.517 414.576L564.522 419.16C563.863 419.23 563.385 419.822 563.455 420.481L564.982 434.803C565.053 435.462 565.644 435.939 566.304 435.869L609.299 431.285C609.958 431.214 610.436 430.623 610.366 429.964L608.839 415.642C608.768 414.983 608.177 414.505 607.517 414.576Z" fill="#4E4E4E"/>
<path d="M607.517 414.576L564.522 419.16C563.863 419.23 563.385 419.822 563.455 420.481L564.982 434.803C565.053 435.462 565.644 435.939 566.304 435.869L609.299 431.285C609.958 431.214 610.436 430.623 610.366 429.964L608.839 415.642C608.768 414.983 608.177 414.505 607.517 414.576Z" stroke="#92A5C0" stroke-width="1.14135" stroke-linecap="round" stroke-linejoin="round"/>
</g>
<g style="mix-blend-mode:multiply" opacity="0.33">
<path d="M409.678 410.95L395.346 412.479C394.687 412.549 394.209 413.14 394.279 413.799L395.806 428.122C395.877 428.781 396.468 429.258 397.128 429.188L411.459 427.66C412.119 427.589 412.597 426.998 412.526 426.339L410.999 412.017C410.929 411.357 410.337 410.88 409.678 410.95Z" fill="#4E4E4E"/>
<path d="M409.678 410.95L395.346 412.479C394.687 412.549 394.209 413.14 394.279 413.799L395.806 428.122C395.877 428.781 396.468 429.258 397.128 429.188L411.459 427.66C412.119 427.589 412.597 426.998 412.526 426.339L410.999 412.017C410.929 411.357 410.337 410.88 409.678 410.95Z" stroke="#92A5C0" stroke-width="1.14135" stroke-linecap="round" stroke-linejoin="round"/>
</g>
<g style="mix-blend-mode:multiply" opacity="0.33">
<path d="M383.834 413.706L355.171 416.762C354.512 416.833 354.034 417.424 354.104 418.083L355.631 432.405C355.701 433.064 356.293 433.542 356.953 433.471L385.616 430.415C386.276 430.345 386.753 429.753 386.683 429.094L385.156 414.772C385.086 414.113 384.494 413.636 383.834 413.706Z" fill="#4E4E4E"/>
<path d="M383.834 413.706L355.171 416.762C354.512 416.833 354.034 417.424 354.104 418.083L355.631 432.405C355.701 433.064 356.293 433.542 356.953 433.471L385.616 430.415C386.276 430.345 386.753 429.753 386.683 429.094L385.156 414.772C385.086 414.113 384.494 413.636 383.834 413.706Z" stroke="#92A5C0" stroke-width="1.14135" stroke-linecap="round" stroke-linejoin="round"/>
</g>
<g style="mix-blend-mode:multiply" opacity="0.33">
<path d="M435.521 408.195L421.189 409.723C420.529 409.793 420.052 410.385 420.122 411.044L421.649 425.366C421.719 426.025 422.311 426.502 422.971 426.432L437.302 424.904C437.962 424.834 438.44 424.242 438.369 423.583L436.842 409.261C436.772 408.602 436.18 408.125 435.521 408.195Z" fill="#4E4E4E"/>
<path d="M435.521 408.195L421.189 409.723C420.529 409.793 420.052 410.385 420.122 411.044L421.649 425.366C421.719 426.025 422.311 426.502 422.971 426.432L437.302 424.904C437.962 424.834 438.44 424.242 438.369 423.583L436.842 409.261C436.772 408.602 436.18 408.125 435.521 408.195Z" stroke="#92A5C0" stroke-width="1.14135" stroke-linecap="round" stroke-linejoin="round"/>
</g>
<g style="mix-blend-mode:multiply" opacity="0.33">
<path d="M461.364 405.439L447.032 406.967C446.372 407.038 445.895 407.629 445.965 408.288L447.492 422.61C447.562 423.269 448.154 423.747 448.814 423.676L463.145 422.148C463.805 422.078 464.283 421.487 464.212 420.827L462.685 406.505C462.615 405.846 462.023 405.369 461.364 405.439Z" fill="#4E4E4E"/>
<path d="M461.364 405.439L447.032 406.967C446.372 407.038 445.895 407.629 445.965 408.288L447.492 422.61C447.562 423.269 448.154 423.747 448.814 423.676L463.145 422.148C463.805 422.078 464.283 421.487 464.212 420.827L462.685 406.505C462.615 405.846 462.023 405.369 461.364 405.439Z" stroke="#92A5C0" stroke-width="1.14135" stroke-linecap="round" stroke-linejoin="round"/>
</g>
<g style="mix-blend-mode:multiply" opacity="0.33">
<path d="M487.206 402.684L472.874 404.212C472.215 404.282 471.737 404.873 471.807 405.533L473.335 419.855C473.405 420.514 473.997 420.991 474.656 420.921L488.988 419.393C489.647 419.322 490.125 418.731 490.055 418.072L488.528 403.75C488.457 403.091 487.866 402.613 487.206 402.684Z" fill="#4E4E4E"/>
<path d="M487.206 402.684L472.874 404.212C472.215 404.282 471.737 404.873 471.807 405.533L473.335 419.855C473.405 420.514 473.997 420.991 474.656 420.921L488.988 419.393C489.647 419.322 490.125 418.731 490.055 418.072L488.528 403.75C488.457 403.091 487.866 402.613 487.206 402.684Z" stroke="#92A5C0" stroke-width="1.14135" stroke-linecap="round" stroke-linejoin="round"/>
</g>
<g style="mix-blend-mode:multiply" opacity="0.33">
<path d="M513.05 399.928L498.718 401.456C498.059 401.526 497.581 402.118 497.651 402.777L499.178 417.099C499.249 417.758 499.84 418.236 500.5 418.165L514.832 416.637C515.491 416.567 515.969 415.975 515.899 415.316L514.371 400.994C514.301 400.335 513.709 399.858 513.05 399.928Z" fill="#4E4E4E"/>
<path d="M513.05 399.928L498.718 401.456C498.059 401.526 497.581 402.118 497.651 402.777L499.178 417.099C499.249 417.758 499.84 418.236 500.5 418.165L514.832 416.637C515.491 416.567 515.969 415.975 515.899 415.316L514.371 400.994C514.301 400.335 513.709 399.858 513.05 399.928Z" stroke="#92A5C0" stroke-width="1.14135" stroke-linecap="round" stroke-linejoin="round"/>
</g>
<g style="mix-blend-mode:multiply" opacity="0.33">
<path d="M538.893 397.172L524.561 398.701C523.902 398.771 523.424 399.362 523.494 400.021L525.021 414.343C525.092 415.003 525.683 415.48 526.343 415.41L540.674 413.881C541.334 413.811 541.812 413.22 541.742 412.561L540.214 398.239C540.144 397.579 539.552 397.102 538.893 397.172Z" fill="#4E4E4E"/>
<path d="M538.893 397.172L524.561 398.701C523.902 398.771 523.424 399.362 523.494 400.021L525.021 414.343C525.092 415.003 525.683 415.48 526.343 415.41L540.674 413.881C541.334 413.811 541.812 413.22 541.742 412.561L540.214 398.239C540.144 397.579 539.552 397.102 538.893 397.172Z" stroke="#92A5C0" stroke-width="1.14135" stroke-linecap="round" stroke-linejoin="round"/>
</g>
<g style="mix-blend-mode:multiply" opacity="0.33">
<path d="M564.735 394.417L550.404 395.945C549.744 396.015 549.266 396.607 549.337 397.266L550.864 411.588C550.934 412.247 551.526 412.725 552.185 412.654L566.517 411.126C567.177 411.056 567.654 410.464 567.584 409.805L566.057 395.483C565.987 394.824 565.395 394.347 564.735 394.417Z" fill="#4E4E4E"/>
<path d="M564.735 394.417L550.404 395.945C549.744 396.015 549.266 396.607 549.337 397.266L550.864 411.588C550.934 412.247 551.526 412.725 552.185 412.654L566.517 411.126C567.177 411.056 567.654 410.464 567.584 409.805L566.057 395.483C565.987 394.824 565.395 394.347 564.735 394.417Z" stroke="#92A5C0" stroke-width="1.14135" stroke-linecap="round" stroke-linejoin="round"/>
</g>
<g style="mix-blend-mode:multiply" opacity="0.33">
<path d="M604.911 390.133L576.248 393.189C575.588 393.26 575.11 393.851 575.18 394.51L576.708 408.832C576.778 409.491 577.37 409.969 578.029 409.898L606.692 406.842C607.352 406.772 607.83 406.18 607.759 405.521L606.232 391.199C606.162 390.54 605.57 390.063 604.911 390.133Z" fill="#4E4E4E"/>
<path d="M604.911 390.133L576.248 393.189C575.588 393.26 575.11 393.851 575.18 394.51L576.708 408.832C576.778 409.491 577.37 409.969 578.029 409.898L606.692 406.842C607.352 406.772 607.83 406.18 607.759 405.521L606.232 391.199C606.162 390.54 605.57 390.063 604.911 390.133Z" stroke="#92A5C0" stroke-width="1.14135" stroke-linecap="round" stroke-linejoin="round"/>
</g>
<g style="mix-blend-mode:multiply" opacity="0.33">
<path d="M393.165 389.053L378.834 390.581C378.174 390.651 377.696 391.243 377.767 391.902L379.294 406.224C379.364 406.883 379.956 407.361 380.615 407.29L394.947 405.762C395.607 405.692 396.084 405.1 396.014 404.441L394.487 390.119C394.417 389.46 393.825 388.983 393.165 389.053Z" fill="#4E4E4E"/>
<path d="M393.165 389.053L378.834 390.581C378.174 390.651 377.696 391.243 377.767 391.902L379.294 406.224C379.364 406.883 379.956 407.361 380.615 407.29L394.947 405.762C395.607 405.692 396.084 405.1 396.014 404.441L394.487 390.119C394.417 389.46 393.825 388.983 393.165 389.053Z" stroke="#92A5C0" stroke-width="1.14135" stroke-linecap="round" stroke-linejoin="round"/>
</g>
<g style="mix-blend-mode:multiply" opacity="0.33">
<path d="M367.008 391.842L352.677 393.37C352.017 393.441 351.54 394.032 351.61 394.691L353.137 409.013C353.207 409.672 353.799 410.15 354.458 410.079L368.79 408.551C369.45 408.481 369.927 407.889 369.857 407.23L368.33 392.908C368.26 392.249 367.668 391.772 367.008 391.842Z" fill="#4E4E4E"/>
<path d="M367.008 391.842L352.677 393.37C352.017 393.441 351.54 394.032 351.61 394.691L353.137 409.013C353.207 409.672 353.799 410.15 354.458 410.079L368.79 408.551C369.45 408.481 369.927 407.889 369.857 407.23L368.33 392.908C368.26 392.249 367.668 391.772 367.008 391.842Z" stroke="#92A5C0" stroke-width="1.14135" stroke-linecap="round" stroke-linejoin="round"/>
</g>
<g style="mix-blend-mode:multiply" opacity="0.33">
<path d="M419.322 386.264L404.99 387.792C404.33 387.862 403.853 388.454 403.923 389.113L405.45 403.435C405.52 404.094 406.112 404.571 406.772 404.501L421.103 402.973C421.763 402.903 422.241 402.311 422.17 401.652L420.643 387.33C420.573 386.671 419.981 386.194 419.322 386.264Z" fill="#4E4E4E"/>
<path d="M419.322 386.264L404.99 387.792C404.33 387.862 403.853 388.454 403.923 389.113L405.45 403.435C405.52 404.094 406.112 404.571 406.772 404.501L421.103 402.973C421.763 402.903 422.241 402.311 422.17 401.652L420.643 387.33C420.573 386.671 419.981 386.194 419.322 386.264Z" stroke="#92A5C0" stroke-width="1.14135" stroke-linecap="round" stroke-linejoin="round"/>
</g>
<g style="mix-blend-mode:multiply" opacity="0.33">
<path d="M445.478 383.475L431.146 385.003C430.486 385.074 430.009 385.665 430.079 386.324L431.606 400.646C431.676 401.305 432.268 401.783 432.928 401.712L447.259 400.184C447.919 400.114 448.397 399.522 448.326 398.863L446.799 384.541C446.729 383.882 446.137 383.405 445.478 383.475Z" fill="#4E4E4E"/>
<path d="M445.478 383.475L431.146 385.003C430.486 385.074 430.009 385.665 430.079 386.324L431.606 400.646C431.676 401.305 432.268 401.783 432.928 401.712L447.259 400.184C447.919 400.114 448.397 399.522 448.326 398.863L446.799 384.541C446.729 383.882 446.137 383.405 445.478 383.475Z" stroke="#92A5C0" stroke-width="1.14135" stroke-linecap="round" stroke-linejoin="round"/>
</g>
<g style="mix-blend-mode:multiply" opacity="0.33">
<path d="M471.634 380.686L457.302 382.214C456.643 382.285 456.165 382.876 456.235 383.535L457.763 397.857C457.833 398.516 458.425 398.994 459.084 398.923L473.416 397.395C474.075 397.325 474.553 396.733 474.483 396.074L472.956 381.752C472.885 381.093 472.294 380.616 471.634 380.686Z" fill="#4E4E4E"/>
<path d="M471.634 380.686L457.302 382.214C456.643 382.285 456.165 382.876 456.235 383.535L457.763 397.857C457.833 398.516 458.425 398.994 459.084 398.923L473.416 397.395C474.075 397.325 474.553 396.733 474.483 396.074L472.956 381.752C472.885 381.093 472.294 380.616 471.634 380.686Z" stroke="#92A5C0" stroke-width="1.14135" stroke-linecap="round" stroke-linejoin="round"/>
</g>
<g style="mix-blend-mode:multiply" opacity="0.33">
<path d="M497.791 377.897L483.459 379.425C482.8 379.495 482.322 380.087 482.392 380.746L483.919 395.068C483.99 395.727 484.581 396.205 485.241 396.134L499.572 394.606C500.232 394.536 500.71 393.944 500.64 393.285L499.112 378.963C499.042 378.304 498.45 377.827 497.791 377.897Z" fill="#4E4E4E"/>
<path d="M497.791 377.897L483.459 379.425C482.8 379.495 482.322 380.087 482.392 380.746L483.919 395.068C483.99 395.727 484.581 396.205 485.241 396.134L499.572 394.606C500.232 394.536 500.71 393.944 500.64 393.285L499.112 378.963C499.042 378.304 498.45 377.827 497.791 377.897Z" stroke="#92A5C0" stroke-width="1.14135" stroke-linecap="round" stroke-linejoin="round"/>
</g>
<g style="mix-blend-mode:multiply" opacity="0.33">
<path d="M523.947 375.108L509.615 376.636C508.956 376.706 508.478 377.298 508.548 377.957L510.076 392.279C510.146 392.938 510.738 393.415 511.397 393.345L525.729 391.817C526.388 391.747 526.866 391.155 526.796 390.496L525.269 376.174C525.198 375.515 524.607 375.038 523.947 375.108Z" fill="#4E4E4E"/>
<path d="M523.947 375.108L509.615 376.636C508.956 376.706 508.478 377.298 508.548 377.957L510.076 392.279C510.146 392.938 510.738 393.415 511.397 393.345L525.729 391.817C526.388 391.747 526.866 391.155 526.796 390.496L525.269 376.174C525.198 375.515 524.607 375.038 523.947 375.108Z" stroke="#92A5C0" stroke-width="1.14135" stroke-linecap="round" stroke-linejoin="round"/>
</g>
<g style="mix-blend-mode:multiply" opacity="0.33">
<path d="M550.103 372.319L535.771 373.847C535.112 373.918 534.634 374.509 534.704 375.168L536.232 389.49C536.302 390.149 536.894 390.627 537.553 390.556L551.885 389.028C552.544 388.958 553.022 388.366 552.952 387.707L551.425 373.385C551.354 372.726 550.763 372.249 550.103 372.319Z" fill="#4E4E4E"/>
<path d="M550.103 372.319L535.771 373.847C535.112 373.918 534.634 374.509 534.704 375.168L536.232 389.49C536.302 390.149 536.894 390.627 537.553 390.556L551.885 389.028C552.544 388.958 553.022 388.366 552.952 387.707L551.425 373.385C551.354 372.726 550.763 372.249 550.103 372.319Z" stroke="#92A5C0" stroke-width="1.14135" stroke-linecap="round" stroke-linejoin="round"/>
</g>
<g style="mix-blend-mode:multiply" opacity="0.33">
<path d="M576.26 369.53L561.928 371.058C561.268 371.129 560.791 371.72 560.861 372.379L562.388 386.701C562.458 387.36 563.05 387.838 563.71 387.767L578.041 386.239C578.701 386.169 579.179 385.577 579.108 384.918L577.581 370.596C577.511 369.937 576.919 369.46 576.26 369.53Z" fill="#4E4E4E"/>
<path d="M576.26 369.53L561.928 371.058C561.268 371.129 560.791 371.72 560.861 372.379L562.388 386.701C562.458 387.36 563.05 387.838 563.71 387.767L578.041 386.239C578.701 386.169 579.179 385.577 579.108 384.918L577.581 370.596C577.511 369.937 576.919 369.46 576.26 369.53Z" stroke="#92A5C0" stroke-width="1.14135" stroke-linecap="round" stroke-linejoin="round"/>
</g>
<g style="mix-blend-mode:multiply" opacity="0.33">
<path d="M602.416 366.741L588.085 368.269C587.425 368.339 586.947 368.931 587.018 369.59L588.545 383.912C588.615 384.571 589.207 385.049 589.866 384.978L604.198 383.45C604.858 383.38 605.335 382.788 605.265 382.129L603.738 367.807C603.668 367.148 603.076 366.671 602.416 366.741Z" fill="#4E4E4E"/>
<path d="M602.416 366.741L588.085 368.269C587.425 368.339 586.947 368.931 587.018 369.59L588.545 383.912C588.615 384.571 589.207 385.049 589.866 384.978L604.198 383.45C604.858 383.38 605.335 382.788 605.265 382.129L603.738 367.807C603.668 367.148 603.076 366.671 602.416 366.741Z" stroke="#92A5C0" stroke-width="1.14135" stroke-linecap="round" stroke-linejoin="round"/>
</g>
<g style="mix-blend-mode:multiply" opacity="0.33">
<path d="M400.488 460.696L386.156 462.224C385.497 462.295 385.019 462.886 385.089 463.545L386.616 477.867C386.687 478.526 387.278 479.004 387.938 478.933L402.269 477.405C402.929 477.335 403.407 476.743 403.336 476.084L401.809 461.762C401.739 461.103 401.147 460.626 400.488 460.696Z" fill="#4E4E4E"/>
</g>
<g style="mix-blend-mode:multiply" opacity="0.33">
<path d="M374.644 463.452L360.312 464.98C359.653 465.05 359.175 465.642 359.245 466.301L360.773 480.623C360.843 481.282 361.435 481.759 362.094 481.689L376.426 480.161C377.085 480.09 377.563 479.499 377.493 478.84L375.966 464.518C375.895 463.859 375.304 463.381 374.644 463.452Z" fill="#4E4E4E"/>
</g>
<g style="mix-blend-mode:multiply" opacity="0.33">
<path d="M529.702 446.918L411.999 459.469C411.339 459.539 410.861 460.13 410.932 460.789L412.459 475.112C412.529 475.771 413.121 476.248 413.78 476.178L531.483 463.627C532.143 463.557 532.621 462.966 532.55 462.306L531.023 447.984C530.953 447.325 530.361 446.848 529.702 446.918Z" fill="#4E4E4E"/>
</g>
<g style="mix-blend-mode:multiply" opacity="0.33">
<path d="M555.545 444.163L541.214 445.691C540.554 445.761 540.076 446.352 540.147 447.012L541.674 461.334C541.744 461.993 542.336 462.47 542.995 462.4L557.327 460.872C557.986 460.801 558.464 460.21 558.394 459.551L556.867 445.229C556.796 444.57 556.205 444.092 555.545 444.163Z" fill="#4E4E4E"/>
</g>
<g style="mix-blend-mode:multiply" opacity="0.33">
<path d="M594.334 449.533L584.78 450.551C584.12 450.622 583.642 451.213 583.712 451.872L584.237 456.795C584.308 457.455 584.899 457.932 585.559 457.862L595.113 456.843C595.773 456.772 596.251 456.181 596.18 455.522L595.655 450.599C595.585 449.94 594.994 449.462 594.334 449.533Z" fill="#4E4E4E"/>
</g>
<g style="mix-blend-mode:multiply" opacity="0.33">
<path d="M593.332 440.133L583.777 441.152C583.118 441.223 582.64 441.814 582.71 442.473L583.235 447.396C583.306 448.055 583.897 448.533 584.557 448.462L594.111 447.444C594.771 447.373 595.249 446.782 595.178 446.123L594.653 441.2C594.583 440.54 593.991 440.063 593.332 440.133Z" fill="#4E4E4E"/>
</g>
<g style="mix-blend-mode:multiply" opacity="0.33">
<path d="M611.054 447.75L601.5 448.769C600.84 448.839 600.362 449.43 600.433 450.09L600.958 455.013C601.028 455.672 601.62 456.149 602.279 456.079L611.834 455.06C612.493 454.99 612.971 454.398 612.901 453.739L612.376 448.816C612.305 448.157 611.714 447.68 611.054 447.75Z" fill="#4E4E4E"/>
</g>
<g style="mix-blend-mode:multiply" opacity="0.33">
<path d="M577.614 451.316L568.059 452.334C567.4 452.405 566.922 452.996 566.992 453.655L567.517 458.578C567.587 459.238 568.179 459.715 568.839 459.645L578.393 458.626C579.053 458.555 579.53 457.964 579.46 457.305L578.935 452.382C578.865 451.723 578.273 451.245 577.614 451.316Z" fill="#4E4E4E"/>
</g>
<g style="mix-blend-mode:multiply" opacity="0.33">
<path d="M395.564 437.176L357.777 441.205C357.118 441.275 356.64 441.866 356.71 442.526L358.238 456.848C358.308 457.507 358.899 457.984 359.559 457.914L397.346 453.885C398.005 453.814 398.483 453.223 398.413 452.564L396.885 438.242C396.815 437.583 396.223 437.105 395.564 437.176Z" fill="#4E4E4E"/>
</g>
<g style="mix-blend-mode:multiply" opacity="0.33">
<path d="M421.622 434.397L407.29 435.925C406.631 435.995 406.153 436.587 406.223 437.246L407.751 451.568C407.821 452.227 408.413 452.705 409.072 452.634L423.404 451.106C424.063 451.036 424.541 450.444 424.471 449.785L422.944 435.463C422.873 434.804 422.282 434.327 421.622 434.397Z" fill="#4E4E4E"/>
</g>
<g style="mix-blend-mode:multiply" opacity="0.33">
<path d="M447.466 431.641L433.134 433.17C432.475 433.24 431.997 433.831 432.067 434.49L433.594 448.812C433.665 449.472 434.256 449.949 434.916 449.879L449.248 448.35C449.907 448.28 450.385 447.689 450.315 447.03L448.787 432.708C448.717 432.048 448.125 431.571 447.466 431.641Z" fill="#4E4E4E"/>
</g>
<g style="mix-blend-mode:multiply" opacity="0.33">
<path d="M473.308 428.886L458.977 430.414C458.317 430.484 457.839 431.076 457.91 431.735L459.437 446.057C459.507 446.716 460.099 447.194 460.758 447.123L475.09 445.595C475.75 445.525 476.227 444.933 476.157 444.274L474.63 429.952C474.56 429.293 473.968 428.816 473.308 428.886Z" fill="#4E4E4E"/>
</g>
<g style="mix-blend-mode:multiply" opacity="0.33">
<path d="M499.152 426.13L484.82 427.659C484.16 427.729 483.683 428.32 483.753 428.979L485.28 443.301C485.35 443.961 485.942 444.438 486.602 444.368L500.933 442.84C501.593 442.769 502.071 442.178 502 441.519L500.473 427.197C500.403 426.537 499.811 426.06 499.152 426.13Z" fill="#4E4E4E"/>
</g>
<g style="mix-blend-mode:multiply" opacity="0.33">
<path d="M524.994 423.375L510.663 424.903C510.003 424.973 509.525 425.565 509.596 426.224L511.123 440.546C511.193 441.205 511.785 441.682 512.444 441.612L526.776 440.084C527.435 440.014 527.913 439.422 527.843 438.763L526.316 424.441C526.245 423.782 525.654 423.304 524.994 423.375Z" fill="#4E4E4E"/>
</g>
<g style="mix-blend-mode:multiply" opacity="0.33">
<path d="M550.838 420.619L536.506 422.147C535.846 422.218 535.369 422.809 535.439 423.468L536.966 437.79C537.036 438.449 537.628 438.927 538.288 438.856L552.619 437.328C553.279 437.258 553.757 436.667 553.686 436.007L552.159 421.685C552.089 421.026 551.497 420.549 550.838 420.619Z" fill="#4E4E4E"/>
</g>
<g style="mix-blend-mode:multiply" opacity="0.33">
<path d="M607.517 414.576L564.522 419.16C563.863 419.23 563.385 419.822 563.455 420.481L564.982 434.803C565.053 435.462 565.644 435.939 566.304 435.869L609.299 431.285C609.958 431.214 610.436 430.623 610.366 429.964L608.839 415.642C608.768 414.983 608.177 414.505 607.517 414.576Z" fill="#4E4E4E"/>
</g>
<g style="mix-blend-mode:multiply" opacity="0.33">
<path d="M409.678 410.95L395.346 412.479C394.687 412.549 394.209 413.14 394.279 413.799L395.806 428.122C395.877 428.781 396.468 429.258 397.128 429.188L411.459 427.66C412.119 427.589 412.597 426.998 412.526 426.339L410.999 412.017C410.929 411.357 410.337 410.88 409.678 410.95Z" fill="#4E4E4E"/>
</g>
<g style="mix-blend-mode:multiply" opacity="0.33">
<path d="M383.834 413.706L355.171 416.762C354.512 416.833 354.034 417.424 354.104 418.083L355.631 432.405C355.701 433.064 356.293 433.542 356.953 433.471L385.616 430.415C386.276 430.345 386.753 429.753 386.683 429.094L385.156 414.772C385.086 414.113 384.494 413.636 383.834 413.706Z" fill="#4E4E4E"/>
</g>
<g style="mix-blend-mode:multiply" opacity="0.33">
<path d="M435.521 408.195L421.189 409.723C420.529 409.793 420.052 410.385 420.122 411.044L421.649 425.366C421.719 426.025 422.311 426.502 422.971 426.432L437.302 424.904C437.962 424.834 438.44 424.242 438.369 423.583L436.842 409.261C436.772 408.602 436.18 408.125 435.521 408.195Z" fill="#4E4E4E"/>
</g>
<g style="mix-blend-mode:multiply" opacity="0.33">
<path d="M461.364 405.439L447.032 406.967C446.372 407.038 445.895 407.629 445.965 408.288L447.492 422.61C447.562 423.269 448.154 423.747 448.814 423.676L463.145 422.148C463.805 422.078 464.283 421.487 464.212 420.827L462.685 406.505C462.615 405.846 462.023 405.369 461.364 405.439Z" fill="#4E4E4E"/>
</g>
<g style="mix-blend-mode:multiply" opacity="0.33">
<path d="M487.206 402.684L472.874 404.212C472.215 404.282 471.737 404.873 471.807 405.533L473.335 419.855C473.405 420.514 473.997 420.991 474.656 420.921L488.988 419.393C489.647 419.322 490.125 418.731 490.055 418.072L488.528 403.75C488.457 403.091 487.866 402.613 487.206 402.684Z" fill="#4E4E4E"/>
</g>
<g style="mix-blend-mode:multiply" opacity="0.33">
<path d="M513.05 399.928L498.718 401.456C498.059 401.526 497.581 402.118 497.651 402.777L499.178 417.099C499.249 417.758 499.84 418.236 500.5 418.165L514.832 416.637C515.491 416.567 515.969 415.975 515.899 415.316L514.371 400.994C514.301 400.335 513.709 399.858 513.05 399.928Z" fill="#4E4E4E"/>
</g>
<g style="mix-blend-mode:multiply" opacity="0.33">
<path d="M538.893 397.172L524.561 398.701C523.902 398.771 523.424 399.362 523.494 400.021L525.021 414.343C525.092 415.003 525.683 415.48 526.343 415.41L540.674 413.881C541.334 413.811 541.812 413.22 541.742 412.561L540.214 398.239C540.144 397.579 539.552 397.102 538.893 397.172Z" fill="#4E4E4E"/>
</g>
<g style="mix-blend-mode:multiply" opacity="0.33">
<path d="M564.735 394.417L550.404 395.945C549.744 396.015 549.266 396.607 549.337 397.266L550.864 411.588C550.934 412.247 551.526 412.725 552.185 412.654L566.517 411.126C567.177 411.056 567.654 410.464 567.584 409.805L566.057 395.483C565.987 394.824 565.395 394.347 564.735 394.417Z" fill="#4E4E4E"/>
</g>
<g style="mix-blend-mode:multiply" opacity="0.33">
<path d="M604.911 390.133L576.248 393.189C575.588 393.26 575.11 393.851 575.18 394.51L576.708 408.832C576.778 409.491 577.37 409.969 578.029 409.898L606.692 406.842C607.352 406.772 607.83 406.18 607.759 405.521L606.232 391.199C606.162 390.54 605.57 390.063 604.911 390.133Z" fill="#4E4E4E"/>
</g>
<g style="mix-blend-mode:multiply" opacity="0.33">
<path d="M393.165 389.053L378.834 390.581C378.174 390.651 377.696 391.243 377.767 391.902L379.294 406.224C379.364 406.883 379.956 407.361 380.615 407.29L394.947 405.762C395.607 405.692 396.084 405.1 396.014 404.441L394.487 390.119C394.417 389.46 393.825 388.983 393.165 389.053Z" fill="#4E4E4E"/>
</g>
<g style="mix-blend-mode:multiply" opacity="0.33">
<path d="M367.008 391.842L352.677 393.37C352.017 393.441 351.54 394.032 351.61 394.691L353.137 409.013C353.207 409.672 353.799 410.15 354.458 410.079L368.79 408.551C369.45 408.481 369.927 407.889 369.857 407.23L368.33 392.908C368.26 392.249 367.668 391.772 367.008 391.842Z" fill="#4E4E4E"/>
</g>
<g style="mix-blend-mode:multiply" opacity="0.33">
<path d="M419.322 386.264L404.99 387.792C404.33 387.862 403.853 388.454 403.923 389.113L405.45 403.435C405.52 404.094 406.112 404.571 406.772 404.501L421.103 402.973C421.763 402.903 422.241 402.311 422.17 401.652L420.643 387.33C420.573 386.671 419.981 386.194 419.322 386.264Z" fill="#4E4E4E"/>
</g>
<g style="mix-blend-mode:multiply" opacity="0.33">
<path d="M445.478 383.475L431.146 385.003C430.486 385.074 430.009 385.665 430.079 386.324L431.606 400.646C431.676 401.305 432.268 401.783 432.928 401.712L447.259 400.184C447.919 400.114 448.397 399.522 448.326 398.863L446.799 384.541C446.729 383.882 446.137 383.405 445.478 383.475Z" fill="#4E4E4E"/>
</g>
<g style="mix-blend-mode:multiply" opacity="0.33">
<path d="M471.634 380.686L457.302 382.214C456.643 382.285 456.165 382.876 456.235 383.535L457.763 397.857C457.833 398.516 458.425 398.994 459.084 398.923L473.416 397.395C474.075 397.325 474.553 396.733 474.483 396.074L472.956 381.752C472.885 381.093 472.294 380.616 471.634 380.686Z" fill="#4E4E4E"/>
</g>
<g style="mix-blend-mode:multiply" opacity="0.33">
<path d="M497.791 377.897L483.459 379.425C482.8 379.495 482.322 380.087 482.392 380.746L483.919 395.068C483.99 395.727 484.581 396.205 485.241 396.134L499.572 394.606C500.232 394.536 500.71 393.944 500.64 393.285L499.112 378.963C499.042 378.304 498.45 377.827 497.791 377.897Z" fill="#4E4E4E"/>
</g>
<g style="mix-blend-mode:multiply" opacity="0.33">
<path d="M523.947 375.108L509.615 376.636C508.956 376.706 508.478 377.298 508.548 377.957L510.076 392.279C510.146 392.938 510.738 393.415 511.397 393.345L525.729 391.817C526.388 391.747 526.866 391.155 526.796 390.496L525.269 376.174C525.198 375.515 524.607 375.038 523.947 375.108Z" fill="#4E4E4E"/>
</g>
<g style="mix-blend-mode:multiply" opacity="0.33">
<path d="M550.103 372.319L535.771 373.847C535.112 373.918 534.634 374.509 534.704 375.168L536.232 389.49C536.302 390.149 536.894 390.627 537.553 390.556L551.885 389.028C552.544 388.958 553.022 388.366 552.952 387.707L551.425 373.385C551.354 372.726 550.763 372.249 550.103 372.319Z" fill="#4E4E4E"/>
</g>
<g style="mix-blend-mode:multiply" opacity="0.33">
<path d="M576.26 369.53L561.928 371.058C561.268 371.129 560.791 371.72 560.861 372.379L562.388 386.701C562.458 387.36 563.05 387.838 563.71 387.767L578.041 386.239C578.701 386.169 579.179 385.577 579.108 384.918L577.581 370.596C577.511 369.937 576.919 369.46 576.26 369.53Z" fill="#4E4E4E"/>
</g>
<g style="mix-blend-mode:multiply" opacity="0.33">
<path d="M602.416 366.741L588.085 368.269C587.425 368.339 586.947 368.931 587.018 369.59L588.545 383.912C588.615 384.571 589.207 385.049 589.866 384.978L604.198 383.45C604.858 383.38 605.335 382.788 605.265 382.129L603.738 367.807C603.668 367.148 603.076 366.671 602.416 366.741Z" fill="#4E4E4E"/>
</g>
<g style="mix-blend-mode:multiply" opacity="0.33">
<path d="M371.97 352.802L575.001 331.153L576.712 347.201C576.847 348.468 576.474 349.736 575.673 350.726C574.873 351.717 573.711 352.35 572.444 352.485L378.968 373.115C377.701 373.25 376.432 372.877 375.441 372.077C374.449 371.277 373.816 370.116 373.681 368.85L371.97 352.802Z" fill="#4E4E4E"/>
</g>
<g style="mix-blend-mode:multiply" opacity="0.25">
<path d="M571.935 347.709L378.459 368.339C377.192 368.474 375.923 368.101 374.932 367.301C373.94 366.501 373.307 365.341 373.172 364.075L373.681 368.849C373.816 370.115 374.449 371.275 375.441 372.075C376.432 372.875 377.701 373.248 378.968 373.113L572.444 352.483C573.711 352.348 574.873 351.716 575.673 350.725C576.474 349.734 576.847 348.466 576.712 347.2L576.203 342.426C576.338 343.692 575.965 344.96 575.164 345.951C574.364 346.942 573.202 347.574 571.935 347.709Z" fill="#4E4E4E"/>
</g>
<g style="mix-blend-mode:multiply" opacity="0.33">
<path d="M371.97 352.802L575.001 331.153L576.712 347.201C576.847 348.468 576.474 349.736 575.673 350.726C574.873 351.717 573.711 352.35 572.444 352.485L378.968 373.115C377.701 373.25 376.432 372.877 375.441 372.077C374.449 371.277 373.816 370.116 373.681 368.85L371.97 352.802Z" fill="#4E4E4E"/>
<path d="M371.97 352.802L575.001 331.153L576.712 347.201C576.847 348.468 576.474 349.736 575.673 350.726C574.873 351.717 573.711 352.35 572.444 352.485L378.968 373.115C377.701 373.25 376.432 372.877 375.441 372.077C374.449 371.277 373.816 370.116 373.681 368.85L371.97 352.802Z" stroke="#46505C" stroke-width="2.28269" stroke-linecap="round" stroke-linejoin="round"/>
</g>
<g style="mix-blend-mode:multiply" opacity="0.33">
<path d="M530.483 480.03L446.882 488.944C445.563 489.084 444.607 490.267 444.748 491.585L450.729 547.68C450.87 548.999 452.053 549.953 453.372 549.813L536.973 540.898C538.292 540.758 539.248 539.575 539.107 538.257L533.126 482.162C532.985 480.844 531.802 479.889 530.483 480.03Z" fill="#4E4E4E"/>
</g>
<g style="mix-blend-mode:multiply" opacity="0.33">
<path d="M530.483 480.03L446.882 488.944C445.563 489.084 444.607 490.267 444.748 491.585L450.729 547.68C450.87 548.999 452.053 549.953 453.372 549.813L536.973 540.898C538.292 540.758 539.248 539.575 539.107 538.257L533.126 482.162C532.985 480.844 531.802 479.889 530.483 480.03Z" fill="#4E4E4E"/>
<path d="M530.483 480.03L446.882 488.944C445.563 489.084 444.607 490.267 444.748 491.585L450.729 547.68C450.87 548.999 452.053 549.953 453.372 549.813L536.973 540.898C538.292 540.758 539.248 539.575 539.107 538.257L533.126 482.162C532.985 480.844 531.802 479.889 530.483 480.03Z" stroke="#92A5C0" stroke-width="1.14135" stroke-linecap="round" stroke-linejoin="round"/>
</g>
</g>
<path d="M581.603 131.963L304.526 161.507C295.292 162.492 288.603 170.771 289.587 179.999L306.895 342.316C307.879 351.544 316.162 358.227 325.397 357.242L602.474 327.698C611.709 326.714 618.397 318.434 617.413 309.206L600.105 146.889C599.121 137.661 590.838 130.979 581.603 131.963Z" stroke="black" stroke-width="1.14135" stroke-linecap="round" stroke-linejoin="round"/>
<path d="M581.603 131.963L304.526 161.507C295.292 162.492 288.603 170.771 289.587 179.999L306.895 342.316C307.879 351.544 316.162 358.227 325.397 357.242L602.474 327.698C611.709 326.714 618.397 318.434 617.413 309.206L600.105 146.889C599.121 137.661 590.838 130.979 581.603 131.963Z" fill="#92A5C0"/>
<path d="M581.603 131.963L304.526 161.507C295.292 162.492 288.603 170.771 289.587 179.999L306.895 342.316C307.879 351.544 316.162 358.227 325.397 357.242L602.474 327.698C611.709 326.714 618.397 318.434 617.413 309.206L600.105 146.889C599.121 137.661 590.838 130.979 581.603 131.963Z" fill="#92A5C0"/>
<g style="mix-blend-mode:multiply" opacity="0.17">
<path d="M581.603 131.963L304.526 161.507C295.292 162.492 288.603 170.771 289.587 179.999L305.752 331.594C306.736 340.822 315.019 347.505 324.253 346.52L601.331 316.976C610.565 315.991 617.253 307.712 616.269 298.484L600.105 146.889C599.121 137.661 590.838 130.979 581.603 131.963Z" fill="#92A5C0"/>
</g>
<path opacity="0.1" d="M305.035 166.277L582.112 136.733C586.547 136.26 590.987 137.567 594.457 140.366C597.927 143.166 600.141 147.228 600.614 151.659L617.412 309.202L600.105 146.885C599.632 142.454 597.418 138.392 593.948 135.592C590.478 132.793 586.037 131.486 581.603 131.959L304.525 161.503C300.091 161.976 296.026 164.19 293.224 167.658C290.423 171.126 289.114 175.564 289.587 179.995L290.096 184.769C289.623 180.338 290.932 175.9 293.733 172.432C296.535 168.964 300.6 166.75 305.035 166.277V166.277Z" fill="white"/>
<g opacity="0.1">
<path opacity="0.1" d="M403.298 348.936L422.489 346.89L543.922 135.981L524.731 138.028L403.298 348.936Z" fill="white"/>
<path opacity="0.1" d="M433.56 345.709L439.464 345.08L560.899 134.171L554.993 134.801L433.56 345.709Z" fill="white"/>
</g>
<path d="M581.603 131.963L304.526 161.507C295.292 162.492 288.603 170.771 289.587 179.999L306.895 342.316C307.879 351.544 316.162 358.227 325.397 357.242L602.474 327.698C611.709 326.714 618.397 318.434 617.413 309.206L600.105 146.889C599.121 137.661 590.838 130.979 581.603 131.963Z" stroke="#46505C" stroke-width="4.56539" stroke-linecap="round" stroke-linejoin="round"/>
<path d="M595.146 304.284L579.178 154.528L311.655 183.054L327.623 332.81L595.146 304.284Z" fill="#FE5070"/>
<g opacity="0.06">
<path opacity="0.06" d="M418.945 323.705L438.137 321.659L531.433 159.619L512.241 161.666L418.945 323.705Z" fill="white"/>
<path opacity="0.06" d="M449.208 320.479L455.113 319.849L548.409 157.81L542.505 158.439L449.208 320.479Z" fill="white"/>
</g>
<path d="M595.213 304.91L579.178 154.528L311.655 183.054L327.69 333.436L595.213 304.91Z" stroke="#46505C" stroke-width="1.14135" stroke-linecap="round" stroke-linejoin="round"/>
<path d="M602.474 327.699L325.397 357.244C316.163 358.228 309.474 366.507 310.458 375.735L328.784 547.6C329.768 556.828 338.052 563.511 347.286 562.527L624.363 532.982C633.598 531.998 640.286 523.719 639.302 514.49L620.976 342.626C619.992 333.397 611.709 326.715 602.474 327.699Z" fill="#E6F3FF"/>
<path d="M634.525 515L616.199 343.135C615.496 336.543 609.579 331.77 602.984 332.473L325.906 362.018C319.31 362.721 314.533 368.635 315.236 375.226L333.561 547.091C334.264 553.683 340.181 558.456 346.777 557.753L623.854 528.208C630.45 527.505 635.228 521.591 634.525 515Z" fill="white" stroke="#E6F3FF" stroke-width="2.28269" stroke-miterlimit="10"/>
<path d="M465.66 540.465L503.997 536.377C505.264 536.242 506.533 536.615 507.524 537.415C508.515 538.215 509.148 539.375 509.283 540.642L509.769 545.201L461.878 550.307L461.392 545.748C461.257 544.482 461.631 543.214 462.431 542.223C463.232 541.232 464.393 540.6 465.66 540.465Z" fill="#E6F3FF"/>
<path d="M602.474 327.699L325.397 357.244C316.163 358.228 309.474 366.507 310.458 375.735L328.784 547.6C329.768 556.828 338.052 563.511 347.286 562.527L624.363 532.982C633.598 531.998 640.286 523.719 639.302 514.49L620.976 342.626C619.992 333.397 611.709 326.715 602.474 327.699Z" stroke="#46505C" stroke-width="4.56539" stroke-linecap="round" stroke-linejoin="round"/>
<path d="M599.405 344.224L331.882 372.75C329.903 372.961 328.47 374.735 328.681 376.712L339.625 479.354C339.836 481.331 341.611 482.763 343.59 482.552L611.113 454.027C613.092 453.816 614.525 452.042 614.314 450.064L603.37 347.423C603.159 345.445 601.384 344.013 599.405 344.224Z" fill="#E6F3FF"/>
<path d="M389.793 450.467L375.462 451.995C374.802 452.065 374.324 452.656 374.395 453.316L375.922 467.638C375.992 468.297 376.584 468.774 377.243 468.704L391.575 467.176C392.234 467.105 392.712 466.514 392.642 465.855L391.115 451.533C391.045 450.874 390.453 450.396 389.793 450.467Z" stroke="#92A5C0" stroke-width="1.14135" stroke-linecap="round" stroke-linejoin="round"/>
<path d="M363.95 453.222L349.619 454.75C348.959 454.821 348.481 455.412 348.552 456.071L350.079 470.393C350.149 471.052 350.741 471.53 351.4 471.459L365.732 469.931C366.392 469.861 366.869 469.27 366.799 468.61L365.272 454.288C365.202 453.629 364.61 453.152 363.95 453.222Z" stroke="#92A5C0" stroke-width="1.14135" stroke-linecap="round" stroke-linejoin="round"/>
<path d="M519.008 436.689L401.305 449.239C400.646 449.309 400.168 449.901 400.238 450.56L401.765 464.882C401.836 465.541 402.427 466.019 403.087 465.948L520.79 453.398C521.449 453.327 521.927 452.736 521.857 452.077L520.33 437.755C520.259 437.096 519.668 436.618 519.008 436.689Z" stroke="#92A5C0" stroke-width="1.14135" stroke-linecap="round" stroke-linejoin="round"/>
<path d="M544.851 433.933L530.519 435.461C529.86 435.532 529.382 436.123 529.452 436.782L530.98 451.104C531.05 451.763 531.642 452.241 532.301 452.17L546.633 450.642C547.292 450.572 547.77 449.981 547.7 449.321L546.173 434.999C546.102 434.34 545.511 433.863 544.851 433.933Z" stroke="#92A5C0" stroke-width="1.14135" stroke-linecap="round" stroke-linejoin="round"/>
<path d="M583.639 439.303L574.085 440.322C573.425 440.392 572.948 440.984 573.018 441.643L573.543 446.566C573.613 447.225 574.205 447.702 574.864 447.632L584.419 446.613C585.078 446.543 585.556 445.952 585.486 445.292L584.961 440.369C584.891 439.71 584.299 439.233 583.639 439.303Z" stroke="#92A5C0" stroke-width="1.14135" stroke-linecap="round" stroke-linejoin="round"/>
<path d="M582.637 429.904L573.083 430.923C572.423 430.993 571.945 431.584 572.016 432.244L572.541 437.167C572.611 437.826 573.203 438.303 573.862 438.233L583.417 437.214C584.076 437.144 584.554 436.552 584.484 435.893L583.959 430.97C583.888 430.311 583.297 429.834 582.637 429.904Z" stroke="#92A5C0" stroke-width="1.14135" stroke-linecap="round" stroke-linejoin="round"/>
<path d="M600.359 437.52L590.805 438.539C590.145 438.609 589.668 439.201 589.738 439.86L590.263 444.783C590.333 445.442 590.925 445.92 591.584 445.849L601.139 444.831C601.798 444.76 602.276 444.169 602.206 443.51L601.681 438.587C601.611 437.927 601.019 437.45 600.359 437.52Z" stroke="#92A5C0" stroke-width="1.14135" stroke-linecap="round" stroke-linejoin="round"/>
<path d="M566.919 441.086L557.364 442.105C556.705 442.175 556.227 442.767 556.297 443.426L556.822 448.349C556.893 449.008 557.484 449.485 558.144 449.415L567.698 448.396C568.358 448.326 568.836 447.735 568.765 447.075L568.24 442.152C568.17 441.493 567.578 441.016 566.919 441.086Z" stroke="#92A5C0" stroke-width="1.14135" stroke-linecap="round" stroke-linejoin="round"/>
<path d="M384.87 426.948L347.084 430.977C346.424 431.047 345.947 431.639 346.017 432.298L347.544 446.62C347.614 447.279 348.206 447.757 348.866 447.686L386.652 443.657C387.312 443.587 387.789 442.995 387.719 442.336L386.192 428.014C386.122 427.355 385.53 426.878 384.87 426.948Z" stroke="#92A5C0" stroke-width="1.14135" stroke-linecap="round" stroke-linejoin="round"/>
<path d="M410.929 424.169L396.597 425.698C395.938 425.768 395.46 426.359 395.53 427.018L397.057 441.341C397.128 442 397.719 442.477 398.379 442.407L412.711 440.879C413.37 440.808 413.848 440.217 413.778 439.558L412.251 425.236C412.18 424.576 411.589 424.099 410.929 424.169Z" stroke="#92A5C0" stroke-width="1.14135" stroke-linecap="round" stroke-linejoin="round"/>
<path d="M436.771 421.414L422.439 422.942C421.78 423.013 421.302 423.604 421.372 424.263L422.9 438.585C422.97 439.244 423.561 439.722 424.221 439.651L438.553 438.123C439.212 438.053 439.69 437.461 439.62 436.802L438.093 422.48C438.022 421.821 437.431 421.344 436.771 421.414Z" stroke="#92A5C0" stroke-width="1.14135" stroke-linecap="round" stroke-linejoin="round"/>
<path d="M462.615 418.658L448.283 420.187C447.624 420.257 447.146 420.848 447.216 421.507L448.744 435.83C448.814 436.489 449.405 436.966 450.065 436.896L464.397 435.368C465.056 435.297 465.534 434.706 465.464 434.047L463.937 419.725C463.866 419.065 463.275 418.588 462.615 418.658Z" stroke="#92A5C0" stroke-width="1.14135" stroke-linecap="round" stroke-linejoin="round"/>
<path d="M488.457 415.903L474.125 417.431C473.466 417.501 472.988 418.093 473.058 418.752L474.586 433.074C474.656 433.733 475.248 434.21 475.907 434.14L490.239 432.612C490.898 432.542 491.376 431.95 491.306 431.291L489.779 416.969C489.708 416.31 489.117 415.833 488.457 415.903Z" stroke="#92A5C0" stroke-width="1.14135" stroke-linecap="round" stroke-linejoin="round"/>
<path d="M514.3 413.147L499.969 414.675C499.309 414.746 498.831 415.337 498.902 415.996L500.429 430.318C500.499 430.977 501.091 431.455 501.75 431.384L516.082 429.856C516.742 429.786 517.219 429.195 517.149 428.535L515.622 414.213C515.552 413.554 514.96 413.077 514.3 413.147Z" stroke="#92A5C0" stroke-width="1.14135" stroke-linecap="round" stroke-linejoin="round"/>
<path d="M540.143 410.392L525.811 411.92C525.152 411.99 524.674 412.581 524.744 413.241L526.272 427.563C526.342 428.222 526.934 428.699 527.593 428.629L541.925 427.101C542.584 427.03 543.062 426.439 542.992 425.78L541.465 411.458C541.394 410.799 540.803 410.321 540.143 410.392Z" stroke="#92A5C0" stroke-width="1.14135" stroke-linecap="round" stroke-linejoin="round"/>
<path d="M596.822 404.348L553.827 408.932C553.168 409.003 552.69 409.594 552.76 410.253L554.287 424.575C554.358 425.235 554.949 425.712 555.609 425.642L598.604 421.057C599.263 420.987 599.741 420.395 599.671 419.736L598.144 405.414C598.073 404.755 597.482 404.278 596.822 404.348Z" stroke="#92A5C0" stroke-width="1.14135" stroke-linecap="round" stroke-linejoin="round"/>
<path d="M398.983 400.721L384.652 402.25C383.992 402.32 383.514 402.911 383.585 403.57L385.112 417.893C385.182 418.552 385.774 419.029 386.433 418.959L400.765 417.431C401.425 417.36 401.902 416.769 401.832 416.11L400.305 401.788C400.235 401.128 399.643 400.651 398.983 400.721Z" stroke="#92A5C0" stroke-width="1.14135" stroke-linecap="round" stroke-linejoin="round"/>
<path d="M373.141 403.477L344.478 406.533C343.818 406.604 343.34 407.195 343.41 407.854L344.938 422.176C345.008 422.835 345.6 423.313 346.259 423.242L374.922 420.186C375.582 420.116 376.06 419.524 375.989 418.865L374.462 404.543C374.392 403.884 373.8 403.407 373.141 403.477Z" stroke="#92A5C0" stroke-width="1.14135" stroke-linecap="round" stroke-linejoin="round"/>
<path d="M424.827 397.966L410.496 399.494C409.836 399.564 409.358 400.156 409.429 400.815L410.956 415.137C411.026 415.796 411.618 416.273 412.277 416.203L426.609 414.675C427.268 414.605 427.746 414.013 427.676 413.354L426.149 399.032C426.078 398.373 425.487 397.896 424.827 397.966Z" stroke="#92A5C0" stroke-width="1.14135" stroke-linecap="round" stroke-linejoin="round"/>
<path d="M450.668 395.21L436.337 396.739C435.677 396.809 435.2 397.4 435.27 398.059L436.797 412.382C436.867 413.041 437.459 413.518 438.119 413.448L452.45 411.92C453.11 411.849 453.587 411.258 453.517 410.599L451.99 396.277C451.92 395.617 451.328 395.14 450.668 395.21Z" stroke="#92A5C0" stroke-width="1.14135" stroke-linecap="round" stroke-linejoin="round"/>
<path d="M476.512 392.455L462.181 393.983C461.521 394.053 461.043 394.644 461.114 395.304L462.641 409.626C462.711 410.285 463.303 410.762 463.962 410.692L478.294 409.164C478.953 409.093 479.431 408.502 479.361 407.843L477.834 393.521C477.764 392.862 477.172 392.384 476.512 392.455Z" stroke="#92A5C0" stroke-width="1.14135" stroke-linecap="round" stroke-linejoin="round"/>
<path d="M502.356 389.699L488.024 391.227C487.365 391.297 486.887 391.889 486.957 392.548L488.484 406.87C488.555 407.529 489.146 408.007 489.806 407.936L504.138 406.408C504.797 406.338 505.275 405.746 505.205 405.087L503.678 390.765C503.607 390.106 503.016 389.629 502.356 389.699Z" stroke="#92A5C0" stroke-width="1.14135" stroke-linecap="round" stroke-linejoin="round"/>
<path d="M528.198 386.944L513.866 388.472C513.207 388.542 512.729 389.133 512.799 389.793L514.327 404.115C514.397 404.774 514.988 405.251 515.648 405.181L529.98 403.653C530.639 403.582 531.117 402.991 531.047 402.332L529.52 388.01C529.449 387.351 528.858 386.873 528.198 386.944Z" stroke="#92A5C0" stroke-width="1.14135" stroke-linecap="round" stroke-linejoin="round"/>
<path d="M554.041 384.188L539.71 385.716C539.05 385.786 538.572 386.378 538.643 387.037L540.17 401.359C540.24 402.018 540.832 402.496 541.491 402.425L555.823 400.897C556.483 400.827 556.96 400.235 556.89 399.576L555.363 385.254C555.293 384.595 554.701 384.118 554.041 384.188Z" stroke="#92A5C0" stroke-width="1.14135" stroke-linecap="round" stroke-linejoin="round"/>
<path d="M594.216 379.904L565.553 382.961C564.893 383.031 564.415 383.622 564.486 384.281L566.013 398.603C566.083 399.263 566.675 399.74 567.334 399.67L595.998 396.613C596.657 396.543 597.135 395.952 597.065 395.292L595.537 380.97C595.467 380.311 594.875 379.834 594.216 379.904Z" stroke="#92A5C0" stroke-width="1.14135" stroke-linecap="round" stroke-linejoin="round"/>
<path d="M382.472 378.822L368.14 380.35C367.481 380.42 367.003 381.012 367.073 381.671L368.6 395.993C368.67 396.652 369.262 397.129 369.922 397.059L384.253 395.531C384.913 395.461 385.391 394.869 385.32 394.21L383.793 379.888C383.723 379.229 383.131 378.751 382.472 378.822Z" stroke="#92A5C0" stroke-width="1.14135" stroke-linecap="round" stroke-linejoin="round"/>
<path d="M356.315 381.611L341.983 383.139C341.323 383.209 340.846 383.801 340.916 384.46L342.443 398.782C342.513 399.441 343.105 399.918 343.765 399.848L358.096 398.32C358.756 398.25 359.234 397.658 359.163 396.999L357.636 382.677C357.566 382.018 356.974 381.541 356.315 381.611Z" stroke="#92A5C0" stroke-width="1.14135" stroke-linecap="round" stroke-linejoin="round"/>
<path d="M408.628 376.033L394.296 377.561C393.637 377.631 393.159 378.223 393.229 378.882L394.756 393.204C394.827 393.863 395.418 394.341 396.078 394.27L410.41 392.742C411.069 392.672 411.547 392.08 411.477 391.421L409.95 377.099C409.879 376.44 409.288 375.963 408.628 376.033Z" stroke="#92A5C0" stroke-width="1.14135" stroke-linecap="round" stroke-linejoin="round"/>
<path d="M434.784 373.244L420.452 374.772C419.793 374.842 419.315 375.434 419.385 376.093L420.912 390.415C420.983 391.074 421.574 391.551 422.234 391.481L436.566 389.953C437.225 389.883 437.703 389.291 437.633 388.632L436.106 374.31C436.035 373.651 435.444 373.174 434.784 373.244Z" stroke="#92A5C0" stroke-width="1.14135" stroke-linecap="round" stroke-linejoin="round"/>
<path d="M460.94 370.455L446.609 371.983C445.949 372.053 445.471 372.645 445.542 373.304L447.069 387.626C447.139 388.285 447.731 388.762 448.39 388.692L462.722 387.164C463.381 387.094 463.859 386.502 463.789 385.843L462.262 371.521C462.191 370.862 461.6 370.385 460.94 370.455Z" stroke="#92A5C0" stroke-width="1.14135" stroke-linecap="round" stroke-linejoin="round"/>
<path d="M487.096 367.666L472.764 369.194C472.105 369.265 471.627 369.856 471.697 370.515L473.224 384.837C473.295 385.496 473.886 385.974 474.546 385.903L488.877 384.375C489.537 384.305 490.015 383.713 489.944 383.054L488.417 368.732C488.347 368.073 487.755 367.596 487.096 367.666Z" stroke="#92A5C0" stroke-width="1.14135" stroke-linecap="round" stroke-linejoin="round"/>
<path d="M513.252 364.877L498.92 366.405C498.261 366.475 497.783 367.067 497.853 367.726L499.38 382.048C499.451 382.707 500.042 383.185 500.702 383.114L515.034 381.586C515.693 381.516 516.171 380.924 516.101 380.265L514.574 365.943C514.503 365.284 513.912 364.807 513.252 364.877Z" stroke="#92A5C0" stroke-width="1.14135" stroke-linecap="round" stroke-linejoin="round"/>
<path d="M539.408 362.088L525.077 363.616C524.417 363.687 523.939 364.278 524.01 364.937L525.537 379.259C525.607 379.918 526.199 380.396 526.858 380.325L541.19 378.797C541.849 378.727 542.327 378.136 542.257 377.476L540.73 363.154C540.659 362.495 540.068 362.018 539.408 362.088Z" stroke="#92A5C0" stroke-width="1.14135" stroke-linecap="round" stroke-linejoin="round"/>
<path d="M565.564 359.299L551.233 360.827C550.573 360.898 550.096 361.489 550.166 362.148L551.693 376.47C551.763 377.129 552.355 377.607 553.015 377.536L567.346 376.008C568.006 375.938 568.483 375.346 568.413 374.687L566.886 360.365C566.816 359.706 566.224 359.229 565.564 359.299Z" stroke="#92A5C0" stroke-width="1.14135" stroke-linecap="round" stroke-linejoin="round"/>
<path d="M591.721 356.51L577.39 358.038C576.73 358.109 576.253 358.7 576.323 359.359L577.85 373.681C577.92 374.34 578.512 374.818 579.172 374.747L593.503 373.219C594.163 373.149 594.64 372.557 594.57 371.898L593.043 357.576C592.973 356.917 592.381 356.44 591.721 356.51Z" stroke="#92A5C0" stroke-width="1.14135" stroke-linecap="round" stroke-linejoin="round"/>
<path d="M389.793 450.467L375.462 451.995C374.802 452.065 374.324 452.656 374.395 453.316L375.922 467.638C375.992 468.297 376.584 468.774 377.243 468.704L391.575 467.176C392.234 467.105 392.712 466.514 392.642 465.855L391.115 451.533C391.045 450.874 390.453 450.396 389.793 450.467Z" fill="#92A5C0"/>
<path d="M363.95 453.222L349.619 454.75C348.959 454.821 348.481 455.412 348.552 456.071L350.079 470.393C350.149 471.052 350.741 471.53 351.4 471.459L365.732 469.931C366.392 469.861 366.869 469.27 366.799 468.61L365.272 454.288C365.202 453.629 364.61 453.152 363.95 453.222Z" fill="#92A5C0"/>
<path d="M519.008 436.689L401.305 449.239C400.646 449.309 400.168 449.901 400.238 450.56L401.765 464.882C401.836 465.541 402.427 466.019 403.087 465.948L520.79 453.398C521.449 453.327 521.927 452.736 521.857 452.077L520.33 437.755C520.259 437.096 519.668 436.618 519.008 436.689Z" fill="#92A5C0"/>
<path d="M544.851 433.933L530.519 435.461C529.86 435.532 529.382 436.123 529.452 436.782L530.98 451.104C531.05 451.763 531.642 452.241 532.301 452.17L546.633 450.642C547.292 450.572 547.77 449.981 547.7 449.321L546.173 434.999C546.102 434.34 545.511 433.863 544.851 433.933Z" fill="#92A5C0"/>
<path d="M583.639 439.303L574.085 440.322C573.425 440.392 572.948 440.984 573.018 441.643L573.543 446.566C573.613 447.225 574.205 447.702 574.864 447.632L584.419 446.613C585.078 446.543 585.556 445.952 585.486 445.292L584.961 440.369C584.891 439.71 584.299 439.233 583.639 439.303Z" fill="#92A5C0"/>
<path d="M582.637 429.904L573.083 430.923C572.423 430.993 571.945 431.584 572.016 432.244L572.541 437.167C572.611 437.826 573.203 438.303 573.862 438.233L583.417 437.214C584.076 437.144 584.554 436.552 584.484 435.893L583.959 430.97C583.888 430.311 583.297 429.834 582.637 429.904Z" fill="#92A5C0"/>
<path d="M600.359 437.52L590.805 438.539C590.145 438.609 589.668 439.201 589.738 439.86L590.263 444.783C590.333 445.442 590.925 445.92 591.584 445.849L601.139 444.831C601.798 444.76 602.276 444.169 602.206 443.51L601.681 438.587C601.611 437.927 601.019 437.45 600.359 437.52Z" fill="#92A5C0"/>
<path d="M566.919 441.086L557.364 442.105C556.705 442.175 556.227 442.767 556.297 443.426L556.822 448.349C556.893 449.008 557.484 449.485 558.144 449.415L567.698 448.396C568.358 448.326 568.836 447.735 568.765 447.075L568.24 442.152C568.17 441.493 567.578 441.016 566.919 441.086Z" fill="#92A5C0"/>
<path d="M384.87 426.948L347.084 430.977C346.424 431.047 345.947 431.639 346.017 432.298L347.544 446.62C347.614 447.279 348.206 447.757 348.866 447.686L386.652 443.657C387.312 443.587 387.789 442.995 387.719 442.336L386.192 428.014C386.122 427.355 385.53 426.878 384.87 426.948Z" fill="#92A5C0"/>
<path d="M410.929 424.169L396.597 425.698C395.938 425.768 395.46 426.359 395.53 427.018L397.057 441.341C397.128 442 397.719 442.477 398.379 442.407L412.711 440.879C413.37 440.808 413.848 440.217 413.778 439.558L412.251 425.236C412.18 424.576 411.589 424.099 410.929 424.169Z" fill="#92A5C0"/>
<path d="M436.771 421.414L422.439 422.942C421.78 423.013 421.302 423.604 421.372 424.263L422.9 438.585C422.97 439.244 423.561 439.722 424.221 439.651L438.553 438.123C439.212 438.053 439.69 437.461 439.62 436.802L438.093 422.48C438.022 421.821 437.431 421.344 436.771 421.414Z" fill="#92A5C0"/>
<path d="M462.615 418.658L448.283 420.187C447.624 420.257 447.146 420.848 447.216 421.507L448.744 435.83C448.814 436.489 449.405 436.966 450.065 436.896L464.397 435.368C465.056 435.297 465.534 434.706 465.464 434.047L463.937 419.725C463.866 419.065 463.275 418.588 462.615 418.658Z" fill="#92A5C0"/>
<path d="M488.457 415.903L474.125 417.431C473.466 417.501 472.988 418.093 473.058 418.752L474.586 433.074C474.656 433.733 475.248 434.21 475.907 434.14L490.239 432.612C490.898 432.542 491.376 431.95 491.306 431.291L489.779 416.969C489.708 416.31 489.117 415.833 488.457 415.903Z" fill="#92A5C0"/>
<path d="M514.3 413.147L499.969 414.675C499.309 414.746 498.831 415.337 498.902 415.996L500.429 430.318C500.499 430.977 501.091 431.455 501.75 431.384L516.082 429.856C516.742 429.786 517.219 429.195 517.149 428.535L515.622 414.213C515.552 413.554 514.96 413.077 514.3 413.147Z" fill="#92A5C0"/>
<path d="M540.143 410.392L525.811 411.92C525.152 411.99 524.674 412.581 524.744 413.241L526.272 427.563C526.342 428.222 526.934 428.699 527.593 428.629L541.925 427.101C542.584 427.03 543.062 426.439 542.992 425.78L541.465 411.458C541.394 410.799 540.803 410.321 540.143 410.392Z" fill="#92A5C0"/>
<path d="M596.822 404.348L553.827 408.932C553.168 409.003 552.69 409.594 552.76 410.253L554.287 424.575C554.358 425.235 554.949 425.712 555.609 425.642L598.604 421.057C599.263 420.987 599.741 420.395 599.671 419.736L598.144 405.414C598.073 404.755 597.482 404.278 596.822 404.348Z" fill="#92A5C0"/>
<path d="M398.983 400.721L384.652 402.25C383.992 402.32 383.514 402.911 383.585 403.57L385.112 417.893C385.182 418.552 385.774 419.029 386.433 418.959L400.765 417.431C401.425 417.36 401.902 416.769 401.832 416.11L400.305 401.788C400.235 401.128 399.643 400.651 398.983 400.721Z" fill="#92A5C0"/>
<path d="M373.141 403.477L344.478 406.533C343.818 406.604 343.34 407.195 343.41 407.854L344.938 422.176C345.008 422.835 345.6 423.313 346.259 423.242L374.922 420.186C375.582 420.116 376.06 419.524 375.989 418.865L374.462 404.543C374.392 403.884 373.8 403.407 373.141 403.477Z" fill="#92A5C0"/>
<path d="M424.827 397.966L410.496 399.494C409.836 399.564 409.358 400.156 409.429 400.815L410.956 415.137C411.026 415.796 411.618 416.273 412.277 416.203L426.609 414.675C427.268 414.605 427.746 414.013 427.676 413.354L426.149 399.032C426.078 398.373 425.487 397.896 424.827 397.966Z" fill="#92A5C0"/>
<path d="M450.668 395.21L436.337 396.739C435.677 396.809 435.2 397.4 435.27 398.059L436.797 412.382C436.867 413.041 437.459 413.518 438.119 413.448L452.45 411.92C453.11 411.849 453.587 411.258 453.517 410.599L451.99 396.277C451.92 395.617 451.328 395.14 450.668 395.21Z" fill="#92A5C0"/>
<path d="M476.512 392.455L462.181 393.983C461.521 394.053 461.043 394.644 461.114 395.304L462.641 409.626C462.711 410.285 463.303 410.762 463.962 410.692L478.294 409.164C478.953 409.093 479.431 408.502 479.361 407.843L477.834 393.521C477.764 392.862 477.172 392.384 476.512 392.455Z" fill="#92A5C0"/>
<path d="M502.356 389.699L488.024 391.227C487.365 391.297 486.887 391.889 486.957 392.548L488.484 406.87C488.555 407.529 489.146 408.007 489.806 407.936L504.138 406.408C504.797 406.338 505.275 405.746 505.205 405.087L503.678 390.765C503.607 390.106 503.016 389.629 502.356 389.699Z" fill="#92A5C0"/>
<path d="M528.198 386.944L513.866 388.472C513.207 388.542 512.729 389.133 512.799 389.793L514.327 404.115C514.397 404.774 514.988 405.251 515.648 405.181L529.98 403.653C530.639 403.582 531.117 402.991 531.047 402.332L529.52 388.01C529.449 387.351 528.858 386.873 528.198 386.944Z" fill="#92A5C0"/>
<path d="M554.041 384.188L539.71 385.716C539.05 385.786 538.572 386.378 538.643 387.037L540.17 401.359C540.24 402.018 540.832 402.496 541.491 402.425L555.823 400.897C556.483 400.827 556.96 400.235 556.89 399.576L555.363 385.254C555.293 384.595 554.701 384.118 554.041 384.188Z" fill="#92A5C0"/>
<path d="M594.216 379.904L565.553 382.961C564.893 383.031 564.415 383.622 564.486 384.281L566.013 398.603C566.083 399.263 566.675 399.74 567.334 399.67L595.998 396.613C596.657 396.543 597.135 395.952 597.065 395.292L595.537 380.97C595.467 380.311 594.875 379.834 594.216 379.904Z" fill="#92A5C0"/>
<path d="M382.472 378.822L368.14 380.35C367.481 380.42 367.003 381.012 367.073 381.671L368.6 395.993C368.67 396.652 369.262 397.129 369.922 397.059L384.253 395.531C384.913 395.461 385.391 394.869 385.32 394.21L383.793 379.888C383.723 379.229 383.131 378.751 382.472 378.822Z" fill="#92A5C0"/>
<path d="M356.315 381.611L341.983 383.139C341.323 383.209 340.846 383.801 340.916 384.46L342.443 398.782C342.513 399.441 343.105 399.918 343.765 399.848L358.096 398.32C358.756 398.25 359.234 397.658 359.163 396.999L357.636 382.677C357.566 382.018 356.974 381.541 356.315 381.611Z" fill="#92A5C0"/>
<path d="M408.628 376.033L394.296 377.561C393.637 377.631 393.159 378.223 393.229 378.882L394.756 393.204C394.827 393.863 395.418 394.341 396.078 394.27L410.41 392.742C411.069 392.672 411.547 392.08 411.477 391.421L409.95 377.099C409.879 376.44 409.288 375.963 408.628 376.033Z" fill="#92A5C0"/>
<path d="M434.784 373.244L420.452 374.772C419.793 374.842 419.315 375.434 419.385 376.093L420.912 390.415C420.983 391.074 421.574 391.551 422.234 391.481L436.566 389.953C437.225 389.883 437.703 389.291 437.633 388.632L436.106 374.31C436.035 373.651 435.444 373.174 434.784 373.244Z" fill="#92A5C0"/>
<path d="M460.94 370.455L446.609 371.983C445.949 372.053 445.471 372.645 445.542 373.304L447.069 387.626C447.139 388.285 447.731 388.762 448.39 388.692L462.722 387.164C463.381 387.094 463.859 386.502 463.789 385.843L462.262 371.521C462.191 370.862 461.6 370.385 460.94 370.455Z" fill="#92A5C0"/>
<path d="M487.096 367.666L472.764 369.194C472.105 369.265 471.627 369.856 471.697 370.515L473.224 384.837C473.295 385.496 473.886 385.974 474.546 385.903L488.877 384.375C489.537 384.305 490.015 383.713 489.944 383.054L488.417 368.732C488.347 368.073 487.755 367.596 487.096 367.666Z" fill="#92A5C0"/>
<path d="M513.252 364.877L498.92 366.405C498.261 366.475 497.783 367.067 497.853 367.726L499.38 382.048C499.451 382.707 500.042 383.185 500.702 383.114L515.034 381.586C515.693 381.516 516.171 380.924 516.101 380.265L514.574 365.943C514.503 365.284 513.912 364.807 513.252 364.877Z" fill="#92A5C0"/>
<path d="M539.408 362.088L525.077 363.616C524.417 363.687 523.939 364.278 524.01 364.937L525.537 379.259C525.607 379.918 526.199 380.396 526.858 380.325L541.19 378.797C541.849 378.727 542.327 378.136 542.257 377.476L540.73 363.154C540.659 362.495 540.068 362.018 539.408 362.088Z" fill="#92A5C0"/>
<path d="M565.564 359.299L551.233 360.827C550.573 360.898 550.096 361.489 550.166 362.148L551.693 376.47C551.763 377.129 552.355 377.607 553.015 377.536L567.346 376.008C568.006 375.938 568.483 375.346 568.413 374.687L566.886 360.365C566.816 359.706 566.224 359.229 565.564 359.299Z" fill="#92A5C0"/>
<path d="M591.721 356.51L577.39 358.038C576.73 358.109 576.253 358.7 576.323 359.359L577.85 373.681C577.92 374.34 578.512 374.818 579.172 374.747L593.503 373.219C594.163 373.149 594.64 372.557 594.57 371.898L593.043 357.576C592.973 356.917 592.381 356.44 591.721 356.51Z" fill="#92A5C0"/>
<path d="M361.277 342.573L564.308 320.924L566.019 336.972C566.154 338.238 565.78 339.506 564.98 340.497C564.18 341.488 563.018 342.12 561.751 342.255L368.274 362.885C367.007 363.021 365.739 362.647 364.747 361.847C363.756 361.048 363.123 359.887 362.988 358.621L361.277 342.573Z" fill="#92A5C0"/>
<path opacity="0.12" d="M564.308 320.924L361.277 342.573L361.532 344.96L564.563 323.311L564.308 320.924Z" fill="white"/>
<g style="mix-blend-mode:multiply" opacity="0.25">
<path d="M561.242 337.481L367.765 358.111C366.498 358.246 365.23 357.873 364.238 357.073C363.247 356.273 362.614 355.113 362.479 353.846L362.988 358.62C363.123 359.887 363.756 361.047 364.747 361.847C365.739 362.647 367.007 363.02 368.274 362.885L561.751 342.255C563.018 342.12 564.179 341.487 564.98 340.497C565.78 339.506 566.154 338.238 566.019 336.972L565.51 332.198C565.645 333.464 565.271 334.732 564.471 335.723C563.67 336.713 562.509 337.346 561.242 337.481Z" fill="#92A5C0"/>
</g>
<path d="M361.277 342.573L564.308 320.924L566.019 336.972C566.154 338.238 565.78 339.506 564.98 340.497C564.18 341.488 563.018 342.12 561.751 342.255L368.274 362.885C367.007 363.021 365.739 362.647 364.747 361.847C363.756 361.048 363.123 359.887 362.988 358.621L361.277 342.573Z" stroke="#46505C" stroke-width="2.28269" stroke-linecap="round" stroke-linejoin="round"/>
<path d="M519.788 469.8L436.187 478.714C434.868 478.855 433.912 480.038 434.053 481.356L440.034 537.451C440.175 538.769 441.358 539.724 442.677 539.583L526.278 530.669C527.597 530.528 528.553 529.346 528.412 528.027L522.431 471.932C522.29 470.614 521.107 469.659 519.788 469.8Z" fill="#E6F3FF"/>
<path d="M519.788 469.8L436.187 478.714C434.868 478.855 433.912 480.038 434.053 481.356L440.034 537.451C440.175 538.769 441.358 539.724 442.677 539.583L526.278 530.669C527.597 530.528 528.553 529.346 528.412 528.027L522.431 471.932C522.29 470.614 521.107 469.659 519.788 469.8Z" stroke="#92A5C0" stroke-width="1.14135" stroke-linecap="round" stroke-linejoin="round"/>
<path opacity="0.52" d="M444.738 162.428C446.717 162.217 448.15 160.443 447.939 158.465C447.728 156.488 445.953 155.056 443.974 155.267C441.995 155.478 440.562 157.252 440.773 159.229C440.984 161.207 442.759 162.639 444.738 162.428Z" fill="white"/>
<path d="M444.738 162.428C446.717 162.217 448.15 160.443 447.939 158.465C447.728 156.488 445.953 155.056 443.974 155.267C441.995 155.478 440.562 157.252 440.773 159.229C440.984 161.207 442.759 162.639 444.738 162.428Z" stroke="#46505C" stroke-width="1.14135" stroke-linecap="round" stroke-linejoin="round"/>
<path d="M521.515 176.061L507.183 177.589C506.524 177.66 506.046 178.251 506.116 178.91C506.187 179.569 506.778 180.047 507.438 179.976L521.769 178.448C522.429 178.378 522.907 177.787 522.836 177.127C522.766 176.468 522.174 175.991 521.515 176.061Z" fill="white"/>
<path d="M552.536 172.753L538.204 174.282C537.544 174.352 537.067 174.943 537.137 175.602C537.207 176.262 537.799 176.739 538.459 176.669L552.79 175.14C553.45 175.07 553.927 174.479 553.857 173.82C553.787 173.16 553.195 172.683 552.536 172.753Z" fill="white"/>
<path d="M490.496 179.369L476.164 180.897C475.505 180.967 475.027 181.559 475.097 182.218C475.168 182.877 475.759 183.354 476.419 183.284L490.75 181.756C491.41 181.685 491.888 181.094 491.817 180.435C491.747 179.776 491.155 179.298 490.496 179.369Z" fill="white"/>
<path d="M337.056 203.406C340.247 203.065 342.557 200.205 342.217 197.017C341.877 193.828 339.015 191.519 335.825 191.86C332.634 192.2 330.324 195.06 330.664 198.249C331.004 201.437 333.866 203.746 337.056 203.406Z" fill="white"/>
<g opacity="0.72">
<path opacity="0.72" d="M514.353 242.588L393.449 255.48L393.913 259.83L514.817 246.939L514.353 242.588Z" fill="white"/>
<path opacity="0.72" d="M497.524 229.78L407.201 239.411L407.671 243.825L497.995 234.194L497.524 229.78Z" fill="white"/>
</g>
<path d="M478.365 280.629L443.956 284.298C440.34 284.683 437.722 287.925 438.107 291.537C438.492 295.15 441.735 297.767 445.351 297.381L479.76 293.712C483.375 293.327 485.993 290.085 485.608 286.473C485.223 282.86 481.98 280.243 478.365 280.629Z" stroke="white" stroke-width="1.14135" stroke-miterlimit="10"/>
<path opacity="0.28" d="M281.244 179.778L294.316 302.377C294.731 306.269 298.255 309.114 302.147 308.699L469.417 290.863C473.309 290.448 476.153 286.924 475.738 283.032L462.666 160.433L281.244 179.778Z" fill="#1F3969" stroke="#1F3969" stroke-width="3.38134" stroke-miterlimit="10" stroke-linecap="round" stroke-linejoin="round"/>
<path d="M476.34 280.284L309.07 298.119C305.178 298.534 301.654 295.69 301.239 291.797L287.262 160.706C286.847 156.814 289.691 153.29 293.583 152.875L460.853 135.04C464.745 134.625 468.269 137.47 468.684 141.362L482.671 272.541C483.086 276.433 480.232 279.869 476.34 280.284Z" fill="#2D425E"/>
<path d="M469.759 151.446L288.337 170.79L287.252 160.618C286.837 156.726 289.682 153.202 293.574 152.787L460.844 134.951C464.736 134.536 468.259 137.381 468.674 141.273L469.759 151.446Z" stroke="#1F3969" stroke-width="3.38134" stroke-miterlimit="10" stroke-linecap="round" stroke-linejoin="round"/>
<path d="M470.118 154.807L288.695 174.152L287.252 160.618C286.837 156.726 289.682 153.202 293.574 152.787L460.844 134.951C464.736 134.536 468.259 137.381 468.674 141.273L470.118 154.807Z" fill="#D0DDF0"/>
<path d="M470.118 154.807L288.695 174.152L287.252 160.618C286.837 156.726 289.682 153.202 293.574 152.787L460.844 134.951C464.736 134.536 468.259 137.381 468.674 141.273L470.118 154.807Z" stroke="#1F3969" stroke-width="3.38134" stroke-miterlimit="10" stroke-linecap="round" stroke-linejoin="round"/>
<path d="M470.118 154.807L288.695 174.152L287.252 160.618C286.837 156.726 289.682 153.202 293.574 152.787L460.844 134.951C464.736 134.536 468.259 137.381 468.674 141.273L470.118 154.807Z" stroke="#1F3969" stroke-width="3.38134" stroke-miterlimit="10" stroke-linecap="round" stroke-linejoin="round"/>
<path d="M476.34 280.284L309.07 298.119C305.178 298.534 301.654 295.69 301.239 291.797L287.262 160.706C286.847 156.814 289.691 153.29 293.583 152.875L460.853 135.04C464.745 134.625 468.269 137.47 468.684 141.362L482.671 272.541C483.086 276.433 480.232 279.869 476.34 280.284Z" stroke="#1F3969" stroke-width="3.38134" stroke-miterlimit="10" stroke-linecap="round" stroke-linejoin="round"/>
<path d="M305.758 165.534C307.712 165.326 309.127 163.572 308.919 161.618C308.711 159.664 306.958 158.249 305.004 158.457C303.049 158.666 301.634 160.419 301.843 162.373C302.051 164.327 303.804 165.742 305.758 165.534Z" fill="#1F3969"/>
<path d="M318.053 164.223C320.007 164.014 321.423 162.261 321.214 160.307C321.006 158.353 319.253 156.938 317.299 157.146C315.345 157.355 313.93 159.108 314.138 161.062C314.346 163.016 316.099 164.431 318.053 164.223Z" fill="#1F3969"/>
<path d="M330.349 162.912C332.303 162.703 333.718 160.95 333.51 158.996C333.301 157.042 331.548 155.627 329.594 155.835C327.64 156.044 326.225 157.797 326.433 159.751C326.642 161.705 328.395 163.12 330.349 162.912Z" fill="#1F3969"/>
<path d="M394.641 179.406L406.14 178.179" stroke="white" stroke-width="3.38134" stroke-miterlimit="10" stroke-linecap="round" stroke-linejoin="round"/>
<path d="M336.349 185.621L386.149 180.311" stroke="#7BFFA0" stroke-width="3.38134" stroke-miterlimit="10" stroke-linecap="round" stroke-linejoin="round"/>
<path d="M311.758 188.243L329.272 186.376" stroke="#9169FF" stroke-width="3.38134" stroke-miterlimit="10" stroke-linecap="round" stroke-linejoin="round"/>
<path d="M343.87 272.939L381.906 268.883" stroke="#9169FF" stroke-width="3.38134" stroke-miterlimit="10" stroke-linecap="round" stroke-linejoin="round"/>
<path d="M321.048 275.372L333.344 274.061" stroke="#7BFFA0" stroke-width="3.38134" stroke-miterlimit="10" stroke-linecap="round" stroke-linejoin="round"/>
<path d="M387.309 191.191L394.474 190.427" stroke="white" stroke-width="3.38134" stroke-miterlimit="10" stroke-linecap="round" stroke-linejoin="round"/>
<path d="M354.757 194.662L378.817 192.096" stroke="#9169FF" stroke-width="3.38134" stroke-miterlimit="10" stroke-linecap="round" stroke-linejoin="round"/>
<path d="M321.675 198.189L346.177 195.577" stroke="#FFC47D" stroke-width="3.38134" stroke-miterlimit="10" stroke-linecap="round" stroke-linejoin="round"/>
<path d="M360.783 205.023L381.924 202.769" stroke="white" stroke-width="3.38134" stroke-miterlimit="10" stroke-linecap="round" stroke-linejoin="round"/>
<path d="M334.246 207.853L354.149 205.731" stroke="#FE5070" stroke-width="3.38134" stroke-miterlimit="10" stroke-linecap="round" stroke-linejoin="round"/>
<path d="M364.773 215.601L369.108 215.139" stroke="white" stroke-width="3.38134" stroke-miterlimit="10" stroke-linecap="round" stroke-linejoin="round"/>
<path d="M347.259 217.469L357.078 216.422" stroke="#9169FF" stroke-width="3.38134" stroke-miterlimit="10" stroke-linecap="round" stroke-linejoin="round"/>
<path d="M323.995 219.95L339.829 218.261" stroke="#7BFFA0" stroke-width="3.38134" stroke-miterlimit="10" stroke-linecap="round" stroke-linejoin="round"/>
<path d="M359.132 227.297L387.349 224.288" stroke="#FFC47D" stroke-width="3.38134" stroke-miterlimit="10" stroke-linecap="round" stroke-linejoin="round"/>
<path d="M325.165 230.918L350.463 228.221" stroke="#FE5070" stroke-width="3.38134" stroke-miterlimit="10" stroke-linecap="round" stroke-linejoin="round"/>
<path d="M392.932 234.695L408.235 233.064" stroke="#9169FF" stroke-width="3.38134" stroke-miterlimit="10" stroke-linecap="round" stroke-linejoin="round"/>
<path d="M360.292 238.176L384.794 235.563" stroke="#FE5070" stroke-width="3.38134" stroke-miterlimit="10" stroke-linecap="round" stroke-linejoin="round"/>
<path d="M337.736 240.581L351.623 239.1" stroke="#7BFFA0" stroke-width="3.38134" stroke-miterlimit="10" stroke-linecap="round" stroke-linejoin="round"/>
<path d="M372.597 247.868L385.954 246.443" stroke="white" stroke-width="3.38134" stroke-miterlimit="10" stroke-linecap="round" stroke-linejoin="round"/>
<path d="M338.896 251.461L363.398 248.849" stroke="#9169FF" stroke-width="3.38134" stroke-miterlimit="10" stroke-linecap="round" stroke-linejoin="round"/>
<path d="M408.521 255.041L423.824 253.409" stroke="white" stroke-width="3.38134" stroke-miterlimit="10" stroke-linecap="round" stroke-linejoin="round"/>
<path d="M361.728 260.031L400.206 255.928" stroke="#FFC47D" stroke-width="3.38134" stroke-miterlimit="10" stroke-linecap="round" stroke-linejoin="round"/>
<path d="M328.645 263.558L353.147 260.945" stroke="white" stroke-width="3.38134" stroke-miterlimit="10" stroke-linecap="round" stroke-linejoin="round"/>
<path opacity="0.28" d="M566.985 302.287L464.376 313.228C460.484 313.643 456.96 310.799 456.545 306.907L444.954 198.195C444.539 194.303 447.383 190.779 451.275 190.364L553.884 179.423C557.776 179.008 561.3 181.853 561.715 185.745L573.307 294.456C573.731 298.437 570.877 301.872 566.985 302.287Z" fill="#1F3969" stroke="#1F3969" stroke-width="3.38134" stroke-miterlimit="10" stroke-linecap="round" stroke-linejoin="round"/>
<path d="M573.401 295.341L470.793 306.282C466.9 306.697 463.377 303.852 462.962 299.96L451.37 191.248C450.955 187.356 453.8 183.832 457.692 183.417L560.3 172.476C564.192 172.061 567.716 174.906 568.131 178.798L579.723 287.51C580.147 291.49 577.293 294.926 573.401 295.341Z" fill="#00A0B0"/>
<path d="M573.401 295.341L470.793 306.282C466.9 306.697 463.377 303.852 462.962 299.96L451.37 191.248C450.955 187.356 453.8 183.832 457.692 183.417L560.3 172.476C564.192 172.061 567.716 174.906 568.131 178.798L579.723 287.51C580.147 291.49 577.293 294.926 573.401 295.341Z" stroke="#1F3969" stroke-width="3.38134" stroke-miterlimit="10" stroke-linecap="round" stroke-linejoin="round"/>
<path opacity="0.34" d="M549.678 207.847L501.675 212.965C499.969 213.147 498.401 211.271 498.129 208.723L497.399 201.87C497.127 199.322 498.264 197.157 499.97 196.975L547.973 191.856C549.679 191.674 551.248 193.551 551.52 196.099L552.25 202.952C552.522 205.5 551.384 207.665 549.678 207.847Z" stroke="white" stroke-width="1.69067" stroke-miterlimit="10" stroke-linecap="round" stroke-linejoin="round"/>
<g opacity="0.34">
<path opacity="0.34" d="M519.687 237.103L479.351 241.404C476.786 241.677 474.535 239.86 474.261 237.295L473.526 230.395C473.252 227.83 475.07 225.578 477.635 225.305L517.971 221.004C520.536 220.731 522.787 222.548 523.061 225.113L523.796 232.013C523.981 234.587 522.164 236.839 519.687 237.103Z" stroke="white" stroke-width="1.69067" stroke-miterlimit="10" stroke-linecap="round" stroke-linejoin="round"/>
<path opacity="0.34" d="M551.443 233.717L535.786 235.386C533.221 235.66 530.969 233.842 530.696 231.277L529.96 224.377C529.687 221.812 531.504 219.561 534.069 219.287L549.726 217.618C552.291 217.344 554.543 219.162 554.816 221.727L555.552 228.626C555.825 231.192 554.008 233.443 551.443 233.717Z" stroke="white" stroke-width="1.69067" stroke-miterlimit="10" stroke-linecap="round" stroke-linejoin="round"/>
</g>
<path d="M477.531 268.795L558.821 260.127" stroke="white" stroke-width="1.69067" stroke-miterlimit="10" stroke-linecap="round" stroke-linejoin="round"/>
<path d="M478.549 278.349L559.84 269.681" stroke="white" stroke-width="1.69067" stroke-miterlimit="10" stroke-linecap="round" stroke-linejoin="round"/>
<path d="M479.568 287.901L529.103 282.62" stroke="white" stroke-width="1.69067" stroke-miterlimit="10" stroke-linecap="round" stroke-linejoin="round"/>
<path d="M491.803 210.687C491.583 210.825 491.36 211.001 491.101 211.009C490.684 211.029 489.711 208.443 489.463 207.962C489.062 207.173 488.66 206.385 488.259 205.597C489.235 204.04 490.219 202.495 491.288 201.043C491.349 200.96 491.409 200.871 491.405 200.77C491.389 200.499 490.97 200.499 490.753 200.662C490.17 201.086 489.513 201.232 488.959 201.748C488.364 202.3 487.92 203.007 487.512 203.704C487.474 203.765 487.442 203.825 487.405 203.893C486.438 201.839 485.579 199.558 484.362 197.728C484.241 197.544 484.024 197.408 483.807 197.457C483.745 197.47 483.685 197.502 483.624 197.527C483.154 197.761 482.717 198.062 482.343 198.425C482.24 198.525 482.16 198.609 482.101 198.711C480.82 200.199 480.124 201.884 479.142 203.562C478.97 203.853 478.799 204.151 478.627 204.442C478.26 203.98 477.871 203.539 477.43 203.155C476.639 202.452 476.179 202.184 475.254 202.492C474.585 202.709 471.374 203.769 471.949 204.875C472.244 205.446 473.836 204.667 474.374 204.889C474.759 205.051 475.082 205.346 475.368 205.646C475.911 206.216 476.391 206.85 476.834 207.5C477.28 206.742 477.72 205.991 478.159 205.234C477.559 206.268 476.953 207.304 476.346 208.333C475.55 209.68 474.777 210.993 473.969 212.335C473.651 212.864 472.979 213.824 472.761 215.642C472.602 216.953 475.518 212.056 476.02 211.228C476.544 210.373 477.082 209.523 477.613 208.673C478.859 210.608 479.973 212.608 481.131 214.604L481.153 214.627C481.301 214.827 481.392 214.842 481.539 214.801C481.688 214.766 481.808 214.646 481.911 214.533C483.619 212.708 485.06 210.632 486.425 208.501C486.331 208.276 486.237 208.052 486.138 207.834C486.998 209.715 487.567 211.957 488.73 213.641C488.783 213.718 488.848 213.8 488.941 213.834C489.243 213.935 491.473 212.473 491.764 212.233C492.126 211.934 493.013 211.389 493.086 210.887C493.213 209.991 492.338 210.351 491.803 210.687ZM487.608 204.309C487.542 204.17 487.477 204.031 487.411 203.892C487.471 204.032 487.536 204.17 487.608 204.309ZM481.976 199.562C481.976 199.562 481.975 199.555 481.976 199.562C481.975 199.555 481.976 199.562 481.976 199.562ZM481.968 199.366L481.967 199.359C481.974 199.359 481.974 199.359 481.968 199.366ZM481.989 199.091L481.989 199.084L481.989 199.091ZM485.389 207.413C485.154 207.825 484.918 208.237 484.677 208.649C484.442 209.062 484.2 209.468 483.958 209.874C483.871 210.017 483.786 210.166 483.7 210.314C483.614 210.457 483.555 210.558 483.447 210.741C483.393 210.829 483.334 210.93 483.287 211.024C483.177 211.239 483.067 211.454 482.956 211.669C482.639 210.656 481.858 209.635 481.364 208.698C480.816 207.659 480.224 206.631 479.545 205.676C479.515 205.628 479.479 205.588 479.448 205.54C479.856 204.78 480.262 204.014 480.677 203.265C481.348 202.058 481.995 201.228 482.274 200.691C482.29 200.721 482.305 200.744 482.321 200.768C482.359 200.828 482.397 200.887 482.428 200.947C483.595 202.903 484.696 204.898 485.7 206.942C485.693 206.93 485.685 206.918 485.683 206.899C485.587 207.068 485.485 207.244 485.389 207.413ZM486.032 207.617C486.065 207.689 486.098 207.756 486.131 207.828C486.099 207.762 486.065 207.689 486.032 207.617ZM487.625 204.345C487.697 204.49 487.77 204.634 487.842 204.779C487.77 204.634 487.697 204.49 487.625 204.345Z" fill="#FBFBFB"/>
</svg>
