<svg width="110" height="120" viewBox="0 0 110 120" fill="none" xmlns="http://www.w3.org/2000/svg">
<path d="M72.7264 56.8042C72.7264 60.4516 69.9076 63.4413 66.337 63.4413C62.8291 63.4413 59.9476 60.4516 59.9476 56.8042C59.9476 53.1568 62.7665 50.1671 66.337 50.1671C69.9076 50.1671 72.7264 53.1568 72.7264 56.8042ZM43.473 50.1671C39.9025 50.1671 37.0836 53.1568 37.0836 56.8042C37.0836 60.4516 39.9651 63.4413 43.473 63.4413C47.0436 63.4413 49.8624 60.4516 49.8624 56.8042C49.925 53.1568 47.0436 50.1671 43.473 50.1671ZM109.622 12.3175V119.588C93.8409 106.276 98.888 110.682 80.5566 94.4145L83.8766 105.476H12.8414C5.76299 105.476 0 99.9754 0 93.1589V12.3175C0 5.50104 5.76299 0 12.8414 0H96.7807C103.859 0 109.622 5.50104 109.622 12.3175ZM91.7694 69.0021C91.7694 49.7485 82.749 34.1423 82.749 34.1423C73.7287 27.6846 65.1469 27.8639 65.1469 27.8639L64.2699 28.8206C74.9189 31.9299 79.8675 36.4145 79.8675 36.4145C64.9876 28.6298 47.5085 28.6284 33.0746 34.6804C30.7568 35.6969 29.3787 36.4145 29.3787 36.4145C29.3787 36.4145 34.5779 31.6908 45.8534 28.5815L45.227 27.8639C45.227 27.8639 36.6451 27.6846 27.6248 34.1423C27.6248 34.1423 18.6044 49.7485 18.6044 69.0021C18.6044 69.0021 23.8663 77.6722 37.71 78.0908C37.71 78.0908 40.0277 75.4001 41.907 73.1279C33.9515 70.8557 30.9448 66.0722 30.9448 66.0722C31.8663 66.6879 33.3858 67.486 33.5131 67.5671C44.0862 73.219 59.1049 75.0707 72.6012 69.6599C74.7936 68.8825 77.2366 67.7465 79.8049 66.132C79.8049 66.132 76.6728 71.0351 68.4668 73.2475C70.3461 75.5197 72.6012 78.0908 72.6012 78.0908C86.4449 77.6722 91.7694 69.0021 91.7694 69.0021V69.0021Z" fill="#FBFBFB"/>
</svg>
