<svg width="24" height="24" viewBox="0 0 24 24" fill="none" xmlns="http://www.w3.org/2000/svg">
<path d="M11.9907 0.923828C5.82322 0.923828 0.805664 5.94138 0.805664 12.1088C0.805664 18.2763 5.82322 23.2938 11.9907 23.2938C18.1581 23.2938 23.1757 18.2763 23.1757 12.1088C23.1757 5.94138 18.1581 0.923828 11.9907 0.923828ZM19.3858 6.08183C20.7165 7.70753 21.5222 9.77815 21.5432 12.0331C21.2283 11.9665 18.0697 11.3258 14.8908 11.7256C14.6314 11.0923 14.3865 10.5353 14.0511 9.84878C17.5835 8.40659 19.1844 6.35428 19.3858 6.08183V6.08183ZM18.3238 4.97704C18.1519 5.2218 16.7138 7.15478 13.3166 8.42811C11.7511 5.55176 10.0159 3.18884 9.75186 2.83525C12.7816 2.10493 15.9742 2.89252 18.3238 4.97704V4.97704ZM7.92893 3.47744C8.18082 3.82286 9.88802 6.18872 11.471 9.00269C7.00211 10.1894 3.06603 10.1723 2.63874 10.1667C3.25825 7.20209 5.25612 4.73814 7.92893 3.47744ZM2.43696 12.1234C2.43696 12.0257 2.4389 11.9285 2.44183 11.8315C2.85983 11.84 7.48951 11.8997 12.2605 10.4718C12.534 11.0071 12.7953 11.5504 13.0351 12.0932C9.58043 13.0662 6.44164 15.8603 4.89301 18.5113C3.36712 16.8176 2.43696 14.5772 2.43696 12.1234ZM6.12652 19.6603C7.12447 17.6203 9.83282 14.9869 13.6845 13.6729C15.0258 17.1584 15.5805 20.0796 15.7225 20.9178C12.6506 22.2263 8.95673 21.8673 6.12652 19.6603V19.6603ZM17.3287 20.0432C17.2307 19.462 16.7222 16.6653 15.4727 13.2315C18.4665 12.7522 21.0967 13.5367 21.4236 13.6399C20.9977 16.2982 19.4719 18.5939 17.3287 20.0432Z" fill="#FBFBFB"/>
</svg>
