<svg width="20" height="20" viewBox="0 0 20 20" fill="none" xmlns="http://www.w3.org/2000/svg">
<path d="M7.31958 14.8042V18.5861C7.31958 18.8503 7.48919 19.0843 7.74033 19.1675C7.80312 19.1879 7.86754 19.1976 7.93114 19.1976C8.12195 19.1976 8.30623 19.108 8.42365 18.9481L10.6359 15.9376L7.31958 14.8042Z" fill="#FBFBFB"/>
<path d="M19.4977 0.556774C19.3101 0.423862 19.0639 0.405923 18.86 0.512742L0.513218 10.0939C0.296318 10.2072 0.168298 10.4388 0.186237 10.6826C0.204992 10.9272 0.367259 11.136 0.598022 11.2151L5.69844 12.9584L16.5606 3.67084L8.15528 13.7975L16.7033 16.7191C16.7669 16.7403 16.8337 16.7517 16.9006 16.7517C17.0115 16.7517 17.1216 16.7215 17.2186 16.6628C17.3735 16.5682 17.4787 16.4092 17.5056 16.2307L19.748 1.1455C19.7815 0.917187 19.6852 0.690502 19.4977 0.556774Z" fill="#FBFBFB"/>
</svg>
