<svg width="564" height="311" viewBox="0 0 564 311" fill="none" xmlns="http://www.w3.org/2000/svg">
<path d="M473.232 310.838H6.76798C3.00799 310.838 0 308.134 0 304.755C0 301.376 3.00799 298.672 6.76798 298.672H473.232C476.992 298.672 480 301.376 480 304.755C480 308.134 476.992 310.838 473.232 310.838Z" fill="#C9C9C9"/>
<path opacity="0.28" d="M138.83 218.162H126.51V249.43H138.83V218.162Z" fill="#1F3969" stroke="#1F3969" stroke-width="2.67816" stroke-miterlimit="10" stroke-linecap="round" stroke-linejoin="round"/>
<path opacity="0.28" d="M146.597 249.43H126.51V259.473C126.51 265.766 131.599 270.922 137.96 270.922H151.149C151.149 270.855 151.149 270.788 151.149 270.721V253.982C151.149 251.438 149.141 249.43 146.597 249.43Z" fill="#1F3969" stroke="#1F3969" stroke-width="2.67816" stroke-miterlimit="10" stroke-linecap="round" stroke-linejoin="round"/>
<path d="M84.3289 245.412C77.9013 245.412 72.7458 240.19 72.7458 233.829C72.7458 227.469 77.9683 222.246 84.3289 222.246H149.944V245.479H84.3289V245.412Z" fill="#CECECE"/>
<path d="M153.761 249.43H84.3292C75.6921 249.43 68.7289 242.4 68.7289 233.83C68.7289 225.193 75.7591 218.23 84.3292 218.23H153.761V249.43Z" fill="white"/>
<path d="M80.0441 230.214H149.944" stroke="#1F3969" stroke-width="2.67816" stroke-miterlimit="10" stroke-linecap="round" stroke-linejoin="round"/>
<path d="M80.0441 237.311H149.944" stroke="#1F3969" stroke-width="2.67816" stroke-miterlimit="10" stroke-linecap="round" stroke-linejoin="round"/>
<path d="M84.3289 245.412C77.9013 245.412 72.7458 240.19 72.7458 233.829C72.7458 227.469 77.9683 222.246 84.3289 222.246H149.944V245.479H84.3289V245.412Z" stroke="#1F3969" stroke-width="2.67816" stroke-miterlimit="10" stroke-linecap="round" stroke-linejoin="round"/>
<path d="M84.3292 245.413C77.9016 245.413 72.7461 240.191 72.7461 233.83C72.7461 227.469 77.9685 222.247 84.3292 222.247H151.082L153.761 218.23H84.3292C75.6921 218.23 68.7289 225.26 68.7289 233.83C68.7289 242.467 75.7591 249.43 84.3292 249.43H153.761L151.082 245.413H84.3292Z" fill="#FF3E3E"/>
<path d="M84.3292 245.413C77.9016 245.413 72.7461 240.191 72.7461 233.83C72.7461 227.469 77.9685 222.247 84.3292 222.247H151.082L153.761 218.23H84.3292C75.6921 218.23 68.7289 225.26 68.7289 233.83C68.7289 242.467 75.7591 249.43 84.3292 249.43H153.761L151.082 245.413H84.3292Z" stroke="#1F3969" stroke-width="2.67816" stroke-miterlimit="10" stroke-linecap="round" stroke-linejoin="round"/>
<path d="M146.597 275.207H19.4507C16.9734 275.207 14.8978 273.198 14.8978 270.654V253.916C14.8978 251.438 16.9065 249.363 19.4507 249.363H146.597C149.074 249.363 151.149 251.371 151.149 253.916V270.654C151.149 273.198 149.141 275.207 146.597 275.207Z" fill="#50B56F"/>
<path d="M43.7622 259.037V266.145H45.325V263.079H48.2017V266.145H49.7644V259.037H48.2017V261.765H45.325V259.037H43.7622Z" fill="#FBFBFB"/>
<path d="M54.7037 260.351V266.145H56.2664V260.351H58.3966V259.037H52.5735V260.351H54.7037Z" fill="#FBFBFB"/>
<path d="M61.2068 259.037V266.145H62.6701V261.158H62.69L64.4319 266.145H65.6363L67.3783 261.108H67.3982V266.145H68.8614V259.037H66.6616L65.0889 263.925H65.069L63.4067 259.037H61.2068Z" fill="#FBFBFB"/>
<path d="M72.2281 259.037V266.145H77.2548V264.831H73.7908V259.037H72.2281Z" fill="#FBFBFB"/>
<path d="M82.1001 258.868L79.3329 266.304H80.4577L83.2349 258.868H82.1001Z" fill="#FBFBFB"/>
<path d="M90.542 261.426H92.055C92.0085 261.015 91.8957 260.65 91.7165 260.331C91.5374 260.013 91.3084 259.747 91.0297 259.535C90.7576 259.316 90.4457 259.15 90.094 259.037C89.749 258.925 89.3807 258.868 88.9892 258.868C88.445 258.868 87.9539 258.964 87.516 259.157C87.0846 259.349 86.7197 259.615 86.421 259.953C86.1224 260.292 85.8935 260.69 85.7342 261.148C85.575 261.599 85.4953 262.09 85.4953 262.621C85.4953 263.138 85.575 263.623 85.7342 264.074C85.8935 264.519 86.1224 264.907 86.421 265.239C86.7197 265.571 87.0846 265.833 87.516 266.025C87.9539 266.211 88.445 266.304 88.9892 266.304C89.4271 266.304 89.8286 266.237 90.1936 266.105C90.5586 265.972 90.8771 265.78 91.1492 265.527C91.4212 265.275 91.6402 264.97 91.8061 264.612C91.972 264.253 92.0749 263.852 92.1147 263.407H90.6017C90.542 263.885 90.3761 264.27 90.104 264.562C89.8386 264.854 89.4669 265 88.9892 265C88.6374 265 88.3388 264.933 88.0933 264.801C87.8478 264.661 87.6487 264.479 87.4961 264.253C87.3434 264.028 87.2306 263.775 87.1576 263.497C87.0913 263.211 87.0581 262.919 87.0581 262.621C87.0581 262.309 87.0913 262.007 87.1576 261.715C87.2306 261.423 87.3434 261.164 87.4961 260.939C87.6487 260.706 87.8478 260.524 88.0933 260.391C88.3388 260.252 88.6374 260.182 88.9892 260.182C89.1816 260.182 89.3641 260.215 89.5366 260.282C89.7158 260.341 89.8751 260.428 90.0144 260.54C90.1538 260.653 90.2699 260.786 90.3628 260.939C90.4557 261.085 90.5154 261.247 90.542 261.426Z" fill="#FBFBFB"/>
<path d="M96.2377 263.785H94.7247C94.7181 264.223 94.7977 264.602 94.9636 264.92C95.1295 265.239 95.3518 265.501 95.6305 265.707C95.9159 265.912 96.241 266.062 96.606 266.154C96.9776 266.254 97.3592 266.304 97.7507 266.304C98.2351 266.304 98.6598 266.247 99.0248 266.135C99.3964 266.022 99.705 265.866 99.9505 265.667C100.203 265.461 100.392 265.219 100.518 264.94C100.644 264.661 100.707 264.359 100.707 264.034C100.707 263.636 100.621 263.311 100.448 263.059C100.282 262.8 100.083 262.594 99.851 262.442C99.6187 262.289 99.3831 262.18 99.1442 262.113C98.912 262.04 98.7295 261.99 98.5968 261.964C98.1522 261.851 97.7905 261.758 97.5118 261.685C97.2397 261.612 97.0241 261.539 96.8648 261.466C96.7122 261.393 96.6093 261.314 96.5562 261.227C96.5031 261.141 96.4766 261.028 96.4766 260.889C96.4766 260.736 96.5098 260.61 96.5761 260.511C96.6425 260.411 96.7254 260.328 96.825 260.262C96.9312 260.195 97.0473 260.149 97.1734 260.122C97.2995 260.096 97.4255 260.083 97.5516 260.083C97.7441 260.083 97.9199 260.099 98.0792 260.132C98.2451 260.166 98.3911 260.222 98.5172 260.302C98.6432 260.381 98.7428 260.491 98.8158 260.63C98.8954 260.769 98.9418 260.945 98.9551 261.158H100.468C100.468 260.746 100.388 260.398 100.229 260.112C100.077 259.82 99.8676 259.582 99.6021 259.396C99.3367 259.21 99.0314 259.077 98.6864 258.998C98.3479 258.911 97.9929 258.868 97.6213 258.868C97.3028 258.868 96.9842 258.911 96.6657 258.998C96.3472 259.084 96.0618 259.217 95.8097 259.396C95.5575 259.575 95.3518 259.801 95.1925 260.073C95.0399 260.338 94.9636 260.653 94.9636 261.018C94.9636 261.343 95.0233 261.622 95.1428 261.854C95.2689 262.08 95.4314 262.269 95.6305 262.422C95.8296 262.574 96.0552 262.7 96.3074 262.8C96.5595 262.893 96.8183 262.973 97.0838 263.039C97.3426 263.112 97.5981 263.178 97.8502 263.238C98.1024 263.298 98.328 263.367 98.5271 263.447C98.7262 263.527 98.8854 263.626 99.0049 263.746C99.131 263.865 99.194 264.021 99.194 264.213C99.194 264.393 99.1476 264.542 99.0547 264.661C98.9618 264.774 98.8456 264.864 98.7063 264.93C98.5669 264.997 98.4176 265.043 98.2583 265.069C98.0991 265.089 97.9498 265.099 97.8104 265.099C97.6047 265.099 97.4056 265.076 97.2132 265.03C97.0207 264.977 96.8515 264.9 96.7055 264.801C96.5662 264.695 96.4534 264.559 96.3671 264.393C96.2808 264.227 96.2377 264.024 96.2377 263.785Z" fill="#FBFBFB"/>
<path d="M104.693 263.785H103.18C103.173 264.223 103.253 264.602 103.419 264.92C103.584 265.239 103.807 265.501 104.086 265.707C104.371 265.912 104.696 266.062 105.061 266.154C105.433 266.254 105.814 266.304 106.206 266.304C106.69 266.304 107.115 266.247 107.48 266.135C107.851 266.022 108.16 265.866 108.406 265.667C108.658 265.461 108.847 265.219 108.973 264.94C109.099 264.661 109.162 264.359 109.162 264.034C109.162 263.636 109.076 263.311 108.903 263.059C108.737 262.8 108.538 262.594 108.306 262.442C108.074 262.289 107.838 262.18 107.599 262.113C107.367 262.04 107.185 261.99 107.052 261.964C106.607 261.851 106.246 261.758 105.967 261.685C105.695 261.612 105.479 261.539 105.32 261.466C105.167 261.393 105.064 261.314 105.011 261.227C104.958 261.141 104.932 261.028 104.932 260.889C104.932 260.736 104.965 260.61 105.031 260.511C105.097 260.411 105.18 260.328 105.28 260.262C105.386 260.195 105.502 260.149 105.628 260.122C105.754 260.096 105.881 260.083 106.007 260.083C106.199 260.083 106.375 260.099 106.534 260.132C106.7 260.166 106.846 260.222 106.972 260.302C107.098 260.381 107.198 260.491 107.271 260.63C107.35 260.769 107.397 260.945 107.41 261.158H108.923C108.923 260.746 108.843 260.398 108.684 260.112C108.532 259.82 108.323 259.582 108.057 259.396C107.792 259.21 107.486 259.077 107.141 258.998C106.803 258.911 106.448 258.868 106.076 258.868C105.758 258.868 105.439 258.911 105.121 258.998C104.802 259.084 104.517 259.217 104.265 259.396C104.013 259.575 103.807 259.801 103.648 260.073C103.495 260.338 103.419 260.653 103.419 261.018C103.419 261.343 103.478 261.622 103.598 261.854C103.724 262.08 103.886 262.269 104.086 262.422C104.285 262.574 104.51 262.7 104.762 262.8C105.015 262.893 105.273 262.973 105.539 263.039C105.798 263.112 106.053 263.178 106.305 263.238C106.557 263.298 106.783 263.367 106.982 263.447C107.181 263.527 107.34 263.626 107.46 263.746C107.586 263.865 107.649 264.021 107.649 264.213C107.649 264.393 107.603 264.542 107.51 264.661C107.417 264.774 107.301 264.864 107.161 264.93C107.022 264.997 106.873 265.043 106.713 265.069C106.554 265.089 106.405 265.099 106.265 265.099C106.06 265.099 105.861 265.076 105.668 265.03C105.476 264.977 105.307 264.9 105.161 264.801C105.021 264.695 104.908 264.559 104.822 264.393C104.736 264.227 104.693 264.024 104.693 263.785Z" fill="#FBFBFB"/>
<path d="M114.063 258.868L111.296 266.304H112.421L115.198 258.868H114.063Z" fill="#FBFBFB"/>
<path d="M121.928 263.905V259.037H120.365V263.835C120.365 263.961 120.359 264.094 120.345 264.233C120.339 264.366 120.309 264.492 120.256 264.612C120.209 264.724 120.13 264.817 120.017 264.89C119.904 264.963 119.745 265 119.539 265C119.353 265 119.201 264.97 119.081 264.91C118.968 264.851 118.879 264.771 118.812 264.671C118.746 264.565 118.7 264.439 118.673 264.293C118.647 264.147 118.633 263.988 118.633 263.815V263.497H117.22V264.114C117.22 264.505 117.286 264.841 117.419 265.119C117.552 265.391 117.727 265.617 117.946 265.796C118.165 265.969 118.414 266.095 118.693 266.174C118.972 266.261 119.26 266.304 119.559 266.304C120.09 266.304 120.511 266.224 120.823 266.065C121.135 265.899 121.374 265.697 121.54 265.458C121.706 265.212 121.812 264.95 121.858 264.671C121.905 264.393 121.928 264.137 121.928 263.905Z" fill="#FBFBFB"/>
<path d="M126.354 263.785H124.841C124.835 264.223 124.914 264.602 125.08 264.92C125.246 265.239 125.468 265.501 125.747 265.707C126.032 265.912 126.357 266.062 126.722 266.154C127.094 266.254 127.476 266.304 127.867 266.304C128.352 266.304 128.776 266.247 129.141 266.135C129.513 266.022 129.821 265.866 130.067 265.667C130.319 265.461 130.508 265.219 130.634 264.94C130.76 264.661 130.823 264.359 130.823 264.034C130.823 263.636 130.737 263.311 130.565 263.059C130.399 262.8 130.2 262.594 129.967 262.442C129.735 262.289 129.5 262.18 129.261 262.113C129.028 262.04 128.846 261.99 128.713 261.964C128.269 261.851 127.907 261.758 127.628 261.685C127.356 261.612 127.14 261.539 126.981 261.466C126.829 261.393 126.726 261.314 126.673 261.227C126.62 261.141 126.593 261.028 126.593 260.889C126.593 260.736 126.626 260.61 126.693 260.511C126.759 260.411 126.842 260.328 126.941 260.262C127.048 260.195 127.164 260.149 127.29 260.122C127.416 260.096 127.542 260.083 127.668 260.083C127.86 260.083 128.036 260.099 128.196 260.132C128.362 260.166 128.507 260.222 128.634 260.302C128.76 260.381 128.859 260.491 128.932 260.63C129.012 260.769 129.058 260.945 129.072 261.158H130.585C130.585 260.746 130.505 260.398 130.346 260.112C130.193 259.82 129.984 259.582 129.719 259.396C129.453 259.21 129.148 259.077 128.803 258.998C128.464 258.911 128.109 258.868 127.738 258.868C127.419 258.868 127.101 258.911 126.782 258.998C126.464 259.084 126.178 259.217 125.926 259.396C125.674 259.575 125.468 259.801 125.309 260.073C125.156 260.338 125.08 260.653 125.08 261.018C125.08 261.343 125.14 261.622 125.259 261.854C125.385 262.08 125.548 262.269 125.747 262.422C125.946 262.574 126.172 262.7 126.424 262.8C126.676 262.893 126.935 262.973 127.2 263.039C127.459 263.112 127.715 263.178 127.967 263.238C128.219 263.298 128.444 263.367 128.644 263.447C128.843 263.527 129.002 263.626 129.121 263.746C129.247 263.865 129.31 264.021 129.31 264.213C129.31 264.393 129.264 264.542 129.171 264.661C129.078 264.774 128.962 264.864 128.823 264.93C128.683 264.997 128.534 265.043 128.375 265.069C128.216 265.089 128.066 265.099 127.927 265.099C127.721 265.099 127.522 265.076 127.33 265.03C127.137 264.977 126.968 264.9 126.822 264.801C126.683 264.695 126.57 264.559 126.484 264.393C126.397 264.227 126.354 264.024 126.354 263.785Z" fill="#FBFBFB"/>
<path d="M146.597 275.207H19.4507C16.9734 275.207 14.8978 273.198 14.8978 270.654V253.916C14.8978 251.438 16.9065 249.363 19.4507 249.363H146.597C149.074 249.363 151.149 251.371 151.149 253.916V270.654C151.149 273.198 149.141 275.207 146.597 275.207Z" stroke="#1F3969" stroke-width="2.67816" stroke-miterlimit="10" stroke-linecap="round" stroke-linejoin="round"/>
<path d="M182.417 280.429H35.1178C35.9882 282.572 36.4569 285.25 36.4569 288.062C36.4569 290.874 35.9882 293.485 35.1178 295.695H182.35C181.479 293.552 181.011 290.874 181.011 288.062C181.078 285.183 181.546 282.572 182.417 280.429Z" fill="#CECECE"/>
<path d="M186.434 276.345H31.1676V280.362H186.434V276.345Z" fill="#5F5AFF"/>
<path d="M186.434 276.345H31.1676V280.362H186.434V276.345Z" stroke="#1F3969" stroke-width="2.67816" stroke-miterlimit="10" stroke-linecap="round" stroke-linejoin="round"/>
<path d="M186.434 295.628H31.1676V299.645H186.434V295.628Z" fill="#F6F9FD"/>
<path d="M186.434 295.628H31.1676V299.645H186.434V295.628Z" fill="#5F5AFF"/>
<path d="M186.434 295.628H31.1676V299.645H186.434V295.628Z" stroke="#1F3969" stroke-width="2.67816" stroke-miterlimit="10" stroke-linecap="round" stroke-linejoin="round"/>
<path d="M36.7919 285.049H181.078" stroke="#1F3969" stroke-width="2.67816" stroke-miterlimit="10" stroke-linecap="round" stroke-linejoin="round"/>
<path d="M36.7919 290.405H181.078" stroke="#1F3969" stroke-width="2.67816" stroke-miterlimit="10" stroke-linecap="round" stroke-linejoin="round"/>
<path d="M182.417 280.429H35.1178C35.9882 282.572 36.4569 285.25 36.4569 288.062C36.4569 290.874 35.9882 293.485 35.1178 295.695H182.35C181.479 293.552 181.011 290.874 181.011 288.062C181.078 285.183 181.546 282.572 182.417 280.429Z" stroke="#1F3969" stroke-width="2.67816" stroke-miterlimit="10" stroke-linecap="round" stroke-linejoin="round"/>
<path d="M263.565 285.384L261.557 262.82H228.481L226.473 285.384C226.004 290.606 222.857 295.628 217.902 299.645V299.712H272.135V299.645C267.181 295.628 264.034 290.606 263.565 285.384Z" fill="#BFCFE2"/>
<path opacity="0.28" d="M228.481 262.82L227.276 276.345H262.762L261.556 262.82H228.481Z" fill="#1F3969" stroke="#1F3969" stroke-width="2.67816" stroke-miterlimit="10" stroke-linecap="round" stroke-linejoin="round"/>
<path d="M263.565 285.384L261.557 262.82H228.481L226.473 285.384C226.004 290.606 222.857 295.628 217.902 299.645V299.712H272.135V299.645C267.181 295.628 264.034 290.606 263.565 285.384Z" stroke="#1F3969" stroke-width="2.67816" stroke-miterlimit="10" stroke-linecap="round" stroke-linejoin="round"/>
<path d="M350.806 266.168H139.232C134.813 266.168 131.197 262.553 131.197 258.134V120.208C131.197 115.789 134.813 112.174 139.232 112.174H350.806C355.225 112.174 358.841 115.789 358.841 120.208V258.134C358.841 262.62 355.225 266.168 350.806 266.168Z" fill="white"/>
<path d="M350.807 266.168H139.232C134.813 266.168 131.197 262.553 131.197 258.134V120.208C131.197 115.789 134.813 112.174 139.232 112.174H350.807C355.225 112.174 358.841 115.789 358.841 120.208V258.134C358.841 262.62 355.225 266.168 350.807 266.168Z" fill="#BFCFE2"/>
<path d="M350.806 266.168H139.232C134.813 266.168 131.197 262.553 131.197 258.134V120.208C131.197 115.789 134.813 112.174 139.232 112.174H350.806C355.225 112.174 358.841 115.789 358.841 120.208V258.134C358.841 262.62 355.225 266.168 350.806 266.168Z" stroke="#1F3969" stroke-width="2.67816" stroke-miterlimit="10" stroke-linecap="round" stroke-linejoin="round"/>
<path d="M347.496 240.476V123.574L142.617 123.574L142.617 240.476L347.496 240.476Z" fill="#F6F9FD"/>
<path opacity="0.28" d="M149.944 112.174V204.972C149.944 207.918 152.354 210.328 155.3 210.328H281.911C284.856 210.328 287.267 207.918 287.267 204.972V112.174H149.944Z" fill="#1F3969" stroke="#1F3969" stroke-width="2.67816" stroke-miterlimit="10" stroke-linecap="round" stroke-linejoin="round"/>
<path d="M347.496 240.476V123.574L142.617 123.574L142.617 240.476L347.496 240.476Z" stroke="#1F3969" stroke-width="2.67816" stroke-miterlimit="10" stroke-linecap="round" stroke-linejoin="round"/>
<path d="M236.047 253.246H254.058" stroke="#1F3969" stroke-width="2.67816" stroke-miterlimit="10" stroke-linecap="round" stroke-linejoin="round"/>
<path d="M287.937 202.963H161.326C158.38 202.963 155.97 200.553 155.97 197.607V98.3812C155.97 95.4352 158.38 93.0248 161.326 93.0248H287.937C290.882 93.0248 293.293 95.4352 293.293 98.3812V197.674C293.293 200.62 290.882 202.963 287.937 202.963Z" fill="#2D425E"/>
<path d="M293.293 106.014H155.97V98.314C155.97 95.3681 158.38 92.9577 161.326 92.9577H287.937C290.882 92.9577 293.293 95.3681 293.293 98.314V106.014Z" stroke="#1F3969" stroke-width="2.67816" stroke-miterlimit="10" stroke-linecap="round" stroke-linejoin="round"/>
<path d="M293.293 108.558H155.97V98.314C155.97 95.3681 158.38 92.9577 161.326 92.9577H287.937C290.882 92.9577 293.293 95.3681 293.293 98.314V108.558Z" fill="#D0DDF0"/>
<path d="M293.293 108.558H155.97V98.314C155.97 95.3681 158.38 92.9577 161.326 92.9577H287.937C290.882 92.9577 293.293 95.3681 293.293 98.314V108.558Z" stroke="#1F3969" stroke-width="2.67816" stroke-miterlimit="10" stroke-linecap="round" stroke-linejoin="round"/>
<path d="M293.293 108.558H155.97V98.314C155.97 95.3681 158.38 92.9577 161.326 92.9577H287.937C290.882 92.9577 293.293 95.3681 293.293 98.314V108.558Z" stroke="#1F3969" stroke-width="2.67816" stroke-miterlimit="10" stroke-linecap="round" stroke-linejoin="round"/>
<path d="M287.937 202.963H161.326C158.38 202.963 155.97 200.553 155.97 197.607V98.3812C155.97 95.4352 158.38 93.0248 161.326 93.0248H287.937C290.882 93.0248 293.293 95.4352 293.293 98.3812V197.674C293.293 200.62 290.882 202.963 287.937 202.963Z" stroke="#1F3969" stroke-width="2.67816" stroke-miterlimit="10" stroke-linecap="round" stroke-linejoin="round"/>
<path d="M169.428 103.469C170.907 103.469 172.106 102.27 172.106 100.791C172.106 99.3122 170.907 98.1132 169.428 98.1132C167.949 98.1132 166.75 99.3122 166.75 100.791C166.75 102.27 167.949 103.469 169.428 103.469Z" fill="#1F3969"/>
<path d="M178.735 103.469C180.214 103.469 181.413 102.27 181.413 100.791C181.413 99.3122 180.214 98.1132 178.735 98.1132C177.255 98.1132 176.056 99.3122 176.056 100.791C176.056 102.27 177.255 103.469 178.735 103.469Z" fill="#1F3969"/>
<path d="M188.041 103.469C189.52 103.469 190.719 102.27 190.719 100.791C190.719 99.3122 189.52 98.1132 188.041 98.1132C186.562 98.1132 185.363 99.3122 185.363 100.791C185.363 102.27 186.562 103.469 188.041 103.469Z" fill="#1F3969"/>
<path d="M234.842 120.945H243.546" stroke="white" stroke-width="2.67816" stroke-miterlimit="10" stroke-linecap="round" stroke-linejoin="round"/>
<path d="M190.719 120.945H228.415" stroke="#7BFFA0" stroke-width="2.67816" stroke-miterlimit="10" stroke-linecap="round" stroke-linejoin="round"/>
<path d="M172.106 120.945H185.363" stroke="#9169FF" stroke-width="2.67816" stroke-miterlimit="10" stroke-linecap="round" stroke-linejoin="round"/>
<path d="M189.38 186.894H218.17" stroke="#9169FF" stroke-width="2.67816" stroke-miterlimit="10" stroke-linecap="round" stroke-linejoin="round"/>
<path d="M172.106 186.894H181.413" stroke="#7BFFA0" stroke-width="2.67816" stroke-miterlimit="10" stroke-linecap="round" stroke-linejoin="round"/>
<path d="M228.414 129.18H233.838" stroke="white" stroke-width="2.67816" stroke-miterlimit="10" stroke-linecap="round" stroke-linejoin="round"/>
<path d="M203.775 129.18H221.987" stroke="#9169FF" stroke-width="2.67816" stroke-miterlimit="10" stroke-linecap="round" stroke-linejoin="round"/>
<path d="M178.734 129.18H197.281" stroke="#FFC47D" stroke-width="2.67816" stroke-miterlimit="10" stroke-linecap="round" stroke-linejoin="round"/>
<path d="M207.458 137.415H223.46" stroke="white" stroke-width="2.67816" stroke-miterlimit="10" stroke-linecap="round" stroke-linejoin="round"/>
<path d="M187.372 137.415H202.436" stroke="#FF5757" stroke-width="2.67816" stroke-miterlimit="10" stroke-linecap="round" stroke-linejoin="round"/>
<path d="M209.6 145.651H212.881" stroke="white" stroke-width="2.67816" stroke-miterlimit="10" stroke-linecap="round" stroke-linejoin="round"/>
<path d="M196.344 145.651H203.776" stroke="#9169FF" stroke-width="2.67816" stroke-miterlimit="10" stroke-linecap="round" stroke-linejoin="round"/>
<path d="M178.734 145.651H190.719" stroke="#7BFFA0" stroke-width="2.67816" stroke-miterlimit="10" stroke-linecap="round" stroke-linejoin="round"/>
<path d="M204.445 153.953H225.803" stroke="#FFC47D" stroke-width="2.67816" stroke-miterlimit="10" stroke-linecap="round" stroke-linejoin="round"/>
<path d="M178.734 153.953H197.883" stroke="#FF5757" stroke-width="2.67816" stroke-miterlimit="10" stroke-linecap="round" stroke-linejoin="round"/>
<path d="M229.151 162.188H240.734" stroke="#9169FF" stroke-width="2.67816" stroke-miterlimit="10" stroke-linecap="round" stroke-linejoin="round"/>
<path d="M204.445 162.188H222.991" stroke="#FF5757" stroke-width="2.67816" stroke-miterlimit="10" stroke-linecap="round" stroke-linejoin="round"/>
<path d="M187.372 162.188H197.884" stroke="#7BFFA0" stroke-width="2.67816" stroke-miterlimit="10" stroke-linecap="round" stroke-linejoin="round"/>
<path d="M212.881 170.424H222.991" stroke="white" stroke-width="2.67816" stroke-miterlimit="10" stroke-linecap="round" stroke-linejoin="round"/>
<path d="M187.372 170.424H205.918" stroke="#9169FF" stroke-width="2.67816" stroke-miterlimit="10" stroke-linecap="round" stroke-linejoin="round"/>
<path d="M239.194 178.659H250.777" stroke="white" stroke-width="2.67816" stroke-miterlimit="10" stroke-linecap="round" stroke-linejoin="round"/>
<path d="M203.775 178.659H232.9" stroke="#FFC47D" stroke-width="2.67816" stroke-miterlimit="10" stroke-linecap="round" stroke-linejoin="round"/>
<path d="M178.734 178.659H197.281" stroke="white" stroke-width="2.67816" stroke-miterlimit="10" stroke-linecap="round" stroke-linejoin="round"/>
<path opacity="0.32" d="M333.159 230.007H242.916C240.867 230.007 239.239 228.326 239.239 226.33V161.931C239.239 159.882 240.92 158.254 242.916 158.254H333.159C335.207 158.254 336.836 159.935 336.836 161.931V226.277C336.836 228.326 335.207 230.007 333.159 230.007Z" fill="#BFCFE2"/>
<path d="M327.629 223.423H237.386C235.337 223.423 233.709 221.742 233.709 219.746V155.347C233.709 153.298 235.39 151.67 237.386 151.67H327.629C329.678 151.67 331.306 153.351 331.306 155.347V219.693C331.359 221.742 329.678 223.423 327.629 223.423Z" fill="white"/>
<path d="M327.629 223.423H237.386C235.337 223.423 233.709 221.742 233.709 219.746V155.347C233.709 153.298 235.39 151.67 237.386 151.67H327.629C329.678 151.67 331.306 153.351 331.306 155.347V219.693C331.359 221.742 329.678 223.423 327.629 223.423Z" stroke="#1F3969" stroke-width="2.10112" stroke-miterlimit="10" stroke-linecap="round" stroke-linejoin="round"/>
<path d="M331.359 162.754H233.709V155.505C233.709 153.404 235.443 151.618 237.596 151.618H327.734C329.73 151.618 331.359 153.246 331.359 155.242V162.754Z" fill="#BFCFE2"/>
<path d="M331.359 162.754H233.709V155.505C233.709 153.404 235.443 151.618 237.596 151.618H327.734C329.73 151.618 331.359 153.246 331.359 155.242V162.754Z" stroke="#1F3969" stroke-width="2.10112" stroke-miterlimit="10" stroke-linecap="round" stroke-linejoin="round"/>
<path d="M243.111 158.972C244.069 158.972 244.845 158.196 244.845 157.238C244.845 156.281 244.069 155.505 243.111 155.505C242.154 155.505 241.378 156.281 241.378 157.238C241.378 158.196 242.154 158.972 243.111 158.972Z" fill="#1F3969"/>
<path d="M248.837 158.972C249.794 158.972 250.57 158.196 250.57 157.238C250.57 156.281 249.794 155.505 248.837 155.505C247.88 155.505 247.104 156.281 247.104 157.238C247.104 158.196 247.88 158.972 248.837 158.972Z" fill="#1F3969"/>
<path d="M254.51 158.972C255.467 158.972 256.243 158.196 256.243 157.238C256.243 156.281 255.467 155.505 254.51 155.505C253.552 155.505 252.776 156.281 252.776 157.238C252.776 158.196 253.552 158.972 254.51 158.972Z" fill="#1F3969"/>
<path d="M322.166 181.979H242.166C241.588 181.979 241.116 181.506 241.116 180.928V169.74C241.116 169.162 241.588 168.689 242.166 168.689H322.166C322.744 168.689 323.217 169.162 323.217 169.74V180.928C323.217 181.506 322.744 181.979 322.166 181.979Z" fill="#FE5070"/>
<path opacity="0.2" d="M265.173 196.004H242.113C241.536 196.004 241.063 195.531 241.063 194.953V188.913C241.063 188.335 241.536 187.862 242.113 187.862H265.173C265.751 187.862 266.224 188.335 266.224 188.913V194.953C266.224 195.531 265.804 196.004 265.173 196.004Z" fill="#1F3969"/>
<path opacity="0.2" d="M244.792 201.94H263.282" stroke="#1F3969" stroke-width="2.10112" stroke-miterlimit="10" stroke-linecap="round" stroke-linejoin="round"/>
<path opacity="0.2" d="M244.792 207.875H263.282" stroke="#1F3969" stroke-width="2.10112" stroke-miterlimit="10" stroke-linecap="round" stroke-linejoin="round"/>
<path opacity="0.2" d="M294.064 196.004H271.004C270.426 196.004 269.954 195.531 269.954 194.953V188.913C269.954 188.335 270.426 187.862 271.004 187.862H294.064C294.642 187.862 295.114 188.335 295.114 188.913V194.953C295.114 195.531 294.642 196.004 294.064 196.004Z" fill="#1F3969"/>
<path opacity="0.2" d="M273.63 201.94H291.385" stroke="#1F3969" stroke-width="2.10112" stroke-miterlimit="10" stroke-linecap="round" stroke-linejoin="round"/>
<path opacity="0.2" d="M273.63 207.875H291.385" stroke="#1F3969" stroke-width="2.10112" stroke-miterlimit="10" stroke-linecap="round" stroke-linejoin="round"/>
<path opacity="0.2" d="M322.902 208.611H299.842C299.264 208.611 298.792 208.138 298.792 207.56V188.965C298.792 188.387 299.264 187.915 299.842 187.915H322.902C323.48 187.915 323.952 188.387 323.952 188.965V207.56C323.952 208.138 323.48 208.611 322.902 208.611Z" fill="#8464EB"/>
<g opacity="0.09">
<path opacity="0.09" d="M322.166 214.546H300.209C299.369 214.546 298.739 213.863 298.739 213.075C298.739 212.288 299.421 211.605 300.209 211.605H322.166C323.006 211.605 323.637 212.288 323.637 213.075C323.637 213.863 322.954 214.546 322.166 214.546Z" fill="#1F3969"/>
</g>
<path d="M14.2 230.101L7.68311 230.866L13.3509 279.144L19.8678 278.379L14.2 230.101Z" fill="#FFA364"/>
<path d="M14.209 230.152L7.69214 230.917L8.26984 235.838L14.7867 235.073L14.209 230.152Z" fill="#FF849A"/>
<path d="M14.209 230.152L7.69214 230.917L8.26984 235.838L14.7867 235.073L14.209 230.152Z" stroke="#1F3969" stroke-width="2.67816" stroke-miterlimit="10" stroke-linecap="round" stroke-linejoin="round"/>
<path d="M14.2 230.101L7.68311 230.866L13.3509 279.144L19.8678 278.379L14.2 230.101Z" stroke="#1F3969" stroke-width="2.67816" stroke-miterlimit="10" stroke-linecap="round" stroke-linejoin="round"/>
<path d="M32.07 239.99L25.5472 239.28L20.2926 287.602L26.8154 288.312L32.07 239.99Z" fill="#FF5252"/>
<path d="M32.07 239.99L25.5472 239.28L20.2926 287.602L26.8154 288.312L32.07 239.99Z" stroke="#1F3969" stroke-width="2.67816" stroke-miterlimit="10" stroke-linecap="round" stroke-linejoin="round"/>
<path d="M32.1184 240.001L25.5956 239.292L25.06 244.217L31.5828 244.926L32.1184 240.001Z" fill="#2D425E"/>
<path d="M32.1184 240.001L25.5956 239.292L25.06 244.217L31.5828 244.926L32.1184 240.001Z" stroke="#1F3969" stroke-width="2.67816" stroke-miterlimit="10" stroke-linecap="round" stroke-linejoin="round"/>
<path d="M36.1281 304.104H9.81519L5.53015 263.798H40.4132L36.1281 304.104Z" fill="#FE5070"/>
<path d="M5.53015 263.798L5.59709 264.535H32.1779L27.9598 304.104H36.1281L40.4132 263.798H5.53015Z" fill="#FF849A"/>
<path d="M36.1281 304.104H9.81519L5.53015 263.798H40.4132L36.1281 304.104Z" stroke="#1F3969" stroke-width="2.67816" stroke-miterlimit="10" stroke-linecap="round" stroke-linejoin="round"/>
<path d="M410.844 293.834H296.423V225.078C296.423 223.047 298.076 221.394 300.106 221.394H407.208C409.191 221.394 410.797 223 410.797 224.983V293.834H410.844Z" fill="#BFCFE2"/>
<path d="M411.128 293.976H296.754V225.03C296.754 222.953 298.454 221.253 300.532 221.253H407.35C409.428 221.253 411.128 222.953 411.128 225.03V293.976Z" stroke="#1F3969" stroke-width="2.10112" stroke-miterlimit="10" stroke-linecap="round" stroke-linejoin="round"/>
<path opacity="0.71" d="M404.86 287.897V227.357L303.094 227.357V287.897H404.86Z" fill="white"/>
<path opacity="0.32" d="M327.968 276.362H319.184C318.665 276.362 318.24 275.937 318.24 275.417V245.336C318.24 244.817 318.665 244.392 319.184 244.392H327.968C328.487 244.392 328.912 244.817 328.912 245.336V275.465C328.912 275.937 328.487 276.362 327.968 276.362Z" fill="#BFCFE2"/>
<path opacity="0.32" d="M391.389 282.454H340.671C339.632 282.454 338.782 281.604 338.782 280.565V241.795C338.782 240.756 339.632 239.906 340.671 239.906H391.389C392.427 239.906 393.277 240.756 393.277 241.795V280.565C393.277 281.604 392.475 282.454 391.389 282.454Z" fill="#BFCFE2"/>
<path d="M404.77 287.61V227.59L303.099 227.59V287.61H404.77Z" stroke="#1F3969" stroke-width="2.10112" stroke-miterlimit="10" stroke-linecap="round" stroke-linejoin="round"/>
<path d="M423.595 293.976H284.24V298.415C284.24 300.493 285.94 302.193 288.018 302.193H419.817C421.895 302.193 423.595 300.493 423.595 298.415V293.976Z" fill="white"/>
<path opacity="0.8" d="M289.576 302.476H418.305C420.903 302.476 423.028 300.493 423.5 297.801H284.334C284.806 300.493 286.978 302.476 289.576 302.476Z" fill="#BFCFE2"/>
<path d="M423.595 293.976H284.24V298.415C284.24 300.493 285.94 302.193 288.018 302.193H419.817C421.895 302.193 423.595 300.493 423.595 298.415V293.976Z" stroke="#1F3969" stroke-width="2.10112" stroke-miterlimit="10" stroke-linecap="round" stroke-linejoin="round"/>
<path d="M326.363 241.983H315.738V252.609H326.363V241.983Z" fill="#8464EB"/>
<path d="M326.551 242.078H315.926V252.703H326.551V242.078Z" stroke="#1F3969" stroke-width="2.10112" stroke-miterlimit="10" stroke-linecap="round" stroke-linejoin="round"/>
<path d="M326.551 242.078H315.926V252.703H326.551V242.078Z" stroke="#1F3969" stroke-width="2.10112" stroke-miterlimit="10" stroke-linecap="round" stroke-linejoin="round"/>
<path d="M326.363 252.609H315.738V263.234H326.363V252.609Z" fill="#FF849A"/>
<path d="M326.551 252.75H315.926V263.375H326.551V252.75Z" stroke="#1F3969" stroke-width="2.10112" stroke-miterlimit="10" stroke-linecap="round" stroke-linejoin="round"/>
<path d="M326.363 263.234H315.738V273.859H326.363V263.234Z" fill="#FE5070"/>
<path d="M326.551 263.376H315.926V274.001H326.551V263.376Z" stroke="#1F3969" stroke-width="2.10112" stroke-miterlimit="10" stroke-linecap="round" stroke-linejoin="round"/>
<path d="M388.318 279.195H337.554C336.515 279.195 335.665 278.345 335.665 277.306V238.536C335.665 237.497 336.515 236.647 337.554 236.647H388.318C389.357 236.647 390.207 237.497 390.207 238.536V277.306C390.207 278.392 389.357 279.195 388.318 279.195Z" fill="white"/>
<path d="M388.318 279.195H337.554C336.515 279.195 335.665 278.345 335.665 277.306V238.536C335.665 237.497 336.515 236.647 337.554 236.647H388.318C389.357 236.647 390.207 237.497 390.207 238.536V277.306C390.207 278.392 389.357 279.195 388.318 279.195Z" stroke="#1F3969" stroke-width="2.10112" stroke-miterlimit="10" stroke-linecap="round" stroke-linejoin="round"/>
<g opacity="0.3">
<g opacity="0.3">
<path opacity="0.3" d="M374.246 268.003V268.712H373.538" stroke="#1F3969" stroke-width="1.05056" stroke-linejoin="round"/>
<path opacity="0.3" d="M372.641 268.712H352.854" stroke="#1F3969" stroke-width="1.05056" stroke-linejoin="round" stroke-dasharray="1.5 1.5"/>
<path opacity="0.3" d="M352.382 268.712H351.674V268.003" stroke="#1F3969" stroke-width="1.05056" stroke-linejoin="round"/>
<path opacity="0.3" d="M351.674 267.012V248.595" stroke="#1F3969" stroke-width="1.05056" stroke-linejoin="round" stroke-dasharray="1.58 1.58"/>
<path opacity="0.3" d="M351.674 248.123V247.414H352.383" stroke="#1F3969" stroke-width="1.05056" stroke-linejoin="round"/>
<path opacity="0.3" d="M353.279 247.414H373.065" stroke="#1F3969" stroke-width="1.05056" stroke-linejoin="round" stroke-dasharray="1.5 1.5"/>
<path opacity="0.3" d="M373.538 247.414H374.246V248.122" stroke="#1F3969" stroke-width="1.05056" stroke-linejoin="round"/>
<path opacity="0.3" d="M374.246 249.067V267.531" stroke="#1F3969" stroke-width="1.05056" stroke-linejoin="round" stroke-dasharray="1.58 1.58"/>
</g>
</g>
<path d="M353.467 245.76H350.114V249.113H353.467V245.76Z" fill="white"/>
<path d="M353.279 245.62H349.974V248.925H353.279V245.62Z" stroke="#1F3969" stroke-width="0.525279" stroke-miterlimit="10" stroke-linejoin="round"/>
<path d="M353.467 267.011H350.114V270.364H353.467V267.011Z" fill="white"/>
<path d="M353.279 266.917H349.974V270.223H353.279V266.917Z" stroke="#1F3969" stroke-width="0.525279" stroke-miterlimit="10" stroke-linejoin="round"/>
<path d="M375.947 245.76H372.594V249.113H375.947V245.76Z" fill="white"/>
<path d="M375.899 245.62H372.594V248.925H375.899V245.62Z" stroke="#1F3969" stroke-width="0.525279" stroke-miterlimit="10" stroke-linejoin="round"/>
<path d="M375.947 267.011H372.594V270.364H375.947V267.011Z" fill="white"/>
<path d="M375.899 266.917H372.594V270.223H375.899V266.917Z" stroke="#1F3969" stroke-width="0.525279" stroke-miterlimit="10" stroke-linejoin="round"/>
<path d="M321.262 258.228L324.615 265.406L327.873 267.106L330.14 264.839L328.487 261.534L321.262 258.228Z" fill="white"/>
<path d="M321.262 258.228L324.615 265.406L327.873 267.106L330.14 264.839L328.487 261.534L321.262 258.228Z" stroke="#1F3969" stroke-width="0.525279" stroke-miterlimit="10" stroke-linejoin="round"/>
<path d="M325.512 263.187C326.008 263.187 326.41 262.785 326.41 262.289C326.41 261.794 326.008 261.392 325.512 261.392C325.017 261.392 324.615 261.794 324.615 262.289C324.615 262.785 325.017 263.187 325.512 263.187Z" fill="#1F3969"/>
<path d="M321.262 258.228L324.993 261.959" stroke="#1F3969" stroke-width="0.525279" stroke-miterlimit="10" stroke-linecap="round" stroke-linejoin="round"/>
<path d="M330.154 264.802L327.884 267.073L329.52 268.709L331.79 266.438L330.154 264.802Z" fill="white"/>
<path d="M330.154 264.802L327.884 267.073L329.52 268.709L331.79 266.438L330.154 264.802Z" stroke="#1F3969" stroke-width="0.525279" stroke-miterlimit="10" stroke-linejoin="round"/>
<path d="M437.876 304.053H409.11C406.759 304.053 404.835 302.129 404.835 299.778V242.117C404.835 239.766 406.759 237.843 409.11 237.843H437.876C440.227 237.843 442.151 239.766 442.151 242.117V299.778C442.151 302.172 440.227 304.053 437.876 304.053Z" fill="white"/>
<path d="M442.749 257.718H404.835V242.031C404.835 239.723 406.716 237.843 409.024 237.843H438.304C440.74 237.843 442.706 239.851 442.706 242.245V257.718H442.749Z" fill="#FE5070"/>
<path d="M437.876 304.053H409.11C406.759 304.053 404.835 302.129 404.835 299.778V242.117C404.835 239.766 406.759 237.843 409.11 237.843H437.876C440.227 237.843 442.151 239.766 442.151 242.117V299.778C442.151 302.172 440.227 304.053 437.876 304.053Z" stroke="#1F3969" stroke-width="1.70975" stroke-miterlimit="10" stroke-linecap="round" stroke-linejoin="round"/>
<path d="M437.919 304.053H409.238C406.801 304.053 404.792 302.044 404.792 299.607V291.401H442.151V299.821C442.151 302.172 440.227 304.053 437.919 304.053Z" fill="#BECCD5"/>
<path d="M438.004 304.053H409.238C406.801 304.053 404.792 302.044 404.792 299.607V291.401H442.151V299.907C442.151 302.215 440.27 304.053 438.004 304.053Z" stroke="#1F3969" stroke-width="1.70975" stroke-miterlimit="10" stroke-linecap="round" stroke-linejoin="round"/>
<path d="M423.771 299.607C424.951 299.607 425.908 298.65 425.908 297.47C425.908 296.29 424.951 295.333 423.771 295.333C422.59 295.333 421.634 296.29 421.634 297.47C421.634 298.65 422.59 299.607 423.771 299.607Z" fill="#1F3969"/>
<path opacity="0.3" d="M413.256 264.344H434.329" stroke="#1F3969" stroke-width="1.70975" stroke-miterlimit="10" stroke-linecap="round" stroke-linejoin="round"/>
<path opacity="0.3" d="M417.445 270.969H430.695" stroke="#1F3969" stroke-width="1.70975" stroke-miterlimit="10" stroke-linecap="round" stroke-linejoin="round"/>
<path opacity="0.3" d="M413.256 276.996H434.329" stroke="#1F3969" stroke-width="1.70975" stroke-miterlimit="10" stroke-linecap="round" stroke-linejoin="round"/>
<path opacity="0.62" d="M423.77 254.085C426.414 254.085 428.558 251.942 428.558 249.298C428.558 246.654 426.414 244.511 423.77 244.511C421.127 244.511 418.983 246.654 418.983 249.298C418.983 251.942 421.127 254.085 423.77 254.085Z" fill="white"/>
<path d="M430.696 283.621C430.696 284.946 429.627 286.015 428.302 286.015H419.283C417.958 286.015 416.889 284.946 416.889 283.621C416.889 282.296 417.958 281.228 419.283 281.228H428.302C429.627 281.185 430.696 282.253 430.696 283.621Z" fill="#8464EB"/>
<path d="M466.512 286.104H432.06C431.633 286.104 431.248 286.232 430.949 286.531L422.614 293.798C421.845 294.482 421.845 295.679 422.614 296.32L430.949 303.714C431.248 303.971 431.633 304.227 432.06 304.227H466.512C468.478 304.227 470.102 302.432 470.102 300.466V289.566C470.06 287.686 468.478 286.104 466.512 286.104ZM431.12 297.175C429.966 297.175 428.983 296.234 428.983 295.037C428.983 293.841 429.923 292.9 431.12 292.9C432.317 292.9 433.257 293.841 433.257 295.037C433.257 296.234 432.317 297.175 431.12 297.175Z" fill="white"/>
<path d="M450.013 286.104H439.968V304.27H450.013V286.104Z" fill="#CBBAFF"/>
<path d="M460.057 286.104H450.013V304.27H460.057V286.104Z" fill="#B49CFF"/>
<path d="M465.614 304.27H460.057V286.104H465.785C468.136 286.104 470.102 288.027 470.102 290.421V299.825C470.059 302.261 468.05 304.27 465.614 304.27Z" fill="#8464EB"/>
<path opacity="0.4" d="M467.452 287.002C467.281 286.959 467.11 286.959 466.939 286.959H432.488C432.06 286.959 431.675 287.087 431.376 287.386L423.041 294.653C422.272 295.337 422.272 296.534 423.041 297.175L428.256 301.748L433.898 303.159C434.155 303.244 434.454 303.244 434.753 303.244C435.309 303.244 435.822 303.116 436.334 302.86L467.025 287.215C467.153 287.173 467.324 287.087 467.452 287.002ZM431.547 298.03C430.393 298.03 429.41 297.089 429.41 295.892C429.41 294.696 430.35 293.755 431.547 293.755C432.744 293.755 433.684 294.696 433.684 295.892C433.684 297.089 432.744 298.03 431.547 298.03Z" fill="#848484"/>
<path d="M466.512 286.104H432.06C431.633 286.104 431.248 286.232 430.949 286.531L422.614 293.798C421.845 294.482 421.845 295.679 422.614 296.32L430.949 303.714C431.248 303.971 431.633 304.227 432.06 304.227H466.512C468.478 304.227 470.102 302.432 470.102 300.466V289.566C470.06 287.686 468.478 286.104 466.512 286.104ZM431.12 297.175C429.966 297.175 428.983 296.234 428.983 295.037C428.983 293.841 429.923 292.9 431.12 292.9C432.317 292.9 433.257 293.841 433.257 295.037C433.257 296.234 432.317 297.175 431.12 297.175Z" stroke="#1F3969" stroke-width="1.70975" stroke-miterlimit="10" stroke-linecap="round" stroke-linejoin="round"/>
<path d="M450.013 286.104H439.968V304.27H450.013V286.104Z" stroke="#1F3969" stroke-width="1.70975" stroke-miterlimit="10" stroke-linecap="round" stroke-linejoin="round"/>
<path d="M460.057 286.104H450.013V304.27H460.057V286.104Z" stroke="#1F3969" stroke-width="1.70975" stroke-miterlimit="10" stroke-linecap="round" stroke-linejoin="round"/>
<path d="M465.614 304.27H460.057V286.104H465.785C468.136 286.104 470.102 288.027 470.102 290.421V299.825C470.059 302.261 468.05 304.27 465.614 304.27Z" stroke="#1F3969" stroke-width="1.70975" stroke-miterlimit="10" stroke-linecap="round" stroke-linejoin="round"/>
<path d="M457.621 268.836L426.931 284.48C426.546 284.651 426.29 284.993 426.119 285.377L422.015 295.636C421.63 296.576 422.186 297.645 423.169 297.901L433.898 300.637C434.283 300.722 434.71 300.68 435.095 300.509L465.785 284.864C467.537 283.967 468.221 281.83 467.324 280.12L462.365 270.417C461.468 268.622 459.331 267.938 457.621 268.836Z" fill="white"/>
<path d="M451.84 271.764L442.892 276.329L451.051 292.321L459.999 287.756L451.84 271.764Z" fill="#FF849A"/>
<path d="M457.621 268.836L426.931 284.48C426.546 284.651 426.29 284.993 426.119 285.377L422.015 295.636C421.63 296.576 422.186 297.645 423.169 297.901L433.898 300.637C434.283 300.722 434.71 300.68 435.095 300.509L465.785 284.864C467.537 283.967 468.221 281.83 467.324 280.12L462.365 270.417C461.468 268.622 459.331 267.938 457.621 268.836Z" stroke="#1F3969" stroke-width="1.70975" stroke-miterlimit="10" stroke-linecap="round" stroke-linejoin="round"/>
<path d="M430.179 295.379C431.548 295.379 432.658 294.27 432.658 292.9C432.658 291.531 431.548 290.421 430.179 290.421C428.81 290.421 427.7 291.531 427.7 292.9C427.7 294.27 428.81 295.379 430.179 295.379Z" fill="#1F3969"/>
<path d="M442.872 276.352L433.925 280.918L442.084 296.91L451.032 292.344L442.872 276.352Z" fill="#FFB9C6" stroke="#1F3969" stroke-width="1.70975" stroke-miterlimit="10" stroke-linecap="round" stroke-linejoin="round"/>
<path d="M442.872 276.352L433.925 280.918L442.084 296.91L451.032 292.344L442.872 276.352Z" stroke="#1F3969" stroke-width="1.70975" stroke-miterlimit="10" stroke-linecap="round" stroke-linejoin="round"/>
<path d="M451.84 271.764L442.892 276.329L451.051 292.321L459.999 287.756L451.84 271.764Z" stroke="#1F3969" stroke-width="1.70975" stroke-miterlimit="10" stroke-linecap="round" stroke-linejoin="round"/>
<path d="M465.101 285.164L459.972 287.771L451.808 271.785L456.937 269.178C459.031 268.109 461.596 268.921 462.707 271.058L466.982 279.436C468.05 281.53 467.195 284.095 465.101 285.164Z" fill="#6567C3"/>
<path d="M465.101 285.164L459.972 287.771L451.808 271.785L456.937 269.178C459.031 268.109 461.596 268.921 462.707 271.058L466.982 279.436C468.05 281.53 467.195 284.095 465.101 285.164Z" fill="#FE5070" stroke="#1F3969" stroke-width="1.70975" stroke-miterlimit="10" stroke-linecap="round" stroke-linejoin="round"/>
<rect width="183.112" height="173.786" rx="6.53107" transform="matrix(1 0 0 -1 380.888 202.99)" fill="#004789"/>
<rect width="183.112" height="173.786" rx="6.53107" transform="matrix(1 0 0 -1 379 205)" fill="#00A0B0"/>
<path fill-rule="evenodd" clip-rule="evenodd" d="M473.95 4.13604C473.152 3.22251 470.119 1.46397 464.371 1.73803C457.187 2.0806 437.003 5.84891 430.161 21.9498C426.825 27.9877 424.692 31.954 423.149 34.8244C420.576 39.6084 419.641 41.348 417.503 44.5597C417.369 44.7607 417.223 44.9779 417.067 45.2109C413.224 50.9342 403.006 66.1534 408.266 83.2704C407.088 84.3491 405.85 85.4211 404.6 86.5041C393.141 96.4277 380.618 107.274 403.134 132.601C402.637 134.45 401.772 136.727 400.794 139.297C397.064 149.109 391.71 163.194 399.029 174.052C401.388 177.551 403.211 180.447 404.687 182.792C406.284 185.328 407.474 187.219 408.496 188.528L409.636 204.647H414.918H539.575H543.273V177.297C543.273 167.514 539.189 160.012 533.308 154.302C537.633 152.835 542.16 148.037 542.714 124.037C547.845 124.037 550.844 114.445 550.844 106.908C550.844 95.2605 543.74 88.0664 534.503 85.6684C538.95 72.9932 532.108 60.6606 528.687 55.8646C527.656 54.1089 526.935 50.1428 526.057 45.3084C524.023 34.1063 521.141 18.242 511.582 14.4132C508.218 13.0659 505.554 10.7323 502.868 8.3796C496.522 2.82122 490.055 -2.84407 473.95 4.13604ZM428.123 73.112C428.121 73.463 428.121 73.8159 428.123 74.1708V73.112Z" fill="#004789" fill-opacity="0.5"/>
<rect x="426.891" y="91.4928" width="81.6962" height="75.4364" fill="#4E281E"/>
<path d="M435.518 140.491C438.476 139.363 447.197 138.964 451.188 138.905H494.501C499.431 138.905 509.432 141.866 510.7 143.135C512.284 144.721 487.283 177.152 469.676 177.152C452.069 177.152 431.821 141.901 435.518 140.491Z" fill="#EDB98A"/>
<path fill-rule="evenodd" clip-rule="evenodd" d="M488.515 132.458C482.859 135.123 476.532 136.614 469.853 136.614C463.035 136.614 456.582 135.06 450.836 132.289V116.345H488.515V132.458Z" fill="#D5A77E"/>
<rect x="450.836" y="117.755" width="37.6789" height="25.733" fill="#EDB98A"/>
<path d="M469.852 131.855C493.676 131.855 512.989 112.522 512.989 88.6728V51.4834C510.172 47.077 497.6 38.2644 469.852 38.2644C442.103 38.2644 429.532 47.077 426.715 51.4834V88.6728C426.715 112.522 446.028 131.855 469.852 131.855Z" fill="#EDB98A"/>
<path fill-rule="evenodd" clip-rule="evenodd" d="M450.836 138.774V137.714C452.523 139.918 455.11 142.806 458.131 145.291C461.682 148.212 465.778 150.532 469.681 150.6C473.577 150.669 477.668 148.383 481.219 145.441C484.24 142.939 486.828 139.996 488.515 137.74V138.815C486.812 140.997 484.404 143.651 481.635 145.944C478.052 148.913 473.806 151.326 469.67 151.253C465.54 151.181 461.299 148.743 457.716 145.795C454.947 143.517 452.539 140.909 450.836 138.774Z" fill="#001F47"/>
<path d="M467.31 153.429C467.418 153.478 467.509 153.561 467.594 153.644C467.748 153.808 467.887 153.989 468.015 154.171C468.186 153.881 468.356 153.59 468.526 153.294C468.42 153.163 468.314 153.038 468.188 152.927C467.96 152.727 467.831 152.649 467.568 152.737C467.379 152.801 466.463 153.1 466.628 153.421C466.7 153.587 467.156 153.364 467.31 153.429Z" fill="#001F47" fill-opacity="0.5"/>
<path d="M469.49 155.835C469.554 155.724 469.619 155.614 469.678 155.504C469.705 155.457 469.727 155.406 469.755 155.359C469.664 155.069 469.442 154.777 469.3 154.514C469.143 154.215 468.976 153.927 468.783 153.654C468.776 153.638 468.764 153.628 468.757 153.613C468.67 153.769 468.584 153.931 468.496 154.082C468.414 154.227 468.325 154.368 468.237 154.508C468.595 155.058 468.912 155.63 469.24 156.2L469.246 156.204C469.259 156.181 469.274 156.163 469.293 156.139C469.359 156.045 469.43 155.939 469.49 155.835Z" fill="#001F47" fill-opacity="0.5"/>
<path d="M469.477 151.797C469.487 151.686 469.521 151.645 469.58 151.584C469.689 151.48 469.81 151.396 469.945 151.327C469.966 151.319 469.981 151.306 469.997 151.305C470.056 151.293 470.119 151.33 470.152 151.381C470.549 151.982 470.816 152.749 471.146 153.395C471.298 153.695 471.456 154 471.607 154.3C471.677 154.439 471.957 155.173 472.076 155.171C472.152 155.168 472.212 155.118 472.273 155.079C472.426 154.98 472.677 154.877 472.639 155.138C472.622 155.281 472.366 155.434 472.261 155.522C472.175 155.591 471.544 156.007 471.454 155.979C471.426 155.971 471.412 155.945 471.394 155.925C471.046 155.428 470.887 154.753 470.622 154.203C470.313 153.555 469.962 152.922 469.596 152.302C469.584 152.287 469.576 152.266 469.564 152.251C469.496 152.127 469.461 151.951 469.477 151.797Z" fill="#001F47" fill-opacity="0.5"/>
<path d="M469.478 151.796C469.483 151.735 469.495 151.696 469.513 151.661C469.15 152.087 468.95 152.567 468.669 153.049C468.401 153.503 468.139 153.957 467.872 154.41C467.645 154.794 467.424 155.167 467.192 155.552C467.099 155.703 466.91 155.974 466.846 156.494C466.804 156.869 467.63 155.472 467.774 155.233C468.017 154.853 468.265 154.472 468.49 154.082C468.707 153.716 468.896 153.336 469.106 152.959C469.299 152.617 469.486 152.378 469.562 152.223C469.495 152.105 469.466 151.939 469.478 151.796Z" fill="#001F47" fill-opacity="0.5"/>
<path d="M471.145 153.395C471.186 153.472 471.227 153.55 471.263 153.628C471.542 153.184 471.823 152.745 472.127 152.33C472.146 152.307 472.16 152.283 472.162 152.25C472.16 152.174 472.039 152.171 471.979 152.221C471.812 152.342 471.626 152.384 471.468 152.532C471.299 152.692 471.173 152.891 471.053 153.089C471.044 153.106 471.035 153.123 471.02 153.141C471.062 153.23 471.104 153.312 471.145 153.395Z" fill="#001F47" fill-opacity="0.5"/>
<path d="M470.633 154.202C470.599 154.135 470.57 154.067 470.535 153.995C470.507 154.041 470.48 154.093 470.452 154.14C470.383 154.256 470.319 154.378 470.25 154.494C470.181 154.611 470.111 154.727 470.042 154.844C470.019 154.884 469.991 154.925 469.968 154.966C469.945 155.007 469.926 155.036 469.894 155.088C469.88 155.112 469.861 155.141 469.848 155.17C469.794 155.279 469.735 155.389 469.676 155.499C469.617 155.609 469.552 155.719 469.488 155.83C469.423 155.935 469.357 156.04 469.286 156.14C469.273 156.163 469.258 156.181 469.239 156.205C469.277 156.261 469.306 156.269 469.347 156.254C469.39 156.244 469.424 156.207 469.454 156.177C469.943 155.655 470.349 155.067 470.742 154.458C470.711 154.374 470.674 154.285 470.633 154.202Z" fill="#001F47" fill-opacity="0.5"/>
<path d="M467.309 153.115C467.418 153.164 467.509 153.246 467.594 153.33C467.747 153.493 467.887 153.675 468.015 153.857C468.186 153.566 468.356 153.276 468.526 152.979C468.42 152.849 468.314 152.724 468.188 152.612C467.959 152.413 467.831 152.334 467.568 152.423C467.379 152.486 466.463 152.786 466.627 153.107C466.7 153.273 467.155 153.05 467.309 153.115Z" fill="#00A0B0"/>
<path d="M469.489 155.521C469.554 155.41 469.618 155.3 469.677 155.19C469.705 155.143 469.727 155.092 469.755 155.045C469.664 154.755 469.442 154.463 469.3 154.2C469.142 153.9 468.976 153.613 468.783 153.339C468.776 153.324 468.764 153.314 468.757 153.299C468.67 153.455 468.584 153.617 468.496 153.768C468.414 153.913 468.325 154.054 468.236 154.194C468.595 154.744 468.912 155.315 469.239 155.885L469.245 155.89C469.259 155.867 469.274 155.849 469.293 155.825C469.359 155.731 469.43 155.625 469.489 155.521Z" fill="#00A0B0"/>
<path d="M469.477 151.482C469.487 151.372 469.521 151.33 469.58 151.27C469.689 151.165 469.81 151.081 469.945 151.012C469.966 151.005 469.981 150.992 469.997 150.991C470.056 150.979 470.119 151.016 470.152 151.067C470.549 151.667 470.816 152.435 471.146 153.081C471.298 153.381 471.456 153.685 471.607 153.985C471.677 154.125 471.957 154.858 472.076 154.856C472.152 154.854 472.212 154.804 472.273 154.764C472.426 154.666 472.677 154.563 472.639 154.823C472.622 154.967 472.366 155.12 472.261 155.207C472.175 155.276 471.544 155.693 471.454 155.665C471.426 155.657 471.412 155.631 471.394 155.611C471.046 155.114 470.887 154.439 470.622 153.889C470.313 153.241 469.962 152.608 469.596 151.987C469.584 151.972 469.576 151.951 469.564 151.936C469.496 151.813 469.461 151.637 469.477 151.482Z" fill="#00A0B0"/>
<path d="M469.478 151.482C469.482 151.421 469.495 151.382 469.513 151.347C469.149 151.773 468.95 152.252 468.669 152.735C468.401 153.189 468.139 153.642 467.871 154.096C467.645 154.48 467.423 154.853 467.192 155.238C467.099 155.389 466.91 155.66 466.845 156.18C466.804 156.555 467.63 155.158 467.774 154.919C468.016 154.539 468.265 154.158 468.49 153.768C468.707 153.402 468.896 153.022 469.106 152.645C469.298 152.302 469.486 152.064 469.562 151.909C469.495 151.791 469.466 151.625 469.478 151.482Z" fill="#004789"/>
<path d="M471.145 153.081C471.186 153.158 471.227 153.236 471.262 153.314C471.542 152.869 471.822 152.43 472.127 152.016C472.146 151.992 472.16 151.969 472.162 151.936C472.159 151.86 472.039 151.857 471.979 151.907C471.812 152.028 471.626 152.07 471.467 152.218C471.299 152.378 471.173 152.576 471.053 152.775C471.043 152.792 471.034 152.809 471.02 152.827C471.062 152.915 471.104 152.998 471.145 153.081Z" fill="#004789"/>
<path d="M470.633 153.888C470.598 153.821 470.569 153.753 470.534 153.681C470.507 153.727 470.479 153.779 470.452 153.826C470.382 153.942 470.319 154.063 470.25 154.18C470.18 154.296 470.111 154.413 470.042 154.529C470.019 154.57 469.99 154.611 469.968 154.652C469.945 154.692 469.926 154.722 469.893 154.774C469.88 154.797 469.861 154.827 469.848 154.855C469.794 154.965 469.735 155.075 469.676 155.185C469.616 155.294 469.552 155.405 469.487 155.515C469.422 155.621 469.357 155.726 469.286 155.826C469.272 155.849 469.258 155.867 469.239 155.891C469.277 155.947 469.305 155.955 469.347 155.939C469.39 155.929 469.424 155.893 469.453 155.863C469.943 155.341 470.349 154.753 470.742 154.144C470.711 154.06 470.674 153.971 470.633 153.888Z" fill="#004789"/>
<path opacity="0.2" d="M413.51 176.875C413.51 147.78 431.658 139.86 440.898 139.699C440.621 141.477 443.188 147.554 454.343 156.347C466.46 166.692 466.46 168.632 469.946 168.632C473.431 168.632 487.374 154.892 492.022 148.912C495.74 144.127 496.67 140.13 496.67 138.729C510.502 141.369 538.167 152.694 538.167 176.875V205H413.51V176.875Z" fill="#25557C"/>
<path d="M406.467 180.104C406.467 148.547 428.886 139.956 438.687 139.781C438.394 141.709 441.117 148.301 452.949 157.839C465.802 169.059 465.802 171.163 469.499 171.163C473.197 171.163 487.987 156.261 492.917 149.774C496.861 144.584 497.847 140.248 497.847 138.729C512.519 141.592 541.864 151.422 541.864 177.65V205H408.227L406.467 180.104Z" fill="#000813"/>
<path d="M460.344 105.769C460.755 107.591 463.232 111.233 469.852 111.233C476.472 111.233 478.949 107.591 479.359 105.769" stroke="#633724" stroke-width="3.26553" stroke-linecap="round"/>
<path d="M470.204 111.057C463.584 111.057 461.107 107.414 460.696 105.593H479.712C479.301 107.414 476.824 111.057 470.204 111.057Z" fill="#633724" stroke="#633724" stroke-width="3.26553" stroke-linecap="round" stroke-linejoin="round"/>
<path d="M469.532 94.9648C472.781 94.9648 475.473 92.7615 475.954 89.8836C476.038 89.3786 475.615 88.9606 475.103 88.9606H469.532H463.961C463.449 88.9606 463.026 89.3786 463.111 89.8836C463.591 92.7615 466.283 94.9648 469.532 94.9648Z" fill="#C19772"/>
<ellipse opacity="0.08" cx="493.973" cy="99.7768" rx="7.92312" ry="7.9314" fill="#FE5070"/>
<ellipse opacity="0.08" cx="445.026" cy="99.7768" rx="7.92312" ry="7.9314" fill="#FE5070"/>
<path fill-rule="evenodd" clip-rule="evenodd" d="M438.335 75.9826C438.335 76.6717 439.23 76.7402 439.733 76.2685C440.497 75.5511 441.538 74.9545 442.762 74.5354C442.478 75.1318 442.319 75.7992 442.319 76.5038C442.319 79.0347 444.369 81.0864 446.897 81.0864C449.425 81.0864 451.475 79.0347 451.475 76.5038C451.475 75.7787 451.307 75.0929 451.007 74.4835C452.299 74.9045 453.396 75.5209 454.192 76.2685C454.694 76.7402 455.59 76.6718 455.59 75.9826C455.59 73.0623 451.727 70.695 446.962 70.695C442.198 70.695 438.335 73.0623 438.335 75.9826Z" fill="#633724"/>
<path d="M435.464 63.272C435.063 64.0799 435.393 65.0595 436.201 65.4601C437.009 65.8607 437.989 65.5306 438.389 64.7227L435.464 63.272ZM456.902 60.3803C457.769 60.628 458.673 60.1258 458.921 59.2588C459.168 58.3917 458.666 57.488 457.799 57.2404L456.902 60.3803ZM438.389 64.7227C439.592 62.2964 445.054 56.9959 456.902 60.3803L457.799 57.2404C444.628 53.4782 437.452 59.2625 435.464 63.272L438.389 64.7227Z" fill="#633724"/>
<path fill-rule="evenodd" clip-rule="evenodd" d="M483.704 75.9826C483.704 76.6717 484.599 76.7402 485.102 76.2685C485.866 75.5511 486.906 74.9545 488.131 74.5354C487.847 75.1318 487.688 75.7992 487.688 76.5038C487.688 79.0347 489.738 81.0864 492.266 81.0864C494.794 81.0864 496.844 79.0347 496.844 76.5038C496.844 75.7787 496.675 75.0929 496.376 74.4835C497.668 74.9045 498.764 75.5209 499.561 76.2685C500.063 76.7402 500.958 76.6718 500.958 75.9826C500.958 73.0623 497.096 70.695 492.331 70.695C487.566 70.695 483.704 73.0623 483.704 75.9826Z" fill="#633724"/>
<path d="M481.449 57.2042C480.698 57.7034 480.494 58.7172 480.993 59.4686C481.493 60.22 482.506 60.4244 483.256 59.9252L481.449 57.2042ZM501.459 65.431C502.086 66.0794 503.119 66.0965 503.766 65.4692C504.414 64.8419 504.431 63.8079 503.804 63.1595L501.459 65.431ZM483.256 59.9252C485.51 58.4263 492.887 56.5691 501.459 65.431L503.804 63.1595C494.277 53.3095 485.173 54.7268 481.449 57.2042L483.256 59.9252Z" fill="#633724"/>
<path opacity="0.1" d="M477.423 76.6876C477.423 69.0949 475.316 66.1124 469.676 66.1124C464.036 66.1124 462.281 69.0949 462.281 76.6876M422.137 69.2849H430.236M509.643 69.2849H516.51" stroke="#000813" stroke-width="3.26553" stroke-linecap="round" stroke-linejoin="round"/>
<path d="M462.281 75.2775C462.281 67.6848 464.036 64.7023 469.676 64.7023C475.316 64.7023 477.423 67.6848 477.423 75.2775M422.137 67.8749H430.236M508.939 67.8749H516.51" stroke="#000813" stroke-width="3.26553" stroke-linecap="round" stroke-linejoin="round"/>
<path opacity="0.2" d="M462.409 76.6876C462.409 85.911 454.94 93.3851 445.73 93.3851C436.521 93.3851 429.052 85.911 429.052 76.6876C429.052 67.4641 436.521 59.99 445.73 59.99C454.94 59.99 462.409 67.4641 462.409 76.6876Z" stroke="#000813" stroke-width="3.26553"/>
<path opacity="0.2" d="M510.652 76.6876C510.652 85.911 503.183 93.3851 493.973 93.3851C484.763 93.3851 477.295 85.911 477.295 76.6876C477.295 67.4641 484.763 59.99 493.973 59.99C503.183 59.99 510.652 67.4641 510.652 76.6876Z" stroke="#000813" stroke-width="3.26553"/>
<path d="M462.409 75.2775C462.409 84.501 454.94 91.9751 445.73 91.9751C436.521 91.9751 429.052 84.501 429.052 75.2775C429.052 66.0541 436.521 58.58 445.73 58.58C454.94 58.58 462.409 66.0541 462.409 75.2775Z" stroke="#000813" stroke-width="3.26553"/>
<path d="M510.652 75.2775C510.652 84.501 503.183 91.9751 493.973 91.9751C484.763 91.9751 477.295 84.501 477.295 75.2775C477.295 66.0541 484.763 58.58 493.973 58.58C503.183 58.58 510.652 66.0541 510.652 75.2775Z" stroke="#000813" stroke-width="3.26553"/>
<path d="M467.267 42.2024C453.899 52.0685 435.602 54.9048 427.595 55.4757L426.715 49.3683H427.595C449.251 52.0121 468.443 34.7393 472.317 34.9155C476.19 35.0918 481.296 40.2031 482.529 42.2024C483.761 44.2016 493.797 46.1958 503.129 47.6058C512.46 49.0158 513.165 51.8359 512.284 52.7171C511.58 53.4221 508.018 53.8737 506.325 54.0113C496.578 55.7242 495.827 50.6797 485.035 50.3371C474.243 49.9946 474.926 35.3509 467.267 42.2024Z" fill="#C19772"/>
<path d="M462.963 2.09054C468.71 1.81648 471.743 3.57502 472.542 4.48855C495.463 -5.44607 498.862 10.2353 510.173 14.7657C523.857 20.2469 523.857 50.3934 527.279 56.2171C530.7 61.0131 537.542 73.3457 533.094 86.021C542.331 88.419 549.435 95.613 549.435 107.261C549.435 114.797 546.436 124.389 541.305 124.389C540.279 168.924 525.568 147.342 523.857 161.045C526.252 189.136 538.568 182.627 537.542 190.848C534.463 198.385 512.91 199.413 497.515 190.848C470.556 170.637 497.515 142.606 501.544 132.953C503.664 127.874 501.21 122.471 505.042 114.797C511.063 106.027 514.055 75.8063 512.461 63.8211C511.835 59.1197 513.785 50.6418 506.122 52.0121C496.543 53.725 495.805 48.6805 485.199 48.3379C474.594 47.9953 475.265 33.3517 467.739 40.2031C454.602 50.0693 436.62 52.9056 428.752 53.4765C426.813 65.124 423.834 85.4239 433.745 108.101C440.401 123.33 439.357 131.241 439.357 137.407C439.357 146.314 424.989 149.74 422.936 158.304C426.015 174.747 437.989 166.183 439.357 170.637C430.463 176.46 422.936 170.637 419.857 167.896C420.884 177.145 425.673 174.405 422.936 176.46C416.915 175.912 415.866 170.522 416.094 167.896C414.726 168.124 411.989 170.157 411.989 176.46C411.989 184.339 416.094 187.765 411.989 190.848C407.884 192.561 406.857 188.108 397.62 174.405C388.384 160.702 399.331 141.86 401.726 132.953C376.752 104.863 394.884 94.5853 406.857 83.6229C401.384 65.8091 412.673 50.0508 416.094 44.9122C419.515 39.7736 419.857 38.4033 428.752 22.3024C435.594 6.20142 455.778 2.43311 462.963 2.09054Z" fill="#633724"/>
<path d="M462.105 31.2142C459.053 35.5618 450.977 43.9045 443.089 42.4944M462.105 17.4665C460.461 21.344 455.062 29.5222 446.61 31.2142M483.233 31.2142C483.233 34.1518 484.994 39.8859 492.036 39.3219M497.318 31.2142C499.314 35.3268 505.066 42.7059 512.108 39.3219M489.924 17.4665C495.44 17.584 506.826 19.5815 508.235 26.6316M529.011 91.1403C524.668 91.6103 516.123 95.3704 516.686 106.651M534.997 101.716C538.167 102.538 543.871 105.875 541.336 112.643M532.884 112.643C528.072 112.291 518.095 114.758 516.686 127.449M530.772 130.269C529.48 135.909 523.94 146.413 512.108 143.311M505.77 156.354C503.774 159.174 505.347 165.308 512.108 171.512C520.56 179.267 518.095 175.742 522.32 186.67M501.544 177.857C504.361 178.327 510.418 180.747 512.108 186.67M408.932 95.0179C402.945 97.7205 393.297 106.933 402.593 122.161M419.848 51.3071C415.74 55.0672 408.579 66.3239 412.805 81.2701M418.087 89.0253C419.613 95.2529 419.918 108.695 408.932 112.643M427.243 106.651C426.538 110.293 422.876 118.213 413.861 120.751M406.467 143.311C403.532 147.541 398.156 158.187 400.128 166.929M408.932 127.449C408.579 128.859 409.565 132.595 416.326 136.261C423.088 139.927 425.013 144.604 425.13 146.484M430.412 120.751C432.173 123.571 434.638 130.621 430.412 136.261M413.861 150.714C410.927 152.241 405.833 156.918 408.932 163.404M404.706 171.512C404.471 175.624 404.988 182.299 408.932 184.555M520.56 59.4147C523.025 63.9973 526.828 75.348 522.32 84.0902M450.132 15.7039C443.911 16.879 431.68 23.2476 432.525 39.3219" stroke="#4E281E" stroke-width="1.30621" stroke-linecap="round"/>
</svg>
