<svg width="564" height="310" viewBox="0 0 564 310" fill="none" xmlns="http://www.w3.org/2000/svg">
<rect width="183.174" height="173.663" rx="7.04517" transform="matrix(1 0 0 -1 380.825 201.949)" fill="#004789"/>
<rect width="183.174" height="173.663" rx="7.04517" transform="matrix(1 0 0 -1 378.937 203.958)" fill="#00A0B0"/>
<path fill-rule="evenodd" clip-rule="evenodd" d="M473.92 3.23511C473.121 2.32222 470.087 0.564915 464.337 0.838781C457.151 1.18111 436.96 4.94677 430.115 21.0364C426.778 27.07 424.645 31.0335 423.101 33.9019C420.528 38.6825 419.592 40.4209 417.453 43.6303C417.319 43.8311 417.173 44.0482 417.017 44.281C413.173 50.0003 402.952 65.2088 408.213 82.3138C407.034 83.3917 405.796 84.463 404.545 85.5452C393.083 95.4618 380.555 106.301 403.08 131.61C402.582 133.457 401.716 135.733 400.739 138.301C397.007 148.106 391.651 162.181 398.973 173.032C401.332 176.528 403.156 179.422 404.633 181.765C406.23 184.3 407.421 186.189 408.443 187.498L409.584 203.605L414.867 203.605H539.567L543.266 203.605V176.275C543.266 166.498 539.181 159.001 533.297 153.295C537.624 151.83 542.153 147.035 542.706 123.051C547.839 123.051 550.839 113.466 550.839 105.935C550.839 94.2955 543.733 87.1065 534.493 84.7101C538.942 72.0439 532.097 59.7199 528.675 54.9272C527.643 53.1728 526.923 49.2095 526.044 44.3785C524.009 33.1843 521.126 17.3312 511.564 13.5051C508.199 12.1587 505.534 9.82675 502.847 7.47568C496.499 1.92121 490.029 -3.74009 473.92 3.23511ZM428.077 72.1324C428.075 72.5029 428.075 72.8756 428.077 73.2506V72.1324Z" fill="#004789" fill-opacity="0.5"/>
<rect x="426.844" y="90.5304" width="81.724" height="75.3833" fill="#4E281E"/>
<path d="M435.474 139.494C438.433 138.367 447.158 137.968 451.15 137.909H494.478C499.409 137.909 509.413 140.868 510.682 142.136C512.267 143.721 487.256 176.129 469.643 176.129C452.031 176.129 431.776 140.903 435.474 139.494Z" fill="#EDB98A"/>
<path fill-rule="evenodd" clip-rule="evenodd" d="M488.489 131.467C482.831 134.13 476.502 135.62 469.821 135.62C463 135.62 456.545 134.066 450.798 131.298V115.365H488.489V131.467Z" fill="#D5A77E"/>
<rect x="450.798" y="116.774" width="37.6917" height="25.7149" fill="#EDB98A"/>
<path d="M469.819 130.864C493.651 130.864 512.971 111.544 512.971 87.7124V50.5491C510.153 46.1459 497.577 37.3394 469.819 37.3394C442.061 37.3394 429.486 46.1459 426.668 50.5491V87.7124C426.668 111.544 445.987 130.864 469.819 130.864Z" fill="#EDB98A"/>
<path fill-rule="evenodd" clip-rule="evenodd" d="M450.798 137.82V136.676C452.483 138.881 455.079 141.779 458.111 144.27C461.662 147.188 465.754 149.502 469.649 149.57C473.537 149.639 477.624 147.359 481.174 144.421C484.207 141.911 486.804 138.959 488.489 136.702V137.861C486.786 140.038 484.384 142.679 481.623 144.964C478.038 147.931 473.785 150.348 469.637 150.275C465.497 150.202 461.25 147.761 457.664 144.815C454.903 142.546 452.501 139.95 450.798 137.82Z" fill="#001F47"/>
<path d="M467.277 152.423C467.385 152.471 467.476 152.554 467.561 152.638C467.715 152.801 467.854 152.983 467.983 153.165C468.153 152.874 468.324 152.584 468.494 152.288C468.387 152.157 468.281 152.032 468.155 151.921C467.926 151.722 467.798 151.643 467.535 151.731C467.346 151.795 466.43 152.094 466.595 152.414C466.667 152.581 467.123 152.358 467.277 152.423Z" fill="#001F47" fill-opacity="0.5"/>
<path d="M469.457 154.827C469.522 154.717 469.586 154.607 469.645 154.497C469.673 154.45 469.695 154.399 469.723 154.352C469.632 154.062 469.41 153.77 469.267 153.507C469.11 153.208 468.943 152.921 468.75 152.647C468.743 152.632 468.731 152.622 468.724 152.606C468.637 152.763 468.551 152.924 468.464 153.075C468.381 153.221 468.293 153.361 468.204 153.501C468.563 154.051 468.88 154.622 469.208 155.192L469.213 155.197C469.227 155.173 469.242 155.156 469.261 155.132C469.327 155.037 469.398 154.932 469.457 154.827Z" fill="#001F47" fill-opacity="0.5"/>
<path d="M469.445 150.791C469.455 150.681 469.489 150.639 469.548 150.579C469.656 150.474 469.778 150.39 469.912 150.322C469.933 150.314 469.948 150.301 469.965 150.3C470.023 150.288 470.087 150.325 470.12 150.376C470.516 150.976 470.784 151.743 471.114 152.389C471.266 152.689 471.424 152.993 471.576 153.293C471.645 153.433 471.925 154.166 472.045 154.164C472.121 154.161 472.181 154.111 472.242 154.072C472.395 153.974 472.646 153.871 472.608 154.131C472.591 154.275 472.334 154.427 472.229 154.515C472.144 154.584 471.513 155 471.423 154.971C471.395 154.964 471.381 154.938 471.362 154.918C471.015 154.421 470.856 153.746 470.59 153.197C470.281 152.549 469.93 151.916 469.564 151.296C469.552 151.281 469.544 151.26 469.532 151.245C469.464 151.121 469.429 150.945 469.445 150.791Z" fill="#001F47" fill-opacity="0.5"/>
<path d="M469.445 150.791C469.45 150.731 469.462 150.691 469.48 150.657C469.117 151.082 468.917 151.561 468.636 152.044C468.369 152.497 468.107 152.95 467.839 153.404C467.613 153.787 467.391 154.16 467.16 154.544C467.067 154.696 466.878 154.967 466.814 155.486C466.772 155.861 467.598 154.465 467.742 154.226C467.984 153.846 468.232 153.465 468.458 153.076C468.675 152.71 468.863 152.33 469.073 151.953C469.266 151.611 469.453 151.373 469.529 151.218C469.462 151.1 469.433 150.934 469.445 150.791Z" fill="#001F47" fill-opacity="0.5"/>
<path d="M471.114 152.389C471.155 152.466 471.196 152.544 471.232 152.622C471.511 152.178 471.791 151.739 472.096 151.325C472.115 151.301 472.129 151.278 472.131 151.245C472.128 151.169 472.008 151.166 471.948 151.216C471.781 151.337 471.595 151.379 471.436 151.526C471.268 151.686 471.142 151.885 471.022 152.083C471.012 152.1 471.003 152.118 470.989 152.135C471.031 152.224 471.073 152.306 471.114 152.389Z" fill="#001F47" fill-opacity="0.5"/>
<path d="M470.601 153.196C470.566 153.129 470.537 153.061 470.502 152.988C470.475 153.035 470.447 153.087 470.42 153.133C470.35 153.25 470.287 153.371 470.218 153.487C470.149 153.604 470.079 153.72 470.01 153.836C469.987 153.877 469.959 153.918 469.936 153.959C469.913 153.999 469.894 154.029 469.862 154.081C469.848 154.104 469.829 154.134 469.816 154.162C469.762 154.272 469.703 154.381 469.644 154.491C469.585 154.601 469.52 154.712 469.456 154.822C469.391 154.927 469.326 155.032 469.255 155.132C469.241 155.156 469.226 155.173 469.207 155.197C469.246 155.253 469.274 155.261 469.316 155.246C469.358 155.236 469.393 155.199 469.422 155.169C469.911 154.648 470.317 154.06 470.71 153.451C470.679 153.367 470.642 153.279 470.601 153.196Z" fill="#001F47" fill-opacity="0.5"/>
<path d="M467.276 152.109C467.385 152.157 467.476 152.24 467.561 152.324C467.715 152.487 467.854 152.669 467.982 152.851C468.153 152.56 468.323 152.27 468.493 151.974C468.387 151.843 468.281 151.718 468.155 151.607C467.926 151.408 467.798 151.329 467.535 151.417C467.346 151.481 466.429 151.78 466.594 152.1C466.667 152.267 467.122 152.044 467.276 152.109Z" fill="#00A0B0"/>
<path d="M469.457 154.513C469.522 154.403 469.586 154.293 469.645 154.183C469.673 154.136 469.695 154.085 469.722 154.038C469.631 153.748 469.41 153.456 469.267 153.193C469.11 152.894 468.943 152.607 468.75 152.333C468.743 152.318 468.731 152.308 468.724 152.292C468.637 152.449 468.551 152.611 468.464 152.762C468.381 152.907 468.292 153.047 468.204 153.187C468.562 153.737 468.879 154.308 469.207 154.878L469.213 154.883C469.227 154.859 469.242 154.842 469.261 154.818C469.327 154.723 469.397 154.618 469.457 154.513Z" fill="#00A0B0"/>
<path d="M469.445 150.477C469.455 150.367 469.489 150.325 469.548 150.265C469.656 150.16 469.778 150.076 469.912 150.008C469.933 150 469.948 149.987 469.965 149.986C470.023 149.974 470.087 150.011 470.12 150.062C470.516 150.662 470.784 151.429 471.114 152.075C471.266 152.375 471.424 152.679 471.576 152.979C471.645 153.119 471.925 153.852 472.045 153.85C472.121 153.847 472.181 153.797 472.242 153.758C472.395 153.66 472.646 153.557 472.608 153.817C472.591 153.961 472.334 154.113 472.229 154.201C472.144 154.27 471.513 154.686 471.423 154.658C471.395 154.65 471.381 154.624 471.362 154.604C471.015 154.107 470.856 153.432 470.59 152.883C470.281 152.235 469.93 151.602 469.564 150.982C469.552 150.967 469.544 150.946 469.532 150.931C469.464 150.807 469.429 150.631 469.445 150.477Z" fill="#00A0B0"/>
<path d="M469.445 150.477C469.449 150.417 469.461 150.377 469.48 150.343C469.116 150.768 468.917 151.247 468.636 151.73C468.368 152.183 468.106 152.636 467.839 153.09C467.613 153.473 467.391 153.846 467.16 154.23C467.067 154.382 466.878 154.653 466.813 155.172C466.772 155.547 467.598 154.151 467.741 153.912C467.984 153.532 468.232 153.151 468.458 152.762C468.675 152.396 468.863 152.016 469.073 151.639C469.266 151.297 469.453 151.059 469.529 150.904C469.462 150.786 469.433 150.62 469.445 150.477Z" fill="#004789"/>
<path d="M471.114 152.075C471.155 152.152 471.196 152.23 471.231 152.308C471.511 151.864 471.791 151.425 472.095 151.011C472.115 150.987 472.129 150.964 472.131 150.931C472.128 150.855 472.008 150.852 471.948 150.902C471.781 151.023 471.594 151.065 471.436 151.212C471.268 151.372 471.142 151.571 471.021 151.769C471.012 151.786 471.003 151.804 470.989 151.821C471.031 151.91 471.072 151.992 471.114 152.075Z" fill="#004789"/>
<path d="M470.601 152.882C470.566 152.815 470.537 152.747 470.502 152.674C470.474 152.721 470.447 152.773 470.42 152.819C470.35 152.936 470.287 153.057 470.218 153.173C470.148 153.29 470.079 153.406 470.01 153.523C469.987 153.563 469.958 153.604 469.936 153.645C469.913 153.685 469.894 153.715 469.861 153.767C469.848 153.79 469.829 153.82 469.816 153.848C469.762 153.958 469.703 154.067 469.644 154.177C469.585 154.287 469.52 154.398 469.456 154.508C469.391 154.613 469.326 154.718 469.255 154.818C469.241 154.842 469.226 154.859 469.207 154.883C469.246 154.939 469.274 154.947 469.316 154.932C469.358 154.922 469.392 154.885 469.422 154.855C469.911 154.334 470.317 153.746 470.71 153.137C470.679 153.053 470.642 152.965 470.601 152.882Z" fill="#004789"/>
<path opacity="0.2" d="M413.458 175.853C413.458 146.778 431.612 138.864 440.856 138.702C440.579 140.479 443.147 146.552 454.305 155.339C466.426 165.677 466.426 167.615 469.913 167.615C473.4 167.615 487.348 153.885 491.997 147.909C495.717 143.128 496.647 139.133 496.647 137.733C510.484 140.371 538.158 151.689 538.158 175.853V203.958H413.458V175.853Z" fill="#25557C"/>
<path d="M406.413 179.08C406.413 147.544 428.84 138.959 438.644 138.784C438.351 140.711 441.075 147.299 452.911 156.83C465.768 168.042 465.768 170.145 469.467 170.145C473.166 170.145 487.961 155.253 492.892 148.771C496.838 143.585 497.824 139.251 497.824 137.733C512.501 140.595 541.856 150.417 541.856 176.627V203.958H408.174L406.413 179.08Z" fill="#000813"/>
<path d="M460.309 104.797C460.72 106.617 463.197 110.257 469.82 110.257C476.442 110.257 478.92 106.617 479.331 104.797" stroke="#633724" stroke-width="3.52259" stroke-linecap="round"/>
<path d="M470.172 110.081C463.549 110.081 461.072 106.441 460.661 104.621H479.683C479.272 106.441 476.794 110.081 470.172 110.081Z" fill="#633724" stroke="#633724" stroke-width="3.52259" stroke-linecap="round" stroke-linejoin="round"/>
<path d="M469.5 94C472.723 94 475.398 91.8352 475.911 88.995C476.009 88.4515 475.552 88 475 88H469.5H464C463.448 88 462.991 88.4515 463.089 88.995C463.602 91.8352 466.277 94 469.5 94Z" fill="#C19772"/>
<circle opacity="0.08" cx="493.949" cy="98.8085" r="7.92582" fill="#FE5070"/>
<circle opacity="0.08" cx="444.986" cy="98.8085" r="7.92582" fill="#FE5070"/>
<path fill-rule="evenodd" clip-rule="evenodd" d="M438.32 75.2275C438.302 75.1688 438.292 75.1034 438.292 75.0311C438.292 72.1129 442.156 69.7472 446.923 69.7472C451.689 69.7472 455.553 72.1129 455.553 75.0311C455.553 75.7202 454.658 75.7886 454.155 75.3171C452.615 73.8724 449.951 72.9175 446.923 72.9175C446.777 72.9175 446.631 72.9197 446.487 72.9241C447.091 73.7001 447.451 74.6758 447.451 75.7356C447.451 78.2647 445.401 80.3149 442.872 80.3149C440.343 80.3149 438.293 78.2647 438.293 75.7356C438.293 75.5639 438.302 75.3943 438.32 75.2275Z" fill="#633724"/>
<path fill-rule="evenodd" clip-rule="evenodd" d="M483.382 75.0311C483.382 75.1032 483.391 75.1684 483.41 75.227C483.391 75.394 483.382 75.5637 483.382 75.7356C483.382 78.2647 485.432 80.3149 487.961 80.3149C490.49 80.3149 492.54 78.2647 492.54 75.7356C492.54 74.6758 492.18 73.7001 491.576 72.9241C491.72 72.9197 491.866 72.9175 492.012 72.9175C495.04 72.9175 497.704 73.8724 499.244 75.3171C499.747 75.7886 500.642 75.7202 500.642 75.0311C500.642 72.1129 496.778 69.7472 492.012 69.7472C487.246 69.7472 483.382 72.1129 483.382 75.0311Z" fill="#633724"/>
<path d="M435.306 62.2712C434.873 63.1425 435.229 64.1994 436.1 64.6319C436.971 65.0644 438.028 64.7087 438.461 63.8374L435.306 62.2712ZM456.831 59.5646C457.766 59.8315 458.741 59.2896 459.008 58.3542C459.275 57.4188 458.733 56.4441 457.798 56.1772L456.831 59.5646ZM438.461 63.8374C439.633 61.4759 445.029 56.1971 456.831 59.5646L457.798 56.1772C444.571 52.4033 437.326 58.2015 435.306 62.2712L438.461 63.8374Z" fill="#633724"/>
<path d="M481.35 56.1584C480.54 56.6967 480.319 57.7899 480.858 58.6001C481.396 59.4103 482.489 59.6307 483.299 59.0924L481.35 56.1584ZM501.345 64.5772C502.021 65.276 503.137 65.294 503.835 64.6174C504.534 63.9408 504.552 62.8257 503.876 62.1269L501.345 64.5772ZM483.299 59.0924C485.495 57.6334 492.808 55.7598 501.345 64.5772L503.876 62.1269C494.308 52.2455 485.134 53.6441 481.35 56.1584L483.299 59.0924Z" fill="#633724"/>
<path opacity="0.1" d="M477.393 75.7356C477.393 68.1483 475.285 65.1678 469.644 65.1678C464.002 65.1678 462.246 68.1483 462.246 75.7356M422.089 68.3382H430.191M509.625 68.3382H516.494" stroke="#000813" stroke-width="3.52259" stroke-linecap="round" stroke-linejoin="round"/>
<path d="M477.393 74.3265C477.393 66.7392 475.285 63.7588 469.644 63.7588C464.002 63.7588 462.246 66.7392 462.246 74.3265M422.089 66.9291H430.191M508.92 66.9291H516.494" stroke="#000813" stroke-width="3.52259" stroke-linecap="round" stroke-linejoin="round"/>
<circle opacity="0.2" cx="445.69" cy="75.7356" r="16.5562" stroke="#000813" stroke-width="3.52259"/>
<circle opacity="0.2" cx="493.949" cy="75.7356" r="16.5562" stroke="#000813" stroke-width="3.52259"/>
<circle cx="445.69" cy="74.3266" r="16.5562" stroke="#000813" stroke-width="3.52259"/>
<circle cx="493.949" cy="74.3266" r="16.5562" stroke="#000813" stroke-width="3.52259"/>
<path d="M467.234 41.2746C453.862 51.1338 435.558 53.9681 427.548 54.5387L426.668 48.4355H427.548C449.212 51.0775 468.41 33.8168 472.285 33.993C476.16 34.1691 481.268 39.2768 482.501 41.2746C483.734 43.2725 493.773 45.2652 503.108 46.6743C512.443 48.0833 513.147 50.9014 512.267 51.782C511.562 52.4865 507.999 52.9378 506.305 53.0753C496.555 54.787 495.803 49.746 485.008 49.4037C474.212 49.0614 474.895 34.428 467.234 41.2746Z" fill="#C19772"/>
<path d="M462.928 1.19104C468.677 0.917172 471.712 2.67448 472.51 3.58736C495.439 -6.34027 498.84 9.33004 510.155 13.8573C523.844 19.3346 523.844 49.4599 527.266 55.2795C530.688 60.0722 537.533 72.3961 533.084 85.0624C542.324 87.4587 549.43 94.6477 549.43 106.287C549.43 113.818 546.43 123.404 541.297 123.404C540.27 167.907 525.555 146.34 523.844 160.033C526.239 188.104 538.559 181.6 537.533 189.816C534.453 197.347 512.893 198.374 497.493 189.816C470.524 169.618 497.493 141.608 501.523 131.962C503.644 126.886 501.189 121.487 505.021 113.818C511.045 105.055 514.038 74.8549 512.443 62.8781C511.817 58.1801 513.768 49.7082 506.102 51.0775C496.52 52.7891 495.781 47.7482 485.173 47.4059C474.564 47.0635 475.235 32.4302 467.706 39.2768C454.565 49.136 436.577 51.9703 428.706 52.5409C426.767 64.1801 423.786 84.4658 433.7 107.127C440.359 122.345 439.315 130.25 439.315 136.412C439.315 145.313 424.941 148.736 422.888 157.294C425.968 173.726 437.946 165.168 439.315 169.618C430.417 175.438 422.888 169.618 419.808 166.88C420.835 176.123 425.626 173.384 422.888 175.438C416.865 174.89 415.816 169.504 416.044 166.88C414.675 167.108 411.937 169.139 411.937 175.438C411.937 183.312 416.044 186.735 411.937 189.816C407.83 191.528 406.804 187.077 397.564 173.384C388.324 159.691 399.275 140.863 401.67 131.962C376.688 103.891 394.826 93.6207 406.804 82.6661C401.328 64.8648 412.621 49.1175 416.044 43.9825C419.466 38.8476 419.808 37.4782 428.706 21.3886C435.55 5.29902 455.741 1.53337 462.928 1.19104Z" fill="#633724"/>
<path d="M462.07 30.2942C459.017 34.6388 450.939 42.9755 443.048 41.5665M462.07 16.5562C460.426 20.431 455.025 28.6034 446.571 30.2942M483.205 30.2942C483.205 33.2297 484.967 38.9598 492.012 38.3962M497.296 30.2942C499.292 34.4039 505.045 41.7779 512.091 38.3962M489.898 16.5562C495.417 16.6736 506.807 18.6697 508.216 25.7149M528.999 90.1782C524.655 90.6479 516.106 94.4053 516.67 105.678M534.987 100.746C538.158 101.568 543.864 104.903 541.328 111.666M532.874 111.666C528.06 111.314 518.079 113.78 516.67 126.461M530.76 129.279C529.469 134.915 523.927 145.412 512.091 142.312M505.75 155.346C503.754 158.164 505.327 164.293 512.091 170.493C520.545 178.243 518.079 174.72 522.306 185.64M501.523 176.834C504.341 177.303 510.4 179.722 512.091 185.64M408.879 94.053C402.891 96.7537 393.239 105.959 402.538 121.177M419.799 50.373C415.689 54.1304 408.527 65.3792 412.754 80.3149M418.038 88.0646C419.564 94.2879 419.869 107.721 408.879 111.666M427.196 105.678C426.492 109.318 422.828 117.232 413.81 119.768M406.413 142.312C403.478 146.54 398.1 157.178 400.072 165.914M408.879 126.461C408.527 127.87 409.513 131.604 416.276 135.267C423.04 138.931 424.965 143.604 425.083 145.483M430.367 119.768C432.128 122.586 434.594 129.631 430.367 135.267M413.81 149.71C410.875 151.236 405.779 155.91 408.879 162.391M404.652 170.493C404.417 174.603 404.934 181.272 408.879 183.527M520.545 58.4749C523.011 63.0543 526.815 74.397 522.306 83.133M450.093 14.7949C443.87 15.9691 431.635 22.3332 432.48 38.3962" stroke="#4E281E" stroke-width="1.40903" stroke-linecap="round"/>
<path d="M473.232 309.838H6.76798C3.00799 309.838 0 307.134 0 303.755C0 300.376 3.00799 297.672 6.76798 297.672H473.232C476.992 297.672 480 300.376 480 303.755C480 307.134 476.992 309.838 473.232 309.838Z" fill="#C9C9C9"/>
<path opacity="0.28" d="M138.83 217.162H126.51V248.43H138.83V217.162Z" fill="#1F3969" stroke="#1F3969" stroke-width="2.67816" stroke-miterlimit="10" stroke-linecap="round" stroke-linejoin="round"/>
<path opacity="0.28" d="M146.597 248.43H126.51V258.473C126.51 264.766 131.599 269.922 137.96 269.922H151.149C151.149 269.855 151.149 269.788 151.149 269.721V252.982C151.149 250.438 149.141 248.43 146.597 248.43Z" fill="#1F3969" stroke="#1F3969" stroke-width="2.67816" stroke-miterlimit="10" stroke-linecap="round" stroke-linejoin="round"/>
<path d="M84.3289 244.412C77.9013 244.412 72.7458 239.19 72.7458 232.829C72.7458 226.469 77.9683 221.246 84.3289 221.246H149.944V244.479H84.3289V244.412Z" fill="#CECECE"/>
<path d="M153.761 248.43H84.3292C75.6921 248.43 68.7289 241.4 68.7289 232.83C68.7289 224.193 75.7591 217.23 84.3292 217.23H153.761V248.43Z" fill="white"/>
<path d="M80.0441 229.214H149.944" stroke="#1F3969" stroke-width="2.67816" stroke-miterlimit="10" stroke-linecap="round" stroke-linejoin="round"/>
<path d="M80.0441 236.311H149.944" stroke="#1F3969" stroke-width="2.67816" stroke-miterlimit="10" stroke-linecap="round" stroke-linejoin="round"/>
<path d="M84.3289 244.412C77.9013 244.412 72.7458 239.19 72.7458 232.829C72.7458 226.469 77.9683 221.246 84.3289 221.246H149.944V244.479H84.3289V244.412Z" stroke="#1F3969" stroke-width="2.67816" stroke-miterlimit="10" stroke-linecap="round" stroke-linejoin="round"/>
<path d="M84.3292 244.413C77.9016 244.413 72.7461 239.191 72.7461 232.83C72.7461 226.469 77.9685 221.247 84.3292 221.247H151.082L153.761 217.23H84.3292C75.6921 217.23 68.7289 224.26 68.7289 232.83C68.7289 241.467 75.7591 248.43 84.3292 248.43H153.761L151.082 244.413H84.3292Z" fill="#FF3E3E"/>
<path d="M84.3292 244.413C77.9016 244.413 72.7461 239.191 72.7461 232.83C72.7461 226.469 77.9685 221.247 84.3292 221.247H151.082L153.761 217.23H84.3292C75.6921 217.23 68.7289 224.26 68.7289 232.83C68.7289 241.467 75.7591 248.43 84.3292 248.43H153.761L151.082 244.413H84.3292Z" stroke="#1F3969" stroke-width="2.67816" stroke-miterlimit="10" stroke-linecap="round" stroke-linejoin="round"/>
<path d="M146.597 274.207H19.4507C16.9734 274.207 14.8978 272.198 14.8978 269.654V252.916C14.8978 250.438 16.9065 248.363 19.4507 248.363H146.597C149.074 248.363 151.149 250.371 151.149 252.916V269.654C151.149 272.198 149.141 274.207 146.597 274.207Z" fill="#50B56F"/>
<path d="M43.7622 258.037V265.145H45.325V262.079H48.2017V265.145H49.7644V258.037H48.2017V260.765H45.325V258.037H43.7622Z" fill="#FBFBFB"/>
<path d="M54.7037 259.351V265.145H56.2664V259.351H58.3966V258.037H52.5735V259.351H54.7037Z" fill="#FBFBFB"/>
<path d="M61.2068 258.037V265.145H62.6701V260.158H62.69L64.4319 265.145H65.6363L67.3783 260.108H67.3982V265.145H68.8614V258.037H66.6616L65.0889 262.925H65.069L63.4067 258.037H61.2068Z" fill="#FBFBFB"/>
<path d="M72.2281 258.037V265.145H77.2548V263.831H73.7908V258.037H72.2281Z" fill="#FBFBFB"/>
<path d="M82.1001 257.868L79.3329 265.304H80.4577L83.2349 257.868H82.1001Z" fill="#FBFBFB"/>
<path d="M90.542 260.426H92.055C92.0085 260.015 91.8957 259.65 91.7165 259.331C91.5374 259.013 91.3084 258.747 91.0297 258.535C90.7576 258.316 90.4457 258.15 90.094 258.037C89.749 257.925 89.3807 257.868 88.9892 257.868C88.445 257.868 87.9539 257.964 87.516 258.157C87.0846 258.349 86.7197 258.615 86.421 258.953C86.1224 259.292 85.8935 259.69 85.7342 260.148C85.575 260.599 85.4953 261.09 85.4953 261.621C85.4953 262.138 85.575 262.623 85.7342 263.074C85.8935 263.519 86.1224 263.907 86.421 264.239C86.7197 264.571 87.0846 264.833 87.516 265.025C87.9539 265.211 88.445 265.304 88.9892 265.304C89.4271 265.304 89.8286 265.237 90.1936 265.105C90.5586 264.972 90.8771 264.78 91.1492 264.527C91.4212 264.275 91.6402 263.97 91.8061 263.612C91.972 263.253 92.0749 262.852 92.1147 262.407H90.6017C90.542 262.885 90.3761 263.27 90.104 263.562C89.8386 263.854 89.4669 264 88.9892 264C88.6374 264 88.3388 263.933 88.0933 263.801C87.8478 263.661 87.6487 263.479 87.4961 263.253C87.3434 263.028 87.2306 262.775 87.1576 262.497C87.0913 262.211 87.0581 261.919 87.0581 261.621C87.0581 261.309 87.0913 261.007 87.1576 260.715C87.2306 260.423 87.3434 260.164 87.4961 259.939C87.6487 259.706 87.8478 259.524 88.0933 259.391C88.3388 259.252 88.6374 259.182 88.9892 259.182C89.1816 259.182 89.3641 259.215 89.5366 259.282C89.7158 259.341 89.8751 259.428 90.0144 259.54C90.1538 259.653 90.2699 259.786 90.3628 259.939C90.4557 260.085 90.5154 260.247 90.542 260.426Z" fill="#FBFBFB"/>
<path d="M96.2377 262.785H94.7247C94.7181 263.223 94.7977 263.602 94.9636 263.92C95.1295 264.239 95.3518 264.501 95.6305 264.707C95.9159 264.912 96.241 265.062 96.606 265.154C96.9776 265.254 97.3592 265.304 97.7507 265.304C98.2351 265.304 98.6598 265.247 99.0248 265.135C99.3964 265.022 99.705 264.866 99.9505 264.667C100.203 264.461 100.392 264.219 100.518 263.94C100.644 263.661 100.707 263.359 100.707 263.034C100.707 262.636 100.621 262.311 100.448 262.059C100.282 261.8 100.083 261.594 99.851 261.442C99.6187 261.289 99.3831 261.18 99.1442 261.113C98.912 261.04 98.7295 260.99 98.5968 260.964C98.1522 260.851 97.7905 260.758 97.5118 260.685C97.2397 260.612 97.0241 260.539 96.8648 260.466C96.7122 260.393 96.6093 260.314 96.5562 260.227C96.5031 260.141 96.4766 260.028 96.4766 259.889C96.4766 259.736 96.5098 259.61 96.5761 259.511C96.6425 259.411 96.7254 259.328 96.825 259.262C96.9312 259.195 97.0473 259.149 97.1734 259.122C97.2995 259.096 97.4255 259.083 97.5516 259.083C97.7441 259.083 97.9199 259.099 98.0792 259.132C98.2451 259.166 98.3911 259.222 98.5172 259.302C98.6432 259.381 98.7428 259.491 98.8158 259.63C98.8954 259.769 98.9418 259.945 98.9551 260.158H100.468C100.468 259.746 100.388 259.398 100.229 259.112C100.077 258.82 99.8676 258.582 99.6021 258.396C99.3367 258.21 99.0314 258.077 98.6864 257.998C98.3479 257.911 97.9929 257.868 97.6213 257.868C97.3028 257.868 96.9842 257.911 96.6657 257.998C96.3472 258.084 96.0618 258.217 95.8097 258.396C95.5575 258.575 95.3518 258.801 95.1925 259.073C95.0399 259.338 94.9636 259.653 94.9636 260.018C94.9636 260.343 95.0233 260.622 95.1428 260.854C95.2689 261.08 95.4314 261.269 95.6305 261.422C95.8296 261.574 96.0552 261.7 96.3074 261.8C96.5595 261.893 96.8183 261.973 97.0838 262.039C97.3426 262.112 97.5981 262.178 97.8502 262.238C98.1024 262.298 98.328 262.367 98.5271 262.447C98.7262 262.527 98.8854 262.626 99.0049 262.746C99.131 262.865 99.194 263.021 99.194 263.213C99.194 263.393 99.1476 263.542 99.0547 263.661C98.9618 263.774 98.8456 263.864 98.7063 263.93C98.5669 263.997 98.4176 264.043 98.2583 264.069C98.0991 264.089 97.9498 264.099 97.8104 264.099C97.6047 264.099 97.4056 264.076 97.2132 264.03C97.0207 263.977 96.8515 263.9 96.7055 263.801C96.5662 263.695 96.4534 263.559 96.3671 263.393C96.2808 263.227 96.2377 263.024 96.2377 262.785Z" fill="#FBFBFB"/>
<path d="M104.693 262.785H103.18C103.173 263.223 103.253 263.602 103.419 263.92C103.584 264.239 103.807 264.501 104.086 264.707C104.371 264.912 104.696 265.062 105.061 265.154C105.433 265.254 105.814 265.304 106.206 265.304C106.69 265.304 107.115 265.247 107.48 265.135C107.851 265.022 108.16 264.866 108.406 264.667C108.658 264.461 108.847 264.219 108.973 263.94C109.099 263.661 109.162 263.359 109.162 263.034C109.162 262.636 109.076 262.311 108.903 262.059C108.737 261.8 108.538 261.594 108.306 261.442C108.074 261.289 107.838 261.18 107.599 261.113C107.367 261.04 107.185 260.99 107.052 260.964C106.607 260.851 106.246 260.758 105.967 260.685C105.695 260.612 105.479 260.539 105.32 260.466C105.167 260.393 105.064 260.314 105.011 260.227C104.958 260.141 104.932 260.028 104.932 259.889C104.932 259.736 104.965 259.61 105.031 259.511C105.097 259.411 105.18 259.328 105.28 259.262C105.386 259.195 105.502 259.149 105.628 259.122C105.754 259.096 105.881 259.083 106.007 259.083C106.199 259.083 106.375 259.099 106.534 259.132C106.7 259.166 106.846 259.222 106.972 259.302C107.098 259.381 107.198 259.491 107.271 259.63C107.35 259.769 107.397 259.945 107.41 260.158H108.923C108.923 259.746 108.843 259.398 108.684 259.112C108.532 258.82 108.323 258.582 108.057 258.396C107.792 258.21 107.486 258.077 107.141 257.998C106.803 257.911 106.448 257.868 106.076 257.868C105.758 257.868 105.439 257.911 105.121 257.998C104.802 258.084 104.517 258.217 104.265 258.396C104.013 258.575 103.807 258.801 103.648 259.073C103.495 259.338 103.419 259.653 103.419 260.018C103.419 260.343 103.478 260.622 103.598 260.854C103.724 261.08 103.886 261.269 104.086 261.422C104.285 261.574 104.51 261.7 104.762 261.8C105.015 261.893 105.273 261.973 105.539 262.039C105.798 262.112 106.053 262.178 106.305 262.238C106.557 262.298 106.783 262.367 106.982 262.447C107.181 262.527 107.34 262.626 107.46 262.746C107.586 262.865 107.649 263.021 107.649 263.213C107.649 263.393 107.603 263.542 107.51 263.661C107.417 263.774 107.301 263.864 107.161 263.93C107.022 263.997 106.873 264.043 106.713 264.069C106.554 264.089 106.405 264.099 106.265 264.099C106.06 264.099 105.861 264.076 105.668 264.03C105.476 263.977 105.307 263.9 105.161 263.801C105.021 263.695 104.908 263.559 104.822 263.393C104.736 263.227 104.693 263.024 104.693 262.785Z" fill="#FBFBFB"/>
<path d="M114.063 257.868L111.296 265.304H112.421L115.198 257.868H114.063Z" fill="#FBFBFB"/>
<path d="M121.928 262.905V258.037H120.365V262.835C120.365 262.961 120.359 263.094 120.345 263.233C120.339 263.366 120.309 263.492 120.256 263.612C120.209 263.724 120.13 263.817 120.017 263.89C119.904 263.963 119.745 264 119.539 264C119.353 264 119.201 263.97 119.081 263.91C118.968 263.851 118.879 263.771 118.812 263.671C118.746 263.565 118.7 263.439 118.673 263.293C118.647 263.147 118.633 262.988 118.633 262.815V262.497H117.22V263.114C117.22 263.505 117.286 263.841 117.419 264.119C117.552 264.391 117.727 264.617 117.946 264.796C118.165 264.969 118.414 265.095 118.693 265.174C118.972 265.261 119.26 265.304 119.559 265.304C120.09 265.304 120.511 265.224 120.823 265.065C121.135 264.899 121.374 264.697 121.54 264.458C121.706 264.212 121.812 263.95 121.858 263.671C121.905 263.393 121.928 263.137 121.928 262.905Z" fill="#FBFBFB"/>
<path d="M126.354 262.785H124.841C124.835 263.223 124.914 263.602 125.08 263.92C125.246 264.239 125.468 264.501 125.747 264.707C126.032 264.912 126.357 265.062 126.722 265.154C127.094 265.254 127.476 265.304 127.867 265.304C128.352 265.304 128.776 265.247 129.141 265.135C129.513 265.022 129.821 264.866 130.067 264.667C130.319 264.461 130.508 264.219 130.634 263.94C130.76 263.661 130.823 263.359 130.823 263.034C130.823 262.636 130.737 262.311 130.565 262.059C130.399 261.8 130.2 261.594 129.967 261.442C129.735 261.289 129.5 261.18 129.261 261.113C129.028 261.04 128.846 260.99 128.713 260.964C128.269 260.851 127.907 260.758 127.628 260.685C127.356 260.612 127.14 260.539 126.981 260.466C126.829 260.393 126.726 260.314 126.673 260.227C126.62 260.141 126.593 260.028 126.593 259.889C126.593 259.736 126.626 259.61 126.693 259.511C126.759 259.411 126.842 259.328 126.941 259.262C127.048 259.195 127.164 259.149 127.29 259.122C127.416 259.096 127.542 259.083 127.668 259.083C127.86 259.083 128.036 259.099 128.196 259.132C128.362 259.166 128.507 259.222 128.634 259.302C128.76 259.381 128.859 259.491 128.932 259.63C129.012 259.769 129.058 259.945 129.072 260.158H130.585C130.585 259.746 130.505 259.398 130.346 259.112C130.193 258.82 129.984 258.582 129.719 258.396C129.453 258.21 129.148 258.077 128.803 257.998C128.464 257.911 128.109 257.868 127.738 257.868C127.419 257.868 127.101 257.911 126.782 257.998C126.464 258.084 126.178 258.217 125.926 258.396C125.674 258.575 125.468 258.801 125.309 259.073C125.156 259.338 125.08 259.653 125.08 260.018C125.08 260.343 125.14 260.622 125.259 260.854C125.385 261.08 125.548 261.269 125.747 261.422C125.946 261.574 126.172 261.7 126.424 261.8C126.676 261.893 126.935 261.973 127.2 262.039C127.459 262.112 127.715 262.178 127.967 262.238C128.219 262.298 128.444 262.367 128.644 262.447C128.843 262.527 129.002 262.626 129.121 262.746C129.247 262.865 129.31 263.021 129.31 263.213C129.31 263.393 129.264 263.542 129.171 263.661C129.078 263.774 128.962 263.864 128.823 263.93C128.683 263.997 128.534 264.043 128.375 264.069C128.216 264.089 128.066 264.099 127.927 264.099C127.721 264.099 127.522 264.076 127.33 264.03C127.137 263.977 126.968 263.9 126.822 263.801C126.683 263.695 126.57 263.559 126.484 263.393C126.397 263.227 126.354 263.024 126.354 262.785Z" fill="#FBFBFB"/>
<path d="M146.597 274.207H19.4507C16.9734 274.207 14.8978 272.198 14.8978 269.654V252.916C14.8978 250.438 16.9065 248.363 19.4507 248.363H146.597C149.074 248.363 151.149 250.371 151.149 252.916V269.654C151.149 272.198 149.141 274.207 146.597 274.207Z" stroke="#1F3969" stroke-width="2.67816" stroke-miterlimit="10" stroke-linecap="round" stroke-linejoin="round"/>
<path d="M182.417 279.429H35.1178C35.9882 281.572 36.4569 284.25 36.4569 287.062C36.4569 289.874 35.9882 292.485 35.1178 294.695H182.35C181.479 292.552 181.011 289.874 181.011 287.062C181.078 284.183 181.546 281.572 182.417 279.429Z" fill="#CECECE"/>
<path d="M186.434 275.345H31.1676V279.362H186.434V275.345Z" fill="#5F5AFF"/>
<path d="M186.434 275.345H31.1676V279.362H186.434V275.345Z" stroke="#1F3969" stroke-width="2.67816" stroke-miterlimit="10" stroke-linecap="round" stroke-linejoin="round"/>
<path d="M186.434 294.628H31.1676V298.645H186.434V294.628Z" fill="#F6F9FD"/>
<path d="M186.434 294.628H31.1676V298.645H186.434V294.628Z" fill="#5F5AFF"/>
<path d="M186.434 294.628H31.1676V298.645H186.434V294.628Z" stroke="#1F3969" stroke-width="2.67816" stroke-miterlimit="10" stroke-linecap="round" stroke-linejoin="round"/>
<path d="M36.7919 284.049H181.078" stroke="#1F3969" stroke-width="2.67816" stroke-miterlimit="10" stroke-linecap="round" stroke-linejoin="round"/>
<path d="M36.7919 289.405H181.078" stroke="#1F3969" stroke-width="2.67816" stroke-miterlimit="10" stroke-linecap="round" stroke-linejoin="round"/>
<path d="M182.417 279.429H35.1178C35.9882 281.572 36.4569 284.25 36.4569 287.062C36.4569 289.874 35.9882 292.485 35.1178 294.695H182.35C181.479 292.552 181.011 289.874 181.011 287.062C181.078 284.183 181.546 281.572 182.417 279.429Z" stroke="#1F3969" stroke-width="2.67816" stroke-miterlimit="10" stroke-linecap="round" stroke-linejoin="round"/>
<path d="M263.565 284.384L261.557 261.82H228.481L226.473 284.384C226.004 289.606 222.857 294.628 217.902 298.645V298.712H272.135V298.645C267.181 294.628 264.034 289.606 263.565 284.384Z" fill="#BFCFE2"/>
<path opacity="0.28" d="M228.481 261.82L227.276 275.345H262.762L261.556 261.82H228.481Z" fill="#1F3969" stroke="#1F3969" stroke-width="2.67816" stroke-miterlimit="10" stroke-linecap="round" stroke-linejoin="round"/>
<path d="M263.565 284.384L261.557 261.82H228.481L226.473 284.384C226.004 289.606 222.857 294.628 217.902 298.645V298.712H272.135V298.645C267.181 294.628 264.034 289.606 263.565 284.384Z" stroke="#1F3969" stroke-width="2.67816" stroke-miterlimit="10" stroke-linecap="round" stroke-linejoin="round"/>
<path d="M350.806 265.168H139.232C134.813 265.168 131.197 261.553 131.197 257.134V119.208C131.197 114.789 134.813 111.174 139.232 111.174H350.806C355.225 111.174 358.841 114.789 358.841 119.208V257.134C358.841 261.62 355.225 265.168 350.806 265.168Z" fill="white"/>
<path d="M350.807 265.168H139.232C134.813 265.168 131.197 261.553 131.197 257.134V119.208C131.197 114.789 134.813 111.174 139.232 111.174H350.807C355.225 111.174 358.841 114.789 358.841 119.208V257.134C358.841 261.62 355.225 265.168 350.807 265.168Z" fill="#BFCFE2"/>
<path d="M350.806 265.168H139.232C134.813 265.168 131.197 261.553 131.197 257.134V119.208C131.197 114.789 134.813 111.174 139.232 111.174H350.806C355.225 111.174 358.841 114.789 358.841 119.208V257.134C358.841 261.62 355.225 265.168 350.806 265.168Z" stroke="#1F3969" stroke-width="2.67816" stroke-miterlimit="10" stroke-linecap="round" stroke-linejoin="round"/>
<path d="M347.496 239.476V122.574L142.617 122.574L142.617 239.476L347.496 239.476Z" fill="#F6F9FD"/>
<path opacity="0.28" d="M149.944 111.174V203.972C149.944 206.918 152.354 209.328 155.3 209.328H281.911C284.856 209.328 287.267 206.918 287.267 203.972V111.174H149.944Z" fill="#1F3969" stroke="#1F3969" stroke-width="2.67816" stroke-miterlimit="10" stroke-linecap="round" stroke-linejoin="round"/>
<path d="M347.496 239.476V122.574L142.617 122.574L142.617 239.476L347.496 239.476Z" stroke="#1F3969" stroke-width="2.67816" stroke-miterlimit="10" stroke-linecap="round" stroke-linejoin="round"/>
<path d="M236.047 252.246H254.058" stroke="#1F3969" stroke-width="2.67816" stroke-miterlimit="10" stroke-linecap="round" stroke-linejoin="round"/>
<path d="M287.937 201.963H161.326C158.38 201.963 155.97 199.553 155.97 196.607V97.3812C155.97 94.4352 158.38 92.0248 161.326 92.0248H287.937C290.882 92.0248 293.293 94.4352 293.293 97.3812V196.674C293.293 199.62 290.882 201.963 287.937 201.963Z" fill="#2D425E"/>
<path d="M293.293 105.014H155.97V97.314C155.97 94.3681 158.38 91.9577 161.326 91.9577H287.937C290.882 91.9577 293.293 94.3681 293.293 97.314V105.014Z" stroke="#1F3969" stroke-width="2.67816" stroke-miterlimit="10" stroke-linecap="round" stroke-linejoin="round"/>
<path d="M293.293 107.558H155.97V97.314C155.97 94.3681 158.38 91.9577 161.326 91.9577H287.937C290.882 91.9577 293.293 94.3681 293.293 97.314V107.558Z" fill="#D0DDF0"/>
<path d="M293.293 107.558H155.97V97.314C155.97 94.3681 158.38 91.9577 161.326 91.9577H287.937C290.882 91.9577 293.293 94.3681 293.293 97.314V107.558Z" stroke="#1F3969" stroke-width="2.67816" stroke-miterlimit="10" stroke-linecap="round" stroke-linejoin="round"/>
<path d="M293.293 107.558H155.97V97.314C155.97 94.3681 158.38 91.9577 161.326 91.9577H287.937C290.882 91.9577 293.293 94.3681 293.293 97.314V107.558Z" stroke="#1F3969" stroke-width="2.67816" stroke-miterlimit="10" stroke-linecap="round" stroke-linejoin="round"/>
<path d="M287.937 201.963H161.326C158.38 201.963 155.97 199.553 155.97 196.607V97.3812C155.97 94.4352 158.38 92.0248 161.326 92.0248H287.937C290.882 92.0248 293.293 94.4352 293.293 97.3812V196.674C293.293 199.62 290.882 201.963 287.937 201.963Z" stroke="#1F3969" stroke-width="2.67816" stroke-miterlimit="10" stroke-linecap="round" stroke-linejoin="round"/>
<path d="M169.428 102.469C170.907 102.469 172.106 101.27 172.106 99.7913C172.106 98.3122 170.907 97.1132 169.428 97.1132C167.949 97.1132 166.75 98.3122 166.75 99.7913C166.75 101.27 167.949 102.469 169.428 102.469Z" fill="#1F3969"/>
<path d="M178.735 102.469C180.214 102.469 181.413 101.27 181.413 99.7913C181.413 98.3122 180.214 97.1132 178.735 97.1132C177.255 97.1132 176.056 98.3122 176.056 99.7913C176.056 101.27 177.255 102.469 178.735 102.469Z" fill="#1F3969"/>
<path d="M188.041 102.469C189.52 102.469 190.719 101.27 190.719 99.7913C190.719 98.3122 189.52 97.1132 188.041 97.1132C186.562 97.1132 185.363 98.3122 185.363 99.7913C185.363 101.27 186.562 102.469 188.041 102.469Z" fill="#1F3969"/>
<path d="M234.842 119.945H243.546" stroke="white" stroke-width="2.67816" stroke-miterlimit="10" stroke-linecap="round" stroke-linejoin="round"/>
<path d="M190.719 119.945H228.415" stroke="#7BFFA0" stroke-width="2.67816" stroke-miterlimit="10" stroke-linecap="round" stroke-linejoin="round"/>
<path d="M172.106 119.945H185.363" stroke="#9169FF" stroke-width="2.67816" stroke-miterlimit="10" stroke-linecap="round" stroke-linejoin="round"/>
<path d="M189.38 185.894H218.17" stroke="#9169FF" stroke-width="2.67816" stroke-miterlimit="10" stroke-linecap="round" stroke-linejoin="round"/>
<path d="M172.106 185.894H181.413" stroke="#7BFFA0" stroke-width="2.67816" stroke-miterlimit="10" stroke-linecap="round" stroke-linejoin="round"/>
<path d="M228.414 128.18H233.838" stroke="white" stroke-width="2.67816" stroke-miterlimit="10" stroke-linecap="round" stroke-linejoin="round"/>
<path d="M203.775 128.18H221.987" stroke="#9169FF" stroke-width="2.67816" stroke-miterlimit="10" stroke-linecap="round" stroke-linejoin="round"/>
<path d="M178.734 128.18H197.281" stroke="#FFC47D" stroke-width="2.67816" stroke-miterlimit="10" stroke-linecap="round" stroke-linejoin="round"/>
<path d="M207.458 136.415H223.46" stroke="white" stroke-width="2.67816" stroke-miterlimit="10" stroke-linecap="round" stroke-linejoin="round"/>
<path d="M187.372 136.415H202.436" stroke="#FF5757" stroke-width="2.67816" stroke-miterlimit="10" stroke-linecap="round" stroke-linejoin="round"/>
<path d="M209.6 144.651H212.881" stroke="white" stroke-width="2.67816" stroke-miterlimit="10" stroke-linecap="round" stroke-linejoin="round"/>
<path d="M196.344 144.651H203.776" stroke="#9169FF" stroke-width="2.67816" stroke-miterlimit="10" stroke-linecap="round" stroke-linejoin="round"/>
<path d="M178.734 144.651H190.719" stroke="#7BFFA0" stroke-width="2.67816" stroke-miterlimit="10" stroke-linecap="round" stroke-linejoin="round"/>
<path d="M204.445 152.953H225.803" stroke="#FFC47D" stroke-width="2.67816" stroke-miterlimit="10" stroke-linecap="round" stroke-linejoin="round"/>
<path d="M178.734 152.953H197.883" stroke="#FF5757" stroke-width="2.67816" stroke-miterlimit="10" stroke-linecap="round" stroke-linejoin="round"/>
<path d="M229.151 161.188H240.734" stroke="#9169FF" stroke-width="2.67816" stroke-miterlimit="10" stroke-linecap="round" stroke-linejoin="round"/>
<path d="M204.445 161.188H222.991" stroke="#FF5757" stroke-width="2.67816" stroke-miterlimit="10" stroke-linecap="round" stroke-linejoin="round"/>
<path d="M187.372 161.188H197.884" stroke="#7BFFA0" stroke-width="2.67816" stroke-miterlimit="10" stroke-linecap="round" stroke-linejoin="round"/>
<path d="M212.881 169.424H222.991" stroke="white" stroke-width="2.67816" stroke-miterlimit="10" stroke-linecap="round" stroke-linejoin="round"/>
<path d="M187.372 169.424H205.918" stroke="#9169FF" stroke-width="2.67816" stroke-miterlimit="10" stroke-linecap="round" stroke-linejoin="round"/>
<path d="M239.194 177.659H250.777" stroke="white" stroke-width="2.67816" stroke-miterlimit="10" stroke-linecap="round" stroke-linejoin="round"/>
<path d="M203.775 177.659H232.9" stroke="#FFC47D" stroke-width="2.67816" stroke-miterlimit="10" stroke-linecap="round" stroke-linejoin="round"/>
<path d="M178.734 177.659H197.281" stroke="white" stroke-width="2.67816" stroke-miterlimit="10" stroke-linecap="round" stroke-linejoin="round"/>
<path opacity="0.32" d="M333.159 229.007H242.916C240.867 229.007 239.239 227.326 239.239 225.33V160.931C239.239 158.882 240.92 157.254 242.916 157.254H333.159C335.207 157.254 336.836 158.935 336.836 160.931V225.277C336.836 227.326 335.207 229.007 333.159 229.007Z" fill="#BFCFE2"/>
<path d="M327.629 222.423H237.386C235.337 222.423 233.709 220.742 233.709 218.746V154.347C233.709 152.298 235.39 150.67 237.386 150.67H327.629C329.678 150.67 331.306 152.351 331.306 154.347V218.693C331.359 220.742 329.678 222.423 327.629 222.423Z" fill="white"/>
<path d="M327.629 222.423H237.386C235.337 222.423 233.709 220.742 233.709 218.746V154.347C233.709 152.298 235.39 150.67 237.386 150.67H327.629C329.678 150.67 331.306 152.351 331.306 154.347V218.693C331.359 220.742 329.678 222.423 327.629 222.423Z" stroke="#1F3969" stroke-width="2.10112" stroke-miterlimit="10" stroke-linecap="round" stroke-linejoin="round"/>
<path d="M331.359 161.754H233.709V154.505C233.709 152.404 235.443 150.618 237.596 150.618H327.734C329.73 150.618 331.359 152.246 331.359 154.242V161.754Z" fill="#BFCFE2"/>
<path d="M331.359 161.754H233.709V154.505C233.709 152.404 235.443 150.618 237.596 150.618H327.734C329.73 150.618 331.359 152.246 331.359 154.242V161.754Z" stroke="#1F3969" stroke-width="2.10112" stroke-miterlimit="10" stroke-linecap="round" stroke-linejoin="round"/>
<path d="M243.111 157.972C244.069 157.972 244.845 157.196 244.845 156.238C244.845 155.281 244.069 154.505 243.111 154.505C242.154 154.505 241.378 155.281 241.378 156.238C241.378 157.196 242.154 157.972 243.111 157.972Z" fill="#1F3969"/>
<path d="M248.837 157.972C249.794 157.972 250.57 157.196 250.57 156.238C250.57 155.281 249.794 154.505 248.837 154.505C247.88 154.505 247.104 155.281 247.104 156.238C247.104 157.196 247.88 157.972 248.837 157.972Z" fill="#1F3969"/>
<path d="M254.51 157.972C255.467 157.972 256.243 157.196 256.243 156.238C256.243 155.281 255.467 154.505 254.51 154.505C253.552 154.505 252.776 155.281 252.776 156.238C252.776 157.196 253.552 157.972 254.51 157.972Z" fill="#1F3969"/>
<path d="M322.166 180.979H242.166C241.588 180.979 241.116 180.506 241.116 179.928V168.74C241.116 168.162 241.588 167.689 242.166 167.689H322.166C322.744 167.689 323.217 168.162 323.217 168.74V179.928C323.217 180.506 322.744 180.979 322.166 180.979Z" fill="#FE5070"/>
<path opacity="0.2" d="M265.173 195.004H242.113C241.536 195.004 241.063 194.531 241.063 193.953V187.913C241.063 187.335 241.536 186.862 242.113 186.862H265.173C265.751 186.862 266.224 187.335 266.224 187.913V193.953C266.224 194.531 265.804 195.004 265.173 195.004Z" fill="#1F3969"/>
<path opacity="0.2" d="M244.792 200.94H263.282" stroke="#1F3969" stroke-width="2.10112" stroke-miterlimit="10" stroke-linecap="round" stroke-linejoin="round"/>
<path opacity="0.2" d="M244.792 206.875H263.282" stroke="#1F3969" stroke-width="2.10112" stroke-miterlimit="10" stroke-linecap="round" stroke-linejoin="round"/>
<path opacity="0.2" d="M294.064 195.004H271.004C270.426 195.004 269.954 194.531 269.954 193.953V187.913C269.954 187.335 270.426 186.862 271.004 186.862H294.064C294.642 186.862 295.114 187.335 295.114 187.913V193.953C295.114 194.531 294.642 195.004 294.064 195.004Z" fill="#1F3969"/>
<path opacity="0.2" d="M273.63 200.94H291.385" stroke="#1F3969" stroke-width="2.10112" stroke-miterlimit="10" stroke-linecap="round" stroke-linejoin="round"/>
<path opacity="0.2" d="M273.63 206.875H291.385" stroke="#1F3969" stroke-width="2.10112" stroke-miterlimit="10" stroke-linecap="round" stroke-linejoin="round"/>
<path opacity="0.2" d="M322.902 207.611H299.842C299.264 207.611 298.792 207.138 298.792 206.56V187.965C298.792 187.387 299.264 186.915 299.842 186.915H322.902C323.48 186.915 323.952 187.387 323.952 187.965V206.56C323.952 207.138 323.48 207.611 322.902 207.611Z" fill="#8464EB"/>
<g opacity="0.09">
<path opacity="0.09" d="M322.166 213.546H300.209C299.369 213.546 298.739 212.863 298.739 212.075C298.739 211.288 299.421 210.605 300.209 210.605H322.166C323.006 210.605 323.637 211.288 323.637 212.075C323.637 212.863 322.954 213.546 322.166 213.546Z" fill="#1F3969"/>
</g>
<path d="M14.2 229.101L7.68311 229.866L13.3509 278.144L19.8678 277.379L14.2 229.101Z" fill="#FFA364"/>
<path d="M14.209 229.152L7.69214 229.917L8.26984 234.838L14.7867 234.073L14.209 229.152Z" fill="#FF849A"/>
<path d="M14.209 229.152L7.69214 229.917L8.26984 234.838L14.7867 234.073L14.209 229.152Z" stroke="#1F3969" stroke-width="2.67816" stroke-miterlimit="10" stroke-linecap="round" stroke-linejoin="round"/>
<path d="M14.2 229.101L7.68311 229.866L13.3509 278.144L19.8678 277.379L14.2 229.101Z" stroke="#1F3969" stroke-width="2.67816" stroke-miterlimit="10" stroke-linecap="round" stroke-linejoin="round"/>
<path d="M32.07 238.99L25.5472 238.28L20.2926 286.602L26.8154 287.312L32.07 238.99Z" fill="#FF5252"/>
<path d="M32.07 238.99L25.5472 238.28L20.2926 286.602L26.8154 287.312L32.07 238.99Z" stroke="#1F3969" stroke-width="2.67816" stroke-miterlimit="10" stroke-linecap="round" stroke-linejoin="round"/>
<path d="M32.1184 239.001L25.5956 238.292L25.06 243.217L31.5828 243.926L32.1184 239.001Z" fill="#2D425E"/>
<path d="M32.1184 239.001L25.5956 238.292L25.06 243.217L31.5828 243.926L32.1184 239.001Z" stroke="#1F3969" stroke-width="2.67816" stroke-miterlimit="10" stroke-linecap="round" stroke-linejoin="round"/>
<path d="M36.1281 303.104H9.81519L5.53015 262.798H40.4132L36.1281 303.104Z" fill="#FE5070"/>
<path d="M5.53015 262.798L5.59709 263.535H32.1779L27.9598 303.104H36.1281L40.4132 262.798H5.53015Z" fill="#FF849A"/>
<path d="M36.1281 303.104H9.81519L5.53015 262.798H40.4132L36.1281 303.104Z" stroke="#1F3969" stroke-width="2.67816" stroke-miterlimit="10" stroke-linecap="round" stroke-linejoin="round"/>
<path d="M410.844 292.834H296.423V224.078C296.423 222.047 298.076 220.394 300.106 220.394H407.208C409.191 220.394 410.797 222 410.797 223.983V292.834H410.844Z" fill="#BFCFE2"/>
<path d="M411.128 292.976H296.754V224.03C296.754 221.953 298.454 220.253 300.532 220.253H407.35C409.428 220.253 411.128 221.953 411.128 224.03V292.976Z" stroke="#1F3969" stroke-width="2.10112" stroke-miterlimit="10" stroke-linecap="round" stroke-linejoin="round"/>
<path opacity="0.71" d="M404.86 286.897V226.357L303.094 226.357V286.897H404.86Z" fill="white"/>
<path opacity="0.32" d="M327.968 275.362H319.184C318.665 275.362 318.24 274.937 318.24 274.417V244.336C318.24 243.817 318.665 243.392 319.184 243.392H327.968C328.487 243.392 328.912 243.817 328.912 244.336V274.465C328.912 274.937 328.487 275.362 327.968 275.362Z" fill="#BFCFE2"/>
<path opacity="0.32" d="M391.389 281.454H340.671C339.632 281.454 338.782 280.604 338.782 279.565V240.795C338.782 239.756 339.632 238.906 340.671 238.906H391.389C392.427 238.906 393.277 239.756 393.277 240.795V279.565C393.277 280.604 392.475 281.454 391.389 281.454Z" fill="#BFCFE2"/>
<path d="M404.77 286.61V226.59L303.099 226.59V286.61H404.77Z" stroke="#1F3969" stroke-width="2.10112" stroke-miterlimit="10" stroke-linecap="round" stroke-linejoin="round"/>
<path d="M423.595 292.976H284.24V297.415C284.24 299.493 285.94 301.193 288.018 301.193H419.817C421.895 301.193 423.595 299.493 423.595 297.415V292.976Z" fill="white"/>
<path opacity="0.8" d="M289.576 301.476H418.305C420.903 301.476 423.028 299.493 423.5 296.801H284.334C284.806 299.493 286.978 301.476 289.576 301.476Z" fill="#BFCFE2"/>
<path d="M423.595 292.976H284.24V297.415C284.24 299.493 285.94 301.193 288.018 301.193H419.817C421.895 301.193 423.595 299.493 423.595 297.415V292.976Z" stroke="#1F3969" stroke-width="2.10112" stroke-miterlimit="10" stroke-linecap="round" stroke-linejoin="round"/>
<path d="M326.363 240.983H315.738V251.609H326.363V240.983Z" fill="#8464EB"/>
<path d="M326.551 241.078H315.926V251.703H326.551V241.078Z" stroke="#1F3969" stroke-width="2.10112" stroke-miterlimit="10" stroke-linecap="round" stroke-linejoin="round"/>
<path d="M326.551 241.078H315.926V251.703H326.551V241.078Z" stroke="#1F3969" stroke-width="2.10112" stroke-miterlimit="10" stroke-linecap="round" stroke-linejoin="round"/>
<path d="M326.363 251.609H315.738V262.234H326.363V251.609Z" fill="#FF849A"/>
<path d="M326.551 251.75H315.926V262.375H326.551V251.75Z" stroke="#1F3969" stroke-width="2.10112" stroke-miterlimit="10" stroke-linecap="round" stroke-linejoin="round"/>
<path d="M326.363 262.234H315.738V272.859H326.363V262.234Z" fill="#FE5070"/>
<path d="M326.551 262.376H315.926V273.001H326.551V262.376Z" stroke="#1F3969" stroke-width="2.10112" stroke-miterlimit="10" stroke-linecap="round" stroke-linejoin="round"/>
<path d="M388.318 278.195H337.554C336.515 278.195 335.665 277.345 335.665 276.306V237.536C335.665 236.497 336.515 235.647 337.554 235.647H388.318C389.357 235.647 390.207 236.497 390.207 237.536V276.306C390.207 277.392 389.357 278.195 388.318 278.195Z" fill="white"/>
<path d="M388.318 278.195H337.554C336.515 278.195 335.665 277.345 335.665 276.306V237.536C335.665 236.497 336.515 235.647 337.554 235.647H388.318C389.357 235.647 390.207 236.497 390.207 237.536V276.306C390.207 277.392 389.357 278.195 388.318 278.195Z" stroke="#1F3969" stroke-width="2.10112" stroke-miterlimit="10" stroke-linecap="round" stroke-linejoin="round"/>
<g opacity="0.3">
<g opacity="0.3">
<path opacity="0.3" d="M374.246 267.003V267.712H373.538" stroke="#1F3969" stroke-width="1.05056" stroke-linejoin="round"/>
<path opacity="0.3" d="M372.641 267.712H352.854" stroke="#1F3969" stroke-width="1.05056" stroke-linejoin="round" stroke-dasharray="1.5 1.5"/>
<path opacity="0.3" d="M352.382 267.712H351.674V267.003" stroke="#1F3969" stroke-width="1.05056" stroke-linejoin="round"/>
<path opacity="0.3" d="M351.674 266.012V247.595" stroke="#1F3969" stroke-width="1.05056" stroke-linejoin="round" stroke-dasharray="1.58 1.58"/>
<path opacity="0.3" d="M351.674 247.123V246.414H352.383" stroke="#1F3969" stroke-width="1.05056" stroke-linejoin="round"/>
<path opacity="0.3" d="M353.279 246.414H373.065" stroke="#1F3969" stroke-width="1.05056" stroke-linejoin="round" stroke-dasharray="1.5 1.5"/>
<path opacity="0.3" d="M373.538 246.414H374.246V247.122" stroke="#1F3969" stroke-width="1.05056" stroke-linejoin="round"/>
<path opacity="0.3" d="M374.246 248.067V266.531" stroke="#1F3969" stroke-width="1.05056" stroke-linejoin="round" stroke-dasharray="1.58 1.58"/>
</g>
</g>
<path d="M353.467 244.76H350.114V248.113H353.467V244.76Z" fill="white"/>
<path d="M353.279 244.62H349.974V247.925H353.279V244.62Z" stroke="#1F3969" stroke-width="0.525279" stroke-miterlimit="10" stroke-linejoin="round"/>
<path d="M353.467 266.011H350.114V269.364H353.467V266.011Z" fill="white"/>
<path d="M353.279 265.917H349.974V269.223H353.279V265.917Z" stroke="#1F3969" stroke-width="0.525279" stroke-miterlimit="10" stroke-linejoin="round"/>
<path d="M375.947 244.76H372.594V248.113H375.947V244.76Z" fill="white"/>
<path d="M375.899 244.62H372.594V247.925H375.899V244.62Z" stroke="#1F3969" stroke-width="0.525279" stroke-miterlimit="10" stroke-linejoin="round"/>
<path d="M375.947 266.011H372.594V269.364H375.947V266.011Z" fill="white"/>
<path d="M375.899 265.917H372.594V269.223H375.899V265.917Z" stroke="#1F3969" stroke-width="0.525279" stroke-miterlimit="10" stroke-linejoin="round"/>
<path d="M321.262 257.228L324.615 264.406L327.873 266.106L330.14 263.839L328.487 260.534L321.262 257.228Z" fill="white"/>
<path d="M321.262 257.228L324.615 264.406L327.873 266.106L330.14 263.839L328.487 260.534L321.262 257.228Z" stroke="#1F3969" stroke-width="0.525279" stroke-miterlimit="10" stroke-linejoin="round"/>
<path d="M325.512 262.187C326.008 262.187 326.41 261.785 326.41 261.289C326.41 260.794 326.008 260.392 325.512 260.392C325.017 260.392 324.615 260.794 324.615 261.289C324.615 261.785 325.017 262.187 325.512 262.187Z" fill="#1F3969"/>
<path d="M321.262 257.228L324.993 260.959" stroke="#1F3969" stroke-width="0.525279" stroke-miterlimit="10" stroke-linecap="round" stroke-linejoin="round"/>
<path d="M330.154 263.802L327.884 266.073L329.52 267.709L331.79 265.438L330.154 263.802Z" fill="white"/>
<path d="M330.154 263.802L327.884 266.073L329.52 267.709L331.79 265.438L330.154 263.802Z" stroke="#1F3969" stroke-width="0.525279" stroke-miterlimit="10" stroke-linejoin="round"/>
<path d="M437.876 303.053H409.11C406.759 303.053 404.835 301.129 404.835 298.778V241.117C404.835 238.766 406.759 236.843 409.11 236.843H437.876C440.227 236.843 442.151 238.766 442.151 241.117V298.778C442.151 301.172 440.227 303.053 437.876 303.053Z" fill="white"/>
<path d="M442.749 256.718H404.835V241.031C404.835 238.723 406.716 236.843 409.024 236.843H438.304C440.74 236.843 442.706 238.851 442.706 241.245V256.718H442.749Z" fill="#FE5070"/>
<path d="M437.876 303.053H409.11C406.759 303.053 404.835 301.129 404.835 298.778V241.117C404.835 238.766 406.759 236.843 409.11 236.843H437.876C440.227 236.843 442.151 238.766 442.151 241.117V298.778C442.151 301.172 440.227 303.053 437.876 303.053Z" stroke="#1F3969" stroke-width="1.70975" stroke-miterlimit="10" stroke-linecap="round" stroke-linejoin="round"/>
<path d="M437.919 303.053H409.238C406.801 303.053 404.792 301.044 404.792 298.607V290.401H442.151V298.821C442.151 301.172 440.227 303.053 437.919 303.053Z" fill="#BECCD5"/>
<path d="M438.004 303.053H409.238C406.801 303.053 404.792 301.044 404.792 298.607V290.401H442.151V298.907C442.151 301.215 440.27 303.053 438.004 303.053Z" stroke="#1F3969" stroke-width="1.70975" stroke-miterlimit="10" stroke-linecap="round" stroke-linejoin="round"/>
<path d="M423.771 298.607C424.951 298.607 425.908 297.65 425.908 296.47C425.908 295.29 424.951 294.333 423.771 294.333C422.59 294.333 421.634 295.29 421.634 296.47C421.634 297.65 422.59 298.607 423.771 298.607Z" fill="#1F3969"/>
<path opacity="0.3" d="M413.256 263.344H434.329" stroke="#1F3969" stroke-width="1.70975" stroke-miterlimit="10" stroke-linecap="round" stroke-linejoin="round"/>
<path opacity="0.3" d="M417.445 269.969H430.695" stroke="#1F3969" stroke-width="1.70975" stroke-miterlimit="10" stroke-linecap="round" stroke-linejoin="round"/>
<path opacity="0.3" d="M413.256 275.996H434.329" stroke="#1F3969" stroke-width="1.70975" stroke-miterlimit="10" stroke-linecap="round" stroke-linejoin="round"/>
<path opacity="0.62" d="M423.77 253.085C426.414 253.085 428.558 250.942 428.558 248.298C428.558 245.654 426.414 243.511 423.77 243.511C421.127 243.511 418.983 245.654 418.983 248.298C418.983 250.942 421.127 253.085 423.77 253.085Z" fill="white"/>
<path d="M430.696 282.621C430.696 283.946 429.627 285.015 428.302 285.015H419.283C417.958 285.015 416.889 283.946 416.889 282.621C416.889 281.296 417.958 280.228 419.283 280.228H428.302C429.627 280.185 430.696 281.253 430.696 282.621Z" fill="#8464EB"/>
<path d="M466.512 285.104H432.06C431.633 285.104 431.248 285.232 430.949 285.531L422.614 292.798C421.845 293.482 421.845 294.679 422.614 295.32L430.949 302.714C431.248 302.971 431.633 303.227 432.06 303.227H466.512C468.478 303.227 470.102 301.432 470.102 299.466V288.566C470.06 286.686 468.478 285.104 466.512 285.104ZM431.12 296.175C429.966 296.175 428.983 295.234 428.983 294.037C428.983 292.841 429.923 291.9 431.12 291.9C432.317 291.9 433.257 292.841 433.257 294.037C433.257 295.234 432.317 296.175 431.12 296.175Z" fill="white"/>
<path d="M450.013 285.104H439.968V303.27H450.013V285.104Z" fill="#CBBAFF"/>
<path d="M460.057 285.104H450.013V303.27H460.057V285.104Z" fill="#B49CFF"/>
<path d="M465.614 303.27H460.057V285.104H465.785C468.136 285.104 470.102 287.027 470.102 289.421V298.825C470.059 301.261 468.05 303.27 465.614 303.27Z" fill="#8464EB"/>
<path opacity="0.4" d="M467.452 286.002C467.281 285.959 467.11 285.959 466.939 285.959H432.488C432.06 285.959 431.675 286.087 431.376 286.386L423.041 293.653C422.272 294.337 422.272 295.534 423.041 296.175L428.256 300.748L433.898 302.159C434.155 302.244 434.454 302.244 434.753 302.244C435.309 302.244 435.822 302.116 436.334 301.86L467.025 286.215C467.153 286.173 467.324 286.087 467.452 286.002ZM431.547 297.03C430.393 297.03 429.41 296.089 429.41 294.892C429.41 293.696 430.35 292.755 431.547 292.755C432.744 292.755 433.684 293.696 433.684 294.892C433.684 296.089 432.744 297.03 431.547 297.03Z" fill="#848484"/>
<path d="M466.512 285.104H432.06C431.633 285.104 431.248 285.232 430.949 285.531L422.614 292.798C421.845 293.482 421.845 294.679 422.614 295.32L430.949 302.714C431.248 302.971 431.633 303.227 432.06 303.227H466.512C468.478 303.227 470.102 301.432 470.102 299.466V288.566C470.06 286.686 468.478 285.104 466.512 285.104ZM431.12 296.175C429.966 296.175 428.983 295.234 428.983 294.037C428.983 292.841 429.923 291.9 431.12 291.9C432.317 291.9 433.257 292.841 433.257 294.037C433.257 295.234 432.317 296.175 431.12 296.175Z" stroke="#1F3969" stroke-width="1.70975" stroke-miterlimit="10" stroke-linecap="round" stroke-linejoin="round"/>
<path d="M450.013 285.104H439.968V303.27H450.013V285.104Z" stroke="#1F3969" stroke-width="1.70975" stroke-miterlimit="10" stroke-linecap="round" stroke-linejoin="round"/>
<path d="M460.057 285.104H450.013V303.27H460.057V285.104Z" stroke="#1F3969" stroke-width="1.70975" stroke-miterlimit="10" stroke-linecap="round" stroke-linejoin="round"/>
<path d="M465.614 303.27H460.057V285.104H465.785C468.136 285.104 470.102 287.027 470.102 289.421V298.825C470.059 301.261 468.05 303.27 465.614 303.27Z" stroke="#1F3969" stroke-width="1.70975" stroke-miterlimit="10" stroke-linecap="round" stroke-linejoin="round"/>
<path d="M457.621 267.836L426.931 283.48C426.546 283.651 426.29 283.993 426.119 284.377L422.015 294.636C421.63 295.576 422.186 296.645 423.169 296.901L433.898 299.637C434.283 299.722 434.71 299.68 435.095 299.509L465.785 283.864C467.537 282.967 468.221 280.83 467.324 279.12L462.365 269.417C461.468 267.622 459.331 266.938 457.621 267.836Z" fill="white"/>
<path d="M451.84 270.764L442.892 275.329L451.051 291.321L459.999 286.756L451.84 270.764Z" fill="#FF849A"/>
<path d="M457.621 267.836L426.931 283.48C426.546 283.651 426.29 283.993 426.119 284.377L422.015 294.636C421.63 295.576 422.186 296.645 423.169 296.901L433.898 299.637C434.283 299.722 434.71 299.68 435.095 299.509L465.785 283.864C467.537 282.967 468.221 280.83 467.324 279.12L462.365 269.417C461.468 267.622 459.331 266.938 457.621 267.836Z" stroke="#1F3969" stroke-width="1.70975" stroke-miterlimit="10" stroke-linecap="round" stroke-linejoin="round"/>
<path d="M430.179 294.379C431.548 294.379 432.658 293.27 432.658 291.9C432.658 290.531 431.548 289.421 430.179 289.421C428.81 289.421 427.7 290.531 427.7 291.9C427.7 293.27 428.81 294.379 430.179 294.379Z" fill="#1F3969"/>
<path d="M442.872 275.352L433.925 279.918L442.084 295.91L451.032 291.344L442.872 275.352Z" fill="#FFB9C6" stroke="#1F3969" stroke-width="1.70975" stroke-miterlimit="10" stroke-linecap="round" stroke-linejoin="round"/>
<path d="M442.872 275.352L433.925 279.918L442.084 295.91L451.032 291.344L442.872 275.352Z" stroke="#1F3969" stroke-width="1.70975" stroke-miterlimit="10" stroke-linecap="round" stroke-linejoin="round"/>
<path d="M451.84 270.764L442.892 275.329L451.051 291.321L459.999 286.756L451.84 270.764Z" stroke="#1F3969" stroke-width="1.70975" stroke-miterlimit="10" stroke-linecap="round" stroke-linejoin="round"/>
<path d="M465.101 284.164L459.972 286.771L451.808 270.785L456.937 268.178C459.031 267.109 461.596 267.921 462.707 270.058L466.982 278.436C468.05 280.53 467.195 283.095 465.101 284.164Z" fill="#6567C3"/>
<path d="M465.101 284.164L459.972 286.771L451.808 270.785L456.937 268.178C459.031 267.109 461.596 267.921 462.707 270.058L466.982 278.436C468.05 280.53 467.195 283.095 465.101 284.164Z" fill="#FE5070" stroke="#1F3969" stroke-width="1.70975" stroke-miterlimit="10" stroke-linecap="round" stroke-linejoin="round"/>
</svg>
