<svg width="197" height="64" viewBox="0 0 197 64" fill="none" xmlns="http://www.w3.org/2000/svg">
<g clip-path="url(#clip0)">
<path d="M11.0494 24.3088C12.3615 25.0684 13.3974 26.2424 14.3642 27.4165C16.0907 29.6954 17.6101 32.1816 18.9912 34.6677C21.5465 31.2147 24.1017 27.7618 26.6569 24.2397C25.4829 22.4442 24.3088 20.7177 22.8586 19.1293C20.2343 16.2978 18.715 15.1238 15.262 15.8835C12.7759 16.436 0.759472 18.9912 2.41691 23.2729C3.1075 25.4828 9.18476 23.2729 11.0494 24.3088Z" fill="#00A0B0"/>
<path d="M35.4275 57.7337C36.3944 56.4215 37.3612 55.1094 38.259 53.7973C38.6734 53.2448 39.0187 52.6233 39.433 52.0708C38.6734 48.2725 36.2563 44.267 34.806 40.745C33.2176 36.7395 31.4911 32.8722 29.4193 29.1429C29.3503 28.9358 29.2122 28.7976 29.1431 28.5905C27.831 30.4551 26.5188 32.3888 25.2067 34.1843C23.9636 35.9108 22.6515 37.5682 21.3394 39.2257C25.1376 46.6841 28.3835 54.3498 31.7674 62.0154L31.8364 62.0844C32.0436 61.8082 32.2508 61.601 32.527 61.3248C33.4939 60.2198 34.5298 58.9768 35.4275 57.7337Z" fill="#00A0B0"/>
<path d="M40.7451 6.56041C41.0213 5.17921 41.5047 4.69579 42.3334 4.0052C43.8528 2.83118 45.5102 1.9334 47.3057 1.24281C47.582 1.17375 47.7892 1.03563 47.9963 1.03563C48.756 0.966566 49.5157 1.51904 49.861 2.20964C54.0736 10.3587 56.4216 20.4414 59.7365 29.0739C61.2558 33.0793 62.8442 37.1539 64.3635 41.1593C65.0541 43.024 67.6093 52.6923 69.1286 52.8304C70.0955 52.8995 70.9242 52.347 71.7529 51.9327C73.8247 50.8968 77.1396 49.9299 76.3108 53.1757C75.8965 54.9713 72.4435 56.5597 70.9932 57.5265C69.8192 58.2862 61.2558 62.706 60.1509 62.2226C59.8056 62.0844 59.6674 61.7391 59.4603 61.4629C55.731 54.6951 54.6261 45.9245 52.0018 38.6041C48.9632 29.9717 45.3721 21.4773 41.5738 13.1211C41.4357 12.9139 41.3666 12.6377 41.2285 12.4305C40.5379 10.7731 40.3307 8.49408 40.7451 6.56041Z" fill="#00A0B0"/>
<path d="M40.745 6.56039C40.8831 5.80073 41.0903 5.31731 41.3665 4.90295C36.187 9.8062 33.0103 15.6072 28.7977 21.3392C24.7922 26.7258 20.8558 32.1125 16.8503 37.4992C13.4664 42.0571 10.1515 46.4769 6.69853 51.0349C5.31734 52.8304 2.55495 56.0072 1.03563 62.4988C-0.000264287 67.1948 12.3614 50.6205 14.5023 47.7891C18.0934 43.3002 21.7536 38.8113 25.1375 34.1843C28.3833 29.8335 31.2838 25.2756 34.4606 20.7867C37.3611 16.7122 40.0544 13.9498 41.2284 12.0852C40.5378 10.4968 40.3997 8.35594 40.745 6.56039Z" fill="#004789"/>
<path d="M59.7364 29.0739C60.1507 30.1098 60.5651 31.1457 60.9104 32.1816C65.054 26.933 69.1975 21.7535 73.6174 16.9194C73.8936 16.6431 74.1008 16.3669 74.1699 15.9525C74.2389 14.9857 72.7196 14.7785 71.8909 15.331C69.6119 16.6431 67.1948 16.9194 64.9849 18.5768C62.6369 20.3723 60.7723 22.7204 58.9767 25.0684C58.8386 25.2756 58.7005 25.4828 58.4933 25.6899C58.9076 26.864 59.322 27.9689 59.7364 29.0739Z" fill="#004789"/>
<path d="M52.1398 38.6041C51.7945 37.7064 51.5183 36.8086 51.173 35.8418C50.7586 36.3942 50.3443 37.0158 49.9299 37.5682C48.894 38.9494 47.9272 40.3997 46.8913 41.7809C45.8554 43.1621 44.8195 44.5433 43.7836 45.9245C43.4383 46.4079 43.024 46.8913 42.6787 47.3747C42.3334 47.8581 42.0571 48.2034 41.5737 48.825C41.3665 49.1012 41.0903 49.4465 40.8831 49.7918C40.0544 51.104 39.1566 52.4161 38.2588 53.7282C37.3611 55.0404 36.3942 56.3525 35.4274 57.6646C34.4605 58.9077 33.4937 60.1508 32.4578 61.3248C32.2506 61.601 32.0435 61.8082 31.7672 62.0845C32.1816 62.8441 32.5269 62.9822 33.0793 62.8441C33.6318 62.7751 34.1152 62.3607 34.5296 62.0154C41.4356 56.0763 47.3747 49.1703 53.1757 41.9881C52.8995 40.8831 52.5542 39.7091 52.1398 38.6041Z" fill="#004789"/>
<path d="M104.753 31.6987C104.753 32.044 104.477 32.3203 103.856 32.3203H97.0187C96.3972 32.3203 96.1209 32.044 96.1209 31.6987C96.1209 31.0772 97.0187 31.0081 97.0187 30.3175C97.0187 29.765 96.6043 29.1435 96.0519 28.3148L93.4276 24.4474C93.3585 24.3784 93.2895 24.3093 93.2895 24.3093C93.2204 24.3093 93.1514 24.3784 93.0823 24.4474C92.1845 25.7596 91.2177 27.2098 90.7343 28.2457C90.458 28.7292 90.1818 29.3507 90.1818 29.8341C90.1818 31.0081 91.4939 30.87 91.4939 31.6297C91.4939 32.044 91.0796 32.3203 90.5271 32.3203H85.6929C85.0714 32.3203 84.7261 32.044 84.7261 31.6297C84.7261 31.1462 85.2095 30.87 85.6929 30.4556C86.3835 29.9032 87.0741 29.1435 87.9719 27.9695C88.8006 26.8645 90.389 24.5165 91.7011 22.4447C91.7702 22.3066 91.8392 22.1685 91.8392 22.0304C91.8392 21.9613 91.8392 21.8232 91.7011 21.6851L88.5934 17.0581C87.4885 15.4006 87.1432 14.8481 86.0382 14.2957C85.4857 14.0194 85.0714 13.8813 85.0714 13.3979C85.0714 13.0526 85.3476 12.7764 85.9692 12.7764H92.8061C93.4276 12.7764 93.7038 13.0526 93.7038 13.3979C93.7038 14.0194 92.737 14.0885 92.737 14.8481C92.737 15.4006 93.2204 16.1603 93.842 16.989L95.9828 20.1657C96.0519 20.2348 96.1209 20.3039 96.1209 20.3039C96.1209 20.3039 96.2591 20.2348 96.2591 20.1657C97.0878 18.9227 97.9855 17.4724 98.469 16.5746C98.6761 16.1603 98.8833 15.815 98.8833 15.2625C98.8833 14.0885 97.5712 14.2266 97.5712 13.4669C97.5712 13.0526 97.9855 12.7764 98.538 12.7764H103.372C103.994 12.7764 104.339 13.0526 104.339 13.4669C104.339 13.9504 103.856 14.2266 103.372 14.641C102.682 15.1934 101.991 15.9531 101.093 17.1271C100.334 18.163 98.9524 20.1657 97.7093 22.0994C97.6402 22.2375 97.5712 22.3757 97.5712 22.4447C97.5712 22.5138 97.5712 22.5828 97.7093 22.79L101.231 27.9695C102.336 29.5579 102.751 30.1794 103.787 30.8009C104.27 31.0772 104.753 31.1462 104.753 31.6987Z" fill="#004789"/>
<path d="M114.215 31.6291C114.215 32.1125 113.731 32.3197 113.179 32.3197H107.309C106.687 32.3197 106.273 32.0435 106.273 31.6291C106.273 31.2147 106.549 31.0766 106.963 30.8694C107.516 30.5932 107.792 30.1789 107.999 29.6954C108.137 29.2811 108.275 28.7286 108.275 26.7949V23.2729C108.275 22.5132 108.275 21.8917 108.068 21.4773C107.93 21.063 107.585 20.7867 107.032 20.5795C106.756 20.4414 106.204 20.3033 106.204 19.8199C106.204 19.4055 106.48 19.2674 107.101 19.0602C108.344 18.784 109.933 18.3006 110.9 17.9553C111.038 17.8862 111.314 17.8172 111.59 17.8172C111.936 17.8172 112.281 18.0243 112.281 18.7149C112.281 18.7149 112.281 25.8971 112.281 26.7949C112.281 28.6595 112.419 29.2811 112.557 29.6954C112.695 30.1789 113.041 30.5932 113.593 30.8694C113.869 31.0766 114.215 31.2147 114.215 31.6291ZM110.209 16.8503C109.38 16.8503 107.585 15.0548 107.585 14.226C107.585 13.3973 109.38 11.6018 110.209 11.6018C111.038 11.6018 112.833 13.3973 112.833 14.226C112.833 15.0548 111.038 16.8503 110.209 16.8503Z" fill="#004789"/>
<path d="M141.976 31.6291C141.976 32.1125 141.493 32.3197 140.941 32.3197H135.07C134.449 32.3197 134.035 32.0434 134.035 31.6291C134.035 31.2147 134.38 31.0075 134.725 30.8004C135.278 30.4551 135.554 30.1098 135.761 29.6264C135.899 29.212 136.037 28.6595 136.037 26.7258V23.3419C136.037 22.0298 135.485 20.7867 133.827 20.7867C133.275 20.7867 132.584 20.9939 132.032 21.5464C131.134 22.4441 131.065 23.9635 131.065 26.7949C131.065 28.7976 131.134 29.5573 131.203 29.8335C131.272 30.2479 131.479 30.5241 131.825 30.7313C132.101 30.9385 132.515 31.1457 132.515 31.56C132.515 32.0434 132.032 32.2506 131.479 32.2506H126.576C126.024 32.2506 125.54 31.9744 125.54 31.56C125.54 31.1457 125.955 30.9385 126.231 30.7313C126.576 30.4551 126.783 30.1788 126.852 29.8335C126.921 29.4882 126.99 28.7976 126.99 26.7949V23.6872C126.99 22.237 126.507 20.7867 124.781 20.7867C124.228 20.7867 123.676 20.9939 123.192 21.4082C122.294 22.306 122.018 23.8253 122.018 26.7258C122.018 28.5905 122.156 29.212 122.294 29.6264C122.433 30.1098 122.778 30.5241 123.33 30.8004C123.745 31.0075 124.021 31.2147 124.021 31.56C124.021 32.0434 123.537 32.2506 122.985 32.2506H117.115C116.493 32.2506 116.079 31.9744 116.079 31.56C116.079 31.1457 116.355 30.9385 116.701 30.8004C117.253 30.5241 117.529 30.1098 117.736 29.6264C117.875 29.212 118.013 28.6595 118.013 26.7258V23.2038C118.013 22.4441 118.013 21.8226 117.806 21.4082C117.667 20.9939 117.322 20.7176 116.77 20.5105C116.493 20.3723 115.941 20.2342 115.941 19.7508C115.941 19.4055 116.217 19.1983 116.839 18.9912C118.082 18.7149 119.601 18.2315 120.568 17.8862C120.775 17.8171 121.051 17.7481 121.328 17.7481C121.742 17.7481 122.087 17.8862 122.087 18.6459V20.027C122.087 20.0961 122.156 20.1652 122.225 20.1652C122.225 20.1652 122.294 20.1652 122.363 20.0961C123.468 18.4387 125.126 17.7481 126.852 17.7481C128.51 17.7481 130.029 18.5077 130.789 19.958C130.858 20.0961 130.927 20.0961 130.996 20.0961C131.065 20.0961 131.134 20.0961 131.203 19.958C132.239 18.4387 133.896 17.7481 135.554 17.7481C137.004 17.7481 138.523 18.3696 139.352 19.6817C139.974 20.6486 140.181 21.8226 140.181 23.2729V26.7258C140.181 28.5905 140.319 29.212 140.457 29.6264C140.595 30.1098 140.941 30.4551 141.493 30.8004C141.631 31.0075 141.976 31.2147 141.976 31.6291Z" fill="#004789"/>
<path d="M156.479 29.2811C156.479 29.9026 155.65 30.7313 154.822 31.2838C153.579 32.1125 151.921 32.5959 150.333 32.5959C146.327 32.5959 143.358 29.8335 143.358 25.5518C143.358 21.4773 146.396 17.7481 150.678 17.7481C153.786 17.7481 156.824 19.8889 156.824 23.3419C156.824 24.9303 156.134 25.2065 154.476 25.2065H147.916C147.778 25.2065 147.64 25.2756 147.64 25.4828C147.64 25.5518 147.64 25.6209 147.64 25.8281C147.64 26.1043 147.778 27.0021 148.33 27.8999C149.228 29.3501 150.678 29.9717 152.336 29.9717C154.476 29.9717 155.236 28.8667 155.927 28.8667C156.134 28.7286 156.479 29.0048 156.479 29.2811ZM147.501 22.9276C147.501 23.0657 147.57 23.2038 147.778 23.2038C147.847 23.2038 150.954 23.2038 150.954 23.2038C151.921 23.2038 152.681 23.0657 152.681 22.0298C152.681 20.9939 151.852 19.8889 150.471 19.8889C148.952 19.8889 147.847 20.9939 147.57 22.7204C147.501 22.8585 147.501 22.8585 147.501 22.9276Z" fill="#004789"/>
<path d="M175.609 31.6291C175.609 32.1125 175.125 32.3197 174.573 32.3197H168.703C168.081 32.3197 167.667 32.0434 167.667 31.6291C167.667 31.2147 168.012 31.0075 168.357 30.8004C168.91 30.4551 169.186 30.1098 169.393 29.6264C169.531 29.212 169.669 28.6595 169.669 26.7258V23.3419C169.669 21.8917 168.979 20.7867 167.46 20.7867C166.907 20.7867 166.216 20.9939 165.664 21.5464C164.766 22.4441 164.421 23.8944 164.421 26.7258C164.421 28.6595 164.559 29.212 164.697 29.6264C164.835 30.0407 165.181 30.4551 165.733 30.8004C166.078 31.0075 166.424 31.2147 166.424 31.6291C166.424 32.1125 165.94 32.3197 165.388 32.3197H159.518C158.896 32.3197 158.482 32.0434 158.482 31.6291C158.482 31.2147 158.758 31.0075 159.172 30.8004C159.725 30.5241 160.07 30.1098 160.208 29.6264C160.346 29.212 160.485 28.6595 160.485 26.7258V23.2038C160.485 22.4441 160.485 21.8226 160.277 21.4082C160.07 20.9939 159.863 20.7176 159.31 20.5105C159.034 20.3723 158.413 20.2342 158.413 19.7508C158.413 19.3365 158.689 19.1293 159.31 18.9912C160.554 18.7149 161.935 18.3006 162.971 17.8862C163.247 17.7481 163.523 17.7481 163.73 17.7481C164.076 17.7481 164.421 17.9553 164.421 18.6459V19.958C164.421 20.0961 164.49 20.1652 164.559 20.1652C164.628 20.1652 164.697 20.0961 164.697 20.027C165.802 18.4387 167.46 17.7481 169.117 17.7481C170.567 17.7481 172.087 18.3696 172.915 19.7508C173.537 20.6486 173.744 21.8917 173.744 23.411V26.7949C173.744 28.7286 173.882 29.2811 174.02 29.6954C174.158 30.1098 174.504 30.5241 175.056 30.8694C175.332 31.0075 175.609 31.2147 175.609 31.6291Z" fill="#004789"/>
<path d="M191.216 30.8004C191.216 31.2147 190.94 31.56 190.526 31.9053C189.904 32.3887 189.006 32.665 188.178 32.665C187.004 32.665 185.83 32.0434 185.484 30.5932C185.484 30.4551 185.484 30.4551 185.415 30.4551C185.415 30.4551 185.346 30.4551 185.277 30.5932C184.172 32.0434 182.446 32.665 180.788 32.665C178.647 32.665 176.438 31.491 176.438 29.0048C176.438 27.7617 177.059 26.4496 178.371 25.6899C179.683 24.9303 181.617 24.3778 182.86 23.8253C183.758 23.411 184.932 22.7204 184.932 21.4773C184.932 20.5105 184.241 19.8889 183.136 19.8889C182.515 19.8889 181.962 20.0961 181.479 20.4414C179.96 21.4773 179.891 22.9966 178.716 22.9966C177.819 22.9966 177.542 22.5823 177.542 21.2701C177.542 20.5105 177.681 19.6817 178.095 19.1983C178.993 18.0243 181.893 17.7481 183.343 17.7481C186.175 17.7481 189.421 19.0602 189.421 22.3751C189.421 24.2397 189.283 25.8281 189.283 27.6236C189.283 29.3501 189.283 30.1098 190.526 30.1788C190.94 30.1788 191.216 30.386 191.216 30.8004ZM185.07 25.2756C185.07 25.1375 185.07 25.1375 185.001 25.1375C184.932 25.1375 184.932 25.1375 184.863 25.2065C184.172 25.6209 182.998 25.9662 182.031 26.7258C181.272 27.2783 180.995 27.9689 180.995 28.5214C180.995 29.4882 181.686 30.1098 182.722 30.1098C183.551 30.1098 184.379 29.6264 184.794 28.7286C185.139 27.9689 185.139 27.1402 185.139 25.5518V25.2756H185.07Z" fill="#004789"/>
<path d="M94.7397 37.3611L90.7343 47.9963H88.7315L84.7261 37.3611H86.5907L89.7674 46.2007L92.9442 37.3611H94.7397Z" fill="#00A0B0"/>
<path d="M99.5739 37.3611V47.9963H97.8474V37.3611H99.5739Z" fill="#00A0B0"/>
<path d="M105.306 46.6151H108.897V47.9963H103.579V37.3611H105.306V46.6151Z" fill="#00A0B0"/>
<path d="M118.773 45.8554H114.284L113.524 48.0653H111.729L115.527 37.4301H117.53L121.397 47.9963H119.532L118.773 45.8554ZM118.289 44.4052L116.563 39.4329L114.836 44.4052H118.289Z" fill="#00A0B0"/>
<path d="M137.281 37.3611V38.8113H132.792V41.919H136.314V43.3693H132.792V47.9963H131.065V37.3611H137.281Z" fill="#00A0B0"/>
<path d="M142.046 38.7422V41.8499H145.706V43.3002H142.046V46.546H146.189V47.9963H140.319V37.3611H146.189V38.8113H142.046V38.7422Z" fill="#00A0B0"/>
<path d="M155.512 47.9963L153.095 43.7146H151.783V47.9963H150.057V37.3611H153.717C154.546 37.3611 155.236 37.4992 155.789 37.7754C156.341 38.0517 156.755 38.466 157.032 38.9494C157.308 39.4328 157.446 39.9853 157.446 40.5378C157.446 41.2284 157.239 41.8499 156.824 42.4024C156.41 42.9549 155.789 43.3693 154.96 43.5764L157.584 47.9963H155.512ZM151.783 42.3334H153.717C154.338 42.3334 154.891 42.1952 155.167 41.8499C155.512 41.5046 155.65 41.0903 155.65 40.5378C155.65 39.9853 155.512 39.571 155.167 39.2257C154.822 38.8804 154.338 38.7422 153.648 38.7422H151.783V42.3334Z" fill="#00A0B0"/>
<path d="M167.183 47.9963L164.766 43.7146H163.454V47.9963H161.728V37.3611H165.388C166.217 37.3611 166.907 37.4992 167.46 37.7754C168.012 38.0517 168.426 38.466 168.703 38.9494C168.979 39.4328 169.117 39.9853 169.117 40.5378C169.117 41.2284 168.91 41.8499 168.496 42.4024C168.081 42.9549 167.46 43.3693 166.631 43.5764L169.255 47.9963H167.183ZM163.454 42.3334H165.388C166.009 42.3334 166.562 42.1952 166.838 41.8499C167.183 41.5046 167.322 41.0903 167.322 40.5378C167.322 39.9853 167.183 39.571 166.838 39.2257C166.493 38.8804 166.009 38.7422 165.319 38.7422H163.385V42.3334H163.454Z" fill="#00A0B0"/>
<path d="M179.752 45.8554H175.263L174.573 47.9963H172.777L176.576 37.3611H178.578L182.377 47.9963H180.512L179.752 45.8554ZM179.269 44.4051L177.542 39.4328L175.816 44.4051H179.269Z" fill="#00A0B0"/>
<path d="M187.763 46.6151H191.354V47.9963H186.037V37.3611H187.763V46.6151Z" fill="#00A0B0"/>
<path d="M87.0741 52.9686C87.4194 53.1068 87.6266 53.383 87.7647 53.6592C87.9028 53.9355 88.0409 54.2808 88.0409 54.6951C88.0409 55.1095 87.9719 55.4548 87.7647 55.731C87.6266 56.0073 87.3503 56.2144 87.0741 56.4216C86.7979 56.6288 86.3835 56.6288 85.9692 56.6288H84.7261V52.7615H85.9692C86.3835 52.7615 86.7288 52.8305 87.0741 52.9686ZM87.005 55.731C87.2813 55.4548 87.3503 55.1095 87.3503 54.6951C87.3503 54.2117 87.2122 53.8664 87.005 53.6592C86.7288 53.383 86.3835 53.2449 85.9692 53.2449H85.3476V56.0763H85.9692C86.3835 56.1454 86.7979 56.0073 87.005 55.731Z" fill="#004789"/>
<path d="M91.632 53.2448V54.4188H92.9442V54.9022H91.632V56.0763H93.1514V56.6287H91.0105V52.6923H93.1514V53.2448H91.632Z" fill="#004789"/>
<path d="M96.8117 56.5597C96.6045 56.4906 96.4664 56.3525 96.3283 56.1453C96.1901 56.0072 96.1211 55.8 96.1211 55.5238H96.8117C96.8117 55.6619 96.8807 55.8 97.0189 55.9381C97.157 56.0763 97.2951 56.0763 97.5023 56.0763C97.7095 56.0763 97.9166 56.0072 97.9857 55.9381C98.0548 55.8691 98.1929 55.6619 98.1929 55.5238C98.1929 55.3857 98.1238 55.3166 98.0548 55.1785C97.9857 55.1094 97.9166 55.0404 97.7785 54.9713C97.6404 54.9022 97.5023 54.9022 97.2951 54.8332C97.0189 54.7641 96.8117 54.6951 96.6736 54.626C96.5354 54.5569 96.3973 54.4188 96.2592 54.2807C96.1211 54.1426 96.1211 53.9354 96.1211 53.7282C96.1211 53.5211 96.1902 53.3139 96.2592 53.1067C96.3973 52.9686 96.5354 52.8305 96.7426 52.6923C96.9498 52.6233 97.157 52.5542 97.4332 52.5542C97.7785 52.5542 98.1238 52.6233 98.331 52.8305C98.5382 53.0376 98.6763 53.2448 98.7454 53.5901H98.0548C98.0548 53.452 97.9857 53.3139 97.8476 53.2448C97.7095 53.1758 97.5713 53.1067 97.3642 53.1067C97.157 53.1067 97.0189 53.1758 96.9498 53.2448C96.8117 53.3139 96.7426 53.452 96.7426 53.6592C96.7426 53.7973 96.8117 53.8663 96.8807 53.9354C96.9498 54.0045 97.0189 54.0735 97.157 54.1426C97.2951 54.2117 97.4332 54.2116 97.6404 54.2807C97.9166 54.3498 98.1238 54.4188 98.2619 54.4879C98.4001 54.5569 98.5382 54.6951 98.6763 54.8332C98.8144 54.9713 98.8144 55.1785 98.8144 55.4547C98.8144 55.6619 98.7454 55.8691 98.6763 56.0072C98.5382 56.2144 98.4001 56.3525 98.1929 56.4216C97.9857 56.4906 97.7785 56.5597 97.5023 56.5597C97.226 56.6978 97.0189 56.6287 96.8117 56.5597Z" fill="#004789"/>
<path d="M102.544 52.7614V56.6287H101.922V52.7614H102.544Z" fill="#004789"/>
<path d="M108.483 53.8663C108.414 53.6591 108.275 53.521 108.068 53.452C107.861 53.3829 107.654 53.3138 107.447 53.3138C107.17 53.3138 106.963 53.3829 106.756 53.521C106.549 53.6591 106.411 53.7973 106.273 54.0044C106.135 54.2116 106.135 54.4879 106.135 54.7641C106.135 55.0403 106.204 55.3166 106.273 55.5238C106.342 55.7309 106.549 55.9381 106.756 56.0072C106.963 56.1453 107.17 56.2144 107.447 56.2144C107.792 56.2144 108.068 56.1453 108.275 55.9381C108.483 55.7309 108.621 55.4547 108.69 55.1785H107.24V54.695H109.38V55.1785C109.311 55.4547 109.242 55.7309 109.035 56.0072C108.828 56.2834 108.621 56.4906 108.344 56.6287C108.068 56.7668 107.723 56.8359 107.447 56.8359C107.101 56.8359 106.756 56.7668 106.411 56.5597C106.135 56.4215 105.858 56.1453 105.72 55.8691C105.513 55.5928 105.444 55.2475 105.444 54.8332C105.444 54.4188 105.513 54.1426 105.72 53.7973C105.927 53.521 106.135 53.2448 106.411 53.1067C106.687 52.9685 107.032 52.8304 107.378 52.8304C107.792 52.8304 108.137 52.8995 108.483 53.1067C108.828 53.3138 109.035 53.5901 109.173 54.0044H108.483V53.8663Z" fill="#004789"/>
<path d="M115.527 56.6287H114.905L112.972 53.7282V56.6287H112.35V52.6923H112.972L114.905 55.5928V52.6923H115.527V56.6287Z" fill="#004789"/>
<path d="M119.256 53.2448V54.4188H120.568V54.9022H119.256V56.0763H120.775V56.6287H118.634V52.6923H120.775V53.2448H119.256Z" fill="#004789"/>
<path d="M125.886 56.6287L124.988 55.0404H124.504V56.6287H123.883V52.7614H125.195C125.471 52.7614 125.747 52.8304 125.955 52.8995C126.162 53.0376 126.3 53.1757 126.438 53.3139C126.507 53.521 126.576 53.6592 126.576 53.9354C126.576 54.2116 126.507 54.4188 126.369 54.626C126.231 54.8332 126.024 54.9713 125.678 55.0404L126.645 56.6287H125.886ZM124.504 54.5569H125.195C125.402 54.5569 125.609 54.4879 125.747 54.3498C125.886 54.2116 125.955 54.0735 125.955 53.8663C125.955 53.6592 125.886 53.521 125.747 53.3829C125.609 53.2448 125.471 53.2448 125.195 53.2448H124.504V54.5569Z" fill="#004789"/>
<path d="M136.521 56.6287L136.037 56.1453C135.83 56.3525 135.623 56.4906 135.416 56.5597C135.209 56.6287 134.932 56.6978 134.656 56.6978C134.38 56.6978 134.104 56.6287 133.897 56.5597C133.689 56.4906 133.551 56.3525 133.413 56.1453C133.275 55.9381 133.206 55.731 133.206 55.5238C133.206 55.2475 133.275 55.0404 133.413 54.8332C133.551 54.626 133.827 54.4879 134.104 54.3498C133.966 54.2116 133.897 54.0735 133.897 54.0045C133.827 53.8663 133.827 53.7973 133.827 53.6592C133.827 53.521 133.897 53.3139 133.966 53.1758C134.035 53.0376 134.173 52.9686 134.311 52.8305C134.449 52.7614 134.656 52.6923 134.863 52.6923C135.071 52.6923 135.278 52.7614 135.416 52.8305C135.554 52.8995 135.692 53.0376 135.761 53.1758C135.83 53.3139 135.899 53.452 135.83 53.6592H135.209C135.209 53.521 135.209 53.3829 135.14 53.3139C135.071 53.2448 135.001 53.1758 134.863 53.1758C134.725 53.1758 134.656 53.2448 134.587 53.3139C134.518 53.3829 134.449 53.452 134.449 53.5901C134.449 53.6592 134.449 53.7973 134.518 53.8664C134.587 53.9354 134.656 54.0735 134.794 54.2807L135.83 55.3166L136.245 54.626H136.935L136.452 55.5238L136.314 55.731L137.28 56.6978H136.521V56.6287ZM135.623 55.731L134.587 54.6951C134.173 54.9022 133.897 55.1094 133.897 55.5238C133.897 55.731 133.966 55.8691 134.104 56.0072C134.242 56.1453 134.449 56.2144 134.656 56.2144C135.001 56.1453 135.347 56.0072 135.623 55.731Z" fill="#004789"/>
<path d="M146.189 52.9686C146.535 53.1067 146.742 53.3829 146.88 53.6592C147.018 53.9354 147.156 54.2807 147.156 54.6951C147.156 55.1094 147.087 55.4547 146.88 55.7309C146.742 56.0072 146.466 56.2144 146.189 56.4215C145.913 56.6287 145.499 56.6287 145.084 56.6287H143.841V52.7614H145.084C145.499 52.7614 145.844 52.8304 146.189 52.9686ZM146.12 55.7309C146.397 55.4547 146.466 55.1094 146.466 54.6951C146.466 54.2116 146.327 53.8663 146.12 53.6592C145.844 53.3829 145.499 53.2448 145.084 53.2448H144.463V56.0762H145.084C145.568 56.1453 145.913 56.0072 146.12 55.7309Z" fill="#004789"/>
<path d="M150.747 53.2448V54.4188H152.059V54.9022H150.747V56.0763H152.266V56.6287H150.126V52.6923H152.266V53.2448H150.747Z" fill="#004789"/>
<path d="M158.689 52.7614L157.239 56.6287H156.479L155.029 52.7614H155.72L156.894 56.0072L158.068 52.7614H158.689Z" fill="#004789"/>
<path d="M162.142 53.2448V54.4188H163.454V54.9022H162.142V56.0763H163.661V56.6287H161.521V52.6923H163.661V53.2448H162.142Z" fill="#004789"/>
<path d="M167.391 56.1453H168.703V56.6287H166.769V52.7614H167.391V56.1453Z" fill="#004789"/>
<path d="M172.294 56.4216C172.018 56.2834 171.741 56.0072 171.603 55.731C171.396 55.4547 171.327 55.1094 171.327 54.6951C171.327 54.2807 171.396 54.0045 171.603 53.6592C171.81 53.3829 172.018 53.1067 172.294 52.9686C172.57 52.8305 172.915 52.6923 173.261 52.6923C173.606 52.6923 173.951 52.7614 174.297 52.9686C174.573 53.1067 174.849 53.3829 174.987 53.6592C175.194 53.9354 175.263 54.2807 175.263 54.6951C175.263 55.1094 175.194 55.3857 174.987 55.731C174.78 56.0072 174.573 56.2834 174.297 56.4216C174.02 56.5597 173.675 56.6978 173.261 56.6978C172.984 56.6978 172.639 56.6287 172.294 56.4216ZM174.02 55.9381C174.228 55.8 174.366 55.6619 174.504 55.4547C174.642 55.2475 174.642 54.9713 174.642 54.6951C174.642 54.4188 174.573 54.1426 174.504 53.9354C174.366 53.7282 174.228 53.5211 174.02 53.452C173.813 53.3139 173.606 53.2448 173.33 53.2448C173.054 53.2448 172.846 53.3139 172.639 53.452C172.432 53.5901 172.294 53.7282 172.156 53.9354C172.018 54.1426 172.018 54.4188 172.018 54.6951C172.018 54.9713 172.087 55.2475 172.156 55.4547C172.294 55.6619 172.432 55.8691 172.639 55.9381C172.846 56.0763 173.054 56.1453 173.33 56.1453C173.606 56.1453 173.813 56.0763 174.02 55.9381Z" fill="#004789"/>
<path d="M180.857 54.4879C180.788 54.6951 180.581 54.8332 180.374 54.9022C180.167 55.0404 179.89 55.0404 179.614 55.0404H178.924V56.6287H178.233V52.7614H179.545C179.821 52.7614 180.098 52.8304 180.305 52.8995C180.512 52.9686 180.65 53.1757 180.788 53.3139C180.857 53.521 180.926 53.6592 180.926 53.9354C180.995 54.1426 180.926 54.2807 180.857 54.4879ZM180.167 54.3498C180.305 54.2116 180.374 54.0735 180.374 53.8663C180.374 53.452 180.167 53.2448 179.683 53.2448H178.993V54.4879H179.683C179.821 54.5569 180.029 54.4879 180.167 54.3498Z" fill="#004789"/>
<path d="M184.518 53.2448V54.4188H185.83V54.9022H184.518V56.0763H186.037V56.6287H183.896V52.6923H186.037V53.2448H184.518Z" fill="#004789"/>
<path d="M191.147 56.6287L190.249 55.0404H189.766V56.6287H189.144V52.7614H190.457C190.733 52.7614 191.009 52.8304 191.216 52.8995C191.423 53.0376 191.562 53.1757 191.7 53.3139C191.769 53.521 191.838 53.6592 191.838 53.9354C191.838 54.2116 191.769 54.4188 191.631 54.626C191.492 54.8332 191.285 54.9713 190.94 55.0404L191.907 56.6287H191.147ZM189.766 54.5569H190.457C190.664 54.5569 190.871 54.4879 191.009 54.3498C191.147 54.2116 191.216 54.0735 191.216 53.8663C191.216 53.6592 191.147 53.521 191.009 53.3829C190.871 53.2448 190.733 53.2448 190.457 53.2448H189.766V54.5569Z" fill="#004789"/>
</g>
<defs>
<clipPath id="clip0">
<rect width="192.539" height="62.361" fill="white" transform="translate(1.03564 1.03564)"/>
</clipPath>
</defs>
</svg>
