<svg width="375" height="458" viewBox="0 0 375 458" fill="none" xmlns="http://www.w3.org/2000/svg">
<g style="mix-blend-mode:multiply" opacity="0.33">
<g style="mix-blend-mode:multiply" opacity="0.33">
<path d="M329.38 164.65L52.3027 194.194C43.0684 195.179 36.3802 203.458 37.3642 212.686L39.5884 233.546C40.5724 242.774 48.856 249.457 58.0903 248.472L335.168 218.928C344.402 217.944 351.09 209.665 350.106 200.436L347.882 179.576C346.898 170.348 338.615 163.665 329.38 164.65Z" fill="#4E4E4E"/>
<path d="M329.38 164.65L52.3027 194.194C43.0684 195.179 36.3802 203.458 37.3642 212.686L39.5884 233.546C40.5724 242.774 48.856 249.457 58.0903 248.472L335.168 218.928C344.402 217.944 351.09 209.665 350.106 200.436L347.882 179.576C346.898 170.348 338.615 163.665 329.38 164.65Z" stroke="black" stroke-width="1.14135" stroke-linecap="round" stroke-linejoin="round"/>
</g>
<g style="mix-blend-mode:multiply" opacity="0.33">
<path d="M329.38 164.65L52.3027 194.194C43.0684 195.179 36.3802 203.458 37.3642 212.686L39.5884 233.546C40.5724 242.774 48.856 249.457 58.0903 248.472L335.168 218.928C344.402 217.944 351.09 209.665 350.106 200.436L347.882 179.576C346.898 170.348 338.615 163.665 329.38 164.65Z" fill="#4E4E4E"/>
</g>
<g style="mix-blend-mode:multiply" opacity="0.17">
<path d="M52.3025 194.194L329.38 164.65C333.815 164.177 338.255 165.484 341.725 168.283C345.195 171.083 347.409 175.145 347.882 179.576L350.483 203.969C350.772 206.675 349.973 209.385 348.262 211.503C346.551 213.621 344.069 214.972 341.361 215.261L51.2641 246.194C48.5563 246.482 45.8447 245.684 43.7259 243.975C41.6071 242.266 40.2547 239.785 39.9661 237.079L37.3652 212.686C36.8926 208.255 38.201 203.817 41.0026 200.349C43.8041 196.881 47.8692 194.667 52.3037 194.194L52.3025 194.194Z" fill="#4E4E4E"/>
</g>
<g style="mix-blend-mode:multiply" opacity="0.33">
<path d="M329.38 164.65L52.3027 194.194C43.0684 195.179 36.3802 203.458 37.3642 212.686L39.5884 233.546C40.5724 242.774 48.856 249.457 58.0903 248.472L335.168 218.928C344.402 217.944 351.09 209.665 350.106 200.436L347.882 179.576C346.898 170.348 338.615 163.665 329.38 164.65Z" fill="#4E4E4E"/>
<path d="M329.38 164.65L52.3027 194.194C43.0684 195.179 36.3802 203.458 37.3642 212.686L39.5884 233.546C40.5724 242.774 48.856 249.457 58.0903 248.472L335.168 218.928C344.402 217.944 351.09 209.665 350.106 200.436L347.882 179.576C346.898 170.348 338.615 163.665 329.38 164.65Z" stroke="#46505C" stroke-width="4.56539" stroke-linecap="round" stroke-linejoin="round"/>
</g>
<g style="mix-blend-mode:multiply" opacity="0.33">
<path d="M329.702 212.976L325.255 171.274L57.7319 199.8L62.1786 241.502L329.702 212.976Z" fill="#4E4E4E"/>
</g>
<g style="mix-blend-mode:multiply" opacity="0.33">
<path d="M329.702 212.976L325.255 171.274L57.7319 199.8L62.1786 241.502L329.702 212.976Z" fill="#4E4E4E"/>
<path d="M329.702 212.976L325.255 171.274L57.7319 199.8L62.1786 241.502L329.702 212.976Z" stroke="#46505C" stroke-width="1.14135" stroke-linecap="round" stroke-linejoin="round"/>
</g>
<g style="mix-blend-mode:multiply" opacity="0.33">
<path d="M335.169 218.927L58.0915 248.472C48.8572 249.456 42.169 257.735 43.153 266.963L61.4786 438.828C62.4626 448.057 70.7461 454.739 79.9804 453.755L357.058 424.21C366.292 423.226 372.981 414.947 371.997 405.718L353.671 233.854C352.687 224.625 344.403 217.943 335.169 218.927Z" fill="#4E4E4E"/>
</g>
<g style="mix-blend-mode:multiply" opacity="0.33">
<path d="M367.22 406.228L348.894 234.363C348.191 227.771 342.274 222.998 335.678 223.701L58.6007 253.245C52.0048 253.949 47.2275 259.862 47.9304 266.454L66.256 438.319C66.9588 444.91 72.8756 449.684 79.4716 448.981L356.549 419.436C363.145 418.733 367.922 412.819 367.22 406.228Z" fill="#4E4E4E"/>
<path d="M367.22 406.228L348.894 234.363C348.191 227.771 342.274 222.998 335.678 223.701L58.6007 253.245C52.0048 253.949 47.2275 259.862 47.9304 266.454L66.256 438.319C66.9588 444.91 72.8756 449.684 79.4716 448.981L356.549 419.436C363.145 418.733 367.922 412.819 367.22 406.228Z" stroke="#E6F3FF" stroke-width="2.28269" stroke-miterlimit="10"/>
</g>
<g style="mix-blend-mode:multiply" opacity="0.33">
<path d="M198.354 431.69L236.691 427.603C237.958 427.467 239.227 427.841 240.218 428.641C241.21 429.44 241.843 430.601 241.978 431.867L242.464 436.426L194.572 441.533L194.086 436.974C193.951 435.708 194.325 434.44 195.125 433.449C195.926 432.458 197.087 431.825 198.354 431.69Z" fill="#4E4E4E"/>
</g>
<g style="mix-blend-mode:multiply" opacity="0.33">
<path d="M335.169 218.927L58.0915 248.472C48.8572 249.456 42.169 257.735 43.153 266.963L61.4786 438.828C62.4626 448.057 70.7461 454.739 79.9804 453.755L357.058 424.21C366.292 423.226 372.981 414.947 371.997 405.718L353.671 233.854C352.687 224.625 344.403 217.943 335.169 218.927Z" fill="#4E4E4E"/>
<path d="M335.169 218.927L58.0915 248.472C48.8572 249.456 42.169 257.735 43.153 266.963L61.4786 438.828C62.4626 448.057 70.7461 454.739 79.9804 453.755L357.058 424.21C366.292 423.226 372.981 414.947 371.997 405.718L353.671 233.854C352.687 224.625 344.403 217.943 335.169 218.927Z" stroke="#46505C" stroke-width="4.56539" stroke-linecap="round" stroke-linejoin="round"/>
</g>
<g style="mix-blend-mode:multiply" opacity="0.33">
<path d="M332.099 235.455L64.5753 263.98C62.5966 264.191 61.1634 265.965 61.3742 267.943L72.3187 370.584C72.5295 372.562 74.3046 373.994 76.2834 373.783L343.807 345.257C345.785 345.046 347.219 343.272 347.008 341.295L336.063 238.653C335.852 236.676 334.077 235.244 332.099 235.455Z" fill="#4E4E4E"/>
</g>
<g style="mix-blend-mode:multiply" opacity="0.33">
<path d="M122.488 341.696L108.156 343.224C107.497 343.295 107.019 343.886 107.089 344.545L108.616 358.867C108.687 359.526 109.278 360.004 109.938 359.933L124.269 358.405C124.929 358.335 125.407 357.743 125.336 357.084L123.809 342.762C123.739 342.103 123.147 341.626 122.488 341.696Z" fill="#4E4E4E"/>
<path d="M122.488 341.696L108.156 343.224C107.497 343.295 107.019 343.886 107.089 344.545L108.616 358.867C108.687 359.526 109.278 360.004 109.938 359.933L124.269 358.405C124.929 358.335 125.407 357.743 125.336 357.084L123.809 342.762C123.739 342.103 123.147 341.626 122.488 341.696Z" stroke="#92A5C0" stroke-width="1.14135" stroke-linecap="round" stroke-linejoin="round"/>
</g>
<g style="mix-blend-mode:multiply" opacity="0.33">
<path d="M96.6441 344.452L82.3125 345.98C81.6529 346.05 81.1751 346.642 81.2454 347.301L82.7726 361.623C82.8428 362.282 83.4345 362.759 84.0941 362.689L98.4257 361.161C99.0853 361.09 99.5631 360.499 99.4928 359.84L97.9656 345.518C97.8953 344.859 97.3037 344.381 96.6441 344.452Z" fill="#4E4E4E"/>
<path d="M96.6441 344.452L82.3125 345.98C81.6529 346.05 81.1751 346.642 81.2454 347.301L82.7726 361.623C82.8428 362.282 83.4345 362.759 84.0941 362.689L98.4257 361.161C99.0853 361.09 99.5631 360.499 99.4928 359.84L97.9656 345.518C97.8953 344.859 97.3037 344.381 96.6441 344.452Z" stroke="#92A5C0" stroke-width="1.14135" stroke-linecap="round" stroke-linejoin="round"/>
</g>
<g style="mix-blend-mode:multiply" opacity="0.33">
<path d="M251.702 327.918L133.999 340.469C133.339 340.539 132.861 341.13 132.932 341.789L134.459 356.112C134.529 356.771 135.121 357.248 135.78 357.178L253.483 344.627C254.143 344.557 254.621 343.966 254.55 343.306L253.023 328.984C252.953 328.325 252.361 327.848 251.702 327.918Z" fill="#4E4E4E"/>
<path d="M251.702 327.918L133.999 340.469C133.339 340.539 132.861 341.13 132.932 341.789L134.459 356.112C134.529 356.771 135.121 357.248 135.78 357.178L253.483 344.627C254.143 344.557 254.621 343.966 254.55 343.306L253.023 328.984C252.953 328.325 252.361 327.848 251.702 327.918Z" stroke="#92A5C0" stroke-width="1.14135" stroke-linecap="round" stroke-linejoin="round"/>
</g>
<g style="mix-blend-mode:multiply" opacity="0.33">
<path d="M277.545 325.163L263.214 326.691C262.554 326.761 262.076 327.352 262.147 328.012L263.674 342.334C263.744 342.993 264.336 343.47 264.995 343.4L279.327 341.872C279.986 341.801 280.464 341.21 280.394 340.551L278.867 326.229C278.796 325.57 278.205 325.092 277.545 325.163Z" fill="#4E4E4E"/>
<path d="M277.545 325.163L263.214 326.691C262.554 326.761 262.076 327.352 262.147 328.012L263.674 342.334C263.744 342.993 264.336 343.47 264.995 343.4L279.327 341.872C279.986 341.801 280.464 341.21 280.394 340.551L278.867 326.229C278.796 325.57 278.205 325.092 277.545 325.163Z" stroke="#92A5C0" stroke-width="1.14135" stroke-linecap="round" stroke-linejoin="round"/>
</g>
<g style="mix-blend-mode:multiply" opacity="0.33">
<path d="M316.334 330.533L306.78 331.551C306.12 331.622 305.642 332.213 305.712 332.872L306.237 337.795C306.308 338.455 306.899 338.932 307.559 338.862L317.113 337.843C317.773 337.772 318.251 337.181 318.18 336.522L317.655 331.599C317.585 330.94 316.994 330.462 316.334 330.533Z" fill="#4E4E4E"/>
<path d="M316.334 330.533L306.78 331.551C306.12 331.622 305.642 332.213 305.712 332.872L306.237 337.795C306.308 338.455 306.899 338.932 307.559 338.862L317.113 337.843C317.773 337.772 318.251 337.181 318.18 336.522L317.655 331.599C317.585 330.94 316.994 330.462 316.334 330.533Z" stroke="#92A5C0" stroke-width="1.14135" stroke-linecap="round" stroke-linejoin="round"/>
</g>
<g style="mix-blend-mode:multiply" opacity="0.33">
<path d="M315.332 321.133L305.777 322.152C305.118 322.223 304.64 322.814 304.71 323.473L305.235 328.396C305.306 329.055 305.897 329.533 306.557 329.462L316.111 328.444C316.771 328.373 317.249 327.782 317.178 327.123L316.653 322.2C316.583 321.54 315.991 321.063 315.332 321.133Z" fill="#4E4E4E"/>
<path d="M315.332 321.133L305.777 322.152C305.118 322.223 304.64 322.814 304.71 323.473L305.235 328.396C305.306 329.055 305.897 329.533 306.557 329.462L316.111 328.444C316.771 328.373 317.249 327.782 317.178 327.123L316.653 322.2C316.583 321.54 315.991 321.063 315.332 321.133Z" stroke="#92A5C0" stroke-width="1.14135" stroke-linecap="round" stroke-linejoin="round"/>
</g>
<g style="mix-blend-mode:multiply" opacity="0.33">
<path d="M333.054 328.75L323.5 329.769C322.84 329.839 322.362 330.43 322.433 331.09L322.958 336.013C323.028 336.672 323.62 337.149 324.279 337.079L333.834 336.06C334.493 335.99 334.971 335.398 334.901 334.739L334.376 329.816C334.305 329.157 333.714 328.68 333.054 328.75Z" fill="#4E4E4E"/>
<path d="M333.054 328.75L323.5 329.769C322.84 329.839 322.362 330.43 322.433 331.09L322.958 336.013C323.028 336.672 323.62 337.149 324.279 337.079L333.834 336.06C334.493 335.99 334.971 335.398 334.901 334.739L334.376 329.816C334.305 329.157 333.714 328.68 333.054 328.75Z" stroke="#92A5C0" stroke-width="1.14135" stroke-linecap="round" stroke-linejoin="round"/>
</g>
<g style="mix-blend-mode:multiply" opacity="0.33">
<path d="M299.614 332.316L290.059 333.334C289.4 333.405 288.922 333.996 288.992 334.655L289.517 339.578C289.587 340.238 290.179 340.715 290.839 340.645L300.393 339.626C301.053 339.555 301.53 338.964 301.46 338.305L300.935 333.382C300.865 332.723 300.273 332.245 299.614 332.316Z" fill="#4E4E4E"/>
<path d="M299.614 332.316L290.059 333.334C289.4 333.405 288.922 333.996 288.992 334.655L289.517 339.578C289.587 340.238 290.179 340.715 290.839 340.645L300.393 339.626C301.053 339.555 301.53 338.964 301.46 338.305L300.935 333.382C300.865 332.723 300.273 332.245 299.614 332.316Z" stroke="#92A5C0" stroke-width="1.14135" stroke-linecap="round" stroke-linejoin="round"/>
</g>
<g style="mix-blend-mode:multiply" opacity="0.33">
<path d="M117.564 318.176L79.7774 322.205C79.1178 322.275 78.6401 322.866 78.7104 323.526L80.2375 337.848C80.3078 338.507 80.8995 338.984 81.5591 338.914L119.346 334.885C120.005 334.814 120.483 334.223 120.413 333.564L118.885 319.242C118.815 318.583 118.223 318.105 117.564 318.176Z" fill="#4E4E4E"/>
<path d="M117.564 318.176L79.7774 322.205C79.1178 322.275 78.6401 322.866 78.7104 323.526L80.2375 337.848C80.3078 338.507 80.8995 338.984 81.5591 338.914L119.346 334.885C120.005 334.814 120.483 334.223 120.413 333.564L118.885 319.242C118.815 318.583 118.223 318.105 117.564 318.176Z" stroke="#92A5C0" stroke-width="1.14135" stroke-linecap="round" stroke-linejoin="round"/>
</g>
<g style="mix-blend-mode:multiply" opacity="0.33">
<path d="M143.622 315.397L129.29 316.925C128.631 316.995 128.153 317.587 128.223 318.246L129.751 332.568C129.821 333.227 130.413 333.705 131.072 333.634L145.404 332.106C146.063 332.036 146.541 331.444 146.471 330.785L144.944 316.463C144.873 315.804 144.282 315.327 143.622 315.397Z" fill="#4E4E4E"/>
<path d="M143.622 315.397L129.29 316.925C128.631 316.995 128.153 317.587 128.223 318.246L129.751 332.568C129.821 333.227 130.413 333.705 131.072 333.634L145.404 332.106C146.063 332.036 146.541 331.444 146.471 330.785L144.944 316.463C144.873 315.804 144.282 315.327 143.622 315.397Z" stroke="#92A5C0" stroke-width="1.14135" stroke-linecap="round" stroke-linejoin="round"/>
</g>
<g style="mix-blend-mode:multiply" opacity="0.33">
<path d="M169.466 312.641L155.134 314.17C154.475 314.24 153.997 314.831 154.067 315.49L155.594 329.812C155.665 330.472 156.256 330.949 156.916 330.879L171.248 329.35C171.907 329.28 172.385 328.689 172.315 328.03L170.787 313.708C170.717 313.048 170.125 312.571 169.466 312.641Z" fill="#4E4E4E"/>
<path d="M169.466 312.641L155.134 314.17C154.475 314.24 153.997 314.831 154.067 315.49L155.594 329.812C155.665 330.472 156.256 330.949 156.916 330.879L171.248 329.35C171.907 329.28 172.385 328.689 172.315 328.03L170.787 313.708C170.717 313.048 170.125 312.571 169.466 312.641Z" stroke="#92A5C0" stroke-width="1.14135" stroke-linecap="round" stroke-linejoin="round"/>
</g>
<g style="mix-blend-mode:multiply" opacity="0.33">
<path d="M195.308 309.886L180.977 311.414C180.317 311.484 179.839 312.076 179.91 312.735L181.437 327.057C181.507 327.716 182.099 328.194 182.758 328.123L197.09 326.595C197.75 326.525 198.227 325.933 198.157 325.274L196.63 310.952C196.56 310.293 195.968 309.816 195.308 309.886Z" fill="#4E4E4E"/>
<path d="M195.308 309.886L180.977 311.414C180.317 311.484 179.839 312.076 179.91 312.735L181.437 327.057C181.507 327.716 182.099 328.194 182.758 328.123L197.09 326.595C197.75 326.525 198.227 325.933 198.157 325.274L196.63 310.952C196.56 310.293 195.968 309.816 195.308 309.886Z" stroke="#92A5C0" stroke-width="1.14135" stroke-linecap="round" stroke-linejoin="round"/>
</g>
<g style="mix-blend-mode:multiply" opacity="0.33">
<path d="M221.152 307.13L206.82 308.659C206.16 308.729 205.683 309.32 205.753 309.979L207.28 324.301C207.35 324.961 207.942 325.438 208.602 325.368L222.933 323.84C223.593 323.769 224.071 323.178 224 322.519L222.473 308.197C222.403 307.537 221.811 307.06 221.152 307.13Z" fill="#4E4E4E"/>
<path d="M221.152 307.13L206.82 308.659C206.16 308.729 205.683 309.32 205.753 309.979L207.28 324.301C207.35 324.961 207.942 325.438 208.602 325.368L222.933 323.84C223.593 323.769 224.071 323.178 224 322.519L222.473 308.197C222.403 307.537 221.811 307.06 221.152 307.13Z" stroke="#92A5C0" stroke-width="1.14135" stroke-linecap="round" stroke-linejoin="round"/>
</g>
<g style="mix-blend-mode:multiply" opacity="0.33">
<path d="M246.994 304.375L232.663 305.903C232.003 305.973 231.525 306.565 231.596 307.224L233.123 321.546C233.193 322.205 233.785 322.682 234.444 322.612L248.776 321.084C249.435 321.014 249.913 320.422 249.843 319.763L248.316 305.441C248.245 304.782 247.654 304.304 246.994 304.375Z" fill="#4E4E4E"/>
<path d="M246.994 304.375L232.663 305.903C232.003 305.973 231.525 306.565 231.596 307.224L233.123 321.546C233.193 322.205 233.785 322.682 234.444 322.612L248.776 321.084C249.435 321.014 249.913 320.422 249.843 319.763L248.316 305.441C248.245 304.782 247.654 304.304 246.994 304.375Z" stroke="#92A5C0" stroke-width="1.14135" stroke-linecap="round" stroke-linejoin="round"/>
</g>
<g style="mix-blend-mode:multiply" opacity="0.33">
<path d="M272.838 301.619L258.506 303.147C257.846 303.218 257.369 303.809 257.439 304.468L258.966 318.79C259.036 319.449 259.628 319.927 260.288 319.856L274.619 318.328C275.279 318.258 275.757 317.667 275.686 317.007L274.159 302.685C274.089 302.026 273.497 301.549 272.838 301.619Z" fill="#4E4E4E"/>
<path d="M272.838 301.619L258.506 303.147C257.846 303.218 257.369 303.809 257.439 304.468L258.966 318.79C259.036 319.449 259.628 319.927 260.288 319.856L274.619 318.328C275.279 318.258 275.757 317.667 275.686 317.007L274.159 302.685C274.089 302.026 273.497 301.549 272.838 301.619Z" stroke="#92A5C0" stroke-width="1.14135" stroke-linecap="round" stroke-linejoin="round"/>
</g>
<g style="mix-blend-mode:multiply" opacity="0.33">
<path d="M329.517 295.576L286.522 300.16C285.863 300.23 285.385 300.822 285.455 301.481L286.982 315.803C287.053 316.462 287.644 316.939 288.304 316.869L331.299 312.285C331.958 312.214 332.436 311.623 332.366 310.964L330.839 296.642C330.768 295.983 330.177 295.505 329.517 295.576Z" fill="#4E4E4E"/>
<path d="M329.517 295.576L286.522 300.16C285.863 300.23 285.385 300.822 285.455 301.481L286.982 315.803C287.053 316.462 287.644 316.939 288.304 316.869L331.299 312.285C331.958 312.214 332.436 311.623 332.366 310.964L330.839 296.642C330.768 295.983 330.177 295.505 329.517 295.576Z" stroke="#92A5C0" stroke-width="1.14135" stroke-linecap="round" stroke-linejoin="round"/>
</g>
<g style="mix-blend-mode:multiply" opacity="0.33">
<path d="M131.678 291.95L117.346 293.479C116.687 293.549 116.209 294.14 116.279 294.799L117.806 309.122C117.877 309.781 118.468 310.258 119.128 310.188L133.459 308.66C134.119 308.589 134.597 307.998 134.526 307.339L132.999 293.017C132.929 292.357 132.337 291.88 131.678 291.95Z" fill="#4E4E4E"/>
<path d="M131.678 291.95L117.346 293.479C116.687 293.549 116.209 294.14 116.279 294.799L117.806 309.122C117.877 309.781 118.468 310.258 119.128 310.188L133.459 308.66C134.119 308.589 134.597 307.998 134.526 307.339L132.999 293.017C132.929 292.357 132.337 291.88 131.678 291.95Z" stroke="#92A5C0" stroke-width="1.14135" stroke-linecap="round" stroke-linejoin="round"/>
</g>
<g style="mix-blend-mode:multiply" opacity="0.33">
<path d="M105.834 294.706L77.1711 297.762C76.5115 297.833 76.0338 298.424 76.1041 299.083L77.6312 313.405C77.7015 314.064 78.2932 314.542 78.9528 314.471L107.616 311.415C108.276 311.345 108.753 310.753 108.683 310.094L107.156 295.772C107.086 295.113 106.494 294.636 105.834 294.706Z" fill="#4E4E4E"/>
<path d="M105.834 294.706L77.1711 297.762C76.5115 297.833 76.0338 298.424 76.1041 299.083L77.6312 313.405C77.7015 314.064 78.2932 314.542 78.9528 314.471L107.616 311.415C108.276 311.345 108.753 310.753 108.683 310.094L107.156 295.772C107.086 295.113 106.494 294.636 105.834 294.706Z" stroke="#92A5C0" stroke-width="1.14135" stroke-linecap="round" stroke-linejoin="round"/>
</g>
<g style="mix-blend-mode:multiply" opacity="0.33">
<path d="M157.521 289.195L143.189 290.723C142.529 290.793 142.052 291.385 142.122 292.044L143.649 306.366C143.719 307.025 144.311 307.502 144.971 307.432L159.302 305.904C159.962 305.834 160.44 305.242 160.369 304.583L158.842 290.261C158.772 289.602 158.18 289.125 157.521 289.195Z" fill="#4E4E4E"/>
<path d="M157.521 289.195L143.189 290.723C142.529 290.793 142.052 291.385 142.122 292.044L143.649 306.366C143.719 307.025 144.311 307.502 144.971 307.432L159.302 305.904C159.962 305.834 160.44 305.242 160.369 304.583L158.842 290.261C158.772 289.602 158.18 289.125 157.521 289.195Z" stroke="#92A5C0" stroke-width="1.14135" stroke-linecap="round" stroke-linejoin="round"/>
</g>
<g style="mix-blend-mode:multiply" opacity="0.33">
<path d="M183.364 286.439L169.032 287.967C168.372 288.038 167.895 288.629 167.965 289.288L169.492 303.61C169.562 304.269 170.154 304.747 170.814 304.676L185.145 303.148C185.805 303.078 186.283 302.487 186.212 301.827L184.685 287.505C184.615 286.846 184.023 286.369 183.364 286.439Z" fill="#4E4E4E"/>
<path d="M183.364 286.439L169.032 287.967C168.372 288.038 167.895 288.629 167.965 289.288L169.492 303.61C169.562 304.269 170.154 304.747 170.814 304.676L185.145 303.148C185.805 303.078 186.283 302.487 186.212 301.827L184.685 287.505C184.615 286.846 184.023 286.369 183.364 286.439Z" stroke="#92A5C0" stroke-width="1.14135" stroke-linecap="round" stroke-linejoin="round"/>
</g>
<g style="mix-blend-mode:multiply" opacity="0.33">
<path d="M209.206 283.684L194.874 285.212C194.215 285.282 193.737 285.873 193.807 286.533L195.335 300.855C195.405 301.514 195.997 301.991 196.656 301.921L210.988 300.393C211.647 300.322 212.125 299.731 212.055 299.072L210.528 284.75C210.457 284.091 209.866 283.613 209.206 283.684Z" fill="#4E4E4E"/>
<path d="M209.206 283.684L194.874 285.212C194.215 285.282 193.737 285.873 193.807 286.533L195.335 300.855C195.405 301.514 195.997 301.991 196.656 301.921L210.988 300.393C211.647 300.322 212.125 299.731 212.055 299.072L210.528 284.75C210.457 284.091 209.866 283.613 209.206 283.684Z" stroke="#92A5C0" stroke-width="1.14135" stroke-linecap="round" stroke-linejoin="round"/>
</g>
<g style="mix-blend-mode:multiply" opacity="0.33">
<path d="M235.05 280.928L220.718 282.456C220.059 282.526 219.581 283.118 219.651 283.777L221.178 298.099C221.249 298.758 221.84 299.236 222.5 299.165L236.832 297.637C237.491 297.567 237.969 296.975 237.899 296.316L236.371 281.994C236.301 281.335 235.709 280.858 235.05 280.928Z" fill="#4E4E4E"/>
<path d="M235.05 280.928L220.718 282.456C220.059 282.526 219.581 283.118 219.651 283.777L221.178 298.099C221.249 298.758 221.84 299.236 222.5 299.165L236.832 297.637C237.491 297.567 237.969 296.975 237.899 296.316L236.371 281.994C236.301 281.335 235.709 280.858 235.05 280.928Z" stroke="#92A5C0" stroke-width="1.14135" stroke-linecap="round" stroke-linejoin="round"/>
</g>
<g style="mix-blend-mode:multiply" opacity="0.33">
<path d="M260.893 278.172L246.561 279.701C245.902 279.771 245.424 280.362 245.494 281.021L247.021 295.343C247.092 296.003 247.683 296.48 248.343 296.41L262.674 294.881C263.334 294.811 263.812 294.22 263.742 293.561L262.214 279.239C262.144 278.579 261.552 278.102 260.893 278.172Z" fill="#4E4E4E"/>
<path d="M260.893 278.172L246.561 279.701C245.902 279.771 245.424 280.362 245.494 281.021L247.021 295.343C247.092 296.003 247.683 296.48 248.343 296.41L262.674 294.881C263.334 294.811 263.812 294.22 263.742 293.561L262.214 279.239C262.144 278.579 261.552 278.102 260.893 278.172Z" stroke="#92A5C0" stroke-width="1.14135" stroke-linecap="round" stroke-linejoin="round"/>
</g>
<g style="mix-blend-mode:multiply" opacity="0.33">
<path d="M286.735 275.417L272.404 276.945C271.744 277.015 271.266 277.607 271.337 278.266L272.864 292.588C272.934 293.247 273.526 293.725 274.185 293.654L288.517 292.126C289.177 292.056 289.654 291.464 289.584 290.805L288.057 276.483C287.987 275.824 287.395 275.347 286.735 275.417Z" fill="#4E4E4E"/>
<path d="M286.735 275.417L272.404 276.945C271.744 277.015 271.266 277.607 271.337 278.266L272.864 292.588C272.934 293.247 273.526 293.725 274.185 293.654L288.517 292.126C289.177 292.056 289.654 291.464 289.584 290.805L288.057 276.483C287.987 275.824 287.395 275.347 286.735 275.417Z" stroke="#92A5C0" stroke-width="1.14135" stroke-linecap="round" stroke-linejoin="round"/>
</g>
<g style="mix-blend-mode:multiply" opacity="0.33">
<path d="M326.911 271.133L298.248 274.189C297.588 274.26 297.11 274.851 297.18 275.51L298.708 289.832C298.778 290.491 299.37 290.969 300.029 290.898L328.692 287.842C329.352 287.772 329.83 287.18 329.759 286.521L328.232 272.199C328.162 271.54 327.57 271.063 326.911 271.133Z" fill="#4E4E4E"/>
<path d="M326.911 271.133L298.248 274.189C297.588 274.26 297.11 274.851 297.18 275.51L298.708 289.832C298.778 290.491 299.37 290.969 300.029 290.898L328.692 287.842C329.352 287.772 329.83 287.18 329.759 286.521L328.232 272.199C328.162 271.54 327.57 271.063 326.911 271.133Z" stroke="#92A5C0" stroke-width="1.14135" stroke-linecap="round" stroke-linejoin="round"/>
</g>
<g style="mix-blend-mode:multiply" opacity="0.33">
<path d="M115.165 270.053L100.834 271.581C100.174 271.651 99.6964 272.243 99.7667 272.902L101.294 287.224C101.364 287.883 101.956 288.361 102.615 288.29L116.947 286.762C117.607 286.692 118.084 286.1 118.014 285.441L116.487 271.119C116.417 270.46 115.825 269.983 115.165 270.053Z" fill="#4E4E4E"/>
<path d="M115.165 270.053L100.834 271.581C100.174 271.651 99.6964 272.243 99.7667 272.902L101.294 287.224C101.364 287.883 101.956 288.361 102.615 288.29L116.947 286.762C117.607 286.692 118.084 286.1 118.014 285.441L116.487 271.119C116.417 270.46 115.825 269.983 115.165 270.053Z" stroke="#92A5C0" stroke-width="1.14135" stroke-linecap="round" stroke-linejoin="round"/>
</g>
<g style="mix-blend-mode:multiply" opacity="0.33">
<path d="M89.0084 272.842L74.6768 274.37C74.0173 274.441 73.5395 275.032 73.6098 275.691L75.1369 290.013C75.2072 290.672 75.7989 291.15 76.4585 291.079L90.7901 289.551C91.4497 289.481 91.9274 288.889 91.8571 288.23L90.33 273.908C90.2597 273.249 89.668 272.772 89.0084 272.842Z" fill="#4E4E4E"/>
<path d="M89.0084 272.842L74.6768 274.37C74.0173 274.441 73.5395 275.032 73.6098 275.691L75.1369 290.013C75.2072 290.672 75.7989 291.15 76.4585 291.079L90.7901 289.551C91.4497 289.481 91.9274 288.889 91.8571 288.23L90.33 273.908C90.2597 273.249 89.668 272.772 89.0084 272.842Z" stroke="#92A5C0" stroke-width="1.14135" stroke-linecap="round" stroke-linejoin="round"/>
</g>
<g style="mix-blend-mode:multiply" opacity="0.33">
<path d="M141.322 267.264L126.99 268.792C126.33 268.862 125.853 269.454 125.923 270.113L127.45 284.435C127.52 285.094 128.112 285.571 128.772 285.501L143.103 283.973C143.763 283.903 144.241 283.311 144.17 282.652L142.643 268.33C142.573 267.671 141.981 267.194 141.322 267.264Z" fill="#4E4E4E"/>
<path d="M141.322 267.264L126.99 268.792C126.33 268.862 125.853 269.454 125.923 270.113L127.45 284.435C127.52 285.094 128.112 285.571 128.772 285.501L143.103 283.973C143.763 283.903 144.241 283.311 144.17 282.652L142.643 268.33C142.573 267.671 141.981 267.194 141.322 267.264Z" stroke="#92A5C0" stroke-width="1.14135" stroke-linecap="round" stroke-linejoin="round"/>
</g>
<g style="mix-blend-mode:multiply" opacity="0.33">
<path d="M167.478 264.475L153.146 266.003C152.486 266.074 152.009 266.665 152.079 267.324L153.606 281.646C153.676 282.305 154.268 282.783 154.928 282.712L169.259 281.184C169.919 281.114 170.397 280.522 170.326 279.863L168.799 265.541C168.729 264.882 168.137 264.405 167.478 264.475Z" fill="#4E4E4E"/>
<path d="M167.478 264.475L153.146 266.003C152.486 266.074 152.009 266.665 152.079 267.324L153.606 281.646C153.676 282.305 154.268 282.783 154.928 282.712L169.259 281.184C169.919 281.114 170.397 280.522 170.326 279.863L168.799 265.541C168.729 264.882 168.137 264.405 167.478 264.475Z" stroke="#92A5C0" stroke-width="1.14135" stroke-linecap="round" stroke-linejoin="round"/>
</g>
<g style="mix-blend-mode:multiply" opacity="0.33">
<path d="M193.634 261.686L179.302 263.214C178.643 263.285 178.165 263.876 178.235 264.535L179.763 278.857C179.833 279.516 180.425 279.994 181.084 279.923L195.416 278.395C196.075 278.325 196.553 277.733 196.483 277.074L194.956 262.752C194.885 262.093 194.294 261.616 193.634 261.686Z" fill="#4E4E4E"/>
<path d="M193.634 261.686L179.302 263.214C178.643 263.285 178.165 263.876 178.235 264.535L179.763 278.857C179.833 279.516 180.425 279.994 181.084 279.923L195.416 278.395C196.075 278.325 196.553 277.733 196.483 277.074L194.956 262.752C194.885 262.093 194.294 261.616 193.634 261.686Z" stroke="#92A5C0" stroke-width="1.14135" stroke-linecap="round" stroke-linejoin="round"/>
</g>
<g style="mix-blend-mode:multiply" opacity="0.33">
<path d="M219.791 258.897L205.459 260.425C204.8 260.495 204.322 261.087 204.392 261.746L205.919 276.068C205.99 276.727 206.581 277.205 207.241 277.134L221.572 275.606C222.232 275.536 222.71 274.944 222.64 274.285L221.112 259.963C221.042 259.304 220.45 258.827 219.791 258.897Z" fill="#4E4E4E"/>
<path d="M219.791 258.897L205.459 260.425C204.8 260.495 204.322 261.087 204.392 261.746L205.919 276.068C205.99 276.727 206.581 277.205 207.241 277.134L221.572 275.606C222.232 275.536 222.71 274.944 222.64 274.285L221.112 259.963C221.042 259.304 220.45 258.827 219.791 258.897Z" stroke="#92A5C0" stroke-width="1.14135" stroke-linecap="round" stroke-linejoin="round"/>
</g>
<g style="mix-blend-mode:multiply" opacity="0.33">
<path d="M245.947 256.108L231.615 257.636C230.956 257.706 230.478 258.298 230.548 258.957L232.076 273.279C232.146 273.938 232.738 274.415 233.397 274.345L247.729 272.817C248.388 272.747 248.866 272.155 248.796 271.496L247.269 257.174C247.198 256.515 246.607 256.038 245.947 256.108Z" fill="#4E4E4E"/>
<path d="M245.947 256.108L231.615 257.636C230.956 257.706 230.478 258.298 230.548 258.957L232.076 273.279C232.146 273.938 232.738 274.415 233.397 274.345L247.729 272.817C248.388 272.747 248.866 272.155 248.796 271.496L247.269 257.174C247.198 256.515 246.607 256.038 245.947 256.108Z" stroke="#92A5C0" stroke-width="1.14135" stroke-linecap="round" stroke-linejoin="round"/>
</g>
<g style="mix-blend-mode:multiply" opacity="0.33">
<path d="M272.103 253.319L257.771 254.847C257.112 254.918 256.634 255.509 256.704 256.168L258.232 270.49C258.302 271.149 258.894 271.627 259.553 271.556L273.885 270.028C274.544 269.958 275.022 269.366 274.952 268.707L273.425 254.385C273.354 253.726 272.763 253.249 272.103 253.319Z" fill="#4E4E4E"/>
<path d="M272.103 253.319L257.771 254.847C257.112 254.918 256.634 255.509 256.704 256.168L258.232 270.49C258.302 271.149 258.894 271.627 259.553 271.556L273.885 270.028C274.544 269.958 275.022 269.366 274.952 268.707L273.425 254.385C273.354 253.726 272.763 253.249 272.103 253.319Z" stroke="#92A5C0" stroke-width="1.14135" stroke-linecap="round" stroke-linejoin="round"/>
</g>
<g style="mix-blend-mode:multiply" opacity="0.33">
<path d="M298.26 250.53L283.928 252.058C283.268 252.129 282.791 252.72 282.861 253.379L284.388 267.701C284.458 268.36 285.05 268.838 285.71 268.767L300.041 267.239C300.701 267.169 301.179 266.577 301.108 265.918L299.581 251.596C299.511 250.937 298.919 250.46 298.26 250.53Z" fill="#4E4E4E"/>
<path d="M298.26 250.53L283.928 252.058C283.268 252.129 282.791 252.72 282.861 253.379L284.388 267.701C284.458 268.36 285.05 268.838 285.71 268.767L300.041 267.239C300.701 267.169 301.179 266.577 301.108 265.918L299.581 251.596C299.511 250.937 298.919 250.46 298.26 250.53Z" stroke="#92A5C0" stroke-width="1.14135" stroke-linecap="round" stroke-linejoin="round"/>
</g>
<g style="mix-blend-mode:multiply" opacity="0.33">
<path d="M324.416 247.741L310.085 249.269C309.425 249.339 308.947 249.931 309.018 250.59L310.545 264.912C310.615 265.571 311.207 266.049 311.866 265.978L326.198 264.45C326.858 264.38 327.335 263.788 327.265 263.129L325.738 248.807C325.668 248.148 325.076 247.671 324.416 247.741Z" fill="#4E4E4E"/>
<path d="M324.416 247.741L310.085 249.269C309.425 249.339 308.947 249.931 309.018 250.59L310.545 264.912C310.615 265.571 311.207 266.049 311.866 265.978L326.198 264.45C326.858 264.38 327.335 263.788 327.265 263.129L325.738 248.807C325.668 248.148 325.076 247.671 324.416 247.741Z" stroke="#92A5C0" stroke-width="1.14135" stroke-linecap="round" stroke-linejoin="round"/>
</g>
<g style="mix-blend-mode:multiply" opacity="0.33">
<path d="M122.488 341.696L108.156 343.224C107.497 343.295 107.019 343.886 107.089 344.545L108.616 358.867C108.687 359.526 109.278 360.004 109.938 359.933L124.269 358.405C124.929 358.335 125.407 357.743 125.336 357.084L123.809 342.762C123.739 342.103 123.147 341.626 122.488 341.696Z" fill="#4E4E4E"/>
</g>
<g style="mix-blend-mode:multiply" opacity="0.33">
<path d="M96.6441 344.452L82.3125 345.98C81.6529 346.05 81.1751 346.642 81.2454 347.301L82.7726 361.623C82.8428 362.282 83.4345 362.759 84.0941 362.689L98.4257 361.161C99.0853 361.09 99.5631 360.499 99.4928 359.84L97.9656 345.518C97.8953 344.859 97.3037 344.381 96.6441 344.452Z" fill="#4E4E4E"/>
</g>
<g style="mix-blend-mode:multiply" opacity="0.33">
<path d="M251.702 327.918L133.999 340.469C133.339 340.539 132.861 341.13 132.932 341.789L134.459 356.112C134.529 356.771 135.121 357.248 135.78 357.178L253.483 344.627C254.143 344.557 254.621 343.966 254.55 343.306L253.023 328.984C252.953 328.325 252.361 327.848 251.702 327.918Z" fill="#4E4E4E"/>
</g>
<g style="mix-blend-mode:multiply" opacity="0.33">
<path d="M277.545 325.163L263.214 326.691C262.554 326.761 262.076 327.352 262.147 328.012L263.674 342.334C263.744 342.993 264.336 343.47 264.995 343.4L279.327 341.872C279.986 341.801 280.464 341.21 280.394 340.551L278.867 326.229C278.796 325.57 278.205 325.092 277.545 325.163Z" fill="#4E4E4E"/>
</g>
<g style="mix-blend-mode:multiply" opacity="0.33">
<path d="M316.334 330.533L306.78 331.551C306.12 331.622 305.642 332.213 305.712 332.872L306.237 337.795C306.308 338.455 306.899 338.932 307.559 338.862L317.113 337.843C317.773 337.772 318.251 337.181 318.18 336.522L317.655 331.599C317.585 330.94 316.994 330.462 316.334 330.533Z" fill="#4E4E4E"/>
</g>
<g style="mix-blend-mode:multiply" opacity="0.33">
<path d="M315.332 321.133L305.777 322.152C305.118 322.223 304.64 322.814 304.71 323.473L305.235 328.396C305.306 329.055 305.897 329.533 306.557 329.462L316.111 328.444C316.771 328.373 317.249 327.782 317.178 327.123L316.653 322.2C316.583 321.54 315.991 321.063 315.332 321.133Z" fill="#4E4E4E"/>
</g>
<g style="mix-blend-mode:multiply" opacity="0.33">
<path d="M333.054 328.75L323.5 329.769C322.84 329.839 322.362 330.43 322.433 331.09L322.958 336.013C323.028 336.672 323.62 337.149 324.279 337.079L333.834 336.06C334.493 335.99 334.971 335.398 334.901 334.739L334.376 329.816C334.305 329.157 333.714 328.68 333.054 328.75Z" fill="#4E4E4E"/>
</g>
<g style="mix-blend-mode:multiply" opacity="0.33">
<path d="M299.614 332.316L290.059 333.334C289.4 333.405 288.922 333.996 288.992 334.655L289.517 339.578C289.587 340.238 290.179 340.715 290.839 340.645L300.393 339.626C301.053 339.555 301.53 338.964 301.46 338.305L300.935 333.382C300.865 332.723 300.273 332.245 299.614 332.316Z" fill="#4E4E4E"/>
</g>
<g style="mix-blend-mode:multiply" opacity="0.33">
<path d="M117.564 318.176L79.7774 322.205C79.1178 322.275 78.6401 322.866 78.7104 323.526L80.2375 337.848C80.3078 338.507 80.8995 338.984 81.5591 338.914L119.346 334.885C120.005 334.814 120.483 334.223 120.413 333.564L118.885 319.242C118.815 318.583 118.223 318.105 117.564 318.176Z" fill="#4E4E4E"/>
</g>
<g style="mix-blend-mode:multiply" opacity="0.33">
<path d="M143.622 315.397L129.29 316.925C128.631 316.995 128.153 317.587 128.223 318.246L129.751 332.568C129.821 333.227 130.413 333.705 131.072 333.634L145.404 332.106C146.063 332.036 146.541 331.444 146.471 330.785L144.944 316.463C144.873 315.804 144.282 315.327 143.622 315.397Z" fill="#4E4E4E"/>
</g>
<g style="mix-blend-mode:multiply" opacity="0.33">
<path d="M169.466 312.641L155.134 314.17C154.475 314.24 153.997 314.831 154.067 315.49L155.594 329.812C155.665 330.472 156.256 330.949 156.916 330.879L171.248 329.35C171.907 329.28 172.385 328.689 172.315 328.03L170.787 313.708C170.717 313.048 170.125 312.571 169.466 312.641Z" fill="#4E4E4E"/>
</g>
<g style="mix-blend-mode:multiply" opacity="0.33">
<path d="M195.308 309.886L180.977 311.414C180.317 311.484 179.839 312.076 179.91 312.735L181.437 327.057C181.507 327.716 182.099 328.194 182.758 328.123L197.09 326.595C197.75 326.525 198.227 325.933 198.157 325.274L196.63 310.952C196.56 310.293 195.968 309.816 195.308 309.886Z" fill="#4E4E4E"/>
</g>
<g style="mix-blend-mode:multiply" opacity="0.33">
<path d="M221.152 307.13L206.82 308.659C206.16 308.729 205.683 309.32 205.753 309.979L207.28 324.301C207.35 324.961 207.942 325.438 208.602 325.368L222.933 323.84C223.593 323.769 224.071 323.178 224 322.519L222.473 308.197C222.403 307.537 221.811 307.06 221.152 307.13Z" fill="#4E4E4E"/>
</g>
<g style="mix-blend-mode:multiply" opacity="0.33">
<path d="M246.994 304.375L232.663 305.903C232.003 305.973 231.525 306.565 231.596 307.224L233.123 321.546C233.193 322.205 233.785 322.682 234.444 322.612L248.776 321.084C249.435 321.014 249.913 320.422 249.843 319.763L248.316 305.441C248.245 304.782 247.654 304.304 246.994 304.375Z" fill="#4E4E4E"/>
</g>
<g style="mix-blend-mode:multiply" opacity="0.33">
<path d="M272.838 301.619L258.506 303.147C257.846 303.218 257.369 303.809 257.439 304.468L258.966 318.79C259.036 319.449 259.628 319.927 260.288 319.856L274.619 318.328C275.279 318.258 275.757 317.667 275.686 317.007L274.159 302.685C274.089 302.026 273.497 301.549 272.838 301.619Z" fill="#4E4E4E"/>
</g>
<g style="mix-blend-mode:multiply" opacity="0.33">
<path d="M329.517 295.576L286.522 300.16C285.863 300.23 285.385 300.822 285.455 301.481L286.982 315.803C287.053 316.462 287.644 316.939 288.304 316.869L331.299 312.285C331.958 312.214 332.436 311.623 332.366 310.964L330.839 296.642C330.768 295.983 330.177 295.505 329.517 295.576Z" fill="#4E4E4E"/>
</g>
<g style="mix-blend-mode:multiply" opacity="0.33">
<path d="M131.678 291.95L117.346 293.479C116.687 293.549 116.209 294.14 116.279 294.799L117.806 309.122C117.877 309.781 118.468 310.258 119.128 310.188L133.459 308.66C134.119 308.589 134.597 307.998 134.526 307.339L132.999 293.017C132.929 292.357 132.337 291.88 131.678 291.95Z" fill="#4E4E4E"/>
</g>
<g style="mix-blend-mode:multiply" opacity="0.33">
<path d="M105.834 294.706L77.1711 297.762C76.5115 297.833 76.0338 298.424 76.1041 299.083L77.6312 313.405C77.7015 314.064 78.2932 314.542 78.9528 314.471L107.616 311.415C108.276 311.345 108.753 310.753 108.683 310.094L107.156 295.772C107.086 295.113 106.494 294.636 105.834 294.706Z" fill="#4E4E4E"/>
</g>
<g style="mix-blend-mode:multiply" opacity="0.33">
<path d="M157.521 289.195L143.189 290.723C142.529 290.793 142.052 291.385 142.122 292.044L143.649 306.366C143.719 307.025 144.311 307.502 144.971 307.432L159.302 305.904C159.962 305.834 160.44 305.242 160.369 304.583L158.842 290.261C158.772 289.602 158.18 289.125 157.521 289.195Z" fill="#4E4E4E"/>
</g>
<g style="mix-blend-mode:multiply" opacity="0.33">
<path d="M183.364 286.439L169.032 287.967C168.372 288.038 167.895 288.629 167.965 289.288L169.492 303.61C169.562 304.269 170.154 304.747 170.814 304.676L185.145 303.148C185.805 303.078 186.283 302.487 186.212 301.827L184.685 287.505C184.615 286.846 184.023 286.369 183.364 286.439Z" fill="#4E4E4E"/>
</g>
<g style="mix-blend-mode:multiply" opacity="0.33">
<path d="M209.206 283.684L194.874 285.212C194.215 285.282 193.737 285.873 193.807 286.533L195.335 300.855C195.405 301.514 195.997 301.991 196.656 301.921L210.988 300.393C211.647 300.322 212.125 299.731 212.055 299.072L210.528 284.75C210.457 284.091 209.866 283.613 209.206 283.684Z" fill="#4E4E4E"/>
</g>
<g style="mix-blend-mode:multiply" opacity="0.33">
<path d="M235.05 280.928L220.718 282.456C220.059 282.526 219.581 283.118 219.651 283.777L221.178 298.099C221.249 298.758 221.84 299.236 222.5 299.165L236.832 297.637C237.491 297.567 237.969 296.975 237.899 296.316L236.371 281.994C236.301 281.335 235.709 280.858 235.05 280.928Z" fill="#4E4E4E"/>
</g>
<g style="mix-blend-mode:multiply" opacity="0.33">
<path d="M260.893 278.172L246.561 279.701C245.902 279.771 245.424 280.362 245.494 281.021L247.021 295.343C247.092 296.003 247.683 296.48 248.343 296.41L262.674 294.881C263.334 294.811 263.812 294.22 263.742 293.561L262.214 279.239C262.144 278.579 261.552 278.102 260.893 278.172Z" fill="#4E4E4E"/>
</g>
<g style="mix-blend-mode:multiply" opacity="0.33">
<path d="M286.735 275.417L272.404 276.945C271.744 277.015 271.266 277.607 271.337 278.266L272.864 292.588C272.934 293.247 273.526 293.725 274.185 293.654L288.517 292.126C289.177 292.056 289.654 291.464 289.584 290.805L288.057 276.483C287.987 275.824 287.395 275.347 286.735 275.417Z" fill="#4E4E4E"/>
</g>
<g style="mix-blend-mode:multiply" opacity="0.33">
<path d="M326.911 271.133L298.248 274.189C297.588 274.26 297.11 274.851 297.18 275.51L298.708 289.832C298.778 290.491 299.37 290.969 300.029 290.898L328.692 287.842C329.352 287.772 329.83 287.18 329.759 286.521L328.232 272.199C328.162 271.54 327.57 271.063 326.911 271.133Z" fill="#4E4E4E"/>
</g>
<g style="mix-blend-mode:multiply" opacity="0.33">
<path d="M115.165 270.053L100.834 271.581C100.174 271.651 99.6964 272.243 99.7667 272.902L101.294 287.224C101.364 287.883 101.956 288.361 102.615 288.29L116.947 286.762C117.607 286.692 118.084 286.1 118.014 285.441L116.487 271.119C116.417 270.46 115.825 269.983 115.165 270.053Z" fill="#4E4E4E"/>
</g>
<g style="mix-blend-mode:multiply" opacity="0.33">
<path d="M89.0084 272.842L74.6768 274.37C74.0173 274.441 73.5395 275.032 73.6098 275.691L75.1369 290.013C75.2072 290.672 75.7989 291.15 76.4585 291.079L90.7901 289.551C91.4497 289.481 91.9274 288.889 91.8571 288.23L90.33 273.908C90.2597 273.249 89.668 272.772 89.0084 272.842Z" fill="#4E4E4E"/>
</g>
<g style="mix-blend-mode:multiply" opacity="0.33">
<path d="M141.322 267.264L126.99 268.792C126.33 268.862 125.853 269.454 125.923 270.113L127.45 284.435C127.52 285.094 128.112 285.571 128.772 285.501L143.103 283.973C143.763 283.903 144.241 283.311 144.17 282.652L142.643 268.33C142.573 267.671 141.981 267.194 141.322 267.264Z" fill="#4E4E4E"/>
</g>
<g style="mix-blend-mode:multiply" opacity="0.33">
<path d="M167.478 264.475L153.146 266.003C152.486 266.074 152.009 266.665 152.079 267.324L153.606 281.646C153.676 282.305 154.268 282.783 154.928 282.712L169.259 281.184C169.919 281.114 170.397 280.522 170.326 279.863L168.799 265.541C168.729 264.882 168.137 264.405 167.478 264.475Z" fill="#4E4E4E"/>
</g>
<g style="mix-blend-mode:multiply" opacity="0.33">
<path d="M193.634 261.686L179.302 263.214C178.643 263.285 178.165 263.876 178.235 264.535L179.763 278.857C179.833 279.516 180.425 279.994 181.084 279.923L195.416 278.395C196.075 278.325 196.553 277.733 196.483 277.074L194.956 262.752C194.885 262.093 194.294 261.616 193.634 261.686Z" fill="#4E4E4E"/>
</g>
<g style="mix-blend-mode:multiply" opacity="0.33">
<path d="M219.791 258.897L205.459 260.425C204.8 260.495 204.322 261.087 204.392 261.746L205.919 276.068C205.99 276.727 206.581 277.205 207.241 277.134L221.572 275.606C222.232 275.536 222.71 274.944 222.64 274.285L221.112 259.963C221.042 259.304 220.45 258.827 219.791 258.897Z" fill="#4E4E4E"/>
</g>
<g style="mix-blend-mode:multiply" opacity="0.33">
<path d="M245.947 256.108L231.615 257.636C230.956 257.706 230.478 258.298 230.548 258.957L232.076 273.279C232.146 273.938 232.738 274.415 233.397 274.345L247.729 272.817C248.388 272.747 248.866 272.155 248.796 271.496L247.269 257.174C247.198 256.515 246.607 256.038 245.947 256.108Z" fill="#4E4E4E"/>
</g>
<g style="mix-blend-mode:multiply" opacity="0.33">
<path d="M272.103 253.319L257.771 254.847C257.112 254.918 256.634 255.509 256.704 256.168L258.232 270.49C258.302 271.149 258.894 271.627 259.553 271.556L273.885 270.028C274.544 269.958 275.022 269.366 274.952 268.707L273.425 254.385C273.354 253.726 272.763 253.249 272.103 253.319Z" fill="#4E4E4E"/>
</g>
<g style="mix-blend-mode:multiply" opacity="0.33">
<path d="M298.26 250.53L283.928 252.058C283.268 252.129 282.791 252.72 282.861 253.379L284.388 267.701C284.458 268.36 285.05 268.838 285.71 268.767L300.041 267.239C300.701 267.169 301.179 266.577 301.108 265.918L299.581 251.596C299.511 250.937 298.919 250.46 298.26 250.53Z" fill="#4E4E4E"/>
</g>
<g style="mix-blend-mode:multiply" opacity="0.33">
<path d="M324.416 247.741L310.085 249.269C309.425 249.339 308.947 249.931 309.018 250.59L310.545 264.912C310.615 265.571 311.207 266.049 311.866 265.978L326.198 264.45C326.858 264.38 327.335 263.788 327.265 263.129L325.738 248.807C325.668 248.148 325.076 247.671 324.416 247.741Z" fill="#4E4E4E"/>
</g>
<g style="mix-blend-mode:multiply" opacity="0.33">
<path d="M93.9702 233.802L297.001 212.153L298.712 228.201C298.847 229.468 298.474 230.736 297.673 231.726C296.873 232.717 295.711 233.35 294.444 233.485L100.968 254.115C99.7006 254.25 98.4319 253.877 97.4405 253.077C96.4492 252.277 95.8164 251.116 95.6814 249.85L93.9702 233.802Z" fill="#4E4E4E"/>
</g>
<g style="mix-blend-mode:multiply" opacity="0.25">
<path d="M293.935 228.709L100.459 249.339C99.1916 249.474 97.9229 249.101 96.9315 248.301C95.9402 247.501 95.3074 246.341 95.1724 245.075L95.6814 249.849C95.8164 251.115 96.4492 252.275 97.4406 253.075C98.4319 253.875 99.7007 254.248 100.968 254.113L294.444 233.483C295.711 233.348 296.873 232.716 297.673 231.725C298.474 230.734 298.847 229.466 298.712 228.2L298.203 223.426C298.338 224.692 297.965 225.96 297.164 226.951C296.364 227.942 295.202 228.574 293.935 228.709Z" fill="#4E4E4E"/>
</g>
<g style="mix-blend-mode:multiply" opacity="0.33">
<path d="M93.9702 233.802L297.001 212.153L298.712 228.201C298.847 229.468 298.474 230.736 297.673 231.726C296.873 232.717 295.711 233.35 294.444 233.485L100.968 254.115C99.7006 254.25 98.4319 253.877 97.4405 253.077C96.4492 252.277 95.8164 251.116 95.6814 249.85L93.9702 233.802Z" fill="#4E4E4E"/>
<path d="M93.9702 233.802L297.001 212.153L298.712 228.201C298.847 229.468 298.474 230.736 297.673 231.726C296.873 232.717 295.711 233.35 294.444 233.485L100.968 254.115C99.7006 254.25 98.4319 253.877 97.4405 253.077C96.4492 252.277 95.8164 251.116 95.6814 249.85L93.9702 233.802Z" stroke="#46505C" stroke-width="2.28269" stroke-linecap="round" stroke-linejoin="round"/>
</g>
<g style="mix-blend-mode:multiply" opacity="0.33">
<path d="M252.483 361.03L168.882 369.944C167.563 370.084 166.607 371.267 166.748 372.585L172.729 428.68C172.87 429.999 174.053 430.953 175.372 430.813L258.973 421.898C260.292 421.758 261.248 420.575 261.107 419.257L255.126 363.162C254.985 361.844 253.802 360.889 252.483 361.03Z" fill="#4E4E4E"/>
</g>
<g style="mix-blend-mode:multiply" opacity="0.33">
<path d="M252.483 361.03L168.882 369.944C167.563 370.084 166.607 371.267 166.748 372.585L172.729 428.68C172.87 429.999 174.053 430.953 175.372 430.813L258.973 421.898C260.292 421.758 261.248 420.575 261.107 419.257L255.126 363.162C254.985 361.844 253.802 360.889 252.483 361.03Z" fill="#4E4E4E"/>
<path d="M252.483 361.03L168.882 369.944C167.563 370.084 166.607 371.267 166.748 372.585L172.729 428.68C172.87 429.999 174.053 430.953 175.372 430.813L258.973 421.898C260.292 421.758 261.248 420.575 261.107 419.257L255.126 363.162C254.985 361.844 253.802 360.889 252.483 361.03Z" stroke="#92A5C0" stroke-width="1.14135" stroke-linecap="round" stroke-linejoin="round"/>
</g>
</g>
<path d="M303.603 12.9632L26.5259 42.5074C17.2916 43.4921 10.6033 51.7712 11.5873 60.9994L28.8948 223.316C29.8788 232.544 38.1624 239.227 47.3967 238.242L324.474 208.698C333.709 207.714 340.397 199.434 339.413 190.206L322.105 27.8895C321.121 18.6613 312.838 11.9786 303.603 12.9632Z" stroke="black" stroke-width="1.14135" stroke-linecap="round" stroke-linejoin="round"/>
<path d="M303.603 12.9632L26.5259 42.5074C17.2916 43.4921 10.6033 51.7712 11.5873 60.9994L28.8948 223.316C29.8788 232.544 38.1624 239.227 47.3967 238.242L324.474 208.698C333.709 207.714 340.397 199.434 339.413 190.206L322.105 27.8895C321.121 18.6613 312.838 11.9786 303.603 12.9632Z" fill="#92A5C0"/>
<path d="M303.603 12.9632L26.5259 42.5074C17.2916 43.4921 10.6033 51.7712 11.5873 60.9994L28.8948 223.316C29.8788 232.544 38.1624 239.227 47.3967 238.242L324.474 208.698C333.709 207.714 340.397 199.434 339.413 190.206L322.105 27.8895C321.121 18.6613 312.838 11.9786 303.603 12.9632Z" fill="#92A5C0"/>
<g style="mix-blend-mode:multiply" opacity="0.17">
<path d="M303.603 12.9632L26.5259 42.5074C17.2916 43.4921 10.6033 51.7712 11.5873 60.9994L27.7515 212.594C28.7355 221.822 37.0191 228.505 46.2534 227.52L323.331 197.976C332.565 196.991 339.253 188.712 338.269 179.484L322.105 27.8895C321.121 18.6613 312.838 11.9786 303.603 12.9632Z" fill="#92A5C0"/>
</g>
<path opacity="0.1" d="M27.0345 47.2773L304.112 17.7331C308.547 17.2603 312.987 18.5672 316.457 21.3664C319.927 24.1656 322.141 28.2278 322.614 32.6593L339.412 190.202L322.105 27.8853C321.632 23.4538 319.418 19.3916 315.948 16.5924C312.478 13.7932 308.037 12.4862 303.603 12.9591L26.5255 42.5033C22.091 42.9761 18.0259 45.19 15.2244 48.6579C12.4229 52.1258 11.1144 56.5637 11.587 60.9952L12.096 65.7692C11.6235 61.3377 12.9319 56.8999 15.7334 53.432C18.5349 49.964 22.6001 47.7502 27.0345 47.2773V47.2773Z" fill="white"/>
<g opacity="0.1">
<path opacity="0.1" d="M125.298 229.936L144.489 227.89L265.922 16.9815L246.731 19.0278L125.298 229.936Z" fill="white"/>
<path opacity="0.1" d="M155.56 226.709L161.464 226.08L282.899 15.171L276.993 15.8007L155.56 226.709Z" fill="white"/>
</g>
<path d="M303.603 12.9632L26.5259 42.5074C17.2916 43.4921 10.6033 51.7712 11.5873 60.9994L28.8948 223.316C29.8788 232.544 38.1624 239.227 47.3967 238.242L324.474 208.698C333.709 207.714 340.397 199.434 339.413 190.206L322.105 27.8895C321.121 18.6613 312.838 11.9786 303.603 12.9632Z" stroke="#46505C" stroke-width="4.56539" stroke-linecap="round" stroke-linejoin="round"/>
<path d="M317.146 185.284L301.178 35.5283L33.655 64.0538L49.6232 213.81L317.146 185.284Z" fill="#FE5070"/>
<g opacity="0.06">
<path opacity="0.06" d="M140.945 204.705L160.137 202.659L253.433 40.6194L234.241 42.6657L140.945 204.705Z" fill="white"/>
<path opacity="0.06" d="M171.208 201.479L177.113 200.849L270.409 38.8097L264.505 39.4393L171.208 201.479Z" fill="white"/>
</g>
<path d="M317.213 185.91L301.178 35.5283L33.655 64.0538L49.6899 214.436L317.213 185.91Z" stroke="#46505C" stroke-width="1.14135" stroke-linecap="round" stroke-linejoin="round"/>
<path d="M324.474 208.699L47.397 238.244C38.1626 239.228 31.4744 247.507 32.4584 256.735L50.784 428.6C51.768 437.828 60.0516 444.511 69.2859 443.527L346.363 413.982C355.598 412.998 362.286 404.719 361.302 395.49L342.976 223.626C341.992 214.397 333.709 207.715 324.474 208.699Z" fill="#E6F3FF"/>
<path d="M356.525 396L338.199 224.135C337.496 217.543 331.579 212.77 324.984 213.473L47.9059 243.018C41.31 243.721 36.5327 249.635 37.2356 256.226L55.5612 428.091C56.264 434.683 62.1808 439.456 68.7767 438.753L345.854 409.208C352.45 408.505 357.228 402.591 356.525 396Z" fill="white" stroke="#E6F3FF" stroke-width="2.28269" stroke-miterlimit="10"/>
<path d="M187.66 421.465L225.997 417.377C227.264 417.242 228.533 417.615 229.524 418.415C230.515 419.215 231.148 420.375 231.283 421.642L231.769 426.201L183.878 431.307L183.392 426.748C183.257 425.482 183.631 424.214 184.431 423.223C185.232 422.232 186.393 421.6 187.66 421.465Z" fill="#E6F3FF"/>
<path d="M324.474 208.699L47.397 238.244C38.1626 239.228 31.4744 247.507 32.4584 256.735L50.784 428.6C51.768 437.828 60.0516 444.511 69.2859 443.527L346.363 413.982C355.598 412.998 362.286 404.719 361.302 395.49L342.976 223.626C341.992 214.397 333.709 207.715 324.474 208.699Z" stroke="#46505C" stroke-width="4.56539" stroke-linecap="round" stroke-linejoin="round"/>
<path d="M321.405 225.224L53.8818 253.75C51.9031 253.961 50.4699 255.735 50.6807 257.712L61.6252 360.354C61.836 362.331 63.6111 363.763 65.5899 363.552L333.113 335.027C335.092 334.816 336.525 333.042 336.314 331.064L325.37 228.423C325.159 226.445 323.384 225.013 321.405 225.224Z" fill="#E6F3FF"/>
<path d="M111.793 331.467L97.4616 332.995C96.802 333.065 96.3243 333.656 96.3946 334.316L97.9217 348.638C97.992 349.297 98.5837 349.774 99.2433 349.704L113.575 348.176C114.234 348.105 114.712 347.514 114.642 346.855L113.115 332.533C113.045 331.874 112.453 331.396 111.793 331.467Z" stroke="#92A5C0" stroke-width="1.14135" stroke-linecap="round" stroke-linejoin="round"/>
<path d="M85.9503 334.222L71.6187 335.75C70.9591 335.821 70.4814 336.412 70.5517 337.071L72.0788 351.393C72.1491 352.052 72.7408 352.53 73.4004 352.459L87.732 350.931C88.3916 350.861 88.8693 350.27 88.799 349.61L87.2719 335.288C87.2016 334.629 86.6099 334.152 85.9503 334.222Z" stroke="#92A5C0" stroke-width="1.14135" stroke-linecap="round" stroke-linejoin="round"/>
<path d="M241.008 317.689L123.305 330.239C122.646 330.309 122.168 330.901 122.238 331.56L123.765 345.882C123.836 346.541 124.427 347.019 125.087 346.948L242.79 334.398C243.449 334.327 243.927 333.736 243.857 333.077L242.33 318.755C242.259 318.096 241.668 317.618 241.008 317.689Z" stroke="#92A5C0" stroke-width="1.14135" stroke-linecap="round" stroke-linejoin="round"/>
<path d="M266.851 314.933L252.519 316.461C251.86 316.532 251.382 317.123 251.452 317.782L252.98 332.104C253.05 332.763 253.642 333.241 254.301 333.17L268.633 331.642C269.292 331.572 269.77 330.981 269.7 330.321L268.173 315.999C268.102 315.34 267.511 314.863 266.851 314.933Z" stroke="#92A5C0" stroke-width="1.14135" stroke-linecap="round" stroke-linejoin="round"/>
<path d="M305.639 320.303L296.085 321.322C295.425 321.392 294.948 321.984 295.018 322.643L295.543 327.566C295.613 328.225 296.205 328.702 296.864 328.632L306.419 327.613C307.078 327.543 307.556 326.952 307.486 326.292L306.961 321.369C306.891 320.71 306.299 320.233 305.639 320.303Z" stroke="#92A5C0" stroke-width="1.14135" stroke-linecap="round" stroke-linejoin="round"/>
<path d="M304.637 310.904L295.083 311.923C294.423 311.993 293.945 312.584 294.016 313.244L294.541 318.167C294.611 318.826 295.203 319.303 295.862 319.233L305.417 318.214C306.076 318.144 306.554 317.552 306.484 316.893L305.959 311.97C305.888 311.311 305.297 310.834 304.637 310.904Z" stroke="#92A5C0" stroke-width="1.14135" stroke-linecap="round" stroke-linejoin="round"/>
<path d="M322.359 318.52L312.805 319.539C312.145 319.609 311.668 320.201 311.738 320.86L312.263 325.783C312.333 326.442 312.925 326.92 313.584 326.849L323.139 325.831C323.798 325.76 324.276 325.169 324.206 324.51L323.681 319.587C323.611 318.927 323.019 318.45 322.359 318.52Z" stroke="#92A5C0" stroke-width="1.14135" stroke-linecap="round" stroke-linejoin="round"/>
<path d="M288.919 322.086L279.364 323.105C278.705 323.175 278.227 323.767 278.297 324.426L278.822 329.349C278.893 330.008 279.484 330.485 280.144 330.415L289.698 329.396C290.358 329.326 290.836 328.735 290.765 328.075L290.24 323.152C290.17 322.493 289.578 322.016 288.919 322.086Z" stroke="#92A5C0" stroke-width="1.14135" stroke-linecap="round" stroke-linejoin="round"/>
<path d="M106.87 307.948L69.0839 311.977C68.4244 312.047 67.9466 312.639 68.0169 313.298L69.544 327.62C69.6143 328.279 70.206 328.757 70.8656 328.686L108.652 324.657C109.312 324.587 109.789 323.995 109.719 323.336L108.192 309.014C108.122 308.355 107.53 307.878 106.87 307.948Z" stroke="#92A5C0" stroke-width="1.14135" stroke-linecap="round" stroke-linejoin="round"/>
<path d="M132.929 305.169L118.597 306.698C117.938 306.768 117.46 307.359 117.53 308.018L119.057 322.341C119.128 323 119.719 323.477 120.379 323.407L134.711 321.879C135.37 321.808 135.848 321.217 135.778 320.558L134.251 306.236C134.18 305.576 133.589 305.099 132.929 305.169Z" stroke="#92A5C0" stroke-width="1.14135" stroke-linecap="round" stroke-linejoin="round"/>
<path d="M158.771 302.414L144.439 303.942C143.78 304.013 143.302 304.604 143.372 305.263L144.9 319.585C144.97 320.244 145.561 320.722 146.221 320.651L160.553 319.123C161.212 319.053 161.69 318.461 161.62 317.802L160.093 303.48C160.022 302.821 159.431 302.344 158.771 302.414Z" stroke="#92A5C0" stroke-width="1.14135" stroke-linecap="round" stroke-linejoin="round"/>
<path d="M184.615 299.658L170.283 301.187C169.624 301.257 169.146 301.848 169.216 302.507L170.744 316.83C170.814 317.489 171.405 317.966 172.065 317.896L186.397 316.368C187.056 316.297 187.534 315.706 187.464 315.047L185.937 300.725C185.866 300.065 185.275 299.588 184.615 299.658Z" stroke="#92A5C0" stroke-width="1.14135" stroke-linecap="round" stroke-linejoin="round"/>
<path d="M210.457 296.903L196.125 298.431C195.466 298.501 194.988 299.093 195.058 299.752L196.586 314.074C196.656 314.733 197.248 315.21 197.907 315.14L212.239 313.612C212.898 313.542 213.376 312.95 213.306 312.291L211.779 297.969C211.708 297.31 211.117 296.833 210.457 296.903Z" stroke="#92A5C0" stroke-width="1.14135" stroke-linecap="round" stroke-linejoin="round"/>
<path d="M236.3 294.147L221.969 295.675C221.309 295.746 220.831 296.337 220.902 296.996L222.429 311.318C222.499 311.977 223.091 312.455 223.75 312.384L238.082 310.856C238.742 310.786 239.219 310.195 239.149 309.535L237.622 295.213C237.552 294.554 236.96 294.077 236.3 294.147Z" stroke="#92A5C0" stroke-width="1.14135" stroke-linecap="round" stroke-linejoin="round"/>
<path d="M262.143 291.392L247.811 292.92C247.152 292.99 246.674 293.581 246.744 294.241L248.272 308.563C248.342 309.222 248.934 309.699 249.593 309.629L263.925 308.101C264.584 308.03 265.062 307.439 264.992 306.78L263.465 292.458C263.394 291.799 262.803 291.321 262.143 291.392Z" stroke="#92A5C0" stroke-width="1.14135" stroke-linecap="round" stroke-linejoin="round"/>
<path d="M318.822 285.348L275.827 289.932C275.168 290.003 274.69 290.594 274.76 291.253L276.287 305.575C276.358 306.235 276.949 306.712 277.609 306.642L320.604 302.057C321.263 301.987 321.741 301.395 321.671 300.736L320.144 286.414C320.073 285.755 319.482 285.278 318.822 285.348Z" stroke="#92A5C0" stroke-width="1.14135" stroke-linecap="round" stroke-linejoin="round"/>
<path d="M120.983 281.721L106.652 283.25C105.992 283.32 105.514 283.911 105.585 284.57L107.112 298.893C107.182 299.552 107.774 300.029 108.433 299.959L122.765 298.431C123.425 298.36 123.902 297.769 123.832 297.11L122.305 282.788C122.235 282.128 121.643 281.651 120.983 281.721Z" stroke="#92A5C0" stroke-width="1.14135" stroke-linecap="round" stroke-linejoin="round"/>
<path d="M95.1407 284.477L66.4775 287.533C65.8179 287.604 65.3402 288.195 65.4105 288.854L66.9376 303.176C67.0079 303.835 67.5996 304.313 68.2592 304.242L96.9224 301.186C97.5819 301.116 98.0597 300.524 97.9894 299.865L96.4623 285.543C96.392 284.884 95.8003 284.407 95.1407 284.477Z" stroke="#92A5C0" stroke-width="1.14135" stroke-linecap="round" stroke-linejoin="round"/>
<path d="M146.827 278.966L132.496 280.494C131.836 280.564 131.358 281.156 131.429 281.815L132.956 296.137C133.026 296.796 133.618 297.273 134.277 297.203L148.609 295.675C149.268 295.605 149.746 295.013 149.676 294.354L148.149 280.032C148.078 279.373 147.487 278.896 146.827 278.966Z" stroke="#92A5C0" stroke-width="1.14135" stroke-linecap="round" stroke-linejoin="round"/>
<path d="M172.668 276.21L158.337 277.739C157.677 277.809 157.2 278.4 157.27 279.059L158.797 293.382C158.867 294.041 159.459 294.518 160.119 294.448L174.45 292.92C175.11 292.849 175.587 292.258 175.517 291.599L173.99 277.277C173.92 276.617 173.328 276.14 172.668 276.21Z" stroke="#92A5C0" stroke-width="1.14135" stroke-linecap="round" stroke-linejoin="round"/>
<path d="M198.512 273.455L184.181 274.983C183.521 275.053 183.043 275.644 183.114 276.304L184.641 290.626C184.711 291.285 185.303 291.762 185.962 291.692L200.294 290.164C200.953 290.093 201.431 289.502 201.361 288.843L199.834 274.521C199.764 273.862 199.172 273.384 198.512 273.455Z" stroke="#92A5C0" stroke-width="1.14135" stroke-linecap="round" stroke-linejoin="round"/>
<path d="M224.356 270.699L210.024 272.227C209.365 272.297 208.887 272.889 208.957 273.548L210.484 287.87C210.555 288.529 211.146 289.007 211.806 288.936L226.138 287.408C226.797 287.338 227.275 286.746 227.205 286.087L225.678 271.765C225.607 271.106 225.016 270.629 224.356 270.699Z" stroke="#92A5C0" stroke-width="1.14135" stroke-linecap="round" stroke-linejoin="round"/>
<path d="M250.198 267.944L235.866 269.472C235.207 269.542 234.729 270.133 234.799 270.793L236.327 285.115C236.397 285.774 236.988 286.251 237.648 286.181L251.98 284.653C252.639 284.582 253.117 283.991 253.047 283.332L251.52 269.01C251.449 268.351 250.858 267.873 250.198 267.944Z" stroke="#92A5C0" stroke-width="1.14135" stroke-linecap="round" stroke-linejoin="round"/>
<path d="M276.041 265.188L261.71 266.716C261.05 266.786 260.572 267.378 260.643 268.037L262.17 282.359C262.24 283.018 262.832 283.496 263.491 283.425L277.823 281.897C278.483 281.827 278.96 281.235 278.89 280.576L277.363 266.254C277.293 265.595 276.701 265.118 276.041 265.188Z" stroke="#92A5C0" stroke-width="1.14135" stroke-linecap="round" stroke-linejoin="round"/>
<path d="M316.216 260.904L287.553 263.961C286.893 264.031 286.415 264.622 286.486 265.281L288.013 279.603C288.083 280.263 288.675 280.74 289.334 280.67L317.998 277.613C318.657 277.543 319.135 276.952 319.065 276.292L317.537 261.97C317.467 261.311 316.875 260.834 316.216 260.904Z" stroke="#92A5C0" stroke-width="1.14135" stroke-linecap="round" stroke-linejoin="round"/>
<path d="M104.472 259.822L90.1401 261.35C89.4805 261.42 89.0028 262.012 89.0731 262.671L90.6002 276.993C90.6705 277.652 91.2622 278.129 91.9218 278.059L106.253 276.531C106.913 276.461 107.391 275.869 107.32 275.21L105.793 260.888C105.723 260.229 105.131 259.751 104.472 259.822Z" stroke="#92A5C0" stroke-width="1.14135" stroke-linecap="round" stroke-linejoin="round"/>
<path d="M78.3146 262.611L63.983 264.139C63.3234 264.209 62.8457 264.801 62.916 265.46L64.4431 279.782C64.5134 280.441 65.1051 280.918 65.7647 280.848L80.0963 279.32C80.7558 279.25 81.2336 278.658 81.1633 277.999L79.6362 263.677C79.5659 263.018 78.9742 262.541 78.3146 262.611Z" stroke="#92A5C0" stroke-width="1.14135" stroke-linecap="round" stroke-linejoin="round"/>
<path d="M130.628 257.033L116.296 258.561C115.637 258.631 115.159 259.223 115.229 259.882L116.756 274.204C116.827 274.863 117.418 275.341 118.078 275.27L132.41 273.742C133.069 273.672 133.547 273.08 133.477 272.421L131.95 258.099C131.879 257.44 131.288 256.963 130.628 257.033Z" stroke="#92A5C0" stroke-width="1.14135" stroke-linecap="round" stroke-linejoin="round"/>
<path d="M156.784 254.244L142.452 255.772C141.793 255.842 141.315 256.434 141.385 257.093L142.912 271.415C142.983 272.074 143.574 272.551 144.234 272.481L158.566 270.953C159.225 270.883 159.703 270.291 159.633 269.632L158.106 255.31C158.035 254.651 157.444 254.174 156.784 254.244Z" stroke="#92A5C0" stroke-width="1.14135" stroke-linecap="round" stroke-linejoin="round"/>
<path d="M182.94 251.455L168.609 252.983C167.949 253.053 167.471 253.645 167.542 254.304L169.069 268.626C169.139 269.285 169.731 269.762 170.39 269.692L184.722 268.164C185.381 268.094 185.859 267.502 185.789 266.843L184.262 252.521C184.191 251.862 183.6 251.385 182.94 251.455Z" stroke="#92A5C0" stroke-width="1.14135" stroke-linecap="round" stroke-linejoin="round"/>
<path d="M209.096 248.666L194.764 250.194C194.105 250.265 193.627 250.856 193.697 251.515L195.224 265.837C195.295 266.496 195.886 266.974 196.546 266.903L210.877 265.375C211.537 265.305 212.015 264.713 211.944 264.054L210.417 249.732C210.347 249.073 209.755 248.596 209.096 248.666Z" stroke="#92A5C0" stroke-width="1.14135" stroke-linecap="round" stroke-linejoin="round"/>
<path d="M235.252 245.877L220.92 247.405C220.261 247.475 219.783 248.067 219.853 248.726L221.38 263.048C221.451 263.707 222.042 264.185 222.702 264.114L237.034 262.586C237.693 262.516 238.171 261.924 238.101 261.265L236.574 246.943C236.503 246.284 235.912 245.807 235.252 245.877Z" stroke="#92A5C0" stroke-width="1.14135" stroke-linecap="round" stroke-linejoin="round"/>
<path d="M261.408 243.088L247.077 244.616C246.417 244.687 245.939 245.278 246.01 245.937L247.537 260.259C247.607 260.918 248.199 261.396 248.858 261.325L263.19 259.797C263.849 259.727 264.327 259.136 264.257 258.476L262.73 244.154C262.659 243.495 262.068 243.018 261.408 243.088Z" stroke="#92A5C0" stroke-width="1.14135" stroke-linecap="round" stroke-linejoin="round"/>
<path d="M287.564 240.299L273.233 241.827C272.573 241.898 272.096 242.489 272.166 243.148L273.693 257.47C273.763 258.129 274.355 258.607 275.015 258.536L289.346 257.008C290.006 256.938 290.483 256.346 290.413 255.687L288.886 241.365C288.816 240.706 288.224 240.229 287.564 240.299Z" stroke="#92A5C0" stroke-width="1.14135" stroke-linecap="round" stroke-linejoin="round"/>
<path d="M313.721 237.51L299.39 239.038C298.73 239.109 298.253 239.7 298.323 240.359L299.85 254.681C299.92 255.34 300.512 255.818 301.172 255.747L315.503 254.219C316.163 254.149 316.64 253.557 316.57 252.898L315.043 238.576C314.973 237.917 314.381 237.44 313.721 237.51Z" stroke="#92A5C0" stroke-width="1.14135" stroke-linecap="round" stroke-linejoin="round"/>
<path d="M111.793 331.467L97.4616 332.995C96.802 333.065 96.3243 333.656 96.3946 334.316L97.9217 348.638C97.992 349.297 98.5837 349.774 99.2433 349.704L113.575 348.176C114.234 348.105 114.712 347.514 114.642 346.855L113.115 332.533C113.045 331.874 112.453 331.396 111.793 331.467Z" fill="#92A5C0"/>
<path d="M85.9503 334.222L71.6187 335.75C70.9591 335.821 70.4814 336.412 70.5517 337.071L72.0788 351.393C72.1491 352.052 72.7408 352.53 73.4004 352.459L87.732 350.931C88.3916 350.861 88.8693 350.27 88.799 349.61L87.2719 335.288C87.2016 334.629 86.6099 334.152 85.9503 334.222Z" fill="#92A5C0"/>
<path d="M241.008 317.689L123.305 330.239C122.646 330.309 122.168 330.901 122.238 331.56L123.765 345.882C123.836 346.541 124.427 347.019 125.087 346.948L242.79 334.398C243.449 334.327 243.927 333.736 243.857 333.077L242.33 318.755C242.259 318.096 241.668 317.618 241.008 317.689Z" fill="#92A5C0"/>
<path d="M266.851 314.933L252.519 316.461C251.86 316.532 251.382 317.123 251.452 317.782L252.98 332.104C253.05 332.763 253.642 333.241 254.301 333.17L268.633 331.642C269.292 331.572 269.77 330.981 269.7 330.321L268.173 315.999C268.102 315.34 267.511 314.863 266.851 314.933Z" fill="#92A5C0"/>
<path d="M305.639 320.303L296.085 321.322C295.425 321.392 294.948 321.984 295.018 322.643L295.543 327.566C295.613 328.225 296.205 328.702 296.864 328.632L306.419 327.613C307.078 327.543 307.556 326.952 307.486 326.292L306.961 321.369C306.891 320.71 306.299 320.233 305.639 320.303Z" fill="#92A5C0"/>
<path d="M304.637 310.904L295.083 311.923C294.423 311.993 293.945 312.584 294.016 313.244L294.541 318.167C294.611 318.826 295.203 319.303 295.862 319.233L305.417 318.214C306.076 318.144 306.554 317.552 306.484 316.893L305.959 311.97C305.888 311.311 305.297 310.834 304.637 310.904Z" fill="#92A5C0"/>
<path d="M322.359 318.52L312.805 319.539C312.145 319.609 311.668 320.201 311.738 320.86L312.263 325.783C312.333 326.442 312.925 326.92 313.584 326.849L323.139 325.831C323.798 325.76 324.276 325.169 324.206 324.51L323.681 319.587C323.611 318.927 323.019 318.45 322.359 318.52Z" fill="#92A5C0"/>
<path d="M288.919 322.086L279.364 323.105C278.705 323.175 278.227 323.767 278.297 324.426L278.822 329.349C278.893 330.008 279.484 330.485 280.144 330.415L289.698 329.396C290.358 329.326 290.836 328.735 290.765 328.075L290.24 323.152C290.17 322.493 289.578 322.016 288.919 322.086Z" fill="#92A5C0"/>
<path d="M106.87 307.948L69.0839 311.977C68.4244 312.047 67.9466 312.639 68.0169 313.298L69.544 327.62C69.6143 328.279 70.206 328.757 70.8656 328.686L108.652 324.657C109.312 324.587 109.789 323.995 109.719 323.336L108.192 309.014C108.122 308.355 107.53 307.878 106.87 307.948Z" fill="#92A5C0"/>
<path d="M132.929 305.169L118.597 306.698C117.938 306.768 117.46 307.359 117.53 308.018L119.057 322.341C119.128 323 119.719 323.477 120.379 323.407L134.711 321.879C135.37 321.808 135.848 321.217 135.778 320.558L134.251 306.236C134.18 305.576 133.589 305.099 132.929 305.169Z" fill="#92A5C0"/>
<path d="M158.771 302.414L144.439 303.942C143.78 304.013 143.302 304.604 143.372 305.263L144.9 319.585C144.97 320.244 145.561 320.722 146.221 320.651L160.553 319.123C161.212 319.053 161.69 318.461 161.62 317.802L160.093 303.48C160.022 302.821 159.431 302.344 158.771 302.414Z" fill="#92A5C0"/>
<path d="M184.615 299.658L170.283 301.187C169.624 301.257 169.146 301.848 169.216 302.507L170.744 316.83C170.814 317.489 171.405 317.966 172.065 317.896L186.397 316.368C187.056 316.297 187.534 315.706 187.464 315.047L185.937 300.725C185.866 300.065 185.275 299.588 184.615 299.658Z" fill="#92A5C0"/>
<path d="M210.457 296.903L196.125 298.431C195.466 298.501 194.988 299.093 195.058 299.752L196.586 314.074C196.656 314.733 197.248 315.21 197.907 315.14L212.239 313.612C212.898 313.542 213.376 312.95 213.306 312.291L211.779 297.969C211.708 297.31 211.117 296.833 210.457 296.903Z" fill="#92A5C0"/>
<path d="M236.3 294.147L221.969 295.675C221.309 295.746 220.831 296.337 220.902 296.996L222.429 311.318C222.499 311.977 223.091 312.455 223.75 312.384L238.082 310.856C238.742 310.786 239.219 310.195 239.149 309.535L237.622 295.213C237.552 294.554 236.96 294.077 236.3 294.147Z" fill="#92A5C0"/>
<path d="M262.143 291.392L247.811 292.92C247.152 292.99 246.674 293.581 246.744 294.241L248.272 308.563C248.342 309.222 248.934 309.699 249.593 309.629L263.925 308.101C264.584 308.03 265.062 307.439 264.992 306.78L263.465 292.458C263.394 291.799 262.803 291.321 262.143 291.392Z" fill="#92A5C0"/>
<path d="M318.822 285.348L275.827 289.932C275.168 290.003 274.69 290.594 274.76 291.253L276.287 305.575C276.358 306.235 276.949 306.712 277.609 306.642L320.604 302.057C321.263 301.987 321.741 301.395 321.671 300.736L320.144 286.414C320.073 285.755 319.482 285.278 318.822 285.348Z" fill="#92A5C0"/>
<path d="M120.983 281.721L106.652 283.25C105.992 283.32 105.514 283.911 105.585 284.57L107.112 298.893C107.182 299.552 107.774 300.029 108.433 299.959L122.765 298.431C123.425 298.36 123.902 297.769 123.832 297.11L122.305 282.788C122.235 282.128 121.643 281.651 120.983 281.721Z" fill="#92A5C0"/>
<path d="M95.1407 284.477L66.4775 287.533C65.8179 287.604 65.3402 288.195 65.4105 288.854L66.9376 303.176C67.0079 303.835 67.5996 304.313 68.2592 304.242L96.9224 301.186C97.5819 301.116 98.0597 300.524 97.9894 299.865L96.4623 285.543C96.392 284.884 95.8003 284.407 95.1407 284.477Z" fill="#92A5C0"/>
<path d="M146.827 278.966L132.496 280.494C131.836 280.564 131.358 281.156 131.429 281.815L132.956 296.137C133.026 296.796 133.618 297.273 134.277 297.203L148.609 295.675C149.268 295.605 149.746 295.013 149.676 294.354L148.149 280.032C148.078 279.373 147.487 278.896 146.827 278.966Z" fill="#92A5C0"/>
<path d="M172.668 276.21L158.337 277.739C157.677 277.809 157.2 278.4 157.27 279.059L158.797 293.382C158.867 294.041 159.459 294.518 160.119 294.448L174.45 292.92C175.11 292.849 175.587 292.258 175.517 291.599L173.99 277.277C173.92 276.617 173.328 276.14 172.668 276.21Z" fill="#92A5C0"/>
<path d="M198.512 273.455L184.181 274.983C183.521 275.053 183.043 275.644 183.114 276.304L184.641 290.626C184.711 291.285 185.303 291.762 185.962 291.692L200.294 290.164C200.953 290.093 201.431 289.502 201.361 288.843L199.834 274.521C199.764 273.862 199.172 273.384 198.512 273.455Z" fill="#92A5C0"/>
<path d="M224.356 270.699L210.024 272.227C209.365 272.297 208.887 272.889 208.957 273.548L210.484 287.87C210.555 288.529 211.146 289.007 211.806 288.936L226.138 287.408C226.797 287.338 227.275 286.746 227.205 286.087L225.678 271.765C225.607 271.106 225.016 270.629 224.356 270.699Z" fill="#92A5C0"/>
<path d="M250.198 267.944L235.866 269.472C235.207 269.542 234.729 270.133 234.799 270.793L236.327 285.115C236.397 285.774 236.988 286.251 237.648 286.181L251.98 284.653C252.639 284.582 253.117 283.991 253.047 283.332L251.52 269.01C251.449 268.351 250.858 267.873 250.198 267.944Z" fill="#92A5C0"/>
<path d="M276.041 265.188L261.71 266.716C261.05 266.786 260.572 267.378 260.643 268.037L262.17 282.359C262.24 283.018 262.832 283.496 263.491 283.425L277.823 281.897C278.483 281.827 278.96 281.235 278.89 280.576L277.363 266.254C277.293 265.595 276.701 265.118 276.041 265.188Z" fill="#92A5C0"/>
<path d="M316.216 260.904L287.553 263.961C286.893 264.031 286.415 264.622 286.486 265.281L288.013 279.603C288.083 280.263 288.675 280.74 289.334 280.67L317.998 277.613C318.657 277.543 319.135 276.952 319.065 276.292L317.537 261.97C317.467 261.311 316.875 260.834 316.216 260.904Z" fill="#92A5C0"/>
<path d="M104.472 259.822L90.1401 261.35C89.4805 261.42 89.0028 262.012 89.0731 262.671L90.6002 276.993C90.6705 277.652 91.2622 278.129 91.9218 278.059L106.253 276.531C106.913 276.461 107.391 275.869 107.32 275.21L105.793 260.888C105.723 260.229 105.131 259.751 104.472 259.822Z" fill="#92A5C0"/>
<path d="M78.3146 262.611L63.983 264.139C63.3234 264.209 62.8457 264.801 62.916 265.46L64.4431 279.782C64.5134 280.441 65.1051 280.918 65.7647 280.848L80.0963 279.32C80.7558 279.25 81.2336 278.658 81.1633 277.999L79.6362 263.677C79.5659 263.018 78.9742 262.541 78.3146 262.611Z" fill="#92A5C0"/>
<path d="M130.628 257.033L116.296 258.561C115.637 258.631 115.159 259.223 115.229 259.882L116.756 274.204C116.827 274.863 117.418 275.341 118.078 275.27L132.41 273.742C133.069 273.672 133.547 273.08 133.477 272.421L131.95 258.099C131.879 257.44 131.288 256.963 130.628 257.033Z" fill="#92A5C0"/>
<path d="M156.784 254.244L142.452 255.772C141.793 255.842 141.315 256.434 141.385 257.093L142.912 271.415C142.983 272.074 143.574 272.551 144.234 272.481L158.566 270.953C159.225 270.883 159.703 270.291 159.633 269.632L158.106 255.31C158.035 254.651 157.444 254.174 156.784 254.244Z" fill="#92A5C0"/>
<path d="M182.94 251.455L168.609 252.983C167.949 253.053 167.471 253.645 167.542 254.304L169.069 268.626C169.139 269.285 169.731 269.762 170.39 269.692L184.722 268.164C185.381 268.094 185.859 267.502 185.789 266.843L184.262 252.521C184.191 251.862 183.6 251.385 182.94 251.455Z" fill="#92A5C0"/>
<path d="M209.096 248.666L194.764 250.194C194.105 250.265 193.627 250.856 193.697 251.515L195.224 265.837C195.295 266.496 195.886 266.974 196.546 266.903L210.877 265.375C211.537 265.305 212.015 264.713 211.944 264.054L210.417 249.732C210.347 249.073 209.755 248.596 209.096 248.666Z" fill="#92A5C0"/>
<path d="M235.252 245.877L220.92 247.405C220.261 247.475 219.783 248.067 219.853 248.726L221.38 263.048C221.451 263.707 222.042 264.185 222.702 264.114L237.034 262.586C237.693 262.516 238.171 261.924 238.101 261.265L236.574 246.943C236.503 246.284 235.912 245.807 235.252 245.877Z" fill="#92A5C0"/>
<path d="M261.408 243.088L247.077 244.616C246.417 244.687 245.939 245.278 246.01 245.937L247.537 260.259C247.607 260.918 248.199 261.396 248.858 261.325L263.19 259.797C263.849 259.727 264.327 259.136 264.257 258.476L262.73 244.154C262.659 243.495 262.068 243.018 261.408 243.088Z" fill="#92A5C0"/>
<path d="M287.564 240.299L273.233 241.827C272.573 241.898 272.096 242.489 272.166 243.148L273.693 257.47C273.763 258.129 274.355 258.607 275.015 258.536L289.346 257.008C290.006 256.938 290.483 256.346 290.413 255.687L288.886 241.365C288.816 240.706 288.224 240.229 287.564 240.299Z" fill="#92A5C0"/>
<path d="M313.721 237.51L299.39 239.038C298.73 239.109 298.253 239.7 298.323 240.359L299.85 254.681C299.92 255.34 300.512 255.818 301.172 255.747L315.503 254.219C316.163 254.149 316.64 253.557 316.57 252.898L315.043 238.576C314.973 237.917 314.381 237.44 313.721 237.51Z" fill="#92A5C0"/>
<path d="M83.2771 223.573L286.308 201.924L288.019 217.972C288.154 219.238 287.78 220.506 286.98 221.497C286.18 222.488 285.018 223.12 283.751 223.255L90.2745 243.885C89.0075 244.021 87.7388 243.647 86.7474 242.847C85.756 242.048 85.1233 240.887 84.9882 239.621L83.2771 223.573Z" fill="#92A5C0"/>
<path opacity="0.12" d="M286.308 201.924L83.2771 223.573L83.5316 225.96L286.563 204.311L286.308 201.924Z" fill="white"/>
<g style="mix-blend-mode:multiply" opacity="0.25">
<path d="M283.242 218.481L89.7652 239.111C88.4983 239.246 87.2295 238.873 86.2382 238.073C85.2468 237.273 84.614 236.113 84.479 234.846L84.988 239.62C85.1231 240.887 85.7558 242.047 86.7472 242.847C87.7386 243.647 89.0073 244.02 90.2743 243.885L283.751 223.255C285.018 223.12 286.179 222.487 286.98 221.497C287.78 220.506 288.154 219.238 288.019 217.972L287.51 213.198C287.645 214.464 287.271 215.732 286.471 216.723C285.67 217.713 284.509 218.346 283.242 218.481Z" fill="#92A5C0"/>
</g>
<path d="M83.2771 223.573L286.308 201.924L288.019 217.972C288.154 219.238 287.78 220.506 286.98 221.497C286.18 222.488 285.018 223.12 283.751 223.255L90.2745 243.885C89.0075 244.021 87.7388 243.647 86.7474 242.847C85.756 242.048 85.1233 240.887 84.9882 239.621L83.2771 223.573Z" stroke="#46505C" stroke-width="2.28269" stroke-linecap="round" stroke-linejoin="round"/>
<path d="M241.788 350.8L158.187 359.714C156.868 359.855 155.912 361.038 156.053 362.356L162.034 418.451C162.175 419.769 163.358 420.724 164.677 420.583L248.278 411.669C249.597 411.528 250.553 410.346 250.412 409.027L244.431 352.932C244.29 351.614 243.107 350.659 241.788 350.8Z" fill="#E6F3FF"/>
<path d="M241.788 350.8L158.187 359.714C156.868 359.855 155.912 361.038 156.053 362.356L162.034 418.451C162.175 419.769 163.358 420.724 164.677 420.583L248.278 411.669C249.597 411.528 250.553 410.346 250.412 409.027L244.431 352.932C244.29 351.614 243.107 350.659 241.788 350.8Z" stroke="#92A5C0" stroke-width="1.14135" stroke-linecap="round" stroke-linejoin="round"/>
<path opacity="0.52" d="M166.738 43.4277C168.717 43.2167 170.15 41.4426 169.939 39.4651C169.728 37.4877 167.953 36.0557 165.974 36.2666C163.995 36.4776 162.562 38.2517 162.773 40.2292C162.984 42.2067 164.759 43.6387 166.738 43.4277Z" fill="white"/>
<path d="M166.738 43.4277C168.717 43.2167 170.15 41.4426 169.939 39.4651C169.728 37.4877 167.953 36.0557 165.974 36.2666C163.995 36.4776 162.562 38.2517 162.773 40.2292C162.984 42.2067 164.759 43.6387 166.738 43.4277Z" stroke="#46505C" stroke-width="1.14135" stroke-linecap="round" stroke-linejoin="round"/>
<path d="M243.515 57.0613L229.183 58.5895C228.524 58.6598 228.046 59.2511 228.116 59.9103C228.187 60.5695 228.778 61.0468 229.438 60.9765L243.769 59.4483C244.429 59.378 244.907 58.7866 244.836 58.1275C244.766 57.4683 244.174 56.991 243.515 57.0613Z" fill="white"/>
<path d="M274.536 53.7534L260.204 55.2816C259.544 55.3519 259.067 55.9433 259.137 56.6024C259.207 57.2616 259.799 57.7389 260.459 57.6686L274.79 56.1405C275.45 56.0701 275.927 55.4788 275.857 54.8196C275.787 54.1604 275.195 53.6831 274.536 53.7534Z" fill="white"/>
<path d="M212.496 60.3687L198.164 61.8968C197.505 61.9672 197.027 62.5585 197.097 63.2177C197.168 63.8768 197.759 64.3542 198.419 64.2838L212.75 62.7557C213.41 62.6854 213.888 62.094 213.817 61.4348C213.747 60.7757 213.155 60.2983 212.496 60.3687Z" fill="white"/>
<path d="M59.0561 84.4056C62.2465 84.0654 64.5573 81.205 64.2173 78.0166C63.8774 74.8283 61.0154 72.5194 57.8249 72.8596C54.6345 73.1998 52.3237 76.0602 52.6637 79.2486C53.0036 82.4369 55.8656 84.7458 59.0561 84.4056Z" fill="white"/>
<g opacity="0.72">
<path opacity="0.72" d="M236.353 123.588L115.449 136.48L115.913 140.83L236.817 127.939L236.353 123.588Z" fill="white"/>
<path opacity="0.72" d="M219.524 110.78L129.201 120.411L129.671 124.825L219.995 115.194L219.524 110.78Z" fill="white"/>
</g>
<path d="M200.365 161.629L165.956 165.298C162.34 165.683 159.722 168.925 160.107 172.537C160.492 176.15 163.735 178.767 167.351 178.381L201.76 174.712C205.375 174.327 207.993 171.085 207.608 167.473C207.223 163.86 203.98 161.243 200.365 161.629Z" stroke="white" stroke-width="1.14135" stroke-miterlimit="10"/>
<path opacity="0.28" d="M3.24353 60.7776L16.3161 183.377C16.7311 187.269 20.255 190.114 24.1471 189.699L191.417 171.863C195.309 171.448 198.153 167.924 197.738 164.032L184.666 41.4329L3.24353 60.7776Z" fill="#1F3969" stroke="#1F3969" stroke-width="3.38134" stroke-miterlimit="10" stroke-linecap="round" stroke-linejoin="round"/>
<path d="M198.34 161.284L31.0705 179.119C27.1784 179.534 23.6545 176.69 23.2395 172.797L9.2615 41.7063C8.8465 37.8143 11.6914 34.2903 15.5834 33.8753L182.853 16.0397C186.745 15.6247 190.269 18.4696 190.684 22.3616L204.671 153.541C205.086 157.433 202.232 160.869 198.34 161.284Z" fill="#2D425E"/>
<path d="M191.759 32.4456L10.3368 51.7903L9.25211 41.618C8.8371 37.7259 11.682 34.202 15.574 33.787L182.844 15.9513C186.736 15.5363 190.259 18.3812 190.674 22.2732L191.759 32.4456Z" stroke="#1F3969" stroke-width="3.38134" stroke-miterlimit="10" stroke-linecap="round" stroke-linejoin="round"/>
<path d="M192.118 35.8069L10.6952 55.1516L9.25211 41.618C8.8371 37.7259 11.682 34.202 15.574 33.787L182.844 15.9513C186.736 15.5363 190.259 18.3812 190.674 22.2732L192.118 35.8069Z" fill="#D0DDF0"/>
<path d="M192.118 35.8069L10.6952 55.1516L9.25211 41.618C8.8371 37.7259 11.682 34.202 15.574 33.787L182.844 15.9513C186.736 15.5363 190.259 18.3812 190.674 22.2732L192.118 35.8069Z" stroke="#1F3969" stroke-width="3.38134" stroke-miterlimit="10" stroke-linecap="round" stroke-linejoin="round"/>
<path d="M192.118 35.8069L10.6952 55.1516L9.25211 41.618C8.8371 37.7259 11.682 34.202 15.574 33.787L182.844 15.9513C186.736 15.5363 190.259 18.3812 190.674 22.2732L192.118 35.8069Z" stroke="#1F3969" stroke-width="3.38134" stroke-miterlimit="10" stroke-linecap="round" stroke-linejoin="round"/>
<path d="M198.34 161.284L31.0705 179.119C27.1784 179.534 23.6545 176.69 23.2395 172.797L9.2615 41.7063C8.8465 37.8143 11.6914 34.2903 15.5834 33.8753L182.853 16.0397C186.745 15.6247 190.269 18.4696 190.684 22.3616L204.671 153.541C205.086 157.433 202.232 160.869 198.34 161.284Z" stroke="#1F3969" stroke-width="3.38134" stroke-miterlimit="10" stroke-linecap="round" stroke-linejoin="round"/>
<path d="M27.7581 46.5339C29.7122 46.3255 31.1274 44.5725 30.9191 42.6184C30.7107 40.6643 28.9577 39.2491 27.0036 39.4574C25.0494 39.6658 23.6342 41.4188 23.8426 43.3729C24.051 45.327 25.804 46.7423 27.7581 46.5339Z" fill="#1F3969"/>
<path d="M40.0534 45.2229C42.0075 45.0145 43.4227 43.2615 43.2143 41.3074C43.006 39.3533 41.2529 37.938 39.2988 38.1464C37.3447 38.3548 35.9295 40.1078 36.1379 42.0619C36.3463 44.016 38.0993 45.4312 40.0534 45.2229Z" fill="#1F3969"/>
<path d="M52.3487 43.9118C54.3028 43.7035 55.718 41.9504 55.5096 39.9963C55.3013 38.0422 53.5482 36.627 51.5941 36.8354C49.64 37.0437 48.2248 38.7968 48.4332 40.7509C48.6415 42.705 50.3946 44.1202 52.3487 43.9118Z" fill="#1F3969"/>
<path d="M116.641 60.4055L128.14 59.1794" stroke="white" stroke-width="3.38134" stroke-miterlimit="10" stroke-linecap="round" stroke-linejoin="round"/>
<path d="M58.3488 66.6211L108.149 61.311" stroke="#7BFFA0" stroke-width="3.38134" stroke-miterlimit="10" stroke-linecap="round" stroke-linejoin="round"/>
<path d="M33.7579 69.2432L51.2721 67.3757" stroke="#9169FF" stroke-width="3.38134" stroke-miterlimit="10" stroke-linecap="round" stroke-linejoin="round"/>
<path d="M65.87 153.939L103.906 149.883" stroke="#9169FF" stroke-width="3.38134" stroke-miterlimit="10" stroke-linecap="round" stroke-linejoin="round"/>
<path d="M43.0482 156.372L55.3435 155.061" stroke="#7BFFA0" stroke-width="3.38134" stroke-miterlimit="10" stroke-linecap="round" stroke-linejoin="round"/>
<path d="M109.309 72.1907L116.474 71.4267" stroke="white" stroke-width="3.38134" stroke-miterlimit="10" stroke-linecap="round" stroke-linejoin="round"/>
<path d="M76.7574 75.6616L100.817 73.0962" stroke="#9169FF" stroke-width="3.38134" stroke-miterlimit="10" stroke-linecap="round" stroke-linejoin="round"/>
<path d="M43.6749 79.1892L68.1771 76.5766" stroke="#FFC47D" stroke-width="3.38134" stroke-miterlimit="10" stroke-linecap="round" stroke-linejoin="round"/>
<path d="M82.7827 86.0232L103.924 83.769" stroke="white" stroke-width="3.38134" stroke-miterlimit="10" stroke-linecap="round" stroke-linejoin="round"/>
<path d="M56.2461 88.853L76.1486 86.7309" stroke="#FE5070" stroke-width="3.38134" stroke-miterlimit="10" stroke-linecap="round" stroke-linejoin="round"/>
<path d="M86.7734 96.6013L91.1078 96.1392" stroke="white" stroke-width="3.38134" stroke-miterlimit="10" stroke-linecap="round" stroke-linejoin="round"/>
<path d="M69.2592 98.4688L79.0777 97.4218" stroke="#9169FF" stroke-width="3.38134" stroke-miterlimit="10" stroke-linecap="round" stroke-linejoin="round"/>
<path d="M45.9952 100.95L61.8288 99.2614" stroke="#7BFFA0" stroke-width="3.38134" stroke-miterlimit="10" stroke-linecap="round" stroke-linejoin="round"/>
<path d="M81.132 108.297L109.349 105.288" stroke="#FFC47D" stroke-width="3.38134" stroke-miterlimit="10" stroke-linecap="round" stroke-linejoin="round"/>
<path d="M47.1648 111.918L72.4631 109.221" stroke="#FE5070" stroke-width="3.38134" stroke-miterlimit="10" stroke-linecap="round" stroke-linejoin="round"/>
<path d="M114.932 115.695L130.235 114.064" stroke="#9169FF" stroke-width="3.38134" stroke-miterlimit="10" stroke-linecap="round" stroke-linejoin="round"/>
<path d="M82.292 119.176L106.794 116.563" stroke="#FE5070" stroke-width="3.38134" stroke-miterlimit="10" stroke-linecap="round" stroke-linejoin="round"/>
<path d="M59.7357 121.581L73.6233 120.1" stroke="#7BFFA0" stroke-width="3.38134" stroke-miterlimit="10" stroke-linecap="round" stroke-linejoin="round"/>
<path d="M94.5974 128.868L107.954 127.443" stroke="white" stroke-width="3.38134" stroke-miterlimit="10" stroke-linecap="round" stroke-linejoin="round"/>
<path d="M60.8959 132.461L85.3981 129.849" stroke="#9169FF" stroke-width="3.38134" stroke-miterlimit="10" stroke-linecap="round" stroke-linejoin="round"/>
<path d="M130.521 136.041L145.824 134.409" stroke="white" stroke-width="3.38134" stroke-miterlimit="10" stroke-linecap="round" stroke-linejoin="round"/>
<path d="M83.7275 141.031L122.206 136.928" stroke="#FFC47D" stroke-width="3.38134" stroke-miterlimit="10" stroke-linecap="round" stroke-linejoin="round"/>
<path d="M50.6451 144.558L75.1473 141.945" stroke="white" stroke-width="3.38134" stroke-miterlimit="10" stroke-linecap="round" stroke-linejoin="round"/>
<path opacity="0.28" d="M288.985 183.287L186.376 194.228C182.484 194.643 178.96 191.799 178.545 187.907L166.954 79.1946C166.539 75.3026 169.383 71.7786 173.275 71.3636L275.884 60.4227C279.776 60.0077 283.3 62.8525 283.715 66.7446L295.307 175.456C295.731 179.437 292.877 182.872 288.985 183.287Z" fill="#1F3969" stroke="#1F3969" stroke-width="3.38134" stroke-miterlimit="10" stroke-linecap="round" stroke-linejoin="round"/>
<path d="M295.401 176.341L192.793 187.282C188.9 187.697 185.377 184.852 184.962 180.96L173.37 72.2481C172.955 68.356 175.8 64.8321 179.692 64.4171L282.3 53.4761C286.192 53.0611 289.716 55.906 290.131 59.798L301.723 168.51C302.147 172.49 299.293 175.926 295.401 176.341Z" fill="#00A0B0"/>
<path d="M295.401 176.341L192.793 187.282C188.9 187.697 185.377 184.852 184.962 180.96L173.37 72.2481C172.955 68.356 175.8 64.8321 179.692 64.4171L282.3 53.4761C286.192 53.0611 289.716 55.906 290.131 59.798L301.723 168.51C302.147 172.49 299.293 175.926 295.401 176.341Z" stroke="#1F3969" stroke-width="3.38134" stroke-miterlimit="10" stroke-linecap="round" stroke-linejoin="round"/>
<path opacity="0.34" d="M271.678 88.8467L223.675 93.9651C221.969 94.147 220.401 92.2706 220.129 89.7227L219.399 82.8697C219.127 80.3218 220.264 78.1568 221.97 77.9748L269.973 72.8564C271.679 72.6745 273.248 74.551 273.52 77.0989L274.25 83.9518C274.522 86.4997 273.384 88.6648 271.678 88.8467Z" stroke="white" stroke-width="1.69067" stroke-miterlimit="10" stroke-linecap="round" stroke-linejoin="round"/>
<g opacity="0.34">
<path opacity="0.34" d="M241.687 118.103L201.351 122.404C198.786 122.677 196.535 120.86 196.261 118.295L195.526 111.395C195.252 108.83 197.07 106.578 199.635 106.305L239.971 102.004C242.536 101.731 244.787 103.548 245.061 106.113L245.796 113.013C245.981 115.587 244.164 117.839 241.687 118.103Z" stroke="white" stroke-width="1.69067" stroke-miterlimit="10" stroke-linecap="round" stroke-linejoin="round"/>
<path opacity="0.34" d="M273.443 114.717L257.786 116.386C255.221 116.66 252.969 114.842 252.696 112.277L251.96 105.377C251.687 102.812 253.504 100.561 256.069 100.287L271.726 98.6177C274.291 98.3442 276.543 100.162 276.816 102.727L277.552 109.626C277.825 112.192 276.008 114.443 273.443 114.717Z" stroke="white" stroke-width="1.69067" stroke-miterlimit="10" stroke-linecap="round" stroke-linejoin="round"/>
</g>
<path d="M199.531 149.795L280.821 141.127" stroke="white" stroke-width="1.69067" stroke-miterlimit="10" stroke-linecap="round" stroke-linejoin="round"/>
<path d="M200.549 159.349L281.84 150.681" stroke="white" stroke-width="1.69067" stroke-miterlimit="10" stroke-linecap="round" stroke-linejoin="round"/>
<path d="M201.568 168.901L251.103 163.62" stroke="white" stroke-width="1.69067" stroke-miterlimit="10" stroke-linecap="round" stroke-linejoin="round"/>
<path d="M213.803 91.6873C213.583 91.8249 213.36 92.0009 213.101 92.0095C212.684 92.0285 211.711 89.4426 211.463 88.9616C211.062 88.1733 210.66 87.3851 210.259 86.5968C211.235 85.0401 212.219 83.4952 213.288 82.0427C213.349 81.96 213.409 81.8711 213.405 81.7701C213.389 81.4991 212.97 81.4993 212.753 81.662C212.17 82.0858 211.513 82.2319 210.959 82.7478C210.364 83.2996 209.92 84.0068 209.512 84.7037C209.474 84.7648 209.442 84.8253 209.405 84.8927C208.438 82.839 207.579 80.558 206.362 78.7275C206.241 78.5438 206.024 78.4084 205.807 78.4569C205.745 78.4698 205.685 78.5016 205.624 78.5271C205.154 78.7612 204.717 79.0616 204.343 79.4249C204.24 79.5248 204.16 79.6094 204.101 79.7108C202.82 81.1987 202.124 82.8842 201.142 84.5621C200.97 84.8532 200.799 85.1506 200.627 85.4417C200.26 84.9796 199.871 84.539 199.43 84.1547C198.639 83.4525 198.179 83.1843 197.254 83.4923C196.585 83.7095 193.374 84.7687 193.949 85.8747C194.244 86.4458 195.836 85.6671 196.374 85.8889C196.759 86.0508 197.082 86.3462 197.368 86.6456C197.911 87.2157 198.391 87.8497 198.834 88.5002C199.28 87.7422 199.72 86.9911 200.159 86.2338C199.559 87.2683 198.953 88.3036 198.346 89.3325C197.55 90.6797 196.777 91.9929 195.969 93.3351C195.651 93.8638 194.979 94.8236 194.761 96.6421C194.602 97.9531 197.518 93.0557 198.02 92.2283C198.544 91.3731 199.082 90.5228 199.613 89.6732C200.859 91.6083 201.973 93.6083 203.131 95.6036L203.153 95.6267C203.301 95.8266 203.392 95.8423 203.539 95.8012C203.688 95.7663 203.808 95.6457 203.911 95.5333C205.619 93.7081 207.06 91.6323 208.425 89.5012C208.331 89.2765 208.237 89.0518 208.138 88.834C208.998 90.7151 209.567 92.9572 210.73 94.6412C210.783 94.718 210.848 94.7998 210.941 94.8344C211.243 94.9353 213.473 93.4733 213.764 93.2329C214.126 92.9342 215.013 92.3892 215.086 91.8866C215.213 90.9913 214.338 91.3511 213.803 91.6873ZM209.608 85.3087C209.542 85.1698 209.477 85.0309 209.411 84.892C209.471 85.0316 209.536 85.1705 209.608 85.3087ZM203.976 80.5615C203.976 80.5615 203.975 80.5553 203.976 80.5615C203.975 80.5553 203.976 80.5615 203.976 80.5615ZM203.968 80.3658L203.967 80.3595C203.974 80.3588 203.974 80.3588 203.968 80.3658ZM203.989 80.0907L203.989 80.0844L203.989 80.0907ZM207.389 88.4127C207.154 88.8247 206.918 89.2368 206.677 89.6495C206.442 90.0615 206.2 90.468 205.958 90.8744C205.871 91.0168 205.786 91.1655 205.7 91.3142C205.614 91.4566 205.555 91.5581 205.447 91.7408C205.393 91.829 205.334 91.9305 205.287 92.0243C205.177 92.2391 205.067 92.4538 204.956 92.6686C204.639 91.6557 203.858 90.6352 203.364 89.6982C202.816 88.6592 202.224 87.6312 201.545 86.676C201.515 86.6285 201.479 86.5879 201.448 86.5404C201.856 85.7801 202.262 85.0136 202.677 84.2652C203.348 83.0582 203.995 82.2279 204.274 81.6906C204.29 81.7207 204.305 81.7444 204.321 81.7682C204.359 81.8276 204.397 81.8869 204.428 81.947C205.595 83.9033 206.696 85.8984 207.7 87.9418C207.693 87.9299 207.685 87.918 207.683 87.8992C207.587 88.0681 207.485 88.2439 207.389 88.4127ZM208.032 88.6169C208.065 88.6895 208.098 88.7558 208.131 88.8284C208.099 88.7621 208.065 88.6895 208.032 88.6169ZM209.625 85.345C209.697 85.4895 209.77 85.6341 209.842 85.7786C209.77 85.6341 209.697 85.4895 209.625 85.345Z" fill="#FBFBFB"/>
</svg>
