<svg width="17" height="18" viewBox="0 0 17 18" fill="none" xmlns="http://www.w3.org/2000/svg">
<path d="M10.8772 6.2961C12.7372 8.32728 12.7117 11.5838 10.8884 13.5838C10.885 13.5879 10.881 13.5923 10.8772 13.5964L8.78524 15.8786C6.9401 17.8914 3.93817 17.8912 2.09332 15.8786C0.248189 13.866 0.248189 10.5908 2.09332 8.57828L3.24847 7.31812C3.5548 6.98394 4.08234 7.20605 4.09816 7.67831C4.11833 8.28017 4.21726 8.88485 4.39982 9.46877C4.46164 9.6665 4.41747 9.88521 4.28205 10.0329L3.87464 10.4774C3.00216 11.4292 2.9748 12.979 3.83868 13.9401C4.71109 14.9106 6.14505 14.9164 7.02416 13.9574L9.11616 11.6755C9.99377 10.7181 9.9901 9.17066 9.11616 8.21727C9.00094 8.09182 8.88489 7.99435 8.79423 7.92626C8.7301 7.87822 8.67715 7.81449 8.6396 7.74016C8.60205 7.66583 8.58095 7.58296 8.57797 7.49815C8.56564 7.13928 8.68219 6.76948 8.94214 6.4859L9.59757 5.77085C9.76944 5.58336 10.0391 5.56033 10.2384 5.71207C10.4666 5.88593 10.6804 6.08136 10.8772 6.2961ZM15.2647 1.50955C13.4198 -0.503049 10.4179 -0.50332 8.57277 1.50955L6.48077 3.79174C6.47703 3.79581 6.47298 3.80023 6.46956 3.8043C4.64634 5.80434 4.62078 9.06083 6.48077 11.092C6.6776 11.3067 6.89137 11.5022 7.11961 11.676C7.31891 11.8277 7.58856 11.8047 7.76041 11.6172L8.41584 10.9022C8.67578 10.6186 8.79233 10.2488 8.78001 9.88993C8.77703 9.80512 8.75592 9.72224 8.71837 9.64791C8.68082 9.57358 8.62787 9.50986 8.56374 9.46181C8.47309 9.39372 8.35703 9.29625 8.24181 9.1708C7.36787 8.21741 7.3642 6.66994 8.24181 5.71254L10.3338 3.4307C11.2129 2.47167 12.6468 2.47744 13.5193 3.44802C14.3832 4.40912 14.3558 5.9589 13.4833 6.91069L13.0759 7.35514C12.9405 7.50287 12.8963 7.72158 12.9582 7.9193C13.1407 8.50323 13.2396 9.1079 13.2598 9.70976C13.2757 10.182 13.8032 10.4041 14.1095 10.07L15.2646 8.80979C17.1098 6.79729 17.1098 3.52209 15.2647 1.50955Z" fill="#FBFBFB"/>
</svg>
