<svg width="196" height="218" viewBox="0 0 196 218" fill="none" xmlns="http://www.w3.org/2000/svg">
<path d="M164.827 197.154L48.7426 182.192L70.2092 15.6367L186.293 30.5983C190.457 31.135 193.441 34.8547 192.904 39.0186L173.389 190.433C172.847 194.638 168.99 197.69 164.827 197.154Z" fill="#004789" stroke="#004789" stroke-width="4.7648" stroke-miterlimit="10" stroke-linecap="round" stroke-linejoin="round"/>
<path d="M147.99 198.404L142.102 197.645C140.924 197.493 140.118 196.449 140.27 195.271L162.062 26.1922C162.214 25.0145 163.258 24.2085 164.436 24.3603L170.324 25.1192C171.502 25.271 172.308 26.3155 172.156 27.4932L150.364 196.572C150.212 197.75 149.168 198.556 147.99 198.404Z" fill="#004789" stroke="#004789" stroke-width="4.7648" stroke-miterlimit="10" stroke-linecap="round" stroke-linejoin="round"/>
<path d="M71.922 204.72L60.2094 196.07L61.7815 183.872L74.3993 185.499L71.922 204.72Z" fill="#004789" stroke="#004789" stroke-width="4.7648" stroke-miterlimit="10" stroke-linecap="round" stroke-linejoin="round"/>
<path d="M161.435 190.303L45.351 175.341L66.8176 8.78577L182.902 23.7474C187.065 24.284 190.049 28.0038 189.513 32.1676L169.998 183.582C169.456 187.787 165.599 190.839 161.435 190.303Z" fill="#4C5B60"/>
<mask id="mask0" mask-type="alpha" maskUnits="userSpaceOnUse" x="45" y="9" width="145" height="183">
<path d="M161.326 191.144L45.2416 176.182L66.7083 9.62695L182.792 24.5886C186.956 25.1252 189.94 28.845 189.403 33.0088L169.888 184.423C169.346 188.629 165.489 191.681 161.326 191.144Z" fill="white"/>
</mask>
<g mask="url(#mask0)">
<path opacity="0.11" d="M18.0706 302.067C17.9024 302.045 17.7396 301.981 17.6296 301.839C17.4098 301.554 17.4586 301.175 17.7435 300.956L181.26 174.815C181.545 174.595 181.924 174.643 182.143 174.928C182.363 175.213 182.314 175.592 182.03 175.812L18.555 301.958C18.4125 302.068 18.2389 302.088 18.0706 302.067Z" fill="#102D3B"/>
<path opacity="0.11" d="M18.8297 296.178C18.6614 296.157 18.4986 296.093 18.3887 295.95C18.1689 295.666 18.2176 295.287 18.5025 295.067L182.019 168.926C182.304 168.706 182.683 168.755 182.902 169.04C183.122 169.325 183.074 169.703 182.789 169.923L19.314 296.07C19.1716 296.18 18.9979 296.2 18.8297 296.178Z" fill="#102D3B"/>
<path opacity="0.11" d="M19.5884 290.29C19.4202 290.268 19.2574 290.204 19.1475 290.062C18.9276 289.777 18.9764 289.399 19.2613 289.179L182.778 163.038C183.063 162.818 183.441 162.867 183.661 163.152C183.881 163.436 183.832 163.815 183.547 164.035L20.0728 290.181C19.9303 290.291 19.7567 290.312 19.5884 290.29Z" fill="#102D3B"/>
<path opacity="0.11" d="M20.3472 284.401C20.179 284.38 20.0162 284.316 19.9063 284.174C19.6864 283.889 19.7352 283.51 20.0201 283.29L183.537 157.149C183.822 156.929 184.2 156.978 184.42 157.263C184.64 157.548 184.591 157.927 184.306 158.146L20.8316 284.293C20.6891 284.403 20.5155 284.423 20.3472 284.401Z" fill="#102D3B"/>
<path opacity="0.11" d="M21.1065 278.514C20.9383 278.492 20.7755 278.428 20.6655 278.286C20.4457 278.001 20.4945 277.622 20.7794 277.402L184.296 151.261C184.581 151.041 184.959 151.09 185.179 151.375C185.399 151.66 185.35 152.039 185.065 152.258L21.5909 278.405C21.4484 278.515 21.2748 278.535 21.1065 278.514Z" fill="#102D3B"/>
<path opacity="0.11" d="M21.8653 272.625C21.6971 272.604 21.5342 272.54 21.4243 272.397C21.2045 272.113 21.2533 271.734 21.5382 271.514L185.055 145.373C185.34 145.153 185.718 145.202 185.938 145.487C186.158 145.772 186.109 146.15 185.824 146.37L22.3496 272.517C22.2072 272.627 22.0335 272.647 21.8653 272.625Z" fill="#102D3B"/>
<path opacity="0.11" d="M22.6241 266.736C22.4559 266.715 22.293 266.651 22.1831 266.509C21.9633 266.224 22.0121 265.845 22.297 265.625L185.814 139.484C186.099 139.264 186.477 139.313 186.697 139.598C186.917 139.883 186.868 140.261 186.583 140.481L23.1084 266.628C22.966 266.738 22.7923 266.758 22.6241 266.736Z" fill="#102D3B"/>
<path opacity="0.11" d="M23.3834 260.848C23.2151 260.827 23.0523 260.763 22.9424 260.621C22.7226 260.336 22.7714 259.957 23.0562 259.737L186.573 133.596C186.858 133.376 187.236 133.425 187.456 133.71C187.676 133.995 187.627 134.374 187.342 134.593L23.8677 260.74C23.7253 260.85 23.5516 260.87 23.3834 260.848Z" fill="#102D3B"/>
<path opacity="0.11" d="M24.1419 254.96C23.9737 254.939 23.8109 254.875 23.7009 254.732C23.4811 254.448 23.5299 254.069 23.8148 253.849L187.331 127.708C187.616 127.488 187.995 127.537 188.215 127.822C188.435 128.107 188.386 128.485 188.101 128.705L24.6263 254.852C24.4838 254.962 24.3102 254.982 24.1419 254.96Z" fill="#102D3B"/>
<path opacity="0.11" d="M24.9009 249.072C24.7327 249.05 24.5699 248.986 24.46 248.844C24.2401 248.559 24.2889 248.18 24.5738 247.961L188.091 121.819C188.375 121.6 188.754 121.648 188.974 121.933C189.194 122.218 189.145 122.597 188.86 122.817L25.3853 248.963C25.2428 249.073 25.0692 249.093 24.9009 249.072Z" fill="#102D3B"/>
<path opacity="0.11" d="M25.66 243.183C25.4917 243.162 25.3289 243.098 25.219 242.956C24.9992 242.671 25.048 242.292 25.3328 242.072L188.85 115.931C189.134 115.711 189.513 115.76 189.733 116.045C189.953 116.33 189.904 116.708 189.619 116.928L26.1443 243.075C26.0019 243.185 25.8282 243.205 25.66 243.183Z" fill="#102D3B"/>
<path opacity="0.11" d="M26.4188 237.295C26.2505 237.273 26.0877 237.21 25.9778 237.067C25.758 236.782 25.8068 236.404 26.0916 236.184L189.608 110.043C189.893 109.823 190.272 109.872 190.492 110.157C190.711 110.442 190.663 110.82 190.378 111.04L26.9031 237.186C26.7607 237.296 26.587 237.317 26.4188 237.295Z" fill="#102D3B"/>
<path opacity="0.11" d="M27.1778 231.407C27.0096 231.385 26.8467 231.321 26.7368 231.179C26.517 230.894 26.5658 230.516 26.8507 230.296L190.367 104.155C190.652 103.935 191.031 103.984 191.251 104.268C191.47 104.553 191.422 104.932 191.137 105.152L27.6621 231.298C27.5197 231.408 27.346 231.429 27.1778 231.407Z" fill="#102D3B"/>
<path opacity="0.11" d="M27.9368 225.518C27.7686 225.497 27.6058 225.433 27.4959 225.291C27.276 225.006 27.3248 224.627 27.6097 224.407L191.126 98.2662C191.411 98.0464 191.79 98.0952 192.01 98.38C192.229 98.6649 192.181 99.0435 191.896 99.2633L28.4212 225.41C28.2787 225.52 28.1051 225.54 27.9368 225.518Z" fill="#102D3B"/>
<path opacity="0.11" d="M28.6956 219.63C28.5274 219.609 28.3646 219.545 28.2546 219.402C28.0348 219.117 28.0836 218.739 28.3685 218.519L191.885 92.378C192.17 92.1582 192.549 92.207 192.768 92.4919C192.988 92.7767 192.939 93.1553 192.655 93.3751L29.18 219.522C29.0375 219.632 28.8639 219.652 28.6956 219.63Z" fill="#102D3B"/>
<path opacity="0.11" d="M29.4544 213.742C29.2862 213.72 29.1234 213.657 29.0134 213.514C28.7936 213.229 28.8424 212.851 29.1273 212.631L192.644 86.4898C192.929 86.27 193.307 86.3188 193.527 86.6037C193.747 86.8886 193.698 87.2671 193.413 87.4869L29.9388 213.633C29.7963 213.743 29.6227 213.764 29.4544 213.742Z" fill="#102D3B"/>
<path opacity="0.11" d="M30.2134 207.853C30.0452 207.832 29.8824 207.768 29.7725 207.626C29.5526 207.341 29.6014 206.962 29.8863 206.742L193.403 80.6012C193.688 80.3813 194.066 80.4301 194.286 80.715C194.506 80.9999 194.457 81.3784 194.172 81.5982L30.6978 207.745C30.5553 207.855 30.3817 207.875 30.2134 207.853Z" fill="#102D3B"/>
<path opacity="0.11" d="M30.9722 201.965C30.804 201.944 30.6412 201.88 30.5313 201.737C30.3114 201.453 30.3602 201.074 30.6451 200.854L194.162 74.7131C194.447 74.4933 194.825 74.5421 195.045 74.8269C195.265 75.1118 195.216 75.4904 194.931 75.7102L31.4566 201.857C31.3141 201.967 31.1405 201.987 30.9722 201.965Z" fill="#102D3B"/>
<path opacity="0.11" d="M31.731 196.077C31.5628 196.055 31.4 195.992 31.29 195.849C31.0702 195.564 31.119 195.186 31.4039 194.966L194.921 68.8249C195.205 68.6051 195.584 68.6539 195.804 68.9388C196.024 69.2236 195.975 69.6022 195.69 69.822L32.2154 195.969C32.0729 196.078 31.8993 196.099 31.731 196.077Z" fill="#102D3B"/>
<path opacity="0.11" d="M32.4901 190.188C32.3218 190.167 32.159 190.103 32.0491 189.961C31.8293 189.676 31.878 189.297 32.1629 189.077L195.68 62.9362C195.965 62.7164 196.343 62.7652 196.563 63.0501C196.783 63.335 196.734 63.7135 196.449 63.9333L32.9744 190.08C32.832 190.19 32.6583 190.21 32.4901 190.188Z" fill="#102D3B"/>
<path opacity="0.11" d="M33.2491 184.3C33.0809 184.279 32.918 184.215 32.8081 184.072C32.5883 183.788 32.6371 183.409 32.922 183.189L196.439 57.0481C196.724 56.8282 197.102 56.877 197.322 57.1619C197.542 57.4468 197.493 57.8253 197.208 58.0451L33.7334 184.192C33.591 184.302 33.4173 184.322 33.2491 184.3Z" fill="#102D3B"/>
<path opacity="0.11" d="M34.0076 178.412C33.8394 178.39 33.6766 178.327 33.5667 178.184C33.3468 177.899 33.3956 177.521 33.6805 177.301L197.197 51.1598C197.482 50.9399 197.861 50.9887 198.08 51.2736C198.3 51.5585 198.251 51.937 197.967 52.1568L34.492 178.303C34.3495 178.413 34.1759 178.434 34.0076 178.412Z" fill="#102D3B"/>
<path opacity="0.11" d="M34.7667 172.524C34.5984 172.502 34.4356 172.438 34.3257 172.296C34.1059 172.011 34.1547 171.632 34.4395 171.413L197.956 45.2714C198.241 45.0516 198.62 45.1004 198.839 45.3853C199.059 45.6702 199.011 46.0487 198.726 46.2685L35.251 172.415C35.1086 172.525 34.9349 172.545 34.7667 172.524Z" fill="#102D3B"/>
<path opacity="0.11" d="M35.5259 166.635C35.3577 166.614 35.1949 166.55 35.085 166.408C34.8651 166.123 34.9139 165.744 35.1988 165.524L198.716 39.3831C199 39.1633 199.379 39.2121 199.599 39.497C199.819 39.7819 199.77 40.1604 199.485 40.3802L36.0103 166.527C35.8678 166.637 35.6942 166.657 35.5259 166.635Z" fill="#102D3B"/>
<path opacity="0.11" d="M36.2847 160.747C36.1165 160.725 35.9537 160.662 35.8438 160.519C35.6239 160.234 35.6727 159.856 35.9576 159.636L199.474 33.4948C199.759 33.275 200.138 33.3238 200.358 33.6087C200.577 33.8936 200.529 34.2721 200.244 34.4919L36.7691 160.638C36.6266 160.748 36.453 160.769 36.2847 160.747Z" fill="#102D3B"/>
<path opacity="0.11" d="M37.0438 154.859C36.8755 154.837 36.7127 154.773 36.6028 154.631C36.383 154.346 36.4318 153.968 36.7166 153.748L200.233 27.6067C200.518 27.3868 200.897 27.4356 201.117 27.7205C201.336 28.0054 201.288 28.3839 201.003 28.6037L37.5281 154.75C37.3857 154.86 37.212 154.881 37.0438 154.859Z" fill="#102D3B"/>
<path opacity="0.11" d="M37.8026 148.97C37.6343 148.949 37.4715 148.885 37.3616 148.742C37.1418 148.458 37.1905 148.079 37.4754 147.859L200.992 21.7181C201.277 21.4983 201.656 21.5471 201.875 21.8319C202.095 22.1168 202.046 22.4954 201.762 22.7152L38.2869 148.862C38.1445 148.972 37.9708 148.992 37.8026 148.97Z" fill="#102D3B"/>
<path opacity="0.11" d="M38.5616 143.082C38.3934 143.06 38.2305 142.996 38.1206 142.854C37.9008 142.569 37.9496 142.191 38.2345 141.971L201.751 15.8297C202.036 15.6098 202.415 15.6586 202.634 15.9435C202.854 16.2284 202.805 16.6069 202.521 16.8268L39.0459 142.973C38.9035 143.083 38.7298 143.104 38.5616 143.082Z" fill="#102D3B"/>
<path opacity="0.11" d="M39.3204 137.194C39.1521 137.172 38.9893 137.108 38.8794 136.966C38.6596 136.681 38.7084 136.302 38.9932 136.083L202.51 9.94149C202.795 9.72166 203.173 9.77045 203.393 10.0553C203.613 10.3402 203.564 10.7187 203.279 10.9386L39.8047 137.085C39.6623 137.195 39.4886 137.215 39.3204 137.194Z" fill="#102D3B"/>
<path opacity="0.11" d="M40.0794 131.305C39.9112 131.284 39.7484 131.22 39.6384 131.078C39.4186 130.793 39.4674 130.414 39.7523 130.194L203.269 4.05319C203.554 3.83335 203.932 3.88214 204.152 4.16702C204.372 4.4519 204.323 4.83044 204.038 5.05027L40.5638 131.197C40.4213 131.307 40.2477 131.327 40.0794 131.305Z" fill="#102D3B"/>
<path opacity="0.11" d="M40.8384 125.417C40.6702 125.395 40.5074 125.332 40.3975 125.189C40.1776 124.904 40.2264 124.526 40.5113 124.306L204.028 -1.83512C204.313 -2.05495 204.691 -2.00617 204.911 -1.72128C205.131 -1.4364 205.082 -1.05787 204.797 -0.83804L41.3228 125.308C41.1803 125.418 41.0067 125.439 40.8384 125.417Z" fill="#102D3B"/>
<path opacity="0.11" d="M41.597 119.529C41.4288 119.507 41.2659 119.443 41.156 119.301C40.9362 119.016 40.985 118.638 41.2699 118.418L204.787 -7.7233C205.071 -7.94314 205.45 -7.89435 205.67 -7.60947C205.89 -7.32458 205.841 -6.94605 205.556 -6.72622L42.0813 119.42C41.9389 119.53 41.7652 119.551 41.597 119.529Z" fill="#102D3B"/>
<path opacity="0.11" d="M42.3563 113.64C42.188 113.619 42.0252 113.555 41.9153 113.413C41.6955 113.128 41.7443 112.749 42.0291 112.529L205.546 -13.6117C205.831 -13.8316 206.209 -13.7828 206.429 -13.4979C206.649 -13.213 206.6 -12.8345 206.315 -12.6147L42.8406 113.532C42.6982 113.642 42.5245 113.662 42.3563 113.64Z" fill="#102D3B"/>
<path opacity="0.11" d="M43.1153 107.752C42.9471 107.73 42.7842 107.667 42.6743 107.524C42.4545 107.239 42.5033 106.861 42.7882 106.641L206.305 -19.5002C206.59 -19.72 206.968 -19.6712 207.188 -19.3863C207.408 -19.1014 207.359 -18.7229 207.074 -18.5031L43.5996 107.643C43.4572 107.753 43.2835 107.774 43.1153 107.752Z" fill="#102D3B"/>
<path opacity="0.11" d="M43.8738 101.864C43.7056 101.842 43.5428 101.778 43.4329 101.636C43.213 101.351 43.2618 100.972 43.5467 100.753L207.063 -25.3885C207.348 -25.6083 207.727 -25.5595 207.947 -25.2746C208.166 -24.9897 208.118 -24.6112 207.833 -24.3914L44.3582 101.755C44.2157 101.865 44.0421 101.885 43.8738 101.864Z" fill="#102D3B"/>
<path opacity="0.11" d="M44.6331 95.9754C44.4649 95.9538 44.3021 95.89 44.1922 95.7476C43.9723 95.4627 44.0211 95.0842 44.306 94.8643L207.823 -31.2768C208.108 -31.4966 208.486 -31.4478 208.706 -31.1629C208.926 -30.8781 208.877 -30.4995 208.592 -30.2797L45.1175 95.8668C44.975 95.9768 44.8014 95.9971 44.6331 95.9754Z" fill="#102D3B"/>
<path opacity="0.11" d="M45.3917 90.0873C45.2234 90.0656 45.0606 90.0018 44.9507 89.8594C44.7309 89.5745 44.7797 89.196 45.0645 88.9762L208.581 -37.165C208.866 -37.3848 209.245 -37.336 209.464 -37.0511C209.684 -36.7662 209.636 -36.3877 209.351 -36.1679L45.876 89.9787C45.7336 90.0886 45.5599 90.1089 45.3917 90.0873Z" fill="#102D3B"/>
<path opacity="0.11" d="M46.1507 84.1989C45.9824 84.1772 45.8196 84.1135 45.7097 83.971C45.4899 83.6861 45.5386 83.3076 45.8235 83.0878L209.346 -43.0954C209.631 -43.3152 210.009 -43.2664 210.229 -42.9815C210.449 -42.6967 210.4 -42.3181 210.115 -42.0983L46.635 84.0903C46.4926 84.2002 46.3189 84.2206 46.1507 84.1989Z" fill="#102D3B"/>
<path opacity="0.11" d="M46.9097 78.3102C46.7415 78.2885 46.5786 78.2248 46.4687 78.0823C46.2489 77.7975 46.2977 77.4189 46.5826 77.1991L210.105 -48.984C210.39 -49.2039 210.768 -49.1551 210.988 -48.8702C211.208 -48.5853 211.159 -48.2068 210.874 -47.987L47.394 78.2016C47.2516 78.3115 47.0779 78.3319 46.9097 78.3102Z" fill="#102D3B"/>
<path opacity="0.11" d="M47.6684 72.4221C47.5002 72.4004 47.3374 72.3367 47.2275 72.1942C47.0076 71.9094 47.0564 71.5308 47.3413 71.311L210.869 -54.9142C211.154 -55.1341 211.532 -55.0853 211.752 -54.8004C211.972 -54.5155 211.923 -54.137 211.638 -53.9171L48.1528 72.3135C48.0103 72.4234 47.8367 72.4438 47.6684 72.4221Z" fill="#102D3B"/>
<path opacity="0.11" d="M48.4275 66.5339C48.2592 66.5122 48.0964 66.4485 47.9865 66.3061C47.7667 66.0212 47.8154 65.6426 48.1003 65.4228L211.628 -60.8024C211.913 -61.0222 212.291 -60.9735 212.511 -60.6886C212.731 -60.4037 212.682 -60.0252 212.397 -59.8053L48.9118 66.4253C48.7694 66.5352 48.5957 66.5556 48.4275 66.5339Z" fill="#102D3B"/>
<path opacity="0.11" d="M49.1865 60.6455C49.0183 60.6238 48.8554 60.5601 48.7455 60.4176C48.5257 60.1327 48.5745 59.7542 48.8594 59.5344L212.387 -66.6908C212.672 -66.9107 213.05 -66.8619 213.27 -66.577C213.49 -66.2921 213.441 -65.9136 213.156 -65.6937L49.6708 60.5369C49.5284 60.6468 49.3547 60.6672 49.1865 60.6455Z" fill="#102D3B"/>
<path opacity="0.11" d="M49.9455 54.7571C49.7773 54.7354 49.6145 54.6716 49.5046 54.5292C49.2847 54.2443 49.3335 53.8658 49.6184 53.646L213.146 -72.5793C213.431 -72.7991 213.809 -72.7503 214.029 -72.4654C214.249 -72.1805 214.2 -71.802 213.915 -71.5822L50.4299 54.6485C50.2874 54.7584 50.1138 54.7788 49.9455 54.7571Z" fill="#102D3B"/>
<path opacity="0.11" d="M50.7043 48.8689C50.5361 48.8472 50.3733 48.7835 50.2633 48.641C50.0435 48.3561 50.0923 47.9776 50.3772 47.7578L213.905 -78.4674C214.19 -78.6873 214.568 -78.6385 214.788 -78.3536C215.008 -78.0687 214.959 -77.6902 214.674 -77.4704L51.1887 48.7603C51.0462 48.8702 50.8726 48.8906 50.7043 48.8689Z" fill="#102D3B"/>
<path opacity="0.11" d="M51.4631 42.9806C51.2949 42.9589 51.132 42.8952 51.0221 42.7527C50.8023 42.4678 50.8511 42.0893 51.136 41.8695L214.664 -84.3557C214.948 -84.5756 215.327 -84.5268 215.547 -84.2419C215.767 -83.957 215.718 -83.5785 215.433 -83.3587L51.9474 42.872C51.805 42.9819 51.6313 43.0023 51.4631 42.9806Z" fill="#102D3B"/>
<path opacity="0.11" d="M52.2234 37.0923C52.0551 37.0706 51.8923 37.0069 51.7824 36.8644C51.5626 36.5795 51.6113 36.201 51.8962 35.9812L215.424 -90.2441C215.709 -90.4639 216.087 -90.4151 216.307 -90.1302C216.527 -89.8453 216.478 -89.4668 216.193 -89.247L52.7077 36.9837C52.5653 37.0936 52.3916 37.114 52.2234 37.0923Z" fill="#102D3B"/>
<path opacity="0.11" d="M52.981 31.2042C52.8127 31.1825 52.6499 31.1187 52.54 30.9763C52.3202 30.6914 52.369 30.3129 52.6538 30.093L201.183 -84.5965C201.468 -84.8163 201.846 -84.7675 202.066 -84.4826C202.286 -84.1977 202.237 -83.8192 201.952 -83.5994L53.4653 31.0956C53.3229 31.2055 53.1492 31.2258 52.981 31.2042Z" fill="#102D3B"/>
<path opacity="0.11" d="M53.74 25.3156C53.5717 25.2939 53.4089 25.2301 53.299 25.0877C53.0791 24.8028 53.1279 24.4243 53.4128 24.2045L192.725 -83.3351C193.01 -83.5549 193.389 -83.5062 193.609 -83.2213C193.828 -82.9364 193.78 -82.5579 193.495 -82.338L54.2243 25.207C54.0819 25.3169 53.9082 25.3372 53.74 25.3156Z" fill="#102D3B"/>
</g>
<path d="M173.227 22.5005L163.133 21.1995L141.666 187.755L151.76 189.056L173.227 22.5005Z" fill="#3E4B4F"/>
<path opacity="0.3" d="M73.9668 9.70731L66.8167 8.78577L45.35 175.341L52.5001 176.263L73.9668 9.70731Z" fill="#CCDDE5"/>
<path d="M161.434 190.303L45.35 175.341L66.8167 8.78577L182.901 23.7474C187.065 24.284 190.048 28.0038 189.512 32.1676L169.997 183.582C169.455 187.787 165.598 190.839 161.434 190.303Z" stroke="#102D3B" stroke-width="4.7648" stroke-miterlimit="10" stroke-linecap="round" stroke-linejoin="round"/>
<path d="M81.1169 10.6289L66.8167 8.78577L45.35 175.341L59.6502 177.184L81.1169 10.6289Z" stroke="#102D3B" stroke-width="4.7648" stroke-miterlimit="10" stroke-linecap="round" stroke-linejoin="round"/>
<path d="M184.292 72.6708L60.637 56.7334L54.5656 103.84L178.22 119.777L184.292 72.6708Z" fill="#FF728C"/>
<path d="M113.954 78.3134C113.84 79.1966 113.58 79.89 113.173 80.3934C112.766 80.8968 112.333 81.2686 111.869 81.5509C111.173 81.9743 110.305 82.0761 109.169 81.9298L104.5 81.328L105.617 72.6638L109.234 73.13C109.781 73.2005 110.238 73.3022 110.611 73.393C110.985 73.4839 111.31 73.6114 111.63 73.7809C111.951 73.9504 112.192 74.0671 112.386 74.2204C112.58 74.3736 112.774 74.5269 112.921 74.7168C113.183 75.0072 113.397 75.3341 113.569 75.6556C113.742 75.9771 113.898 76.4248 113.97 76.8617C114.036 77.3406 114.019 77.8087 113.954 78.3134ZM111.315 77.8878C111.407 77.1728 111.351 76.6097 111.106 76.1932C110.902 75.7822 110.604 75.4444 110.241 75.2694C109.879 75.0945 109.511 74.9616 109.133 74.9128L108.039 74.7718L107.378 79.9031L108.471 80.044C109.144 80.1308 109.755 80.0384 110.303 79.767C110.851 79.4956 111.185 78.8972 111.315 77.8878Z" fill="#FE5070"/>
<path d="M124.869 79.5494C124.766 80.3485 124.5 81.0839 124.035 81.708C123.57 82.3322 122.953 82.8085 122.147 83.0895C121.341 83.3704 120.431 83.4669 119.379 83.3314C118.328 83.1958 117.429 82.8663 116.727 82.3481C116.024 81.8299 115.547 81.2127 115.298 80.4964C115.006 79.7746 114.93 79.0379 115.033 78.2388C115.136 77.4397 115.396 76.7464 115.861 76.1222C116.327 75.498 116.944 75.0217 117.713 74.6933C118.524 74.3703 119.435 74.2738 120.528 74.4148C121.328 74.5178 122.026 74.7361 122.63 75.0277C123.234 75.3193 123.695 75.7208 124.062 76.1956C124.428 76.6704 124.663 77.171 124.803 77.7449C124.942 78.3188 124.945 78.9605 124.869 79.5494ZM122.22 79.2078C122.263 78.8714 122.259 78.5715 122.207 78.3083C122.156 78.0451 122.02 77.7711 121.879 77.5391C121.696 77.3017 121.502 77.1484 121.223 76.9843C120.945 76.8202 120.656 76.7402 120.278 76.6914C119.563 76.5992 118.989 76.7391 118.556 77.1109C118.123 77.4827 117.848 77.9603 117.761 78.6332C117.675 79.3062 117.82 79.838 118.144 80.3074C118.51 80.7822 119.03 81.063 119.703 81.1497C120.166 81.2093 120.597 81.1794 120.961 81.0125C121.324 80.8456 121.609 80.6257 121.821 80.3109C121.985 80.0328 122.16 79.6705 122.22 79.2078Z" fill="#FE5070"/>
<path d="M134.32 78.5442L131.166 78.1376L130.32 84.6989L127.712 84.3628L128.558 77.8015L125.404 77.395L125.675 75.292L134.633 76.4466L134.32 78.5442Z" fill="#FE5070"/>
<path d="M111.45 92.101C111.271 92.1635 111.098 92.1838 110.966 92.2096C110.834 92.2354 110.703 92.2612 110.571 92.287C110.44 92.3128 110.266 92.3332 110.008 92.3427C109.619 92.3781 109.187 92.408 108.803 92.4012C108.419 92.3945 107.993 92.3824 107.531 92.3227C106.648 92.2089 105.87 91.9377 105.151 91.5457C104.437 91.1116 103.908 90.5731 103.532 89.8405C103.156 89.1079 103.054 88.2396 103.179 87.2723C103.26 86.6414 103.468 86.0267 103.754 85.465C104.04 84.9033 104.484 84.4474 104.995 84.1285C105.412 83.8828 105.865 83.6847 106.265 83.5652C106.707 83.4512 107.097 83.4159 107.486 83.3805C107.87 83.3873 108.296 83.3994 108.759 83.459C109.516 83.5566 110.141 83.68 110.63 83.8712C111.118 84.0624 111.649 84.2591 112.21 84.5453L111.945 86.6062C111.593 86.3471 111.2 86.0826 110.759 85.8547C110.36 85.6323 109.819 85.5198 109.146 85.433C108.389 85.3355 107.784 85.3857 107.283 85.6205C106.782 85.8553 106.445 86.1538 106.228 86.5107C106.01 86.8675 105.872 87.2773 105.829 87.6138C105.775 88.0344 105.804 88.4658 105.966 88.8714C106.128 89.2771 106.384 89.6094 106.777 89.874C107.171 90.1385 107.659 90.3297 108.206 90.4002C108.543 90.4435 108.885 90.4448 109.274 90.4095L109.404 89.4001L108.226 89.2483L108.449 87.5239L111.897 87.9684L111.366 92.0902L111.45 92.101Z" fill="#FE5070"/>
<path d="M121.8 94.0763L118.982 93.7131L118.509 92.0702C118.327 91.4909 118.171 91.0432 117.994 90.7637C117.816 90.4843 117.669 90.2943 117.47 90.1831C117.27 90.0719 117.065 90.0027 116.771 89.9648L116.477 89.9268L116.043 93.2916L113.435 92.9555L114.552 84.2913L119.01 84.8659C119.725 84.958 120.298 85.1601 120.723 85.5141C121.147 85.8682 121.44 86.248 121.596 86.6957C121.753 87.1434 121.788 87.5328 121.739 87.9113C121.685 88.3319 121.552 88.6996 121.346 88.9724C121.14 89.2451 120.944 89.4337 120.712 89.5748C120.528 89.6793 120.301 89.7784 120.033 89.8721C120.305 90.0782 120.494 90.2736 120.63 90.5476C120.765 90.8217 120.964 91.2748 121.213 91.9911L121.8 94.0763ZM119.031 87.6906C119.085 87.27 118.992 87.0014 118.761 86.8006C118.53 86.5998 118.121 86.4615 117.532 86.3856L116.985 86.3152L116.714 88.4181L117.261 88.4886C117.892 88.5699 118.365 88.5454 118.592 88.4463C118.818 88.3473 118.982 88.0691 119.031 87.6906Z" fill="#FE5070"/>
<path d="M125.585 94.5645L122.978 94.2285L124.094 85.5642L126.702 85.9003L125.585 94.5645Z" fill="#FE5070"/>
<path d="M137.231 91.7895C137.117 92.6727 136.857 93.366 136.45 93.8694C136.043 94.3729 135.61 94.7447 135.146 95.0269C134.45 95.4503 133.582 95.5522 132.446 95.4058L127.778 94.8041L128.895 86.1399L132.512 86.6061C133.058 86.6766 133.516 86.7782 133.889 86.8691C134.262 86.9599 134.588 87.0874 134.908 87.257C135.228 87.4265 135.469 87.5432 135.663 87.6964C135.858 87.8497 136.052 88.003 136.198 88.1929C136.46 88.4832 136.674 88.8102 136.847 89.1317C137.019 89.4532 137.175 89.9009 137.247 90.3378C137.272 90.8113 137.296 91.2848 137.231 91.7895ZM134.592 91.3638C134.684 90.6488 134.629 90.0858 134.383 89.6693C134.179 89.2582 133.881 88.9205 133.519 88.7455C133.156 88.5705 132.789 88.4376 132.41 88.3888L131.317 88.2479L130.655 93.3791L131.749 93.5201C132.422 93.6068 133.032 93.5145 133.58 93.243C134.128 92.9716 134.462 92.3733 134.592 91.3638Z" fill="#FE5070"/>
<path d="M110.108 100.523C110.011 101.28 109.682 101.836 109.124 102.192C108.559 102.589 107.817 102.707 106.892 102.588L101.887 101.943L103.003 93.2788L107.167 93.8155C107.714 93.8859 108.171 93.9876 108.576 94.168C108.985 94.3063 109.258 94.5125 109.489 94.7133C109.719 94.9141 109.861 95.146 109.954 95.4147C110.048 95.6833 110.057 95.9411 110.02 96.2355C109.976 96.5719 109.902 96.8189 109.737 97.097C109.573 97.3752 109.378 97.5638 109.188 97.7104C108.998 97.8569 108.772 97.956 108.592 98.0184C109.149 98.3467 109.573 98.7007 109.825 99.0751C110.076 99.4496 110.179 99.9759 110.108 100.523ZM107.515 96.4258C107.569 96.0052 107.476 95.7366 107.203 95.5304C106.93 95.3242 106.515 95.2279 105.926 95.152L105.379 95.0816L105.114 97.1425L105.66 97.2129C106.249 97.2888 106.681 97.2589 106.991 97.1707C107.297 97.1245 107.461 96.8464 107.515 96.4258ZM107.469 100.097C107.567 99.34 107.064 98.9331 106.012 98.7976L104.961 98.662L104.673 100.891L105.725 101.027C106.824 101.126 107.377 100.812 107.469 100.097Z" fill="#FE5070"/>
<path d="M121.282 100.082C121.179 100.881 120.914 101.616 120.448 102.24C119.983 102.864 119.366 103.341 118.56 103.622C117.754 103.903 116.844 103.999 115.792 103.864C114.741 103.728 113.843 103.399 113.14 102.88C112.437 102.362 111.961 101.745 111.711 101.029C111.419 100.307 111.343 99.5702 111.446 98.771C111.549 97.9719 111.809 97.2786 112.275 96.6544C112.74 96.0303 113.357 95.554 114.126 95.2255C114.938 94.9025 115.848 94.806 116.941 94.947C117.741 95.05 118.439 95.2683 119.043 95.5599C119.647 95.8515 120.108 96.2531 120.475 96.7279C120.841 97.2027 121.076 97.7033 121.216 98.2771C121.355 98.851 121.364 99.4507 121.282 100.082ZM118.591 99.7347C118.634 99.3982 118.63 99.0983 118.578 98.8351C118.527 98.5719 118.391 98.2979 118.25 98.0659C118.067 97.8285 117.873 97.6752 117.594 97.5111C117.316 97.347 117.027 97.267 116.649 97.2182C115.934 97.126 115.36 97.2659 114.927 97.6377C114.494 98.0095 114.219 98.4871 114.132 99.16C114.046 99.833 114.191 100.365 114.515 100.834C114.881 101.309 115.401 101.59 116.074 101.676C116.537 101.736 116.968 101.706 117.332 101.539C117.695 101.372 117.98 101.153 118.192 100.838C118.403 100.523 118.536 100.155 118.591 99.7347Z" fill="#FE5070"/>
<path d="M132.134 101.48C132.031 102.279 131.765 103.015 131.3 103.639C130.834 104.263 130.217 104.739 129.411 105.02C128.605 105.301 127.695 105.398 126.644 105.262C125.592 105.127 124.694 104.797 123.991 104.279C123.288 103.761 122.812 103.144 122.562 102.427C122.27 101.706 122.194 100.969 122.297 100.17C122.4 99.3706 122.661 98.6773 123.126 98.0531C123.591 97.4289 124.208 96.9526 124.978 96.6242C125.789 96.3012 126.699 96.2047 127.793 96.3457C128.592 96.4487 129.291 96.667 129.894 96.9586C130.498 97.2502 130.96 97.6517 131.326 98.1265C131.692 98.6014 131.927 99.1019 132.067 99.6758C132.207 100.25 132.215 100.849 132.134 101.48ZM129.484 101.139C129.527 100.802 129.523 100.502 129.472 100.239C129.42 99.976 129.284 99.702 129.143 99.47C128.96 99.2326 128.766 99.0793 128.488 98.9152C128.21 98.7511 127.921 98.6711 127.542 98.6223C126.827 98.5301 126.253 98.67 125.82 99.0418C125.388 99.4136 125.112 99.8912 125.026 100.564C124.939 101.237 125.084 101.769 125.409 102.238C125.775 102.713 126.295 102.994 126.967 103.081C127.43 103.14 127.862 103.11 128.225 102.943C128.589 102.776 128.874 102.557 129.085 102.242C129.297 101.927 129.43 101.559 129.484 101.139Z" fill="#FE5070"/>
<path d="M142.3 107.195L139.104 106.783L136.302 102.317L135.781 106.355L133.174 106.018L134.29 97.3542L136.898 97.6903L136.399 101.56L140.052 98.0969L142.87 98.4601L139.111 102.08L142.3 107.195Z" fill="#FE5070"/>
<path opacity="0.6" d="M74.9368 58.5767L68.8654 105.683" stroke="#FE5070" stroke-width="4.7648" stroke-miterlimit="10"/>
<path d="M67.7871 57.6549L60.637 56.7334L54.5656 103.84L61.7157 104.761L67.7871 57.6549Z" fill="#FE5070"/>
<path opacity="0.61" d="M167.047 70.4479L159.897 69.5264L153.826 116.633L160.976 117.554L167.047 70.4479Z" fill="#FE5070"/>
<path d="M184.292 72.6708L60.637 56.7334L54.5656 103.84L178.22 119.777L184.292 72.6708Z" stroke="#102D3B" stroke-width="4.7648" stroke-miterlimit="10" stroke-linecap="round" stroke-linejoin="round"/>
<path d="M144.26 191.51L139.087 190.843C137.741 190.67 136.789 189.435 136.962 188.089L158.667 19.6832C158.841 18.3373 160.075 17.3847 161.421 17.5582L166.594 18.225C167.94 18.3984 168.893 19.6329 168.719 20.9788L147.02 189.343C146.841 190.731 145.606 191.683 144.26 191.51Z" fill="#B7C8CE"/>
<path d="M144.26 191.51L139.087 190.843C137.741 190.67 136.789 189.435 136.962 188.089L158.667 19.6832C158.841 18.3373 160.075 17.3847 161.421 17.5582L166.594 18.225C167.94 18.3984 168.893 19.6329 168.719 20.9788L147.02 189.343C146.841 190.731 145.606 191.683 144.26 191.51Z" stroke="#102D3B" stroke-width="4.7648" stroke-miterlimit="10" stroke-linecap="round" stroke-linejoin="round"/>
<path d="M68.5289 197.869L56.8164 189.219L58.3884 177.021L71.0063 178.648L68.5289 197.869Z" fill="#EA3939"/>
<path opacity="0.62" d="M71.0063 178.648L58.3884 177.021L57.7759 181.774L70.3937 183.4L71.0063 178.648Z" fill="#EA3939"/>
<path d="M68.5289 197.869L56.8164 189.219L58.3884 177.021L71.0063 178.648L68.5289 197.869Z" stroke="#102D3B" stroke-width="4.7648" stroke-miterlimit="10" stroke-linecap="round" stroke-linejoin="round"/>
<path d="M37.4475 40.9173L23.9885 39.1826L15.803 102.692L29.262 104.427L37.4475 40.9173Z" fill="#004789" stroke="#004789" stroke-width="4.7648" stroke-miterlimit="10" stroke-linecap="round" stroke-linejoin="round"/>
<path d="M23.9012 147.35C19.3588 146.764 14.7743 146.173 10.2319 145.588C10.5412 136.221 11.788 126.547 13.9181 116.987C18.4605 117.573 23.0449 118.164 27.5874 118.749C27.2238 128.537 25.977 138.21 23.9012 147.35Z" fill="#004789" stroke="#004789" stroke-width="4.7648" stroke-miterlimit="10" stroke-linecap="round" stroke-linejoin="round"/>
<path d="M27.5877 118.749C23.0453 118.164 18.4608 117.573 13.9184 116.987C17.2784 113.144 17.9832 107.677 15.7615 102.687C20.3039 103.272 24.8884 103.863 29.4308 104.449C26.0165 108.712 25.3118 114.18 27.5877 118.749Z" fill="#004789" stroke="#004789" stroke-width="4.7648" stroke-miterlimit="10" stroke-linecap="round" stroke-linejoin="round"/>
<path d="M16.2645 166.461C19.403 160.024 22.95 154.068 23.9015 147.349L10.2322 145.587C9.44896 152.328 11.3697 158.989 12.7736 166.011L16.2645 166.461Z" fill="#004789" stroke="#004789" stroke-width="4.7648" stroke-miterlimit="10" stroke-linecap="round" stroke-linejoin="round"/>
<path d="M16.1379 166.445L12.7732 166.011L12.4479 168.535L15.8127 168.968L16.1379 166.445Z" fill="#004789" stroke="#004789" stroke-width="4.7648" stroke-miterlimit="10" stroke-linecap="round" stroke-linejoin="round"/>
<path d="M14.0762 169.172L13.3715 174.64" stroke="#004789" stroke-width="4.7648" stroke-miterlimit="10" stroke-linecap="round" stroke-linejoin="round"/>
<path d="M36.9583 31.4472L26.864 30.1462L25.6714 39.3993L35.7657 40.7003L36.9583 31.4472Z" fill="#004789" stroke="#004789" stroke-width="4.7648" stroke-miterlimit="10" stroke-linecap="round" stroke-linejoin="round"/>
<path d="M35.6959 31.2845L28.1252 30.3087L29.5183 19.4995C29.7081 18.0274 31.2058 17.0232 32.6778 17.2129L34.7808 17.484C36.2529 17.6737 37.2788 19.0031 37.089 20.4752L35.6959 31.2845Z" fill="#004789" stroke="#004789" stroke-width="4.7648" stroke-miterlimit="10" stroke-linecap="round" stroke-linejoin="round"/>
<path d="M41.315 47.4018L28.2766 45.7213L27.3009 53.292L40.3393 54.9725L41.315 47.4018Z" fill="#004789" stroke="#004789" stroke-width="4.7648" stroke-miterlimit="10" stroke-linecap="round" stroke-linejoin="round"/>
<path d="M37.0162 80.7552L33.1757 74.0603L35.7126 54.3765L40.3392 54.9728L37.0162 80.7552Z" fill="#004789" stroke="#004789" stroke-width="4.7648" stroke-miterlimit="10" stroke-linecap="round" stroke-linejoin="round"/>
<path d="M24.9143 116.267C20.3719 115.681 15.7875 115.09 11.245 114.505C14.6051 110.662 15.3098 105.194 13.0881 100.205C17.6306 100.79 22.215 101.381 26.7574 101.966C23.3432 106.23 22.6385 111.697 24.9143 116.267Z" fill="#102D3B"/>
<path d="M34.7744 38.4351L21.3154 36.7004L13.1299 100.21L26.5889 101.945L34.7744 38.4351Z" fill="#526066"/>
<path d="M34.7744 38.4351L21.3154 36.7004L13.1299 100.21L26.5889 101.945L34.7744 38.4351Z" fill="#526066"/>
<path opacity="0.64" d="M25.5214 37.2425L21.3154 36.7004L13.1299 100.21L17.3359 100.752L25.5214 37.2425Z" fill="#526066"/>
<path opacity="0.3" d="M34.7744 38.4348L30.989 37.9469L22.8035 101.457L26.5888 101.944L34.7744 38.4348Z" fill="#526066"/>
<path d="M34.7744 38.4351L21.3154 36.7004L13.1299 100.21L26.5889 101.945L34.7744 38.4351Z" stroke="#102D3B" stroke-width="4.7648" stroke-miterlimit="10" stroke-linecap="round" stroke-linejoin="round"/>
<path d="M21.2278 144.867C16.6854 144.282 12.1009 143.691 7.55852 143.105C7.86786 133.738 9.11466 124.065 11.2447 114.505C15.7871 115.09 20.3716 115.681 24.914 116.267C24.5505 126.054 23.3037 135.728 21.2278 144.867Z" fill="#42708A"/>
<path d="M21.2278 144.867C16.6854 144.282 12.1009 143.691 7.55852 143.105C7.86786 133.738 9.11466 124.065 11.2447 114.505C15.7871 115.09 20.3716 115.681 24.914 116.267C24.5505 126.054 23.3037 135.728 21.2278 144.867Z" fill="#526066"/>
<path opacity="0.3" d="M24.9139 116.267C23.8204 116.126 22.7268 115.985 21.6333 115.844C21.2697 125.631 20.0229 135.305 17.9471 144.444C19.0407 144.585 20.1342 144.726 21.2277 144.867C23.3036 135.728 24.5504 126.054 24.9139 116.267Z" fill="#526066"/>
<path opacity="0.73" d="M12.4496 143.308C11.7767 143.221 11.1458 143.14 10.4728 143.053C10.7659 133.813 11.991 124.307 14.0627 114.868C14.7357 114.955 15.4086 115.041 16.0816 115.128C14.0099 124.567 12.7847 134.073 12.4496 143.308Z" fill="#CCDDE5"/>
<path d="M21.2278 144.867C16.6854 144.282 12.1009 143.691 7.55852 143.105C7.86786 133.738 9.11466 124.065 11.2447 114.505C15.7871 115.09 20.3716 115.681 24.914 116.267C24.5505 126.054 23.3037 135.728 21.2278 144.867Z" stroke="#102D3B" stroke-width="4.7648" stroke-miterlimit="10" stroke-linecap="round" stroke-linejoin="round"/>
<path d="M24.2864 126.448L9.14502 124.496L8.00664 133.329L23.148 135.28L24.2864 126.448Z" stroke="#102D3B" stroke-width="4.7648" stroke-miterlimit="10" stroke-linecap="round" stroke-linejoin="round"/>
<path d="M24.9143 116.267C20.3719 115.681 15.7875 115.09 11.245 114.505C14.6051 110.662 15.3098 105.194 13.0881 100.205C17.6306 100.79 22.215 101.381 26.7574 101.966C23.3432 106.23 22.6385 111.697 24.9143 116.267Z" stroke="#102D3B" stroke-width="4.7648" stroke-miterlimit="10" stroke-linecap="round" stroke-linejoin="round"/>
<path d="M13.5911 163.979C16.7297 157.542 20.2767 151.586 21.2281 144.867L7.55884 143.105C6.77562 149.846 8.69635 156.507 10.1002 163.529L13.5911 163.979Z" fill="#CCDDE5"/>
<path d="M21.2281 144.867C21.2119 144.993 21.1902 145.161 21.1739 145.288L12.1732 144.128C11.3642 150.736 11.7287 157.197 12.2873 163.811L10.1002 163.529C8.69635 156.507 6.77562 149.846 7.55884 143.105L21.2281 144.867Z" fill="white"/>
<path d="M13.5911 163.979C16.7297 157.542 20.2767 151.586 21.2281 144.867L7.55884 143.105C6.77562 149.846 8.69635 156.507 10.1002 163.529L13.5911 163.979Z" stroke="#102D3B" stroke-width="4.7648" stroke-miterlimit="10" stroke-linecap="round" stroke-linejoin="round"/>
<path d="M13.4649 163.962L10.1001 163.529L9.77485 166.052L13.1396 166.486L13.4649 163.962Z" stroke="#102D3B" stroke-width="4.7648" stroke-miterlimit="10" stroke-linecap="round" stroke-linejoin="round"/>
<path d="M11.4028 166.69L10.6981 172.158" stroke="#102D3B" stroke-width="4.7648" stroke-miterlimit="10" stroke-linecap="round" stroke-linejoin="round"/>
<path d="M34.2844 28.9649L24.1902 27.6639L22.9976 36.917L33.0919 38.218L34.2844 28.9649Z" stroke="#102D3B" stroke-width="4.7648" stroke-miterlimit="10" stroke-linecap="round" stroke-linejoin="round"/>
<path d="M34.2844 28.9649L24.1902 27.6639L22.9976 36.917L33.0919 38.218L34.2844 28.9649Z" fill="#102D3B"/>
<path d="M33.023 28.8021L25.4523 27.8263L26.8455 17.017C27.0352 15.545 28.5329 14.5408 30.005 14.7305L32.108 15.0016C33.58 15.1913 34.6059 16.5207 34.4162 17.9928L33.023 28.8021Z" fill="#CCDDE5"/>
<path d="M33.023 28.8021L25.4523 27.8263L26.8455 17.017C27.0352 15.545 28.5329 14.5408 30.005 14.7305L32.108 15.0016C33.58 15.1913 34.6059 16.5207 34.4162 17.9928L33.023 28.8021Z" stroke="#102D3B" stroke-width="4.7648" stroke-miterlimit="10" stroke-linecap="round" stroke-linejoin="round"/>
<path d="M38.6419 44.9194L25.6035 43.2389L24.6278 50.8096L37.6662 52.4901L38.6419 44.9194Z" fill="#CCDDE5"/>
<path d="M38.6419 44.9194L25.6035 43.2389L24.6278 50.8096L37.6662 52.4901L38.6419 44.9194Z" stroke="#102D3B" stroke-width="4.7648" stroke-miterlimit="10" stroke-linecap="round" stroke-linejoin="round"/>
<path d="M34.3433 78.2729L30.5028 71.578L33.0398 51.8942L37.6663 52.4905L34.3433 78.2729Z" fill="#CCDDE5"/>
<path d="M34.3433 78.2729L30.5028 71.578L33.0398 51.8942L37.6663 52.4905L34.3433 78.2729Z" stroke="#102D3B" stroke-width="4.7648" stroke-miterlimit="10" stroke-linecap="round" stroke-linejoin="round"/>
</svg>
