<svg width="21" height="21" viewBox="0 0 21 21" fill="none" xmlns="http://www.w3.org/2000/svg">
<g clip-path="url(#clip0_1120_3544)">
<path fill-rule="evenodd" clip-rule="evenodd" d="M0.119629 16.7583V4.8833C0.119629 2.6333 1.93212 0.820801 4.18212 0.820801H16.0571C18.3071 0.820801 20.1196 2.6333 20.1196 4.8833V10.6333C20.1196 12.8833 18.3071 14.6958 16.0571 14.6958H13.7446V16.7583C13.7446 19.0083 11.9321 20.8208 9.68211 20.8208H4.18212C1.93212 20.8208 0.119629 19.0083 0.119629 16.7583ZM6.36962 7.1333H1.18212V4.8208C1.18212 3.1958 2.49463 1.8208 4.18212 1.8208H6.36962V7.1333ZM16.0571 13.6958H13.8696V8.32078H19.0571V10.6958C19.0571 12.3208 17.7446 13.6958 16.0571 13.6958ZM9.68211 19.8208H7.4946V14.8833H12.6821V16.8208C12.6821 18.4458 11.3696 19.8208 9.68211 19.8208ZM7.4946 13.6958H12.6821V8.32078H7.4946V13.6958ZM13.8696 7.1333H19.0571V4.8833C19.0571 3.1958 17.6821 1.8833 16.0571 1.8833H13.8696V7.1333ZM12.6821 7.1333H7.4946V1.8208H12.6821V7.1333ZM1.11963 14.8208V16.7583C1.11963 18.4458 2.49463 19.7583 4.11963 19.7583H6.36962V14.8208H1.11963ZM6.36962 13.6958H1.11963V8.32078H6.36962V13.6958Z" fill="white"/>
</g>
<defs>
<clipPath id="clip0_1120_3544">
<rect width="20" height="20" fill="white" transform="translate(0.119629 0.820801)"/>
</clipPath>
</defs>
</svg>
