<svg width="186" height="204" viewBox="0 0 186 204" fill="none" xmlns="http://www.w3.org/2000/svg">
<rect width="183.174" height="173.663" rx="7.04517" transform="matrix(1 0 0 -1 2.82544 201.949)" fill="#004789"/>
<rect width="183.174" height="173.663" rx="7.04517" transform="matrix(1 0 0 -1 0.937012 203.958)" fill="#00A0B0"/>
<path fill-rule="evenodd" clip-rule="evenodd" d="M95.9195 3.23511C95.121 2.32222 92.0866 0.564915 86.3373 0.838781C79.1506 1.18111 58.9595 4.94677 52.1151 21.0364C48.7784 27.07 46.6449 31.0335 45.1009 33.9019C42.5275 38.6825 41.5918 40.4209 39.4529 43.6303C39.319 43.8311 39.1731 44.0482 39.0167 44.281C35.1729 50.0003 24.9515 65.2088 30.2129 82.3138C29.0343 83.3917 27.7961 84.463 26.5452 85.5452C15.0832 95.4618 2.55549 106.301 25.0796 131.61C24.5823 133.457 23.7163 135.733 22.7388 138.301C19.0075 148.106 13.6509 162.181 20.9729 173.032C23.3323 176.528 25.1562 179.422 26.6326 181.765C28.2304 184.3 29.4212 186.189 30.4433 187.498L31.5836 203.605L36.8675 203.605H161.567L165.266 203.605V176.275C165.266 166.498 161.181 159.001 155.297 153.295C159.624 151.83 164.153 147.035 164.706 123.051C169.839 123.051 172.839 113.466 172.839 105.935C172.839 94.2955 165.733 87.1065 156.493 84.7101C160.942 72.0439 154.097 59.7199 150.675 54.9272C149.643 53.1728 148.923 49.2095 148.044 44.3785C146.009 33.1843 143.126 17.3312 133.564 13.5051C130.199 12.1587 127.534 9.82675 124.847 7.47568C118.499 1.92121 112.029 -3.74009 95.9195 3.23511ZM50.077 72.1324C50.0746 72.5029 50.0745 72.8756 50.077 73.2506V72.1324Z" fill="#004789" fill-opacity="0.5"/>
<rect x="48.8442" y="90.5304" width="81.724" height="75.3833" fill="#4E281E"/>
<path d="M57.4744 139.494C60.4334 138.367 69.1576 137.968 73.1499 137.909H116.478C121.409 137.909 131.413 140.868 132.682 142.136C134.267 143.721 109.256 176.129 91.6435 176.129C74.0306 176.129 53.7757 140.903 57.4744 139.494Z" fill="#EDB98A"/>
<path fill-rule="evenodd" clip-rule="evenodd" d="M110.489 131.467C104.831 134.13 98.5018 135.62 91.8211 135.62C85.0002 135.62 78.5455 134.066 72.7976 131.298V115.365H110.489V131.467Z" fill="#D5A77E"/>
<rect x="72.7976" y="116.774" width="37.6917" height="25.7149" fill="#EDB98A"/>
<path d="M91.8194 130.864C115.651 130.864 134.971 111.544 134.971 87.7124V50.5491C132.153 46.1459 119.577 37.3394 91.8194 37.3394C64.0614 37.3394 51.4858 46.1459 48.6677 50.5491V87.7124C48.6677 111.544 67.9874 130.864 91.8194 130.864Z" fill="#EDB98A"/>
<path fill-rule="evenodd" clip-rule="evenodd" d="M72.7976 137.82V136.676C74.4833 138.881 77.0793 141.779 80.1114 144.27C83.6624 147.188 87.7539 149.502 91.6495 149.57C95.5373 149.639 99.6236 147.359 103.174 144.421C106.207 141.911 108.804 138.959 110.489 136.702V137.861C108.786 140.038 106.384 142.679 103.623 144.964C100.038 147.931 95.7848 150.348 91.6371 150.275C87.4972 150.202 83.2495 147.761 79.6641 144.815C76.9034 142.546 74.5012 139.95 72.7976 137.82Z" fill="#001F47"/>
<path d="M89.2767 152.423C89.3854 152.471 89.476 152.554 89.5612 152.638C89.7149 152.801 89.8541 152.983 89.9826 153.165C90.1532 152.874 90.3237 152.584 90.4937 152.288C90.3871 152.157 90.2812 152.032 90.1548 151.921C89.9265 151.722 89.7982 151.643 89.5351 151.731C89.3458 151.795 88.4297 152.094 88.5947 152.414C88.667 152.581 89.1227 152.358 89.2767 152.423Z" fill="#001F47" fill-opacity="0.5"/>
<path d="M91.4574 154.827C91.5218 154.717 91.5863 154.607 91.6454 154.497C91.6731 154.45 91.6949 154.399 91.7226 154.352C91.6317 154.062 91.4098 153.77 91.2673 153.507C91.11 153.208 90.9431 152.921 90.7504 152.647C90.7433 152.632 90.7314 152.622 90.7242 152.606C90.6374 152.763 90.5512 152.924 90.4638 153.075C90.3812 153.221 90.2927 153.361 90.2041 153.501C90.5626 154.051 90.8797 154.622 91.2075 155.192L91.2135 155.197C91.2273 155.173 91.2418 155.156 91.261 155.132C91.3272 155.037 91.3977 154.932 91.4574 154.827Z" fill="#001F47" fill-opacity="0.5"/>
<path d="M91.445 150.791C91.455 150.681 91.4887 150.639 91.5476 150.579C91.6563 150.474 91.7782 150.39 91.9125 150.322C91.9334 150.314 91.9485 150.301 91.9646 150.3C92.0233 150.288 92.0872 150.325 92.1199 150.376C92.5164 150.976 92.7836 151.743 93.1141 152.389C93.266 152.689 93.4239 152.993 93.5758 153.293C93.6452 153.433 93.9251 154.166 94.0448 154.164C94.1208 154.161 94.1808 154.111 94.242 154.072C94.395 153.974 94.6455 153.871 94.6079 154.131C94.5906 154.275 94.3344 154.427 94.2294 154.515C94.1441 154.584 93.5129 155 93.4227 154.971C93.3946 154.964 93.381 154.938 93.3625 154.918C93.0152 154.421 92.8559 153.746 92.5902 153.197C92.2812 152.549 91.9303 151.916 91.5643 151.296C91.5518 151.281 91.5441 151.26 91.5316 151.245C91.4639 151.121 91.4288 150.945 91.445 150.791Z" fill="#001F47" fill-opacity="0.5"/>
<path d="M91.4451 150.791C91.4496 150.731 91.4617 150.691 91.4798 150.657C91.1166 151.082 90.9172 151.561 90.6363 152.044C90.3687 152.497 90.1066 152.95 89.839 153.404C89.613 153.787 89.3912 154.16 89.1599 154.544C89.0671 154.696 88.8781 154.967 88.8136 155.486C88.772 155.861 89.5982 154.465 89.7416 154.226C89.9843 153.846 90.2324 153.465 90.4578 153.076C90.6748 152.71 90.8631 152.33 91.0735 151.953C91.2658 151.611 91.4529 151.373 91.5289 151.218C91.4618 151.1 91.4332 150.934 91.4451 150.791Z" fill="#001F47" fill-opacity="0.5"/>
<path d="M93.1142 152.389C93.1551 152.466 93.1961 152.544 93.2316 152.622C93.5111 152.178 93.7912 151.739 94.0957 151.325C94.115 151.301 94.1288 151.278 94.1307 151.245C94.1281 151.169 94.0078 151.166 93.9478 151.216C93.7809 151.337 93.5947 151.379 93.4361 151.526C93.2679 151.686 93.142 151.885 93.0215 152.083C93.0125 152.1 93.0034 152.118 92.989 152.135C93.0311 152.224 93.0726 152.306 93.1142 152.389Z" fill="#001F47" fill-opacity="0.5"/>
<path d="M92.6008 153.196C92.5664 153.129 92.5373 153.061 92.5023 152.988C92.4746 153.035 92.4475 153.087 92.4198 153.133C92.3505 153.25 92.2871 153.371 92.2178 153.487C92.1485 153.604 92.0792 153.72 92.0099 153.836C91.987 153.877 91.9587 153.918 91.9358 153.959C91.9129 153.999 91.8942 154.029 91.8617 154.081C91.8479 154.104 91.8292 154.134 91.8159 154.162C91.7622 154.272 91.7031 154.381 91.644 154.491C91.5849 154.601 91.5204 154.712 91.4559 154.822C91.3909 154.927 91.3258 155.032 91.2548 155.132C91.2409 155.156 91.2265 155.173 91.2072 155.197C91.2459 155.253 91.274 155.261 91.3159 155.246C91.3584 155.236 91.3927 155.199 91.4221 155.169C91.9114 154.648 92.3171 154.06 92.7098 153.451C92.679 153.367 92.6423 153.279 92.6008 153.196Z" fill="#001F47" fill-opacity="0.5"/>
<path d="M89.2765 152.109C89.3852 152.157 89.4758 152.24 89.561 152.324C89.7147 152.487 89.8539 152.669 89.9824 152.851C90.1529 152.56 90.3235 152.27 90.4934 151.974C90.3869 151.843 90.2809 151.718 90.1546 151.607C89.9262 151.408 89.7979 151.329 89.5349 151.417C89.3456 151.481 88.4295 151.78 88.5945 152.1C88.6667 152.267 89.1224 152.044 89.2765 152.109Z" fill="#00A0B0"/>
<path d="M91.4571 154.513C91.5216 154.403 91.5861 154.293 91.6452 154.183C91.6729 154.136 91.6947 154.085 91.7224 154.038C91.6315 153.748 91.4095 153.456 91.267 153.193C91.1098 152.894 90.9428 152.607 90.7501 152.333C90.743 152.318 90.7311 152.308 90.724 152.292C90.6372 152.449 90.5509 152.611 90.4635 152.762C90.381 152.907 90.2924 153.047 90.2039 153.187C90.5623 153.737 90.8794 154.308 91.2073 154.878L91.2132 154.883C91.2271 154.859 91.2415 154.842 91.2608 154.818C91.327 154.723 91.3974 154.618 91.4571 154.513Z" fill="#00A0B0"/>
<path d="M91.445 150.477C91.455 150.367 91.4887 150.325 91.5476 150.265C91.6563 150.16 91.7782 150.076 91.9125 150.008C91.9334 150 91.9485 149.987 91.9646 149.986C92.0233 149.974 92.0872 150.011 92.1199 150.062C92.5164 150.662 92.7836 151.429 93.1141 152.075C93.266 152.375 93.4239 152.679 93.5758 152.979C93.6452 153.119 93.9251 153.852 94.0448 153.85C94.1208 153.847 94.1808 153.797 94.242 153.758C94.395 153.66 94.6455 153.557 94.6079 153.817C94.5906 153.961 94.3344 154.113 94.2294 154.201C94.1441 154.27 93.5129 154.686 93.4227 154.658C93.3946 154.65 93.381 154.624 93.3625 154.604C93.0152 154.107 92.8559 153.432 92.5902 152.883C92.2812 152.235 91.9303 151.602 91.5643 150.982C91.5518 150.967 91.5441 150.946 91.5316 150.931C91.4639 150.807 91.4288 150.631 91.445 150.477Z" fill="#00A0B0"/>
<path d="M91.4449 150.477C91.4493 150.417 91.4615 150.377 91.4796 150.343C91.1164 150.768 90.9169 151.247 90.6361 151.73C90.3685 152.183 90.1063 152.636 89.8387 153.09C89.6128 153.473 89.391 153.846 89.1596 154.23C89.0668 154.382 88.8778 154.653 88.8134 155.172C88.7717 155.547 89.5979 154.151 89.7413 153.912C89.9841 153.532 90.2322 153.151 90.4576 152.762C90.6745 152.396 90.8628 152.016 91.0732 151.639C91.2655 151.297 91.4526 151.059 91.5287 150.904C91.4615 150.786 91.4329 150.62 91.4449 150.477Z" fill="#004789"/>
<path d="M93.1139 152.075C93.1549 152.152 93.1958 152.23 93.2314 152.308C93.5109 151.864 93.791 151.425 94.0955 151.011C94.1147 150.987 94.1286 150.964 94.1305 150.931C94.1278 150.855 94.0076 150.852 93.9475 150.902C93.7807 151.023 93.5944 151.065 93.4359 151.212C93.2677 151.372 93.1418 151.571 93.0213 151.769C93.0122 151.786 93.0032 151.804 92.9887 151.821C93.0309 151.91 93.0724 151.992 93.1139 152.075Z" fill="#004789"/>
<path d="M92.6005 152.882C92.5661 152.815 92.5371 152.747 92.5021 152.674C92.4744 152.721 92.4472 152.773 92.4195 152.819C92.3502 152.936 92.2869 153.057 92.2176 153.173C92.1483 153.29 92.079 153.406 92.0097 153.523C91.9868 153.563 91.9585 153.604 91.9356 153.645C91.9127 153.685 91.894 153.715 91.8615 153.767C91.8476 153.79 91.8289 153.82 91.8157 153.848C91.7619 153.958 91.7028 154.067 91.6437 154.177C91.5846 154.287 91.5202 154.398 91.4557 154.508C91.3906 154.613 91.3256 154.718 91.2545 154.818C91.2407 154.842 91.2262 154.859 91.207 154.883C91.2456 154.939 91.2737 154.947 91.3157 154.932C91.3582 154.922 91.3925 154.885 91.4219 154.855C91.9111 154.334 92.3169 153.746 92.7096 153.137C92.6788 153.053 92.6421 152.965 92.6005 152.882Z" fill="#004789"/>
<path opacity="0.2" d="M35.4583 175.853C35.4583 146.778 53.6125 138.864 62.8556 138.702C62.5789 140.479 65.147 146.552 76.3052 155.339C88.4265 165.677 88.4265 167.615 91.9134 167.615C95.4004 167.615 109.348 153.885 113.997 147.909C117.717 143.128 118.647 139.133 118.647 137.733C132.484 140.371 160.158 151.689 160.158 175.853V203.958H35.4583V175.853Z" fill="#25557C"/>
<path d="M28.4128 179.08C28.4128 147.544 50.84 138.959 60.6445 138.784C60.3509 140.711 63.0751 147.299 74.911 156.83C87.7684 168.042 87.7684 170.145 91.4671 170.145C95.1658 170.145 109.961 155.253 114.892 148.771C118.838 143.585 119.824 139.251 119.824 137.733C134.501 140.595 163.856 150.417 163.856 176.627V203.958H30.1741L28.4128 179.08Z" fill="#000813"/>
<path d="M82.3088 104.797C82.7198 106.617 85.1974 110.257 91.8198 110.257C98.4423 110.257 100.92 106.617 101.331 104.797" stroke="#633724" stroke-width="3.52259" stroke-linecap="round"/>
<path d="M92.1719 110.081C85.5494 110.081 83.0719 106.441 82.6609 104.621H101.683C101.272 106.441 98.7943 110.081 92.1719 110.081Z" fill="#633724" stroke="#633724" stroke-width="3.52259" stroke-linecap="round" stroke-linejoin="round"/>
<path d="M91.5 94C94.7226 94 97.3975 91.8352 97.911 88.995C98.0093 88.4515 97.5523 88 97 88H91.5H86C85.4477 88 84.9907 88.4515 85.089 88.995C85.6025 91.8352 88.2774 94 91.5 94Z" fill="#C19772"/>
<circle opacity="0.08" cx="115.949" cy="98.8085" r="7.92582" fill="#FE5070"/>
<circle opacity="0.08" cx="66.9856" cy="98.8085" r="7.92582" fill="#FE5070"/>
<path fill-rule="evenodd" clip-rule="evenodd" d="M60.3204 75.2275C60.3022 75.1688 60.2923 75.1034 60.2923 75.0311C60.2923 72.1129 64.1562 69.7472 68.9226 69.7472C73.689 69.7472 77.553 72.1129 77.553 75.0311C77.553 75.7202 76.6576 75.7886 76.155 75.3171C74.6147 73.8724 71.9508 72.9175 68.9227 72.9175C68.7765 72.9175 68.6312 72.9197 68.4869 72.9241C69.0912 73.7001 69.4512 74.6758 69.4512 75.7356C69.4512 78.2647 67.401 80.3149 64.8719 80.3149C62.3428 80.3149 60.2925 78.2647 60.2925 75.7356C60.2925 75.5639 60.302 75.3943 60.3204 75.2275Z" fill="#633724"/>
<path fill-rule="evenodd" clip-rule="evenodd" d="M105.382 75.0311C105.382 75.1032 105.391 75.1684 105.41 75.227C105.391 75.394 105.382 75.5637 105.382 75.7356C105.382 78.2647 107.432 80.3149 109.961 80.3149C112.49 80.3149 114.54 78.2647 114.54 75.7356C114.54 74.6758 114.18 73.7001 113.576 72.9241C113.72 72.9197 113.866 72.9175 114.012 72.9175C117.04 72.9175 119.704 73.8724 121.244 75.3171C121.747 75.7886 122.642 75.7202 122.642 75.0311C122.642 72.1129 118.778 69.7472 114.012 69.7472C109.246 69.7472 105.382 72.1129 105.382 75.0311Z" fill="#633724"/>
<path d="M57.3057 62.2712C56.8732 63.1425 57.2289 64.1994 58.1002 64.6319C58.9715 65.0644 60.0284 64.7087 60.4609 63.8374L57.3057 62.2712ZM78.831 59.5646C79.7664 59.8315 80.7411 59.2896 81.008 58.3542C81.2749 57.4188 80.733 56.4441 79.7976 56.1772L78.831 59.5646ZM60.4609 63.8374C61.6332 61.4759 67.0292 56.1971 78.831 59.5646L79.7976 56.1772C66.5715 52.4033 59.3258 58.2015 57.3057 62.2712L60.4609 63.8374Z" fill="#633724"/>
<path d="M103.35 56.1584C102.54 56.6967 102.319 57.7899 102.858 58.6001C103.396 59.4103 104.489 59.6307 105.299 59.0924L103.35 56.1584ZM123.345 64.5772C124.021 65.276 125.137 65.294 125.835 64.6174C126.534 63.9408 126.552 62.8257 125.876 62.1269L123.345 64.5772ZM105.299 59.0924C107.495 57.6334 114.808 55.7598 123.345 64.5772L125.876 62.1269C116.308 52.2455 107.134 53.6441 103.35 56.1584L105.299 59.0924Z" fill="#633724"/>
<path opacity="0.1" d="M99.3932 75.7356C99.3932 68.1483 97.2854 65.1678 91.6435 65.1678C86.0017 65.1678 84.2461 68.1483 84.2461 75.7356M44.0886 68.3382H52.1906M131.625 68.3382H138.494" stroke="#000813" stroke-width="3.52259" stroke-linecap="round" stroke-linejoin="round"/>
<path d="M99.3932 74.3265C99.3932 66.7392 97.2854 63.7588 91.6435 63.7588C86.0017 63.7588 84.2461 66.7392 84.2461 74.3265M44.0886 66.9291H52.1906M130.92 66.9291H138.494" stroke="#000813" stroke-width="3.52259" stroke-linecap="round" stroke-linejoin="round"/>
<circle opacity="0.2" cx="67.6898" cy="75.7356" r="16.5562" stroke="#000813" stroke-width="3.52259"/>
<circle opacity="0.2" cx="115.949" cy="75.7356" r="16.5562" stroke="#000813" stroke-width="3.52259"/>
<circle cx="67.6898" cy="74.3266" r="16.5562" stroke="#000813" stroke-width="3.52259"/>
<circle cx="115.949" cy="74.3266" r="16.5562" stroke="#000813" stroke-width="3.52259"/>
<path d="M89.2342 41.2746C75.8618 51.1338 57.5579 53.9681 49.5484 54.5387L48.6677 48.4355H49.5484C71.2123 51.0775 90.4104 33.8168 94.2852 33.993C98.16 34.1691 103.268 39.2768 104.501 41.2746C105.734 43.2725 115.773 45.2652 125.108 46.6743C134.443 48.0833 135.147 50.9014 134.267 51.782C133.562 52.4865 129.999 52.9378 128.305 53.0753C118.555 54.787 117.803 49.746 107.008 49.4037C96.2124 49.0614 96.8954 34.428 89.2342 41.2746Z" fill="#C19772"/>
<path d="M84.9281 1.19104C90.6775 0.917172 93.7118 2.67448 94.5104 3.58736C117.439 -6.34027 120.84 9.33004 132.155 13.8573C145.844 19.3346 145.844 49.4599 149.266 55.2795C152.688 60.0722 159.533 72.3961 155.084 85.0624C164.324 87.4587 171.43 94.6477 171.43 106.287C171.43 113.818 168.43 123.404 163.297 123.404C162.27 167.907 147.555 146.34 145.844 160.033C148.239 188.104 160.559 181.6 159.533 189.816C156.453 197.347 134.893 198.374 119.493 189.816C92.5241 169.618 119.493 141.608 123.523 131.962C125.644 126.886 123.189 121.487 127.021 113.818C133.045 105.055 136.038 74.8549 134.443 62.8781C133.817 58.1801 135.768 49.7082 128.102 51.0775C118.52 52.7891 117.781 47.7482 107.173 47.4059C96.5637 47.0635 97.2349 32.4302 89.706 39.2768C76.5647 49.136 58.577 51.9703 50.7059 52.5409C48.7667 64.1801 45.7864 84.4658 55.7005 107.127C62.3587 122.345 61.3148 130.25 61.3148 136.412C61.3148 145.313 46.9415 148.736 44.8881 157.294C47.9681 173.726 59.9459 165.168 61.3148 169.618C52.417 175.438 44.8881 169.618 41.8081 166.88C42.8348 176.123 47.6259 173.384 44.8881 175.438C38.865 174.89 37.8156 169.504 38.0437 166.88C36.6748 167.108 33.937 169.139 33.937 175.438C33.937 183.312 38.0437 186.735 33.937 189.816C29.8303 191.528 28.8037 187.077 19.5637 173.384C10.3237 159.691 21.2748 140.863 23.6704 131.962C-1.31184 103.891 16.8259 93.6207 28.8037 82.6661C23.3282 64.8648 34.6215 49.1175 38.0437 43.9825C41.4659 38.8476 41.8081 37.4782 50.7059 21.3886C57.5504 5.29902 77.7415 1.53337 84.9281 1.19104Z" fill="#633724"/>
<path d="M84.0699 30.2942C81.017 34.6388 72.9386 42.9755 65.048 41.5665M84.0699 16.5562C82.4261 20.431 77.0248 28.6034 68.5706 30.2942M105.205 30.2942C105.205 33.2297 106.967 38.9598 114.012 38.3962M119.296 30.2942C121.292 34.4039 127.045 41.7779 134.091 38.3962M111.898 16.5562C117.417 16.6736 128.807 18.6697 130.216 25.7149M150.999 90.1782C146.655 90.6479 138.106 94.4053 138.67 105.678M156.987 100.746C160.158 101.568 165.864 104.903 163.328 111.666M154.874 111.666C150.06 111.314 140.079 113.78 138.67 126.461M152.76 129.279C151.469 134.915 145.927 145.412 134.091 142.312M127.75 155.346C125.754 158.164 127.327 164.293 134.091 170.493C142.545 178.243 140.079 174.72 144.306 185.64M123.523 176.834C126.341 177.303 132.4 179.722 134.091 185.64M30.8789 94.053C24.8905 96.7537 15.2386 105.959 24.5382 121.177M41.7989 50.373C37.6892 54.1304 30.5266 65.3792 34.7537 80.3149M40.0376 88.0646C41.5641 94.2879 41.8694 107.721 30.8789 111.666M49.1963 105.678C48.4918 109.318 44.8283 117.232 35.8105 119.768M28.4131 142.312C25.4776 146.54 20.0997 157.178 22.0724 165.914M30.8789 126.461C30.5266 127.87 31.5129 131.604 38.2763 135.267C45.0397 138.931 46.9653 143.604 47.0828 145.483M52.3666 119.768C54.1279 122.586 56.5937 129.631 52.3666 135.267M35.8105 149.71C32.875 151.236 27.7791 155.91 30.8789 162.391M26.6518 170.493C26.4169 174.603 26.9336 181.272 30.8789 183.527M142.545 58.4749C145.011 63.0543 148.815 74.397 144.306 83.133M72.0931 14.7949C65.8699 15.9691 53.6348 22.3332 54.4802 38.3962" stroke="#4E281E" stroke-width="1.40903" stroke-linecap="round"/>
</svg>
