<svg width="108" height="119" viewBox="0 0 108 119" fill="none" xmlns="http://www.w3.org/2000/svg">
<rect width="106.163" height="100.651" rx="3.794" transform="matrix(1 0 0 -1 1.15088 117.511)" fill="#004789"/>
<rect width="106.163" height="100.651" rx="3.794" transform="matrix(1 0 0 -1 0.0561523 118.675)" fill="#00A0B0"/>
<path fill-rule="evenodd" clip-rule="evenodd" d="M55.105 2.34129C54.6422 1.8122 52.8835 0.793718 49.5514 0.952443C45.3862 1.15085 33.684 3.33332 29.7171 12.6584C27.7833 16.1553 26.5468 18.4525 25.6519 20.1149C24.1604 22.8856 23.6181 23.8932 22.3785 25.7532C22.3009 25.8696 22.2163 25.9954 22.1256 26.1304C19.8979 29.4451 13.9739 38.2595 17.0232 48.1731C16.3402 48.7978 15.6225 49.4187 14.8975 50.046C8.25448 55.7934 0.99375 62.0751 14.0481 76.7436C13.7599 77.8145 13.258 79.1332 12.6915 80.6219C10.5289 86.3044 7.42435 94.462 11.6679 100.751C13.0354 102.777 14.0925 104.455 14.9482 105.812C15.8741 107.281 16.5641 108.376 17.1565 109.135L17.8174 118.471H20.8799H93.1523H95.2959V102.631C95.2959 96.9642 92.9283 92.6192 89.518 89.3123C92.0258 88.463 94.6511 85.6847 94.9718 71.7835C97.9469 71.7835 99.6855 66.2281 99.6855 61.8632C99.6855 55.1174 95.5668 50.9508 90.2116 49.562C92.79 42.2209 88.8232 35.0783 86.8397 32.3006C86.2418 31.2838 85.8241 28.9868 85.315 26.1869C84.1353 19.699 82.4646 10.511 76.9226 8.29347C74.9724 7.51314 73.4278 6.16162 71.8706 4.799C68.1916 1.57979 64.4418 -1.70135 55.105 2.34129ZM28.5366 42.1769C28.5343 42.4541 28.5342 42.7334 28.5366 43.0149V42.1769Z" fill="#004789" fill-opacity="0.5"/>
<rect x="27.8213" y="52.9355" width="47.365" height="43.6901" fill="#4E281E"/>
<path d="M32.8237 81.3142C34.5387 80.6609 39.595 80.4295 41.9088 80.3955H67.0204C69.8786 80.3955 75.6768 82.1104 76.4117 82.8454C77.3304 83.7641 62.8351 102.547 52.6272 102.547C42.4192 102.547 30.68 82.1309 32.8237 81.3142Z" fill="#EDB98A"/>
<path fill-rule="evenodd" clip-rule="evenodd" d="M63.5487 76.662C60.2694 78.2053 56.601 79.0689 52.7289 79.0689C48.7758 79.0689 45.0349 78.1687 41.7036 76.5641V67.3296H63.5487V76.662Z" fill="#D5A77E"/>
<rect x="41.7046" y="68.1455" width="21.845" height="14.9036" fill="#EDB98A"/>
<path d="M52.7288 76.3122C66.5411 76.3122 77.7383 65.1151 77.7383 51.3027V29.7639C76.105 27.2119 68.8165 22.1079 52.7288 22.1079C36.641 22.1079 29.3525 27.2119 27.7192 29.7639V51.3027C27.7192 65.1151 38.9164 76.3122 52.7288 76.3122Z" fill="#EDB98A"/>
<path fill-rule="evenodd" clip-rule="evenodd" d="M41.7036 80.3197V79.7041C42.6815 80.9809 44.1819 82.6535 45.9334 84.0928C47.9921 85.7846 50.3667 87.1282 52.6295 87.1679C54.888 87.2075 57.2598 85.8835 59.3184 84.18C61.0701 82.7304 62.5708 81.0262 63.5487 79.7194V80.3437C62.5612 81.6073 61.1654 83.144 59.5603 84.4723C57.4828 86.1914 55.0213 87.5893 52.6228 87.5472C50.2284 87.5052 47.7698 86.093 45.6925 84.3859C44.0872 83.0667 42.691 81.5561 41.7036 80.3197Z" fill="#001F47"/>
<path d="M51.2565 88.8057C51.3195 88.8337 51.372 88.8818 51.4214 88.9302C51.5105 89.0249 51.5912 89.13 51.6656 89.2357C51.7645 89.0672 51.8633 88.8988 51.9618 88.7272C51.9001 88.6517 51.8387 88.5793 51.7654 88.5145C51.6331 88.3992 51.5587 88.3534 51.4063 88.4045C51.2966 88.4414 50.7656 88.615 50.8612 88.8006C50.9031 88.8972 51.1672 88.7679 51.2565 88.8057Z" fill="#001F47" fill-opacity="0.5"/>
<path d="M52.5199 90.1988C52.5573 90.1348 52.5947 90.0708 52.6289 90.0071C52.645 89.9802 52.6576 89.9504 52.6736 89.9234C52.621 89.7554 52.4923 89.5859 52.4097 89.4337C52.3186 89.2603 52.2218 89.0938 52.1102 88.9352C52.106 88.9261 52.0991 88.9206 52.095 88.9115C52.0447 89.0022 51.9947 89.0959 51.9441 89.1834C51.8962 89.2675 51.8449 89.3488 51.7936 89.4301C52.0013 89.7489 52.1851 90.0798 52.3751 90.41L52.3786 90.4128C52.3866 90.3993 52.395 90.389 52.4061 90.3752C52.4445 90.3205 52.4853 90.2593 52.5199 90.1988Z" fill="#001F47" fill-opacity="0.5"/>
<path d="M52.5129 87.8613C52.5187 87.7975 52.5382 87.7734 52.5724 87.7381C52.6354 87.6777 52.706 87.6291 52.7838 87.5892C52.796 87.5848 52.8047 87.5775 52.814 87.5765C52.8481 87.5697 52.8851 87.591 52.904 87.6206C53.1338 87.9687 53.2887 88.4132 53.4803 88.7875C53.5683 88.9612 53.6598 89.1378 53.7478 89.3115C53.7881 89.3925 53.9503 89.8173 54.0196 89.8162C54.0637 89.8146 54.0985 89.7856 54.134 89.7629C54.2226 89.7061 54.3678 89.6463 54.346 89.7971C54.336 89.8803 54.1875 89.9688 54.1266 90.0195C54.0772 90.0595 53.7114 90.3007 53.6591 90.2842C53.6428 90.2796 53.6349 90.2647 53.6242 90.2532C53.4229 89.9652 53.3306 89.574 53.1766 89.2557C52.9975 88.8801 52.7941 88.5134 52.582 88.1539C52.5748 88.1452 52.5703 88.1331 52.5631 88.1244C52.5239 88.0528 52.5035 87.9508 52.5129 87.8613Z" fill="#001F47" fill-opacity="0.5"/>
<path d="M52.5127 87.8604C52.5152 87.8254 52.5223 87.8025 52.5328 87.7824C52.3223 88.0291 52.2067 88.3068 52.0439 88.5863C51.8888 88.8491 51.7368 89.1117 51.5818 89.3746C51.4508 89.597 51.3223 89.8128 51.1882 90.0356C51.1344 90.1234 51.0249 90.2804 50.9875 90.5812C50.9634 90.7986 51.4422 89.9895 51.5253 89.8511C51.666 89.6309 51.8098 89.4102 51.9404 89.1847C52.0662 88.9723 52.1753 88.7522 52.2972 88.5339C52.4087 88.3357 52.5171 88.1978 52.5612 88.1078C52.5223 88.0394 52.5057 87.9432 52.5127 87.8604Z" fill="#001F47" fill-opacity="0.5"/>
<path d="M53.48 88.7872C53.5037 88.832 53.5275 88.8768 53.5481 88.922C53.7101 88.6647 53.8724 88.4105 54.0489 88.1706C54.06 88.1568 54.0681 88.1433 54.0692 88.1242C54.0676 88.0802 53.9979 88.0781 53.9631 88.1071C53.8664 88.1774 53.7585 88.2016 53.6666 88.2872C53.5691 88.3797 53.4961 88.4949 53.4263 88.6097C53.4211 88.6198 53.4158 88.6298 53.4074 88.6402C53.4319 88.6913 53.4559 88.7392 53.48 88.7872Z" fill="#001F47" fill-opacity="0.5"/>
<path d="M53.182 89.255C53.162 89.2161 53.1452 89.1768 53.1249 89.1348C53.1089 89.1618 53.0931 89.1919 53.0771 89.2188C53.0369 89.2863 53.0002 89.3565 52.96 89.424C52.9199 89.4914 52.8797 89.5589 52.8395 89.6263C52.8263 89.6499 52.8099 89.6737 52.7966 89.6972C52.7833 89.7208 52.7725 89.7377 52.7536 89.7681C52.7456 89.7816 52.7348 89.7986 52.7271 89.8152C52.696 89.8785 52.6617 89.9422 52.6274 90.0058C52.5932 90.0695 52.5558 90.1335 52.5184 90.1975C52.4807 90.2584 52.443 90.3192 52.4019 90.3773C52.3938 90.3908 52.3855 90.4012 52.3743 90.415C52.3967 90.4473 52.413 90.4519 52.4373 90.443C52.462 90.4372 52.4818 90.4161 52.4989 90.3985C52.7824 90.0967 53.0176 89.7557 53.2452 89.403C53.2273 89.3544 53.2061 89.303 53.182 89.255Z" fill="#001F47" fill-opacity="0.5"/>
<path d="M51.2555 88.6251C51.3185 88.6531 51.371 88.7011 51.4204 88.7495C51.5095 88.8442 51.5902 88.9493 51.6646 89.055C51.7635 88.8866 51.8623 88.7181 51.9609 88.5465C51.8991 88.471 51.8377 88.3987 51.7644 88.3338C51.6321 88.2185 51.5578 88.1728 51.4053 88.2238C51.2956 88.2608 50.7646 88.4343 50.8603 88.6199C50.9022 88.7165 51.1662 88.5872 51.2555 88.6251Z" fill="#00A0B0"/>
<path d="M52.5194 90.0181C52.5568 89.9541 52.5942 89.8901 52.6284 89.8265C52.6445 89.7995 52.6571 89.7697 52.6732 89.7427C52.6205 89.5747 52.4918 89.4053 52.4093 89.253C52.3181 89.0796 52.2214 88.9131 52.1097 88.7545C52.1056 88.7455 52.0986 88.7399 52.0945 88.7309C52.0442 88.8215 51.9942 88.9153 51.9436 89.0028C51.8957 89.0868 51.8444 89.1681 51.7931 89.2494C52.0008 89.5683 52.1846 89.8992 52.3746 90.2294L52.3781 90.2322C52.3861 90.2187 52.3945 90.2083 52.4056 90.1945C52.444 90.1399 52.4848 90.0787 52.5194 90.0181Z" fill="#00A0B0"/>
<path d="M52.5124 87.6792C52.5182 87.6154 52.5377 87.5912 52.5719 87.556C52.6349 87.4956 52.7055 87.447 52.7833 87.4071C52.7955 87.4026 52.8042 87.3954 52.8136 87.3944C52.8476 87.3876 52.8846 87.4089 52.9035 87.4385C53.1334 87.7865 53.2882 88.2311 53.4798 88.6053C53.5678 88.7791 53.6593 88.9556 53.7473 89.1294C53.7876 89.2104 53.9498 89.6351 54.0192 89.634C54.0632 89.6325 54.098 89.6035 54.1335 89.5808C54.2221 89.5239 54.3673 89.4642 54.3455 89.615C54.3355 89.6982 54.187 89.7866 54.1261 89.8374C54.0767 89.8774 53.7109 90.1186 53.6586 90.102C53.6423 90.0975 53.6344 90.0825 53.6237 90.071C53.4224 89.7831 53.3301 89.3919 53.1761 89.0736C52.997 88.698 52.7936 88.3313 52.5816 87.9718C52.5743 87.9631 52.5699 87.951 52.5626 87.9423C52.5234 87.8707 52.503 87.7686 52.5124 87.6792Z" fill="#00A0B0"/>
<path d="M52.5131 87.6802C52.5157 87.6452 52.5228 87.6223 52.5332 87.6023C52.3227 87.849 52.2071 88.1266 52.0444 88.4061C51.8893 88.669 51.7373 88.9315 51.5823 89.1944C51.4513 89.4168 51.3228 89.6327 51.1887 89.8554C51.1349 89.9433 51.0253 90.1002 50.988 90.4011C50.9639 90.6184 51.4427 89.8093 51.5258 89.671C51.6665 89.4507 51.8103 89.23 51.9409 89.0045C52.0667 88.7921 52.1758 88.572 52.2977 88.3538C52.4092 88.1555 52.5176 88.0176 52.5617 87.9277C52.5228 87.8592 52.5062 87.7631 52.5131 87.6802Z" fill="#004789"/>
<path d="M53.4795 88.6055C53.5032 88.6504 53.527 88.6952 53.5476 88.7404C53.7096 88.483 53.8719 88.2289 54.0484 87.9889C54.0595 87.9751 54.0676 87.9616 54.0687 87.9426C54.0671 87.8985 53.9975 87.8965 53.9627 87.9255C53.866 87.9958 53.758 88.02 53.6661 88.1056C53.5686 88.1981 53.4957 88.3133 53.4258 88.4281C53.4206 88.4381 53.4153 88.4482 53.407 88.4585C53.4314 88.5096 53.4554 88.5576 53.4795 88.6055Z" fill="#004789"/>
<path d="M53.1815 89.0734C53.1615 89.0344 53.1447 88.9952 53.1244 88.9531C53.1084 88.9801 53.0926 89.0102 53.0766 89.0372C53.0364 89.1047 52.9997 89.1749 52.9595 89.2423C52.9194 89.3098 52.8792 89.3772 52.8391 89.4447C52.8258 89.4682 52.8094 89.4921 52.7961 89.5156C52.7828 89.5391 52.772 89.5561 52.7531 89.5865C52.7451 89.6 52.7343 89.6169 52.7266 89.6336C52.6955 89.6969 52.6612 89.7605 52.627 89.8242C52.5927 89.8879 52.5553 89.9519 52.518 90.0158C52.4803 90.0767 52.4425 90.1376 52.4014 90.1957C52.3933 90.2092 52.385 90.2195 52.3738 90.2334C52.3962 90.2657 52.4125 90.2703 52.4368 90.2614C52.4615 90.2556 52.4813 90.2345 52.4984 90.2169C52.7819 89.915 53.0171 89.5741 53.2447 89.2214C53.2268 89.1727 53.2056 89.1213 53.1815 89.0734Z" fill="#004789"/>
<path opacity="0.2" d="M20.063 102.387C20.063 85.5364 30.5847 80.9492 35.9417 80.8556C35.7813 81.8854 37.2698 85.4053 43.7368 90.4979C50.7619 96.4893 50.7619 97.6126 52.7828 97.6126C54.8038 97.6126 62.8875 89.6554 65.5821 86.1917C67.7377 83.4207 68.2767 81.1053 68.2767 80.2939C76.2962 81.823 92.3354 88.3822 92.3354 102.387V118.676H20.063V102.387Z" fill="#25557C"/>
<path d="M15.9795 104.257C15.9795 85.9802 28.9776 81.0047 34.6601 80.9032C34.4899 82.0201 36.0688 85.838 42.9285 91.3618C50.3803 97.8603 50.3803 99.0788 52.524 99.0788C54.6677 99.0788 63.2424 90.4479 66.1006 86.6909C68.3872 83.6854 68.9588 81.174 68.9588 80.2939C77.4655 81.9524 94.4787 87.6454 94.4787 102.836V118.676H17.0003L15.9795 104.257Z" fill="#000813"/>
<path d="M47.2153 61.2046C47.4535 62.2594 48.8894 64.3691 52.7276 64.3691C56.5658 64.3691 58.0017 62.2594 58.2399 61.2046" stroke="#633724" stroke-width="1.897" stroke-linecap="round"/>
<path d="M52.9322 64.2665C49.094 64.2665 47.6581 62.1569 47.4199 61.1021H58.4445C58.2063 62.1569 56.7704 64.2665 52.9322 64.2665Z" fill="#633724" stroke="#633724" stroke-width="1.897" stroke-linecap="round" stroke-linejoin="round"/>
<path d="M52.5431 54.9472C54.4261 54.9472 55.9865 53.6718 56.2658 52.0059C56.315 51.7126 56.0692 51.4697 55.7718 51.4697H52.5431H49.3144C49.017 51.4697 48.7712 51.7126 48.8204 52.0059C49.0997 53.6718 50.66 54.9472 52.5431 54.9472Z" fill="#C19772"/>
<circle opacity="0.08" cx="66.7127" cy="57.7352" r="4.59358" fill="#FE5070"/>
<circle opacity="0.08" cx="38.3353" cy="57.7352" r="4.59358" fill="#FE5070"/>
<path fill-rule="evenodd" clip-rule="evenodd" d="M34.4566 43.953C34.4566 44.3524 34.9756 44.3921 35.2669 44.1188C35.6831 43.7284 36.2408 43.3998 36.8955 43.1601C36.712 43.521 36.6085 43.9294 36.6085 44.3619C36.6085 45.8277 37.7967 47.016 39.2625 47.016C40.7283 47.016 41.9166 45.8277 41.9166 44.3619C41.9166 43.8667 41.781 43.4031 41.5448 43.0064C42.4065 43.2488 43.1362 43.6368 43.6502 44.1188C43.9415 44.3921 44.4604 44.3524 44.4604 43.953C44.4604 42.2617 42.221 40.8906 39.4585 40.8906C36.6961 40.8906 34.4566 42.2617 34.4566 43.953Z" fill="#633724"/>
<path d="M32.7896 36.5901C32.5567 37.0593 32.7482 37.6285 33.2174 37.8614C33.6867 38.0943 34.2558 37.9027 34.4887 37.4335L32.7896 36.5901ZM45.2201 34.9197C45.7239 35.0635 46.2488 34.7716 46.3925 34.2679C46.5362 33.7642 46.2444 33.2393 45.7407 33.0956L45.2201 34.9197ZM34.4887 37.4335C35.1855 36.0298 38.3509 32.9597 45.2201 34.9197L45.7407 33.0956C38.1044 30.9166 33.943 34.2665 32.7896 36.5901L34.4887 37.4335Z" fill="#633724"/>
<path fill-rule="evenodd" clip-rule="evenodd" d="M60.6847 43.953C60.6847 44.3524 61.2036 44.3921 61.495 44.1188C61.9111 43.7285 62.4687 43.3999 63.1232 43.1603C62.9397 43.5211 62.8362 43.9294 62.8362 44.3619C62.8362 45.8277 64.0245 47.016 65.4903 47.016C66.9561 47.016 68.1444 45.8277 68.1444 44.3619C68.1444 43.8666 68.0087 43.4031 67.7725 43.0063C68.6343 43.2487 69.3642 43.6367 69.8782 44.1188C70.1695 44.3921 70.6885 44.3524 70.6885 43.953C70.6885 42.2617 68.449 40.8906 65.6866 40.8906C62.9241 40.8906 60.6847 42.2617 60.6847 43.953Z" fill="#633724"/>
<path d="M59.4507 33.0756C59.0143 33.3655 58.8956 33.9542 59.1855 34.3905C59.4754 34.8269 60.0641 34.9455 60.5005 34.6557L59.4507 33.0756ZM71.051 37.8444C71.4154 38.2207 72.0159 38.2304 72.3922 37.866C72.7686 37.5017 72.7783 36.9012 72.4139 36.5248L71.051 37.8444ZM60.5005 34.6557C61.8058 33.7884 66.0821 32.7123 71.051 37.8444L72.4139 36.5248C66.8901 30.8197 61.6113 31.64 59.4507 33.0756L60.5005 34.6557Z" fill="#633724"/>
<path opacity="0.1" d="M57.1175 44.3611C57.1175 39.9637 55.8958 38.2363 52.626 38.2363C49.3561 38.2363 48.3386 39.9637 48.3386 44.3611M25.0645 40.0738H29.7601M75.798 40.0738H79.7791" stroke="#000813" stroke-width="1.897" stroke-linecap="round" stroke-linejoin="round"/>
<path d="M57.1175 43.5447C57.1175 39.1473 55.8958 37.4199 52.626 37.4199C49.3561 37.4199 48.3386 39.1473 48.3386 43.5447M25.0645 39.2574H29.7601M75.3897 39.2574H79.7791" stroke="#000813" stroke-width="1.897" stroke-linecap="round" stroke-linejoin="round"/>
<circle opacity="0.2" cx="38.7442" cy="44.3619" r="9.66778" stroke="#000813" stroke-width="1.897"/>
<circle opacity="0.2" cx="66.713" cy="44.3619" r="9.66778" stroke="#000813" stroke-width="1.897"/>
<circle cx="38.7442" cy="43.545" r="9.66778" stroke="#000813" stroke-width="1.897"/>
<circle cx="66.713" cy="43.545" r="9.66778" stroke="#000813" stroke-width="1.897"/>
<path d="M51.2299 24.3885C43.4797 30.1026 32.8712 31.7453 28.2291 32.076L27.7188 28.5388H28.2291C40.7849 30.07 51.9116 20.0662 54.1574 20.1683C56.4031 20.2703 59.3634 23.2306 60.078 24.3885C60.7926 25.5464 66.6111 26.7014 72.0213 27.518C77.4315 28.3346 77.8399 29.9679 77.3295 30.4783C76.9211 30.8866 74.8561 31.1481 73.8746 31.2279C68.2233 32.2199 67.7878 29.2983 61.531 29.0999C55.2743 28.9015 55.6702 20.4204 51.2299 24.3885Z" fill="#C19772"/>
<path d="M48.7345 1.15703C52.0666 0.998308 53.8253 2.01679 54.2881 2.54588C67.577 -3.2079 69.5481 5.87417 76.1057 8.49806C84.0394 11.6726 84.0394 29.1323 86.0228 32.5052C88.0063 35.2829 91.9731 42.4255 89.3947 49.7666C94.7499 51.1554 98.8686 55.3219 98.8686 62.0678C98.8686 66.4327 97.13 71.9881 94.1549 71.9881C93.5598 97.7809 85.0311 85.2813 84.0394 93.2175C85.4278 109.487 92.5681 105.717 91.9731 110.479C90.188 114.844 77.6925 115.439 68.767 110.479C53.1369 98.7729 68.767 82.5388 71.1029 76.9482C72.332 74.0064 70.9091 70.877 73.1306 66.4327C76.6214 61.3535 78.3565 43.8506 77.4318 36.9092C77.0691 34.1863 78.1998 29.2762 73.757 30.0698C68.2034 31.0619 67.7753 28.1403 61.6267 27.9419C55.4781 27.7435 55.8671 19.2624 51.5036 23.2305C43.8872 28.9446 33.4621 30.5873 28.9002 30.918C27.7763 37.6638 26.049 49.4208 31.7949 62.5543C35.6539 71.3748 35.0488 75.9562 35.0488 79.5275C35.0488 84.6861 26.7185 86.6701 25.5284 91.6303C27.3135 101.154 34.2555 96.1936 35.0488 98.7729C29.8919 102.146 25.5284 98.7729 23.7433 97.1857C24.3383 102.543 27.1151 100.955 25.5284 102.146C22.0376 101.828 21.4293 98.7068 21.5616 97.1857C20.7682 97.3179 19.1814 98.4951 19.1814 102.146C19.1814 106.709 21.5616 108.693 19.1814 110.479C16.8013 111.471 16.2063 108.892 10.8511 100.955C5.49579 93.0191 11.8428 82.1068 13.2312 76.9482C-1.24782 60.6789 9.26433 54.7267 16.2063 48.3777C13.0328 38.0606 19.5781 28.9339 21.5616 25.9578C23.545 22.9817 23.7433 22.1881 28.9002 12.863C32.8671 3.53791 44.5693 1.35544 48.7345 1.15703Z" fill="#633724"/>
<path d="M48.2367 18.0245C46.4673 20.5425 41.7853 25.3742 37.2121 24.5576M48.2367 10.0623C47.284 12.3081 44.1535 17.0445 39.2537 18.0245M60.4863 18.0245C60.4863 19.7258 61.5071 23.0468 65.5902 22.7202M68.6526 18.0245C69.8095 20.4064 73.1441 24.6801 77.2273 22.7202M64.3653 10.0623C67.5638 10.1304 74.1649 11.2873 74.9816 15.3704M87.027 52.7316C84.509 53.0038 79.5547 55.1815 79.8814 61.7146M90.4977 58.8564C92.3351 59.3327 95.6425 61.2655 94.1725 65.1853M89.2727 65.1853C86.4825 64.9812 80.698 66.4103 79.8814 73.76M88.0478 75.3933C87.2992 78.6598 84.0871 84.7438 77.2273 82.9472M73.5525 90.5011C72.3955 92.1343 73.3075 95.6867 77.2273 99.2799C82.1271 103.771 80.698 101.73 83.1479 108.059M71.1025 102.955C72.7358 103.227 76.2474 104.629 77.2273 108.059M17.4086 54.9773C13.9379 56.5426 8.34397 61.8779 13.7338 70.6976M23.7376 29.6616C21.3557 31.8393 17.2045 38.3588 19.6544 47.0151M22.7168 51.5066C23.6015 55.1135 23.7784 62.8987 17.4086 65.1853M28.0249 61.7146C27.6166 63.8243 25.4933 68.411 20.2669 69.881M15.9795 82.9472C14.2782 85.3971 11.1613 91.5627 12.3046 96.6258M17.4086 73.76C17.2045 74.5766 17.7761 76.7407 21.696 78.864C25.6158 80.9872 26.7319 83.6958 26.7999 84.7846M29.8623 69.881C30.8831 71.5143 32.3123 75.5974 29.8623 78.864M20.2669 87.2345C18.5655 88.1192 15.6121 90.8277 17.4086 94.5843M14.9587 99.2799C14.8226 101.662 15.1221 105.527 17.4086 106.834M82.1271 34.3573C83.5562 37.0113 85.7612 43.5853 83.1479 48.6484M41.2953 9.0415C37.6884 9.72203 30.5973 13.4105 31.0873 22.7202" stroke="#4E281E" stroke-width="0.758799" stroke-linecap="round"/>
</svg>
