<svg width="348" height="119" viewBox="0 0 348 119" fill="none" xmlns="http://www.w3.org/2000/svg">
<path d="M16.3076 62.1603C15.423 61.6613 15.0828 61.1624 14.1756 59.8242L11.2724 55.5148C11.1817 55.3787 11.159 55.3107 11.159 55.2426C11.159 55.1519 11.2044 55.0612 11.2724 54.9478C12.2704 53.3601 13.4271 51.6591 14.0622 50.8199C14.8106 49.8219 15.4003 49.2095 15.9674 48.7559C16.3983 48.4157 16.7839 48.2116 16.7839 47.8033C16.7839 47.4631 16.5117 47.259 15.99 47.259H11.9528C11.4765 47.259 11.159 47.4404 11.159 47.8033C11.159 48.461 12.225 48.3023 12.225 49.3002C12.225 49.7312 12.0662 50.0487 11.9075 50.3662C11.5219 51.1374 10.7961 52.3168 10.093 53.3601C10.0476 53.4282 10.0023 53.4735 9.95692 53.4735C9.91156 53.4735 9.8662 53.4282 9.82083 53.3601L8.05172 50.7518C7.55274 50.026 7.14449 49.4136 7.14449 48.96C7.14449 48.3476 7.93832 48.325 7.93832 47.7806C7.93832 47.4631 7.68883 47.259 7.16717 47.259H1.49694C0.975279 47.259 0.74847 47.5084 0.74847 47.7806C0.74847 48.2342 1.13405 48.325 1.56498 48.5518C2.44954 49.0054 2.76707 49.5044 3.67431 50.8652L6.25993 54.6983C6.35065 54.8344 6.37334 54.9251 6.37334 54.9931C6.37334 55.1066 6.32797 55.1973 6.25993 55.3107C5.17125 57.0117 3.85575 58.985 3.15265 59.8922C2.40418 60.8902 1.81447 61.5026 1.24745 61.9562C0.839194 62.2964 0.430937 62.5005 0.430937 62.9088C0.430937 63.249 0.725789 63.4531 1.24745 63.4531H5.28465C5.76095 63.4531 6.07848 63.2717 6.07848 62.9088C6.07848 62.2737 5.01248 62.3871 5.01248 61.4118C5.01248 60.9809 5.26197 60.4819 5.4661 60.0737C5.91972 59.1891 6.69087 57.9643 7.43934 56.8983C7.4847 56.8303 7.53006 56.7849 7.5981 56.7849C7.64347 56.7849 7.68883 56.8076 7.73419 56.8757L9.88888 60.0964C10.3652 60.7995 10.7054 61.2984 10.7054 61.7747C10.7054 62.3644 9.93424 62.4098 9.93424 62.9315C9.93424 63.2263 10.1837 63.4531 10.6827 63.4531H16.3529C16.8746 63.4531 17.1241 63.2036 17.1241 62.9315C17.1241 62.4778 16.7158 62.3871 16.3076 62.1603ZM23.8022 48.393C23.8022 47.7126 22.3279 46.2383 21.6475 46.2383C20.9444 46.2383 19.4701 47.7126 19.4701 48.393C19.4701 49.0734 20.9444 50.5704 21.6475 50.5704C22.3279 50.5704 23.8022 49.0961 23.8022 48.393ZM24.3919 62.2057C23.961 61.9562 23.6888 61.616 23.5527 61.2304C23.4393 60.9129 23.3259 60.4139 23.3259 58.8489C23.3259 58.1004 23.3259 52.1354 23.3259 52.1354C23.3259 51.523 23.031 51.3642 22.7362 51.3642C22.5094 51.3642 22.2826 51.4549 22.1465 51.5003C21.33 51.7951 20.0372 52.158 18.9938 52.4075C18.4722 52.5436 18.2454 52.7024 18.2454 53.0199C18.2454 53.4282 18.699 53.5416 18.9485 53.655C19.4021 53.8364 19.6516 54.0405 19.7877 54.4034C19.9238 54.7663 19.9464 55.2426 19.9464 55.9004V58.8489C19.9464 60.4366 19.833 60.9129 19.7196 61.2304C19.5835 61.616 19.3114 61.9562 18.8804 62.2057C18.5629 62.3871 18.3134 62.5232 18.3134 62.8634C18.3134 63.249 18.699 63.4531 19.198 63.4531H24.0744C24.5733 63.4531 24.9589 63.249 24.9589 62.8634C24.9589 62.5005 24.6868 62.3871 24.3919 62.2057ZM47.4463 62.183C46.9927 61.9108 46.7432 61.616 46.6071 61.2304C46.4937 60.9129 46.3803 60.4139 46.3803 58.8489V55.9911C46.3803 54.789 46.1989 53.7911 45.6999 52.9972C44.9968 51.8859 43.7267 51.3642 42.5473 51.3642C41.141 51.3642 39.7802 51.9766 38.9183 53.224C38.8276 53.3601 38.7822 53.3601 38.7369 53.3601C38.6915 53.3601 38.6461 53.3374 38.5781 53.224C37.9204 52.0219 36.6502 51.3642 35.2894 51.3642C33.8831 51.3642 32.5223 51.9539 31.5924 53.3148C31.547 53.3828 31.5017 53.3828 31.479 53.3828C31.4336 53.3828 31.3883 53.3374 31.3883 53.2694V52.1354C31.3883 51.5003 31.0934 51.3642 30.7759 51.3642C30.5491 51.3642 30.3449 51.4322 30.1635 51.5003C29.347 51.7951 28.0995 52.158 27.0789 52.4075C26.5572 52.5436 26.3077 52.7251 26.3077 53.0199C26.3077 53.4508 26.784 53.5642 27.0108 53.655C27.4645 53.8364 27.7139 54.0405 27.85 54.4034C27.9861 54.7663 28.0088 55.2426 28.0088 55.9004V58.8489C28.0088 60.4139 27.8954 60.9129 27.782 61.2304C27.6459 61.616 27.3964 61.9562 26.9428 62.2057C26.6479 62.3644 26.3984 62.5232 26.3984 62.8634C26.3984 63.249 26.7613 63.4531 27.2603 63.4531H32.1367C32.6357 63.4531 33.0213 63.249 33.0213 62.8634C33.0213 62.5232 32.7718 62.3871 32.4543 62.2057C32.0233 61.9562 31.7511 61.616 31.6151 61.2304C31.5243 60.9129 31.3883 60.4139 31.3883 58.8489C31.3883 56.4447 31.5697 55.1973 32.3408 54.4488C32.7264 54.0632 33.2027 53.9045 33.6563 53.9045C35.0852 53.9045 35.4935 55.0839 35.4935 56.286V58.8489C35.4935 60.55 35.4481 61.117 35.3801 61.3892C35.312 61.7067 35.1533 61.9562 34.8811 62.1603C34.6089 62.3418 34.2914 62.5005 34.2914 62.8634C34.2914 63.249 34.677 63.4531 35.1533 63.4531H39.2358C39.7348 63.4531 40.0977 63.249 40.1204 62.8634C40.1204 62.5005 39.7575 62.3418 39.5307 62.1603C39.2358 61.9562 39.0771 61.7067 39.009 61.3892C38.941 61.117 38.8956 60.5273 38.8956 58.8489C38.8956 56.5354 38.9183 55.2653 39.6895 54.5168C40.1431 54.0632 40.6874 53.9045 41.1637 53.9045C42.5246 53.9045 43.0009 54.9478 43.0009 56.0138V58.8489C43.0009 60.4139 42.8875 60.9129 42.7741 61.2304C42.638 61.616 42.3658 61.9108 41.9349 62.183C41.64 62.3644 41.3679 62.5232 41.3679 62.8634C41.3679 63.249 41.7534 63.4531 42.2524 63.4531H47.1288C47.6278 63.4531 47.9907 63.249 48.0134 62.8634C48.0134 62.5232 47.7412 62.3644 47.4463 62.183ZM52.6144 55.4241C52.8639 53.9952 53.7711 53.0653 55.0412 53.0653C56.198 53.0653 56.8784 53.9952 56.8784 54.8344C56.8784 55.6963 56.266 55.8323 55.4495 55.8323C55.4495 55.8323 52.8639 55.8323 52.8185 55.8323C52.6598 55.8323 52.5917 55.7416 52.5917 55.6282C52.5917 55.5828 52.5917 55.5602 52.6144 55.4241ZM59.5094 60.4592C58.965 60.4592 58.33 61.3892 56.5382 61.3892C55.1773 61.3892 53.9979 60.8902 53.2268 59.6881C52.7505 58.9396 52.6598 58.2138 52.6371 57.987C52.6144 57.8056 52.6144 57.7602 52.6144 57.7149C52.6144 57.5561 52.7278 57.5107 52.8639 57.5107H58.3073C59.6455 57.5107 60.2352 57.3066 60.2352 55.9911C60.2352 53.156 57.7176 51.3642 55.1547 51.3642C51.6164 51.3642 49.0988 54.4488 49.0988 57.8509C49.0988 61.4118 51.5937 63.7026 54.9052 63.7026C56.266 63.7026 57.6269 63.2944 58.6475 62.6139C59.3279 62.1603 60.0084 61.4345 60.0084 60.9355C60.0084 60.6634 59.7589 60.4592 59.5094 60.4592ZM75.3389 62.183C74.908 61.9335 74.6131 61.5933 74.4997 61.2304C74.409 60.9129 74.2729 60.4139 74.2729 58.8262V56.0365C74.2729 54.8117 74.1141 53.7911 73.5925 53.0199C72.8667 51.8859 71.6192 51.3642 70.4171 51.3642C69.0109 51.3642 67.6727 51.9539 66.7428 53.2694C66.6975 53.3374 66.6521 53.3828 66.6067 53.3828C66.5614 53.3828 66.516 53.3374 66.516 53.224V52.1354C66.516 51.523 66.2212 51.3642 65.9263 51.3642C65.6995 51.3642 65.5181 51.4096 65.2686 51.5003C64.4067 51.8178 63.2953 52.158 62.252 52.4075C61.7303 52.5209 61.4809 52.7251 61.4809 53.0426C61.4809 53.4282 61.9572 53.5642 62.2066 53.6777C62.6376 53.8591 62.8644 54.0632 63.0005 54.4261C63.1366 54.789 63.1592 55.2653 63.1592 55.9231V58.8262C63.1592 60.4139 63.0458 60.9129 62.9324 61.2304C62.819 61.5933 62.5469 61.9335 62.0932 62.183C61.7984 62.3644 61.5489 62.5232 61.5489 62.8634C61.5489 63.249 61.9118 63.4531 62.4108 63.4531H67.2645C67.7635 63.4531 68.149 63.249 68.149 62.8634C68.149 62.5232 67.8769 62.3644 67.582 62.183C67.1284 61.9335 66.8562 61.5933 66.7428 61.2304C66.6294 60.9129 66.516 60.4139 66.516 58.8262C66.516 56.5128 66.7655 55.288 67.5367 54.5395C67.9903 54.0859 68.5573 53.9271 69.0336 53.9271C70.3037 53.9271 70.8708 54.8344 70.8708 56.0365V58.8262C70.8708 60.4139 70.7573 60.9129 70.6439 61.2304C70.5079 61.5933 70.2584 61.9108 69.8048 62.183C69.5099 62.3644 69.2377 62.5232 69.2377 62.8634C69.2377 63.249 69.6233 63.4531 70.1223 63.4531H75.0214C75.5203 63.4531 75.9059 63.249 75.9059 62.8634C75.9059 62.5232 75.6564 62.3644 75.3389 62.183ZM83.7211 57.8056C83.7211 59.1664 83.7211 59.8469 83.4262 60.4592C83.0633 61.185 82.3602 61.5933 81.6798 61.5933C80.8406 61.5933 80.2736 61.0489 80.2736 60.2551C80.2736 59.7788 80.5004 59.2345 81.1581 58.7582C81.952 58.1458 82.9272 57.8736 83.5169 57.5107C83.585 57.4654 83.6077 57.4427 83.653 57.4427C83.6984 57.4427 83.7211 57.488 83.7211 57.5788V57.8056ZM88.2799 61.6613C87.2593 61.616 87.2593 60.9809 87.2593 59.552C87.2593 58.0777 87.3727 56.7169 87.3727 55.1973C87.3727 52.4302 84.651 51.3642 82.3149 51.3642C81.1581 51.3642 78.7313 51.591 77.9828 52.5436C77.6653 52.9292 77.5519 53.6323 77.5519 54.2447C77.5519 55.3107 77.8014 55.6736 78.5498 55.6736C79.5251 55.6736 79.6158 54.3808 80.8633 53.5416C81.2489 53.2694 81.7252 53.1106 82.2468 53.1106C83.1767 53.1106 83.7211 53.655 83.7211 54.4488C83.7211 55.4694 82.7458 56.0365 82.02 56.3767C80.954 56.853 79.389 57.2612 78.2777 57.919C77.1663 58.5767 76.6446 59.6427 76.6446 60.6861C76.6446 62.7273 78.4364 63.7026 80.2282 63.7026C81.5891 63.7026 83.018 63.1583 83.9252 61.9789C83.9932 61.8881 84.0159 61.8655 84.0386 61.8655C84.084 61.8655 84.084 61.9108 84.1067 62.0015C84.4015 63.2036 85.3768 63.7026 86.3521 63.7026C87.0325 63.7026 87.8036 63.4758 88.3026 63.0675C88.5975 62.8181 88.847 62.5005 88.847 62.1603C88.847 61.8201 88.6202 61.684 88.2799 61.6613ZM110.377 47.259H106.589C106.135 47.259 105.727 47.4177 105.727 47.8487C105.727 48.5518 106.907 48.3703 106.907 49.6631C106.907 50.0941 106.793 50.7518 106.385 51.7725C105.773 53.3374 103.709 58.2138 103.414 58.8943C103.368 59.0077 103.323 59.0757 103.255 59.0757C103.187 59.0757 103.142 58.9623 103.119 58.8943L99.6941 49.8673C99.6034 49.6178 99.558 49.4136 99.558 49.2322C99.558 48.325 100.669 48.5064 100.669 47.826C100.669 47.4631 100.352 47.259 99.8756 47.259H94.7497C94.1146 47.259 93.9105 47.5538 93.9105 47.8713C93.9105 48.1208 94.0919 48.2796 94.3187 48.393C94.5455 48.5064 94.8404 48.6652 95.0672 48.8693C95.3621 49.1415 95.5208 49.4817 95.9291 50.5023L100.851 63.2944C100.942 63.5438 101.146 63.6346 101.395 63.6346H102.892C103.119 63.6346 103.278 63.5212 103.391 63.2717L108.404 51.9993C108.857 50.9786 109.22 50.2755 109.606 49.7085C110.173 48.8239 110.581 48.6198 110.898 48.3703C111.103 48.2116 111.239 48.0755 111.239 47.826C111.239 47.395 110.83 47.259 110.377 47.259ZM116.719 48.393C116.719 47.7126 115.244 46.2383 114.564 46.2383C113.861 46.2383 112.387 47.7126 112.387 48.393C112.387 49.0734 113.861 50.5704 114.564 50.5704C115.244 50.5704 116.719 49.0961 116.719 48.393ZM117.308 62.2057C116.877 61.9562 116.605 61.616 116.469 61.2304C116.356 60.9129 116.242 60.4139 116.242 58.8489C116.242 58.1004 116.242 52.1354 116.242 52.1354C116.242 51.523 115.947 51.3642 115.653 51.3642C115.426 51.3642 115.199 51.4549 115.063 51.5003C114.246 51.7951 112.954 52.158 111.91 52.4075C111.389 52.5436 111.162 52.7024 111.162 53.0199C111.162 53.4282 111.615 53.5416 111.865 53.655C112.319 53.8364 112.568 54.0405 112.704 54.4034C112.84 54.7663 112.863 55.2426 112.863 55.9004V58.8489C112.863 60.4366 112.749 60.9129 112.636 61.2304C112.5 61.616 112.228 61.9562 111.797 62.2057C111.479 62.3871 111.23 62.5232 111.23 62.8634C111.23 63.249 111.615 63.4531 112.114 63.4531H116.991C117.49 63.4531 117.875 63.249 117.875 62.8634C117.875 62.5005 117.603 62.3871 117.308 62.2057ZM125.19 62.2057C124.759 61.9562 124.487 61.616 124.351 61.2304C124.237 60.9129 124.124 60.4139 124.124 58.8489C124.124 58.1004 124.124 47.2816 124.124 47.2816C124.124 46.6693 123.829 46.5105 123.534 46.5105C123.307 46.5105 123.08 46.6012 122.944 46.6466C122.128 46.9414 120.835 47.3043 119.792 47.5538C119.27 47.6899 119.043 47.8487 119.043 48.1662C119.043 48.5744 119.497 48.6879 119.746 48.8013C120.2 48.9827 120.449 49.1868 120.586 49.5497C120.722 49.9126 120.744 50.3889 120.744 51.0467V58.8489C120.744 60.4366 120.631 60.9129 120.517 61.2304C120.381 61.616 120.109 61.9562 119.678 62.2057C119.361 62.3871 119.111 62.5232 119.111 62.8634C119.111 63.249 119.497 63.4531 119.996 63.4531H124.872C125.371 63.4531 125.757 63.249 125.757 62.8634C125.757 62.5005 125.485 62.3871 125.19 62.2057ZM133.712 57.8056C133.712 59.1664 133.712 59.8469 133.417 60.4592C133.054 61.185 132.351 61.5933 131.671 61.5933C130.832 61.5933 130.265 61.0489 130.265 60.2551C130.265 59.7788 130.491 59.2345 131.149 58.7582C131.943 58.1458 132.918 57.8736 133.508 57.5107C133.576 57.4654 133.599 57.4427 133.644 57.4427C133.689 57.4427 133.712 57.488 133.712 57.5788V57.8056ZM138.271 61.6613C137.25 61.616 137.25 60.9809 137.25 59.552C137.25 58.0777 137.364 56.7169 137.364 55.1973C137.364 52.4302 134.642 51.3642 132.306 51.3642C131.149 51.3642 128.722 51.591 127.974 52.5436C127.656 52.9292 127.543 53.6323 127.543 54.2447C127.543 55.3107 127.792 55.6736 128.541 55.6736C129.516 55.6736 129.607 54.3808 130.854 53.5416C131.24 53.2694 131.716 53.1106 132.238 53.1106C133.168 53.1106 133.712 53.655 133.712 54.4488C133.712 55.4694 132.737 56.0365 132.011 56.3767C130.945 56.853 129.38 57.2612 128.269 57.919C127.157 58.5767 126.636 59.6427 126.636 60.6861C126.636 62.7273 128.427 63.7026 130.219 63.7026C131.58 63.7026 133.009 63.1583 133.916 61.9789C133.984 61.8881 134.007 61.8655 134.03 61.8655C134.075 61.8655 134.075 61.9108 134.098 62.0015C134.393 63.2036 135.368 63.7026 136.343 63.7026C137.024 63.7026 137.795 63.4758 138.294 63.0675C138.589 62.8181 138.838 62.5005 138.838 62.1603C138.838 61.8201 138.611 61.684 138.271 61.6613ZM157.782 51.3642C157.782 50.9333 157.737 50.1394 157.714 49.527C157.691 48.8693 157.714 48.325 157.669 47.894C157.601 47.259 157.329 47.1002 156.694 47.1002C155.854 47.1002 154.131 47.259 151.749 47.259H145.716C145.194 47.259 144.945 47.5084 144.945 47.7806C144.945 48.2342 145.376 48.3023 145.784 48.5518C146.374 48.892 146.419 49.391 146.419 50.2075V58.8716C146.419 60.3232 146.328 61.1397 146.011 61.616C145.512 62.3644 144.809 62.2057 144.809 62.8634C144.809 63.249 145.172 63.4531 145.671 63.4531H150.933C151.432 63.4531 151.794 63.249 151.794 62.8634C151.794 62.1603 150.978 62.2964 150.547 61.5479C150.275 61.0943 150.184 60.4139 150.184 58.8716V56.9891C150.184 56.7849 150.32 56.6262 150.524 56.6262C151.137 56.6262 152.157 56.6262 152.815 56.6489C153.427 56.6715 154.176 56.7169 154.63 56.7169C155.469 56.7169 155.628 56.3313 155.65 55.6282C155.65 55.4241 155.718 55.22 155.718 55.0158C155.718 54.5849 155.401 54.4715 154.924 54.4715C154.312 54.4715 153.632 54.5849 152.86 54.6303C152.135 54.6756 151.318 54.6756 150.819 54.6756C150.229 54.6756 150.184 54.3581 150.184 53.9498C150.184 53.655 150.184 49.7085 150.184 49.7085C150.184 49.2776 150.275 49.0734 150.796 49.0734H151.046C152.634 49.0734 153.632 49.0734 154.448 49.5044C155.242 49.9126 155.605 50.6611 155.832 51.1828C156.195 52.0219 156.376 52.158 156.83 52.158C157.374 52.158 157.782 51.9766 157.782 51.3642ZM161.146 55.4241C161.396 53.9952 162.303 53.0653 163.573 53.0653C164.73 53.0653 165.41 53.9952 165.41 54.8344C165.41 55.6963 164.798 55.8323 163.981 55.8323C163.981 55.8323 161.396 55.8323 161.35 55.8323C161.191 55.8323 161.123 55.7416 161.123 55.6282C161.123 55.5828 161.123 55.5602 161.146 55.4241ZM168.041 60.4592C167.497 60.4592 166.862 61.3892 165.07 61.3892C163.709 61.3892 162.53 60.8902 161.758 59.6881C161.282 58.9396 161.191 58.2138 161.169 57.987C161.146 57.8056 161.146 57.7602 161.146 57.7149C161.146 57.5561 161.259 57.5107 161.396 57.5107H166.839C168.177 57.5107 168.767 57.3066 168.767 55.9911C168.767 53.156 166.249 51.3642 163.686 51.3642C160.148 51.3642 157.631 54.4488 157.631 57.8509C157.631 61.4118 160.125 63.7026 163.437 63.7026C164.798 63.7026 166.159 63.2944 167.179 62.6139C167.86 62.1603 168.54 61.4345 168.54 60.9355C168.54 60.6634 168.291 60.4592 168.041 60.4592ZM178.178 51.3642C176.726 51.3642 175.547 52.7477 175.002 53.8364C174.957 53.9271 174.934 53.9271 174.912 53.9271C174.889 53.9271 174.866 53.9045 174.866 53.8364V52.1127C174.866 51.5683 174.594 51.3642 174.254 51.3642C174.072 51.3642 173.868 51.4096 173.551 51.5456C172.666 51.9085 171.782 52.1807 170.761 52.4075C170.239 52.5209 170.013 52.7024 170.013 52.9972C170.013 53.4508 170.466 53.5416 170.716 53.6323C171.215 53.8137 171.441 54.0405 171.555 54.4034C171.668 54.7663 171.691 55.2426 171.691 55.8777V58.8489C171.691 60.4366 171.6 60.9129 171.487 61.2304C171.351 61.616 171.079 61.9562 170.648 62.2057C170.33 62.3871 170.081 62.5232 170.081 62.8634C170.081 63.2717 170.466 63.4531 170.965 63.4531H175.842C176.341 63.4531 176.703 63.249 176.703 62.8634C176.703 62.5232 176.454 62.3644 176.159 62.2057C175.705 61.9562 175.433 61.616 175.32 61.2304C175.206 60.9129 175.093 60.4366 175.093 58.8489C175.093 57.3293 175.275 54.3127 177.134 54.3127C177.928 54.3127 178.314 54.9251 179.017 54.9251C179.765 54.9251 180.128 54.2447 180.128 53.5416C180.128 52.3848 179.493 51.3642 178.178 51.3642ZM188.699 51.3642C187.247 51.3642 186.068 52.7477 185.523 53.8364C185.478 53.9271 185.455 53.9271 185.433 53.9271C185.41 53.9271 185.387 53.9045 185.387 53.8364V52.1127C185.387 51.5683 185.115 51.3642 184.775 51.3642C184.593 51.3642 184.389 51.4096 184.072 51.5456C183.187 51.9085 182.303 52.1807 181.282 52.4075C180.76 52.5209 180.533 52.7024 180.533 52.9972C180.533 53.4508 180.987 53.5416 181.237 53.6323C181.736 53.8137 181.962 54.0405 182.076 54.4034C182.189 54.7663 182.212 55.2426 182.212 55.8777V58.8489C182.212 60.4366 182.121 60.9129 182.008 61.2304C181.872 61.616 181.599 61.9562 181.169 62.2057C180.851 62.3871 180.602 62.5232 180.602 62.8634C180.602 63.2717 180.987 63.4531 181.486 63.4531H186.362C186.861 63.4531 187.224 63.249 187.224 62.8634C187.224 62.5232 186.975 62.3644 186.68 62.2057C186.226 61.9562 185.954 61.616 185.841 61.2304C185.727 60.9129 185.614 60.4366 185.614 58.8489C185.614 57.3293 185.795 54.3127 187.655 54.3127C188.449 54.3127 188.835 54.9251 189.538 54.9251C190.286 54.9251 190.649 54.2447 190.649 53.5416C190.649 52.3848 190.014 51.3642 188.699 51.3642ZM197.502 57.8056C197.502 59.1664 197.502 59.8469 197.207 60.4592C196.844 61.185 196.141 61.5933 195.461 61.5933C194.622 61.5933 194.055 61.0489 194.055 60.2551C194.055 59.7788 194.281 59.2345 194.939 58.7582C195.733 58.1458 196.708 57.8736 197.298 57.5107C197.366 57.4654 197.389 57.4427 197.434 57.4427C197.479 57.4427 197.502 57.488 197.502 57.5788V57.8056ZM202.061 61.6613C201.04 61.616 201.04 60.9809 201.04 59.552C201.04 58.0777 201.154 56.7169 201.154 55.1973C201.154 52.4302 198.432 51.3642 196.096 51.3642C194.939 51.3642 192.512 51.591 191.764 52.5436C191.446 52.9292 191.333 53.6323 191.333 54.2447C191.333 55.3107 191.582 55.6736 192.331 55.6736C193.306 55.6736 193.397 54.3808 194.644 53.5416C195.03 53.2694 195.506 53.1106 196.028 53.1106C196.958 53.1106 197.502 53.655 197.502 54.4488C197.502 55.4694 196.527 56.0365 195.801 56.3767C194.735 56.853 193.17 57.2612 192.059 57.919C190.947 58.5767 190.426 59.6427 190.426 60.6861C190.426 62.7273 192.218 63.7026 194.009 63.7026C195.37 63.7026 196.799 63.1583 197.706 61.9789C197.774 61.8881 197.797 61.8655 197.82 61.8655C197.865 61.8655 197.865 61.9108 197.888 62.0015C198.183 63.2036 199.158 63.7026 200.133 63.7026C200.814 63.7026 201.585 63.4758 202.084 63.0675C202.379 62.8181 202.628 62.5005 202.628 62.1603C202.628 61.8201 202.401 61.684 202.061 61.6613ZM209.756 62.2057C209.325 61.9562 209.053 61.616 208.917 61.2304C208.803 60.9129 208.69 60.4139 208.69 58.8489C208.69 58.1004 208.69 47.2816 208.69 47.2816C208.69 46.6693 208.395 46.5105 208.1 46.5105C207.873 46.5105 207.647 46.6012 207.51 46.6466C206.694 46.9414 205.401 47.3043 204.358 47.5538C203.836 47.6899 203.609 47.8487 203.609 48.1662C203.609 48.5744 204.063 48.6879 204.312 48.8013C204.766 48.9827 205.016 49.1868 205.152 49.5497C205.288 49.9126 205.31 50.3889 205.31 51.0467V58.8489C205.31 60.4366 205.197 60.9129 205.084 61.2304C204.948 61.616 204.675 61.9562 204.244 62.2057C203.927 62.3871 203.677 62.5232 203.677 62.8634C203.677 63.249 204.063 63.4531 204.562 63.4531H209.438C209.937 63.4531 210.323 63.249 210.323 62.8634C210.323 62.5005 210.051 62.3871 209.756 62.2057Z" fill="#FBFBFB"/>
<path d="M61.5581 92.6637C60.6735 92.1648 60.3333 91.6658 59.4261 90.3276L56.5229 86.0182C56.4322 85.8821 56.4095 85.8141 56.4095 85.7461C56.4095 85.6553 56.4549 85.5646 56.5229 85.4512C57.5209 83.8635 58.6776 82.1625 59.3127 81.3233C60.0611 80.3253 60.6508 79.7129 61.2178 79.2593C61.6488 78.9191 62.0344 78.715 62.0344 78.3067C62.0344 77.9665 61.7622 77.7624 61.2405 77.7624H57.2033C56.727 77.7624 56.4095 77.9438 56.4095 78.3067C56.4095 78.9645 57.4755 78.8057 57.4755 79.8037C57.4755 80.2346 57.3167 80.5521 57.158 80.8697C56.7724 81.6408 56.0466 82.8202 55.3435 83.8635C55.2981 83.9316 55.2528 83.9769 55.2074 83.9769C55.162 83.9769 55.1167 83.9316 55.0713 83.8635L53.3022 81.2552C52.8032 80.5294 52.395 79.9171 52.395 79.4634C52.395 78.8511 53.1888 78.8284 53.1888 78.284C53.1888 77.9665 52.9393 77.7624 52.4177 77.7624H46.7474C46.2258 77.7624 45.999 78.0119 45.999 78.284C45.999 78.7377 46.3845 78.8284 46.8155 79.0552C47.7 79.5088 48.0176 80.0078 48.9248 81.3686L51.5104 85.2017C51.6011 85.3378 51.6238 85.4285 51.6238 85.4966C51.6238 85.61 51.5785 85.7007 51.5104 85.8141C50.4217 87.5152 49.1062 89.4884 48.4031 90.3956C47.6547 91.3936 47.065 92.006 46.4979 92.4596C46.0897 92.7998 45.6814 93.0039 45.6814 93.4122C45.6814 93.7524 45.9763 93.9565 46.4979 93.9565H50.5351C51.0114 93.9565 51.329 93.7751 51.329 93.4122C51.329 92.7771 50.263 92.8905 50.263 91.9153C50.263 91.4843 50.5125 90.9853 50.7166 90.5771C51.1702 89.6925 51.9414 88.4678 52.6898 87.4018C52.7352 87.3337 52.7806 87.2884 52.8486 87.2884C52.894 87.2884 52.9393 87.311 52.9847 87.3791L55.1394 90.5998C55.6157 91.3029 55.9559 91.8019 55.9559 92.2782C55.9559 92.8679 55.1847 92.9132 55.1847 93.4349C55.1847 93.7297 55.4342 93.9565 55.9332 93.9565H61.6034C62.1251 93.9565 62.3746 93.7071 62.3746 93.4349C62.3746 92.9813 61.9663 92.8905 61.5581 92.6637ZM69.0527 78.8964C69.0527 78.216 67.5784 76.7417 66.898 76.7417C66.1949 76.7417 64.7206 78.216 64.7206 78.8964C64.7206 79.5768 66.1949 81.0738 66.898 81.0738C67.5784 81.0738 69.0527 79.5995 69.0527 78.8964ZM69.6424 92.7091C69.2115 92.4596 68.9393 92.1194 68.8032 91.7338C68.6898 91.4163 68.5764 90.9173 68.5764 89.3523C68.5764 88.6038 68.5764 82.6388 68.5764 82.6388C68.5764 82.0264 68.2815 81.8676 67.9867 81.8676C67.7599 81.8676 67.5331 81.9583 67.397 82.0037C66.5805 82.2986 65.2877 82.6615 64.2443 82.9109C63.7227 83.047 63.4959 83.2058 63.4959 83.5233C63.4959 83.9316 63.9495 84.045 64.199 84.1584C64.6526 84.3398 64.9021 84.544 65.0382 84.9069C65.1742 85.2698 65.1969 85.7461 65.1969 86.4038V89.3523C65.1969 90.94 65.0835 91.4163 64.9701 91.7338C64.834 92.1194 64.5619 92.4596 64.1309 92.7091C63.8134 92.8905 63.5639 93.0266 63.5639 93.3668C63.5639 93.7524 63.9495 93.9565 64.4485 93.9565H69.3249C69.8238 93.9565 70.2094 93.7524 70.2094 93.3668C70.2094 93.0039 69.9372 92.8905 69.6424 92.7091ZM92.6968 92.6864C92.2432 92.4142 91.9937 92.1194 91.8576 91.7338C91.7442 91.4163 91.6308 90.9173 91.6308 89.3523V86.4945C91.6308 85.2924 91.4494 84.2945 90.9504 83.5006C90.2473 82.3893 88.9772 81.8676 87.7977 81.8676C86.3915 81.8676 85.0307 82.48 84.1688 83.7275C84.0781 83.8635 84.0327 83.8635 83.9874 83.8635C83.942 83.8635 83.8966 83.8409 83.8286 83.7275C83.1708 82.5254 81.9007 81.8676 80.5399 81.8676C79.1336 81.8676 77.7728 82.4573 76.8429 83.8182C76.7975 83.8862 76.7521 83.8862 76.7295 83.8862C76.6841 83.8862 76.6387 83.8409 76.6387 83.7728V82.6388C76.6387 82.0037 76.3439 81.8676 76.0264 81.8676C75.7995 81.8676 75.5954 81.9357 75.414 82.0037C74.5975 82.2986 73.35 82.6615 72.3294 82.9109C71.8077 83.047 71.5582 83.2285 71.5582 83.5233C71.5582 83.9543 72.0345 84.0677 72.2613 84.1584C72.7149 84.3398 72.9644 84.544 73.1005 84.9069C73.2366 85.2698 73.2593 85.7461 73.2593 86.4038V89.3523C73.2593 90.9173 73.1459 91.4163 73.0325 91.7338C72.8964 92.1194 72.6469 92.4596 72.1933 92.7091C71.8984 92.8679 71.6489 93.0266 71.6489 93.3668C71.6489 93.7524 72.0118 93.9565 72.5108 93.9565H77.3872C77.8862 93.9565 78.2718 93.7524 78.2718 93.3668C78.2718 93.0266 78.0223 92.8905 77.7047 92.7091C77.2738 92.4596 77.0016 92.1194 76.8655 91.7338C76.7748 91.4163 76.6387 90.9173 76.6387 89.3523C76.6387 86.9481 76.8202 85.7007 77.5913 84.9522C77.9769 84.5666 78.4532 84.4079 78.9068 84.4079C80.3357 84.4079 80.744 85.5873 80.744 86.7894V89.3523C80.744 91.0534 80.6986 91.6204 80.6306 91.8926C80.5625 92.2101 80.4038 92.4596 80.1316 92.6637C79.8594 92.8452 79.5419 93.0039 79.5419 93.3668C79.5419 93.7524 79.9275 93.9565 80.4038 93.9565H84.4863C84.9853 93.9565 85.3482 93.7524 85.3709 93.3668C85.3709 93.0039 85.008 92.8452 84.7812 92.6637C84.4863 92.4596 84.3276 92.2101 84.2595 91.8926C84.1915 91.6204 84.1461 91.0307 84.1461 89.3523C84.1461 87.0389 84.1688 85.7687 84.94 85.0203C85.3936 84.5666 85.9379 84.4079 86.4142 84.4079C87.7751 84.4079 88.2514 85.4512 88.2514 86.5172V89.3523C88.2514 90.9173 88.138 91.4163 88.0246 91.7338C87.8885 92.1194 87.6163 92.4142 87.1854 92.6864C86.8905 92.8679 86.6183 93.0266 86.6183 93.3668C86.6183 93.7524 87.0039 93.9565 87.5029 93.9565H92.3793C92.8783 93.9565 93.2412 93.7524 93.2638 93.3668C93.2638 93.0266 92.9917 92.8679 92.6968 92.6864ZM97.8649 85.9275C98.1144 84.4986 99.0216 83.5687 100.292 83.5687C101.448 83.5687 102.129 84.4986 102.129 85.3378C102.129 86.1997 101.517 86.3358 100.7 86.3358C100.7 86.3358 98.1144 86.3358 98.069 86.3358C97.9102 86.3358 97.8422 86.245 97.8422 86.1316C97.8422 86.0863 97.8422 86.0636 97.8649 85.9275ZM104.76 90.9627C104.216 90.9627 103.58 91.8926 101.789 91.8926C100.428 91.8926 99.2484 91.3936 98.4773 90.1915C98.001 89.443 97.9102 88.7173 97.8876 88.4904C97.8649 88.309 97.8649 88.2636 97.8649 88.2183C97.8649 88.0595 97.9783 88.0141 98.1144 88.0141H103.558C104.896 88.0141 105.486 87.81 105.486 86.4945C105.486 83.6594 102.968 81.8676 100.405 81.8676C96.8669 81.8676 94.3493 84.9522 94.3493 88.3544C94.3493 91.9153 96.8442 94.206 100.156 94.206C101.517 94.206 102.877 93.7978 103.898 93.1173C104.578 92.6637 105.259 91.9379 105.259 91.439C105.259 91.1668 105.009 90.9627 104.76 90.9627ZM120.589 92.6864C120.158 92.4369 119.864 92.0967 119.75 91.7338C119.659 91.4163 119.523 90.9173 119.523 89.3296V86.5399C119.523 85.3151 119.365 84.2945 118.843 83.5233C118.117 82.3893 116.87 81.8676 115.668 81.8676C114.261 81.8676 112.923 82.4573 111.993 83.7728C111.948 83.8409 111.903 83.8862 111.857 83.8862C111.812 83.8862 111.767 83.8409 111.767 83.7275V82.6388C111.767 82.0264 111.472 81.8676 111.177 81.8676C110.95 81.8676 110.769 81.913 110.519 82.0037C109.657 82.3212 108.546 82.6615 107.502 82.9109C106.981 83.0243 106.731 83.2285 106.731 83.546C106.731 83.9316 107.208 84.0677 107.457 84.1811C107.888 84.3625 108.115 84.5666 108.251 84.9295C108.387 85.2924 108.41 85.7687 108.41 86.4265V89.3296C108.41 90.9173 108.296 91.4163 108.183 91.7338C108.07 92.0967 107.797 92.4369 107.344 92.6864C107.049 92.8679 106.799 93.0266 106.799 93.3668C106.799 93.7524 107.162 93.9565 107.661 93.9565H112.515C113.014 93.9565 113.4 93.7524 113.4 93.3668C113.4 93.0266 113.127 92.8679 112.833 92.6864C112.379 92.4369 112.107 92.0967 111.993 91.7338C111.88 91.4163 111.767 90.9173 111.767 89.3296C111.767 87.0162 112.016 85.7914 112.787 85.0429C113.241 84.5893 113.808 84.4306 114.284 84.4306C115.554 84.4306 116.121 85.3378 116.121 86.5399V89.3296C116.121 90.9173 116.008 91.4163 115.894 91.7338C115.758 92.0967 115.509 92.4142 115.055 92.6864C114.76 92.8679 114.488 93.0266 114.488 93.3668C114.488 93.7524 114.874 93.9565 115.373 93.9565H120.272C120.771 93.9565 121.156 93.7524 121.156 93.3668C121.156 93.0266 120.907 92.8679 120.589 92.6864ZM128.972 88.309C128.972 89.6699 128.972 90.3503 128.677 90.9627C128.314 91.6885 127.611 92.0967 126.93 92.0967C126.091 92.0967 125.524 91.5524 125.524 90.7585C125.524 90.2822 125.751 89.7379 126.409 89.2616C127.202 88.6492 128.178 88.377 128.767 88.0141C128.835 87.9688 128.858 87.9461 128.904 87.9461C128.949 87.9461 128.972 87.9915 128.972 88.0822V88.309ZM133.53 92.1648C132.51 92.1194 132.51 91.4843 132.51 90.0554C132.51 88.5812 132.623 87.2203 132.623 85.7007C132.623 82.9336 129.901 81.8676 127.565 81.8676C126.409 81.8676 123.982 82.0944 123.233 83.047C122.916 83.4326 122.802 84.1357 122.802 84.7481C122.802 85.8141 123.052 86.177 123.8 86.177C124.776 86.177 124.866 84.8842 126.114 84.045C126.499 83.7728 126.976 83.614 127.497 83.614C128.427 83.614 128.972 84.1584 128.972 84.9522C128.972 85.9729 127.996 86.5399 127.27 86.8801C126.204 87.3564 124.64 87.7647 123.528 88.4224C122.417 89.0801 121.895 90.1462 121.895 91.1895C121.895 93.2308 123.687 94.206 125.479 94.206C126.84 94.206 128.268 93.6617 129.176 92.4823C129.244 92.3916 129.266 92.3689 129.289 92.3689C129.334 92.3689 129.334 92.4142 129.357 92.505C129.652 93.7071 130.627 94.206 131.603 94.206C132.283 94.206 133.054 93.9792 133.553 93.571C133.848 93.3215 134.097 93.0039 134.097 92.6637C134.097 92.3235 133.871 92.1874 133.53 92.1648ZM150.799 77.7624H147.011C146.557 77.7624 146.149 77.9211 146.149 78.3521C146.149 79.0552 147.329 78.8737 147.329 80.1665C147.329 80.5975 147.215 81.2552 146.807 82.2759C146.195 83.8409 144.131 88.7173 143.836 89.3977C143.79 89.5111 143.745 89.5791 143.677 89.5791C143.609 89.5791 143.564 89.4657 143.541 89.3977L140.116 80.3707C140.025 80.1212 139.98 79.9171 139.98 79.7356C139.98 78.8284 141.091 79.0098 141.091 78.3294C141.091 77.9665 140.774 77.7624 140.297 77.7624H135.172C134.537 77.7624 134.332 78.0572 134.332 78.3748C134.332 78.6242 134.514 78.783 134.741 78.8964C134.967 79.0098 135.262 79.1686 135.489 79.3727C135.784 79.6449 135.943 79.9851 136.351 81.0057L141.273 93.7978C141.363 94.0473 141.568 94.138 141.817 94.138H143.314C143.541 94.138 143.7 94.0246 143.813 93.7751L148.826 82.5027C149.279 81.482 149.642 80.7789 150.028 80.2119C150.595 79.3274 151.003 79.1232 151.32 78.8737C151.525 78.715 151.661 78.5789 151.661 78.3294C151.661 77.8985 151.252 77.7624 150.799 77.7624ZM161.822 77.5129C161.413 77.218 160.688 77.0139 159.78 77.0139C156.378 77.0139 154.133 79.2366 153.815 82.3666C153.793 82.5027 153.725 82.548 153.589 82.548C153.452 82.548 152.182 82.548 152.182 82.548C151.933 82.548 151.819 82.6841 151.819 82.8883V83.9316C151.819 84.1811 151.955 84.2491 152.182 84.2491C152.182 84.2491 153.43 84.2491 153.566 84.2491C153.702 84.2491 153.747 84.2945 153.747 84.4079C153.747 85.3151 153.77 87.81 153.77 89.375C153.77 90.94 153.634 91.439 153.543 91.7565C153.43 92.1194 153.158 92.4596 152.704 92.7091C152.409 92.8679 152.16 93.0266 152.16 93.3668C152.16 93.7524 152.522 93.9565 153.021 93.9565H157.943C158.42 93.9565 158.805 93.7524 158.805 93.3668C158.805 93.0266 158.556 92.8905 158.238 92.7091C157.807 92.4596 157.535 92.1194 157.422 91.7565C157.308 91.439 157.195 90.94 157.195 89.375C157.195 87.81 157.195 84.544 157.195 84.544C157.195 84.3398 157.285 84.2491 157.467 84.2491C157.671 84.2491 158.011 84.2491 158.578 84.2718C159.077 84.2945 159.417 84.3398 159.848 84.3398C160.461 84.3398 160.642 84.0677 160.778 83.4326C160.824 83.2058 160.869 83.047 160.869 82.8429C160.869 82.4346 160.461 82.3893 160.121 82.3893C159.69 82.3893 159.281 82.4573 158.805 82.5027C158.351 82.548 157.694 82.548 157.399 82.548C157.263 82.548 157.172 82.5027 157.172 82.3666C157.172 81.1191 157.263 78.8057 158.828 78.8057C160.302 78.8057 160.642 80.8923 161.572 80.8923C162.411 80.8923 162.525 80.1439 162.525 79.282C162.525 78.6696 162.389 77.9211 161.822 77.5129ZM166.114 91.9153C166.114 91.1895 164.572 89.6245 163.823 89.6245C163.097 89.6245 161.532 91.1895 161.532 91.9153C161.532 92.6411 163.097 94.206 163.823 94.206C164.572 94.206 166.114 92.6411 166.114 91.9153ZM178.097 91.4163C178.097 91.0987 177.847 90.94 177.621 90.94C177.076 90.94 176.192 91.9153 174.717 91.9153C172.2 91.9153 171.088 89.375 171.088 87.1523C171.088 85.111 172.109 83.5233 173.674 83.5233C174.627 83.5233 175.08 84.1357 175.511 84.7254C175.942 85.3151 176.146 85.9275 176.759 85.9275C177.552 85.9275 177.711 85.179 177.711 84.3172C177.711 83.7728 177.575 83.1604 177.212 82.7522C176.532 82.0037 175.103 81.8676 174.218 81.8676C170.249 81.8676 167.664 84.9069 167.664 88.6265C167.664 91.9606 169.886 94.206 173.22 94.206C174.808 94.206 176.078 93.7071 176.917 93.0266C177.666 92.4142 178.097 91.8019 178.097 91.4163ZM188.003 88.6038C188.003 90.7585 187.209 92.4596 185.622 92.4596C183.353 92.4596 182.809 88.7399 182.809 87.1523C182.809 84.8615 183.671 83.546 185.213 83.546C187.527 83.546 188.003 86.9708 188.003 88.6038ZM185.576 81.8676C181.925 81.8676 179.203 84.7027 179.203 88.1049C179.203 91.8245 181.766 94.206 185.395 94.206C188.933 94.206 191.632 91.3709 191.632 87.9688C191.632 84.4306 189.205 81.8676 185.576 81.8676ZM214.142 92.6864C213.688 92.4142 213.438 92.1194 213.302 91.7338C213.189 91.4163 213.076 90.9173 213.076 89.3523V86.4945C213.076 85.2924 212.894 84.2945 212.395 83.5006C211.692 82.3893 210.422 81.8676 209.242 81.8676C207.836 81.8676 206.475 82.48 205.614 83.7275C205.523 83.8635 205.477 83.8635 205.432 83.8635C205.387 83.8635 205.341 83.8409 205.273 83.7275C204.616 82.5254 203.345 81.8676 201.985 81.8676C200.578 81.8676 199.218 82.4573 198.288 83.8182C198.242 83.8862 198.197 83.8862 198.174 83.8862C198.129 83.8862 198.083 83.8409 198.083 83.7728V82.6388C198.083 82.0037 197.789 81.8676 197.471 81.8676C197.244 81.8676 197.04 81.9357 196.859 82.0037C196.042 82.2986 194.795 82.6615 193.774 82.9109C193.252 83.047 193.003 83.2285 193.003 83.5233C193.003 83.9543 193.479 84.0677 193.706 84.1584C194.16 84.3398 194.409 84.544 194.545 84.9069C194.681 85.2698 194.704 85.7461 194.704 86.4038V89.3523C194.704 90.9173 194.591 91.4163 194.477 91.7338C194.341 92.1194 194.092 92.4596 193.638 92.7091C193.343 92.8679 193.094 93.0266 193.094 93.3668C193.094 93.7524 193.457 93.9565 193.956 93.9565H198.832C199.331 93.9565 199.717 93.7524 199.717 93.3668C199.717 93.0266 199.467 92.8905 199.149 92.7091C198.719 92.4596 198.446 92.1194 198.31 91.7338C198.22 91.4163 198.083 90.9173 198.083 89.3523C198.083 86.9481 198.265 85.7007 199.036 84.9522C199.422 84.5666 199.898 84.4079 200.352 84.4079C201.78 84.4079 202.189 85.5873 202.189 86.7894V89.3523C202.189 91.0534 202.143 91.6204 202.075 91.8926C202.007 92.2101 201.849 92.4596 201.576 92.6637C201.304 92.8452 200.987 93.0039 200.987 93.3668C200.987 93.7524 201.372 93.9565 201.849 93.9565H205.931C206.43 93.9565 206.793 93.7524 206.816 93.3668C206.816 93.0039 206.453 92.8452 206.226 92.6637C205.931 92.4596 205.772 92.2101 205.704 91.8926C205.636 91.6204 205.591 91.0307 205.591 89.3523C205.591 87.0389 205.614 85.7687 206.385 85.0203C206.838 84.5666 207.383 84.4079 207.859 84.4079C209.22 84.4079 209.696 85.4512 209.696 86.5172V89.3523C209.696 90.9173 209.583 91.4163 209.469 91.7338C209.333 92.1194 209.061 92.4142 208.63 92.6864C208.335 92.8679 208.063 93.0266 208.063 93.3668C208.063 93.7524 208.449 93.9565 208.948 93.9565H213.824C214.323 93.9565 214.686 93.7524 214.709 93.3668C214.709 93.0266 214.436 92.8679 214.142 92.6864Z" fill="#00A0B0"/>
<rect width="106.163" height="100.651" rx="3.794" transform="matrix(1 0 0 -1 241.151 117.511)" fill="#004789"/>
<rect width="106.163" height="100.651" rx="3.794" transform="matrix(1 0 0 -1 240.056 118.675)" fill="#00A0B0"/>
<path fill-rule="evenodd" clip-rule="evenodd" d="M295.105 2.34129C294.642 1.8122 292.884 0.793718 289.551 0.952443C285.386 1.15085 273.684 3.33332 269.717 12.6584C267.783 16.1553 266.547 18.4525 265.652 20.1149C264.16 22.8856 263.618 23.8932 262.378 25.7532C262.301 25.8696 262.216 25.9954 262.126 26.1304C259.898 29.4451 253.974 38.2595 257.023 48.1731C256.34 48.7978 255.623 49.4187 254.898 50.046C248.254 55.7934 240.994 62.0751 254.048 76.7436C253.76 77.8145 253.258 79.1332 252.691 80.6219C250.529 86.3044 247.424 94.462 251.668 100.751C253.035 102.777 254.093 104.455 254.948 105.812C255.874 107.281 256.564 108.376 257.156 109.135L257.817 118.471H260.88H333.152H335.296V102.631C335.296 96.9642 332.928 92.6192 329.518 89.3123C332.026 88.463 334.651 85.6847 334.972 71.7835C337.947 71.7835 339.685 66.2281 339.685 61.8632C339.685 55.1174 335.567 50.9508 330.212 49.562C332.79 42.2209 328.823 35.0783 326.84 32.3006C326.242 31.2838 325.824 28.9868 325.315 26.1869C324.135 19.699 322.465 10.511 316.923 8.29347C314.972 7.51314 313.428 6.16162 311.871 4.799C308.192 1.57979 304.442 -1.70135 295.105 2.34129ZM268.537 42.1769C268.534 42.4541 268.534 42.7334 268.537 43.0149V42.1769Z" fill="#004789" fill-opacity="0.5"/>
<rect x="267.821" y="52.9355" width="47.365" height="43.6901" fill="#4E281E"/>
<path d="M272.824 81.3142C274.539 80.6609 279.595 80.4295 281.909 80.3955H307.02C309.879 80.3955 315.677 82.1104 316.412 82.8454C317.33 83.7641 302.835 102.547 292.627 102.547C282.419 102.547 270.68 82.1309 272.824 81.3142Z" fill="#EDB98A"/>
<path fill-rule="evenodd" clip-rule="evenodd" d="M303.549 76.662C300.269 78.2053 296.601 79.0689 292.729 79.0689C288.776 79.0689 285.035 78.1687 281.704 76.5641V67.3296H303.549V76.662Z" fill="#D5A77E"/>
<rect x="281.705" y="68.1455" width="21.845" height="14.9036" fill="#EDB98A"/>
<path d="M292.729 76.3122C306.541 76.3122 317.738 65.1151 317.738 51.3027V29.7639C316.105 27.2119 308.817 22.1079 292.729 22.1079C276.641 22.1079 269.353 27.2119 267.719 29.7639V51.3027C267.719 65.1151 278.916 76.3122 292.729 76.3122Z" fill="#EDB98A"/>
<path fill-rule="evenodd" clip-rule="evenodd" d="M281.704 80.3197V79.7041C282.681 80.9809 284.182 82.6535 285.933 84.0928C287.992 85.7846 290.367 87.1282 292.629 87.1679C294.888 87.2075 297.26 85.8835 299.318 84.18C301.07 82.7304 302.571 81.0262 303.549 79.7194V80.3437C302.561 81.6073 301.165 83.144 299.56 84.4723C297.483 86.1914 295.021 87.5893 292.623 87.5472C290.228 87.5052 287.77 86.093 285.692 84.3859C284.087 83.0667 282.691 81.5561 281.704 80.3197Z" fill="#001F47"/>
<path d="M291.257 88.8057C291.32 88.8337 291.372 88.8818 291.421 88.9302C291.51 89.0249 291.591 89.13 291.666 89.2357C291.764 89.0672 291.863 88.8988 291.962 88.7272C291.9 88.6517 291.839 88.5793 291.765 88.5145C291.633 88.3992 291.559 88.3534 291.406 88.4045C291.297 88.4414 290.766 88.615 290.861 88.8006C290.903 88.8972 291.167 88.7679 291.257 88.8057Z" fill="#001F47" fill-opacity="0.5"/>
<path d="M292.52 90.1988C292.557 90.1348 292.595 90.0708 292.629 90.0071C292.645 89.9802 292.658 89.9504 292.674 89.9234C292.621 89.7554 292.492 89.5859 292.41 89.4337C292.319 89.2603 292.222 89.0938 292.11 88.9352C292.106 88.9261 292.099 88.9206 292.095 88.9115C292.045 89.0022 291.995 89.0959 291.944 89.1834C291.896 89.2675 291.845 89.3488 291.794 89.4301C292.001 89.7489 292.185 90.0798 292.375 90.41L292.379 90.4128C292.387 90.3993 292.395 90.389 292.406 90.3752C292.444 90.3205 292.485 90.2593 292.52 90.1988Z" fill="#001F47" fill-opacity="0.5"/>
<path d="M292.513 87.8613C292.519 87.7975 292.538 87.7734 292.572 87.7381C292.635 87.6777 292.706 87.6291 292.784 87.5892C292.796 87.5848 292.805 87.5775 292.814 87.5765C292.848 87.5697 292.885 87.591 292.904 87.6206C293.134 87.9687 293.289 88.4132 293.48 88.7875C293.568 88.9612 293.66 89.1378 293.748 89.3115C293.788 89.3925 293.95 89.8173 294.02 89.8162C294.064 89.8146 294.098 89.7856 294.134 89.7629C294.223 89.7061 294.368 89.6463 294.346 89.7971C294.336 89.8803 294.188 89.9688 294.127 90.0195C294.077 90.0595 293.711 90.3007 293.659 90.2842C293.643 90.2796 293.635 90.2647 293.624 90.2532C293.423 89.9652 293.331 89.574 293.177 89.2557C292.998 88.8801 292.794 88.5134 292.582 88.1539C292.575 88.1452 292.57 88.1331 292.563 88.1244C292.524 88.0528 292.503 87.9508 292.513 87.8613Z" fill="#001F47" fill-opacity="0.5"/>
<path d="M292.513 87.8604C292.515 87.8254 292.522 87.8025 292.533 87.7824C292.322 88.0291 292.207 88.3068 292.044 88.5863C291.889 88.8491 291.737 89.1117 291.582 89.3746C291.451 89.597 291.322 89.8128 291.188 90.0356C291.134 90.1234 291.025 90.2804 290.988 90.5812C290.963 90.7986 291.442 89.9895 291.525 89.8511C291.666 89.6309 291.81 89.4102 291.94 89.1847C292.066 88.9723 292.175 88.7522 292.297 88.5339C292.409 88.3357 292.517 88.1978 292.561 88.1078C292.522 88.0394 292.506 87.9432 292.513 87.8604Z" fill="#001F47" fill-opacity="0.5"/>
<path d="M293.48 88.7872C293.504 88.832 293.527 88.8768 293.548 88.922C293.71 88.6647 293.872 88.4105 294.049 88.1706C294.06 88.1568 294.068 88.1433 294.069 88.1242C294.068 88.0802 293.998 88.0781 293.963 88.1071C293.866 88.1774 293.758 88.2016 293.667 88.2872C293.569 88.3797 293.496 88.4949 293.426 88.6097C293.421 88.6198 293.416 88.6298 293.407 88.6402C293.432 88.6913 293.456 88.7392 293.48 88.7872Z" fill="#001F47" fill-opacity="0.5"/>
<path d="M293.182 89.255C293.162 89.2161 293.145 89.1768 293.125 89.1348C293.109 89.1618 293.093 89.1919 293.077 89.2188C293.037 89.2863 293 89.3565 292.96 89.424C292.92 89.4914 292.88 89.5589 292.84 89.6263C292.826 89.6499 292.81 89.6737 292.797 89.6972C292.783 89.7208 292.772 89.7377 292.754 89.7681C292.746 89.7816 292.735 89.7986 292.727 89.8152C292.696 89.8785 292.662 89.9422 292.627 90.0058C292.593 90.0695 292.556 90.1335 292.518 90.1975C292.481 90.2584 292.443 90.3192 292.402 90.3773C292.394 90.3908 292.385 90.4012 292.374 90.415C292.397 90.4473 292.413 90.4519 292.437 90.443C292.462 90.4372 292.482 90.4161 292.499 90.3985C292.782 90.0967 293.018 89.7557 293.245 89.403C293.227 89.3544 293.206 89.303 293.182 89.255Z" fill="#001F47" fill-opacity="0.5"/>
<path d="M291.256 88.6251C291.319 88.6531 291.371 88.7011 291.42 88.7495C291.509 88.8442 291.59 88.9493 291.665 89.055C291.763 88.8866 291.862 88.7181 291.961 88.5465C291.899 88.471 291.838 88.3987 291.764 88.3338C291.632 88.2185 291.558 88.1728 291.405 88.2238C291.296 88.2608 290.765 88.4343 290.86 88.6199C290.902 88.7165 291.166 88.5872 291.256 88.6251Z" fill="#00A0B0"/>
<path d="M292.519 90.0181C292.557 89.9541 292.594 89.8901 292.628 89.8265C292.644 89.7995 292.657 89.7697 292.673 89.7427C292.62 89.5747 292.492 89.4053 292.409 89.253C292.318 89.0796 292.221 88.9131 292.11 88.7545C292.106 88.7455 292.099 88.7399 292.095 88.7309C292.044 88.8215 291.994 88.9153 291.944 89.0028C291.896 89.0868 291.844 89.1681 291.793 89.2494C292.001 89.5683 292.185 89.8992 292.375 90.2294L292.378 90.2322C292.386 90.2187 292.394 90.2083 292.406 90.1945C292.444 90.1399 292.485 90.0787 292.519 90.0181Z" fill="#00A0B0"/>
<path d="M292.512 87.6792C292.518 87.6154 292.538 87.5912 292.572 87.556C292.635 87.4956 292.705 87.447 292.783 87.4071C292.795 87.4026 292.804 87.3954 292.814 87.3944C292.848 87.3876 292.885 87.4089 292.904 87.4385C293.133 87.7865 293.288 88.2311 293.48 88.6053C293.568 88.7791 293.659 88.9556 293.747 89.1294C293.788 89.2104 293.95 89.6351 294.019 89.634C294.063 89.6325 294.098 89.6035 294.133 89.5808C294.222 89.5239 294.367 89.4642 294.346 89.615C294.335 89.6982 294.187 89.7866 294.126 89.8374C294.077 89.8774 293.711 90.1186 293.659 90.102C293.642 90.0975 293.634 90.0825 293.624 90.071C293.422 89.7831 293.33 89.3919 293.176 89.0736C292.997 88.698 292.794 88.3313 292.582 87.9718C292.574 87.9631 292.57 87.951 292.563 87.9423C292.523 87.8707 292.503 87.7686 292.512 87.6792Z" fill="#00A0B0"/>
<path d="M292.513 87.6802C292.516 87.6452 292.523 87.6223 292.533 87.6023C292.323 87.849 292.207 88.1266 292.044 88.4061C291.889 88.669 291.737 88.9315 291.582 89.1944C291.451 89.4168 291.323 89.6327 291.189 89.8554C291.135 89.9433 291.025 90.1002 290.988 90.4011C290.964 90.6184 291.443 89.8093 291.526 89.671C291.666 89.4507 291.81 89.23 291.941 89.0045C292.067 88.7921 292.176 88.572 292.298 88.3538C292.409 88.1555 292.518 88.0176 292.562 87.9277C292.523 87.8592 292.506 87.7631 292.513 87.6802Z" fill="#004789"/>
<path d="M293.48 88.6055C293.503 88.6504 293.527 88.6952 293.548 88.7404C293.71 88.483 293.872 88.2289 294.048 87.9889C294.06 87.9751 294.068 87.9616 294.069 87.9426C294.067 87.8985 293.997 87.8965 293.963 87.9255C293.866 87.9958 293.758 88.02 293.666 88.1056C293.569 88.1981 293.496 88.3133 293.426 88.4281C293.421 88.4381 293.415 88.4482 293.407 88.4585C293.431 88.5096 293.455 88.5576 293.48 88.6055Z" fill="#004789"/>
<path d="M293.181 89.0734C293.162 89.0344 293.145 88.9952 293.124 88.9531C293.108 88.9801 293.093 89.0102 293.077 89.0372C293.036 89.1047 293 89.1749 292.96 89.2423C292.919 89.3098 292.879 89.3772 292.839 89.4447C292.826 89.4682 292.809 89.4921 292.796 89.5156C292.783 89.5391 292.772 89.5561 292.753 89.5865C292.745 89.6 292.734 89.6169 292.727 89.6336C292.695 89.6969 292.661 89.7605 292.627 89.8242C292.593 89.8879 292.555 89.9519 292.518 90.0158C292.48 90.0767 292.443 90.1376 292.401 90.1957C292.393 90.2092 292.385 90.2195 292.374 90.2334C292.396 90.2657 292.413 90.2703 292.437 90.2614C292.461 90.2556 292.481 90.2345 292.498 90.2169C292.782 89.915 293.017 89.5741 293.245 89.2214C293.227 89.1727 293.206 89.1213 293.181 89.0734Z" fill="#004789"/>
<path opacity="0.2" d="M260.063 102.387C260.063 85.5364 270.585 80.9492 275.942 80.8556C275.781 81.8854 277.27 85.4053 283.737 90.4979C290.762 96.4893 290.762 97.6126 292.783 97.6126C294.804 97.6126 302.888 89.6554 305.582 86.1917C307.738 83.4207 308.277 81.1053 308.277 80.2939C316.296 81.823 332.335 88.3822 332.335 102.387V118.676H260.063V102.387Z" fill="#25557C"/>
<path d="M255.979 104.257C255.979 85.9802 268.978 81.0047 274.66 80.9032C274.49 82.0201 276.069 85.838 282.929 91.3618C290.38 97.8603 290.38 99.0788 292.524 99.0788C294.668 99.0788 303.242 90.4479 306.101 86.6909C308.387 83.6854 308.959 81.174 308.959 80.2939C317.465 81.9524 334.479 87.6454 334.479 102.836V118.676H257L255.979 104.257Z" fill="#000813"/>
<path d="M287.215 61.2046C287.454 62.2594 288.889 64.3691 292.728 64.3691C296.566 64.3691 298.002 62.2594 298.24 61.2046" stroke="#633724" stroke-width="1.897" stroke-linecap="round"/>
<path d="M292.932 64.2665C289.094 64.2665 287.658 62.1569 287.42 61.1021H298.445C298.206 62.1569 296.77 64.2665 292.932 64.2665Z" fill="#633724" stroke="#633724" stroke-width="1.897" stroke-linecap="round" stroke-linejoin="round"/>
<path d="M292.543 54.9472C294.426 54.9472 295.987 53.6718 296.266 52.0059C296.315 51.7126 296.069 51.4697 295.772 51.4697H292.543H289.314C289.017 51.4697 288.771 51.7126 288.82 52.0059C289.1 53.6718 290.66 54.9472 292.543 54.9472Z" fill="#C19772"/>
<circle opacity="0.08" cx="306.713" cy="57.7352" r="4.59358" fill="#FE5070"/>
<circle opacity="0.08" cx="278.335" cy="57.7352" r="4.59358" fill="#FE5070"/>
<path fill-rule="evenodd" clip-rule="evenodd" d="M274.457 43.953C274.457 44.3524 274.976 44.3921 275.267 44.1188C275.683 43.7284 276.241 43.3998 276.896 43.1601C276.712 43.521 276.608 43.9294 276.608 44.3619C276.608 45.8277 277.797 47.016 279.263 47.016C280.728 47.016 281.917 45.8277 281.917 44.3619C281.917 43.8667 281.781 43.4031 281.545 43.0064C282.406 43.2488 283.136 43.6368 283.65 44.1188C283.942 44.3921 284.46 44.3524 284.46 43.953C284.46 42.2617 282.221 40.8906 279.459 40.8906C276.696 40.8906 274.457 42.2617 274.457 43.953Z" fill="#633724"/>
<path d="M272.79 36.5901C272.557 37.0593 272.748 37.6285 273.217 37.8614C273.687 38.0943 274.256 37.9027 274.489 37.4335L272.79 36.5901ZM285.22 34.9197C285.724 35.0635 286.249 34.7716 286.392 34.2679C286.536 33.7642 286.244 33.2393 285.741 33.0956L285.22 34.9197ZM274.489 37.4335C275.186 36.0298 278.351 32.9597 285.22 34.9197L285.741 33.0956C278.104 30.9166 273.943 34.2665 272.79 36.5901L274.489 37.4335Z" fill="#633724"/>
<path fill-rule="evenodd" clip-rule="evenodd" d="M300.685 43.953C300.685 44.3524 301.204 44.3921 301.495 44.1188C301.911 43.7285 302.469 43.3999 303.123 43.1603C302.94 43.5211 302.836 43.9294 302.836 44.3619C302.836 45.8277 304.024 47.016 305.49 47.016C306.956 47.016 308.144 45.8277 308.144 44.3619C308.144 43.8666 308.009 43.4031 307.773 43.0063C308.634 43.2487 309.364 43.6367 309.878 44.1188C310.17 44.3921 310.688 44.3524 310.688 43.953C310.688 42.2617 308.449 40.8906 305.687 40.8906C302.924 40.8906 300.685 42.2617 300.685 43.953Z" fill="#633724"/>
<path d="M299.451 33.0756C299.014 33.3655 298.896 33.9542 299.186 34.3905C299.475 34.8269 300.064 34.9455 300.5 34.6557L299.451 33.0756ZM311.051 37.8444C311.415 38.2207 312.016 38.2304 312.392 37.866C312.769 37.5017 312.778 36.9012 312.414 36.5248L311.051 37.8444ZM300.5 34.6557C301.806 33.7884 306.082 32.7123 311.051 37.8444L312.414 36.5248C306.89 30.8197 301.611 31.64 299.451 33.0756L300.5 34.6557Z" fill="#633724"/>
<path opacity="0.1" d="M297.117 44.3611C297.117 39.9637 295.896 38.2363 292.626 38.2363C289.356 38.2363 288.339 39.9637 288.339 44.3611M265.064 40.0738H269.76M315.798 40.0738H319.779" stroke="#000813" stroke-width="1.897" stroke-linecap="round" stroke-linejoin="round"/>
<path d="M297.117 43.5447C297.117 39.1473 295.896 37.4199 292.626 37.4199C289.356 37.4199 288.339 39.1473 288.339 43.5447M265.064 39.2574H269.76M315.39 39.2574H319.779" stroke="#000813" stroke-width="1.897" stroke-linecap="round" stroke-linejoin="round"/>
<circle opacity="0.2" cx="278.744" cy="44.3619" r="9.66778" stroke="#000813" stroke-width="1.897"/>
<circle opacity="0.2" cx="306.713" cy="44.3619" r="9.66778" stroke="#000813" stroke-width="1.897"/>
<circle cx="278.744" cy="43.545" r="9.66778" stroke="#000813" stroke-width="1.897"/>
<circle cx="306.713" cy="43.545" r="9.66778" stroke="#000813" stroke-width="1.897"/>
<path d="M291.23 24.3885C283.48 30.1026 272.871 31.7453 268.229 32.076L267.719 28.5388H268.229C280.785 30.07 291.912 20.0662 294.157 20.1683C296.403 20.2703 299.363 23.2306 300.078 24.3885C300.793 25.5464 306.611 26.7014 312.021 27.518C317.432 28.3346 317.84 29.9679 317.329 30.4783C316.921 30.8866 314.856 31.1481 313.875 31.2279C308.223 32.2199 307.788 29.2983 301.531 29.0999C295.274 28.9015 295.67 20.4204 291.23 24.3885Z" fill="#C19772"/>
<path d="M288.734 1.15703C292.067 0.998308 293.825 2.01679 294.288 2.54588C307.577 -3.2079 309.548 5.87417 316.106 8.49806C324.039 11.6726 324.039 29.1323 326.023 32.5052C328.006 35.2829 331.973 42.4255 329.395 49.7666C334.75 51.1554 338.869 55.3219 338.869 62.0678C338.869 66.4327 337.13 71.9881 334.155 71.9881C333.56 97.7809 325.031 85.2813 324.039 93.2175C325.428 109.487 332.568 105.717 331.973 110.479C330.188 114.844 317.692 115.439 308.767 110.479C293.137 98.7729 308.767 82.5388 311.103 76.9482C312.332 74.0064 310.909 70.877 313.131 66.4327C316.621 61.3535 318.356 43.8506 317.432 36.9092C317.069 34.1863 318.2 29.2762 313.757 30.0698C308.203 31.0619 307.775 28.1403 301.627 27.9419C295.478 27.7435 295.867 19.2624 291.504 23.2305C283.887 28.9446 273.462 30.5873 268.9 30.918C267.776 37.6638 266.049 49.4208 271.795 62.5543C275.654 71.3748 275.049 75.9562 275.049 79.5275C275.049 84.6861 266.718 86.6701 265.528 91.6303C267.313 101.154 274.255 96.1936 275.049 98.7729C269.892 102.146 265.528 98.7729 263.743 97.1857C264.338 102.543 267.115 100.955 265.528 102.146C262.038 101.828 261.429 98.7068 261.562 97.1857C260.768 97.3179 259.181 98.4951 259.181 102.146C259.181 106.709 261.562 108.693 259.181 110.479C256.801 111.471 256.206 108.892 250.851 100.955C245.496 93.0191 251.843 82.1068 253.231 76.9482C238.752 60.6789 249.264 54.7267 256.206 48.3777C253.033 38.0606 259.578 28.9339 261.562 25.9578C263.545 22.9817 263.743 22.1881 268.9 12.863C272.867 3.53791 284.569 1.35544 288.734 1.15703Z" fill="#633724"/>
<path d="M288.237 18.0245C286.467 20.5425 281.785 25.3742 277.212 24.5576M288.237 10.0623C287.284 12.3081 284.154 17.0445 279.254 18.0245M300.486 18.0245C300.486 19.7258 301.507 23.0468 305.59 22.7202M308.653 18.0245C309.81 20.4064 313.144 24.6801 317.227 22.7202M304.365 10.0623C307.564 10.1304 314.165 11.2873 314.982 15.3704M327.027 52.7316C324.509 53.0038 319.555 55.1815 319.881 61.7146M330.498 58.8564C332.335 59.3327 335.642 61.2655 334.173 65.1853M329.273 65.1853C326.483 64.9812 320.698 66.4103 319.881 73.76M328.048 75.3933C327.299 78.6598 324.087 84.7438 317.227 82.9472M313.552 90.5011C312.396 92.1343 313.307 95.6867 317.227 99.2799C322.127 103.771 320.698 101.73 323.148 108.059M311.103 102.955C312.736 103.227 316.247 104.629 317.227 108.059M257.409 54.9773C253.938 56.5426 248.344 61.8779 253.734 70.6976M263.738 29.6616C261.356 31.8393 257.204 38.3588 259.654 47.0151M262.717 51.5066C263.601 55.1135 263.778 62.8987 257.409 65.1853M268.025 61.7146C267.617 63.8243 265.493 68.411 260.267 69.881M255.98 82.9472C254.278 85.3971 251.161 91.5627 252.305 96.6258M257.409 73.76C257.204 74.5766 257.776 76.7407 261.696 78.864C265.616 80.9872 266.732 83.6958 266.8 84.7846M269.862 69.881C270.883 71.5143 272.312 75.5974 269.862 78.864M260.267 87.2345C258.566 88.1192 255.612 90.8277 257.409 94.5843M254.959 99.2799C254.823 101.662 255.122 105.527 257.409 106.834M322.127 34.3573C323.556 37.0113 325.761 43.5853 323.148 48.6484M281.295 9.0415C277.688 9.72203 270.597 13.4105 271.087 22.7202" stroke="#4E281E" stroke-width="0.758799" stroke-linecap="round"/>
</svg>
